G04 #@! TF.GenerationSoftware,KiCad,Pcbnew,(5.1.4)-1*
G04 #@! TF.CreationDate,2021-01-15T16:27:36-05:00*
G04 #@! TF.ProjectId,proto,70726f74-6f2e-46b6-9963-61645f706362,rev?*
G04 #@! TF.SameCoordinates,Original*
G04 #@! TF.FileFunction,Paste,Bot*
G04 #@! TF.FilePolarity,Positive*
%FSLAX46Y46*%
G04 Gerber Fmt 4.6, Leading zero omitted, Abs format (unit mm)*
G04 Created by KiCad (PCBNEW (5.1.4)-1) date 2021-01-15 16:27:36*
%MOMM*%
%LPD*%
G04 APERTURE LIST*
%ADD10C,0.100000*%
%ADD11C,0.975000*%
%ADD12R,0.500000X2.250000*%
%ADD13R,1.200000X1.400000*%
%ADD14R,1.500000X0.550000*%
%ADD15R,0.550000X1.500000*%
%ADD16R,1.100000X1.800000*%
%ADD17C,1.250000*%
%ADD18R,1.200000X0.900000*%
%ADD19C,0.900000*%
G04 APERTURE END LIST*
D10*
G36*
X176324342Y-113381874D02*
G01*
X176348003Y-113385384D01*
X176371207Y-113391196D01*
X176393729Y-113399254D01*
X176415353Y-113409482D01*
X176435870Y-113421779D01*
X176455083Y-113436029D01*
X176472807Y-113452093D01*
X176488871Y-113469817D01*
X176503121Y-113489030D01*
X176515418Y-113509547D01*
X176525646Y-113531171D01*
X176533704Y-113553693D01*
X176539516Y-113576897D01*
X176543026Y-113600558D01*
X176544200Y-113624450D01*
X176544200Y-114111950D01*
X176543026Y-114135842D01*
X176539516Y-114159503D01*
X176533704Y-114182707D01*
X176525646Y-114205229D01*
X176515418Y-114226853D01*
X176503121Y-114247370D01*
X176488871Y-114266583D01*
X176472807Y-114284307D01*
X176455083Y-114300371D01*
X176435870Y-114314621D01*
X176415353Y-114326918D01*
X176393729Y-114337146D01*
X176371207Y-114345204D01*
X176348003Y-114351016D01*
X176324342Y-114354526D01*
X176300450Y-114355700D01*
X175387950Y-114355700D01*
X175364058Y-114354526D01*
X175340397Y-114351016D01*
X175317193Y-114345204D01*
X175294671Y-114337146D01*
X175273047Y-114326918D01*
X175252530Y-114314621D01*
X175233317Y-114300371D01*
X175215593Y-114284307D01*
X175199529Y-114266583D01*
X175185279Y-114247370D01*
X175172982Y-114226853D01*
X175162754Y-114205229D01*
X175154696Y-114182707D01*
X175148884Y-114159503D01*
X175145374Y-114135842D01*
X175144200Y-114111950D01*
X175144200Y-113624450D01*
X175145374Y-113600558D01*
X175148884Y-113576897D01*
X175154696Y-113553693D01*
X175162754Y-113531171D01*
X175172982Y-113509547D01*
X175185279Y-113489030D01*
X175199529Y-113469817D01*
X175215593Y-113452093D01*
X175233317Y-113436029D01*
X175252530Y-113421779D01*
X175273047Y-113409482D01*
X175294671Y-113399254D01*
X175317193Y-113391196D01*
X175340397Y-113385384D01*
X175364058Y-113381874D01*
X175387950Y-113380700D01*
X176300450Y-113380700D01*
X176324342Y-113381874D01*
X176324342Y-113381874D01*
G37*
D11*
X175844200Y-113868200D03*
D10*
G36*
X176324342Y-115256874D02*
G01*
X176348003Y-115260384D01*
X176371207Y-115266196D01*
X176393729Y-115274254D01*
X176415353Y-115284482D01*
X176435870Y-115296779D01*
X176455083Y-115311029D01*
X176472807Y-115327093D01*
X176488871Y-115344817D01*
X176503121Y-115364030D01*
X176515418Y-115384547D01*
X176525646Y-115406171D01*
X176533704Y-115428693D01*
X176539516Y-115451897D01*
X176543026Y-115475558D01*
X176544200Y-115499450D01*
X176544200Y-115986950D01*
X176543026Y-116010842D01*
X176539516Y-116034503D01*
X176533704Y-116057707D01*
X176525646Y-116080229D01*
X176515418Y-116101853D01*
X176503121Y-116122370D01*
X176488871Y-116141583D01*
X176472807Y-116159307D01*
X176455083Y-116175371D01*
X176435870Y-116189621D01*
X176415353Y-116201918D01*
X176393729Y-116212146D01*
X176371207Y-116220204D01*
X176348003Y-116226016D01*
X176324342Y-116229526D01*
X176300450Y-116230700D01*
X175387950Y-116230700D01*
X175364058Y-116229526D01*
X175340397Y-116226016D01*
X175317193Y-116220204D01*
X175294671Y-116212146D01*
X175273047Y-116201918D01*
X175252530Y-116189621D01*
X175233317Y-116175371D01*
X175215593Y-116159307D01*
X175199529Y-116141583D01*
X175185279Y-116122370D01*
X175172982Y-116101853D01*
X175162754Y-116080229D01*
X175154696Y-116057707D01*
X175148884Y-116034503D01*
X175145374Y-116010842D01*
X175144200Y-115986950D01*
X175144200Y-115499450D01*
X175145374Y-115475558D01*
X175148884Y-115451897D01*
X175154696Y-115428693D01*
X175162754Y-115406171D01*
X175172982Y-115384547D01*
X175185279Y-115364030D01*
X175199529Y-115344817D01*
X175215593Y-115327093D01*
X175233317Y-115311029D01*
X175252530Y-115296779D01*
X175273047Y-115284482D01*
X175294671Y-115274254D01*
X175317193Y-115266196D01*
X175340397Y-115260384D01*
X175364058Y-115256874D01*
X175387950Y-115255700D01*
X176300450Y-115255700D01*
X176324342Y-115256874D01*
X176324342Y-115256874D01*
G37*
D11*
X175844200Y-115743200D03*
D10*
G36*
X181328142Y-115259174D02*
G01*
X181351803Y-115262684D01*
X181375007Y-115268496D01*
X181397529Y-115276554D01*
X181419153Y-115286782D01*
X181439670Y-115299079D01*
X181458883Y-115313329D01*
X181476607Y-115329393D01*
X181492671Y-115347117D01*
X181506921Y-115366330D01*
X181519218Y-115386847D01*
X181529446Y-115408471D01*
X181537504Y-115430993D01*
X181543316Y-115454197D01*
X181546826Y-115477858D01*
X181548000Y-115501750D01*
X181548000Y-115989250D01*
X181546826Y-116013142D01*
X181543316Y-116036803D01*
X181537504Y-116060007D01*
X181529446Y-116082529D01*
X181519218Y-116104153D01*
X181506921Y-116124670D01*
X181492671Y-116143883D01*
X181476607Y-116161607D01*
X181458883Y-116177671D01*
X181439670Y-116191921D01*
X181419153Y-116204218D01*
X181397529Y-116214446D01*
X181375007Y-116222504D01*
X181351803Y-116228316D01*
X181328142Y-116231826D01*
X181304250Y-116233000D01*
X180391750Y-116233000D01*
X180367858Y-116231826D01*
X180344197Y-116228316D01*
X180320993Y-116222504D01*
X180298471Y-116214446D01*
X180276847Y-116204218D01*
X180256330Y-116191921D01*
X180237117Y-116177671D01*
X180219393Y-116161607D01*
X180203329Y-116143883D01*
X180189079Y-116124670D01*
X180176782Y-116104153D01*
X180166554Y-116082529D01*
X180158496Y-116060007D01*
X180152684Y-116036803D01*
X180149174Y-116013142D01*
X180148000Y-115989250D01*
X180148000Y-115501750D01*
X180149174Y-115477858D01*
X180152684Y-115454197D01*
X180158496Y-115430993D01*
X180166554Y-115408471D01*
X180176782Y-115386847D01*
X180189079Y-115366330D01*
X180203329Y-115347117D01*
X180219393Y-115329393D01*
X180237117Y-115313329D01*
X180256330Y-115299079D01*
X180276847Y-115286782D01*
X180298471Y-115276554D01*
X180320993Y-115268496D01*
X180344197Y-115262684D01*
X180367858Y-115259174D01*
X180391750Y-115258000D01*
X181304250Y-115258000D01*
X181328142Y-115259174D01*
X181328142Y-115259174D01*
G37*
D11*
X180848000Y-115745500D03*
D10*
G36*
X181328142Y-113384174D02*
G01*
X181351803Y-113387684D01*
X181375007Y-113393496D01*
X181397529Y-113401554D01*
X181419153Y-113411782D01*
X181439670Y-113424079D01*
X181458883Y-113438329D01*
X181476607Y-113454393D01*
X181492671Y-113472117D01*
X181506921Y-113491330D01*
X181519218Y-113511847D01*
X181529446Y-113533471D01*
X181537504Y-113555993D01*
X181543316Y-113579197D01*
X181546826Y-113602858D01*
X181548000Y-113626750D01*
X181548000Y-114114250D01*
X181546826Y-114138142D01*
X181543316Y-114161803D01*
X181537504Y-114185007D01*
X181529446Y-114207529D01*
X181519218Y-114229153D01*
X181506921Y-114249670D01*
X181492671Y-114268883D01*
X181476607Y-114286607D01*
X181458883Y-114302671D01*
X181439670Y-114316921D01*
X181419153Y-114329218D01*
X181397529Y-114339446D01*
X181375007Y-114347504D01*
X181351803Y-114353316D01*
X181328142Y-114356826D01*
X181304250Y-114358000D01*
X180391750Y-114358000D01*
X180367858Y-114356826D01*
X180344197Y-114353316D01*
X180320993Y-114347504D01*
X180298471Y-114339446D01*
X180276847Y-114329218D01*
X180256330Y-114316921D01*
X180237117Y-114302671D01*
X180219393Y-114286607D01*
X180203329Y-114268883D01*
X180189079Y-114249670D01*
X180176782Y-114229153D01*
X180166554Y-114207529D01*
X180158496Y-114185007D01*
X180152684Y-114161803D01*
X180149174Y-114138142D01*
X180148000Y-114114250D01*
X180148000Y-113626750D01*
X180149174Y-113602858D01*
X180152684Y-113579197D01*
X180158496Y-113555993D01*
X180166554Y-113533471D01*
X180176782Y-113511847D01*
X180189079Y-113491330D01*
X180203329Y-113472117D01*
X180219393Y-113454393D01*
X180237117Y-113438329D01*
X180256330Y-113424079D01*
X180276847Y-113411782D01*
X180298471Y-113401554D01*
X180320993Y-113393496D01*
X180344197Y-113387684D01*
X180367858Y-113384174D01*
X180391750Y-113383000D01*
X181304250Y-113383000D01*
X181328142Y-113384174D01*
X181328142Y-113384174D01*
G37*
D11*
X180848000Y-113870500D03*
D12*
X4750000Y-36250000D03*
X5550000Y-36250000D03*
X6350000Y-36250000D03*
X7150000Y-36250000D03*
X7950000Y-36250000D03*
D13*
X52490000Y-141140000D03*
X52490000Y-143340000D03*
X54190000Y-143340000D03*
X54190000Y-141140000D03*
D14*
X70470000Y-146240000D03*
X70470000Y-145440000D03*
X70470000Y-144640000D03*
X70470000Y-143840000D03*
X70470000Y-143040000D03*
X70470000Y-142240000D03*
X70470000Y-141440000D03*
X70470000Y-140640000D03*
X70470000Y-139840000D03*
X70470000Y-139040000D03*
X70470000Y-138240000D03*
D15*
X68770000Y-136540000D03*
X67970000Y-136540000D03*
X67170000Y-136540000D03*
X66370000Y-136540000D03*
X65570000Y-136540000D03*
X64770000Y-136540000D03*
X63970000Y-136540000D03*
X63170000Y-136540000D03*
X62370000Y-136540000D03*
X61570000Y-136540000D03*
X60770000Y-136540000D03*
D14*
X59070000Y-138240000D03*
X59070000Y-139040000D03*
X59070000Y-139840000D03*
X59070000Y-140640000D03*
X59070000Y-141440000D03*
X59070000Y-142240000D03*
X59070000Y-143040000D03*
X59070000Y-143840000D03*
X59070000Y-144640000D03*
X59070000Y-145440000D03*
X59070000Y-146240000D03*
D15*
X60770000Y-147940000D03*
X61570000Y-147940000D03*
X62370000Y-147940000D03*
X63170000Y-147940000D03*
X63970000Y-147940000D03*
X64770000Y-147940000D03*
X65570000Y-147940000D03*
X66370000Y-147940000D03*
X67170000Y-147940000D03*
X67970000Y-147940000D03*
X68770000Y-147940000D03*
D16*
X32440000Y-144070000D03*
X36140000Y-137870000D03*
X36140000Y-144070000D03*
X32440000Y-137870000D03*
D10*
G36*
X69281742Y-132651174D02*
G01*
X69305403Y-132654684D01*
X69328607Y-132660496D01*
X69351129Y-132668554D01*
X69372753Y-132678782D01*
X69393270Y-132691079D01*
X69412483Y-132705329D01*
X69430207Y-132721393D01*
X69446271Y-132739117D01*
X69460521Y-132758330D01*
X69472818Y-132778847D01*
X69483046Y-132800471D01*
X69491104Y-132822993D01*
X69496916Y-132846197D01*
X69500426Y-132869858D01*
X69501600Y-132893750D01*
X69501600Y-133806250D01*
X69500426Y-133830142D01*
X69496916Y-133853803D01*
X69491104Y-133877007D01*
X69483046Y-133899529D01*
X69472818Y-133921153D01*
X69460521Y-133941670D01*
X69446271Y-133960883D01*
X69430207Y-133978607D01*
X69412483Y-133994671D01*
X69393270Y-134008921D01*
X69372753Y-134021218D01*
X69351129Y-134031446D01*
X69328607Y-134039504D01*
X69305403Y-134045316D01*
X69281742Y-134048826D01*
X69257850Y-134050000D01*
X68770350Y-134050000D01*
X68746458Y-134048826D01*
X68722797Y-134045316D01*
X68699593Y-134039504D01*
X68677071Y-134031446D01*
X68655447Y-134021218D01*
X68634930Y-134008921D01*
X68615717Y-133994671D01*
X68597993Y-133978607D01*
X68581929Y-133960883D01*
X68567679Y-133941670D01*
X68555382Y-133921153D01*
X68545154Y-133899529D01*
X68537096Y-133877007D01*
X68531284Y-133853803D01*
X68527774Y-133830142D01*
X68526600Y-133806250D01*
X68526600Y-132893750D01*
X68527774Y-132869858D01*
X68531284Y-132846197D01*
X68537096Y-132822993D01*
X68545154Y-132800471D01*
X68555382Y-132778847D01*
X68567679Y-132758330D01*
X68581929Y-132739117D01*
X68597993Y-132721393D01*
X68615717Y-132705329D01*
X68634930Y-132691079D01*
X68655447Y-132678782D01*
X68677071Y-132668554D01*
X68699593Y-132660496D01*
X68722797Y-132654684D01*
X68746458Y-132651174D01*
X68770350Y-132650000D01*
X69257850Y-132650000D01*
X69281742Y-132651174D01*
X69281742Y-132651174D01*
G37*
D11*
X69014100Y-133350000D03*
D10*
G36*
X71156742Y-132651174D02*
G01*
X71180403Y-132654684D01*
X71203607Y-132660496D01*
X71226129Y-132668554D01*
X71247753Y-132678782D01*
X71268270Y-132691079D01*
X71287483Y-132705329D01*
X71305207Y-132721393D01*
X71321271Y-132739117D01*
X71335521Y-132758330D01*
X71347818Y-132778847D01*
X71358046Y-132800471D01*
X71366104Y-132822993D01*
X71371916Y-132846197D01*
X71375426Y-132869858D01*
X71376600Y-132893750D01*
X71376600Y-133806250D01*
X71375426Y-133830142D01*
X71371916Y-133853803D01*
X71366104Y-133877007D01*
X71358046Y-133899529D01*
X71347818Y-133921153D01*
X71335521Y-133941670D01*
X71321271Y-133960883D01*
X71305207Y-133978607D01*
X71287483Y-133994671D01*
X71268270Y-134008921D01*
X71247753Y-134021218D01*
X71226129Y-134031446D01*
X71203607Y-134039504D01*
X71180403Y-134045316D01*
X71156742Y-134048826D01*
X71132850Y-134050000D01*
X70645350Y-134050000D01*
X70621458Y-134048826D01*
X70597797Y-134045316D01*
X70574593Y-134039504D01*
X70552071Y-134031446D01*
X70530447Y-134021218D01*
X70509930Y-134008921D01*
X70490717Y-133994671D01*
X70472993Y-133978607D01*
X70456929Y-133960883D01*
X70442679Y-133941670D01*
X70430382Y-133921153D01*
X70420154Y-133899529D01*
X70412096Y-133877007D01*
X70406284Y-133853803D01*
X70402774Y-133830142D01*
X70401600Y-133806250D01*
X70401600Y-132893750D01*
X70402774Y-132869858D01*
X70406284Y-132846197D01*
X70412096Y-132822993D01*
X70420154Y-132800471D01*
X70430382Y-132778847D01*
X70442679Y-132758330D01*
X70456929Y-132739117D01*
X70472993Y-132721393D01*
X70490717Y-132705329D01*
X70509930Y-132691079D01*
X70530447Y-132678782D01*
X70552071Y-132668554D01*
X70574593Y-132660496D01*
X70597797Y-132654684D01*
X70621458Y-132651174D01*
X70645350Y-132650000D01*
X71132850Y-132650000D01*
X71156742Y-132651174D01*
X71156742Y-132651174D01*
G37*
D11*
X70889100Y-133350000D03*
D10*
G36*
X52670142Y-155511174D02*
G01*
X52693803Y-155514684D01*
X52717007Y-155520496D01*
X52739529Y-155528554D01*
X52761153Y-155538782D01*
X52781670Y-155551079D01*
X52800883Y-155565329D01*
X52818607Y-155581393D01*
X52834671Y-155599117D01*
X52848921Y-155618330D01*
X52861218Y-155638847D01*
X52871446Y-155660471D01*
X52879504Y-155682993D01*
X52885316Y-155706197D01*
X52888826Y-155729858D01*
X52890000Y-155753750D01*
X52890000Y-156666250D01*
X52888826Y-156690142D01*
X52885316Y-156713803D01*
X52879504Y-156737007D01*
X52871446Y-156759529D01*
X52861218Y-156781153D01*
X52848921Y-156801670D01*
X52834671Y-156820883D01*
X52818607Y-156838607D01*
X52800883Y-156854671D01*
X52781670Y-156868921D01*
X52761153Y-156881218D01*
X52739529Y-156891446D01*
X52717007Y-156899504D01*
X52693803Y-156905316D01*
X52670142Y-156908826D01*
X52646250Y-156910000D01*
X52158750Y-156910000D01*
X52134858Y-156908826D01*
X52111197Y-156905316D01*
X52087993Y-156899504D01*
X52065471Y-156891446D01*
X52043847Y-156881218D01*
X52023330Y-156868921D01*
X52004117Y-156854671D01*
X51986393Y-156838607D01*
X51970329Y-156820883D01*
X51956079Y-156801670D01*
X51943782Y-156781153D01*
X51933554Y-156759529D01*
X51925496Y-156737007D01*
X51919684Y-156713803D01*
X51916174Y-156690142D01*
X51915000Y-156666250D01*
X51915000Y-155753750D01*
X51916174Y-155729858D01*
X51919684Y-155706197D01*
X51925496Y-155682993D01*
X51933554Y-155660471D01*
X51943782Y-155638847D01*
X51956079Y-155618330D01*
X51970329Y-155599117D01*
X51986393Y-155581393D01*
X52004117Y-155565329D01*
X52023330Y-155551079D01*
X52043847Y-155538782D01*
X52065471Y-155528554D01*
X52087993Y-155520496D01*
X52111197Y-155514684D01*
X52134858Y-155511174D01*
X52158750Y-155510000D01*
X52646250Y-155510000D01*
X52670142Y-155511174D01*
X52670142Y-155511174D01*
G37*
D11*
X52402500Y-156210000D03*
D10*
G36*
X54545142Y-155511174D02*
G01*
X54568803Y-155514684D01*
X54592007Y-155520496D01*
X54614529Y-155528554D01*
X54636153Y-155538782D01*
X54656670Y-155551079D01*
X54675883Y-155565329D01*
X54693607Y-155581393D01*
X54709671Y-155599117D01*
X54723921Y-155618330D01*
X54736218Y-155638847D01*
X54746446Y-155660471D01*
X54754504Y-155682993D01*
X54760316Y-155706197D01*
X54763826Y-155729858D01*
X54765000Y-155753750D01*
X54765000Y-156666250D01*
X54763826Y-156690142D01*
X54760316Y-156713803D01*
X54754504Y-156737007D01*
X54746446Y-156759529D01*
X54736218Y-156781153D01*
X54723921Y-156801670D01*
X54709671Y-156820883D01*
X54693607Y-156838607D01*
X54675883Y-156854671D01*
X54656670Y-156868921D01*
X54636153Y-156881218D01*
X54614529Y-156891446D01*
X54592007Y-156899504D01*
X54568803Y-156905316D01*
X54545142Y-156908826D01*
X54521250Y-156910000D01*
X54033750Y-156910000D01*
X54009858Y-156908826D01*
X53986197Y-156905316D01*
X53962993Y-156899504D01*
X53940471Y-156891446D01*
X53918847Y-156881218D01*
X53898330Y-156868921D01*
X53879117Y-156854671D01*
X53861393Y-156838607D01*
X53845329Y-156820883D01*
X53831079Y-156801670D01*
X53818782Y-156781153D01*
X53808554Y-156759529D01*
X53800496Y-156737007D01*
X53794684Y-156713803D01*
X53791174Y-156690142D01*
X53790000Y-156666250D01*
X53790000Y-155753750D01*
X53791174Y-155729858D01*
X53794684Y-155706197D01*
X53800496Y-155682993D01*
X53808554Y-155660471D01*
X53818782Y-155638847D01*
X53831079Y-155618330D01*
X53845329Y-155599117D01*
X53861393Y-155581393D01*
X53879117Y-155565329D01*
X53898330Y-155551079D01*
X53918847Y-155538782D01*
X53940471Y-155528554D01*
X53962993Y-155520496D01*
X53986197Y-155514684D01*
X54009858Y-155511174D01*
X54033750Y-155510000D01*
X54521250Y-155510000D01*
X54545142Y-155511174D01*
X54545142Y-155511174D01*
G37*
D11*
X54277500Y-156210000D03*
D10*
G36*
X52670142Y-152971174D02*
G01*
X52693803Y-152974684D01*
X52717007Y-152980496D01*
X52739529Y-152988554D01*
X52761153Y-152998782D01*
X52781670Y-153011079D01*
X52800883Y-153025329D01*
X52818607Y-153041393D01*
X52834671Y-153059117D01*
X52848921Y-153078330D01*
X52861218Y-153098847D01*
X52871446Y-153120471D01*
X52879504Y-153142993D01*
X52885316Y-153166197D01*
X52888826Y-153189858D01*
X52890000Y-153213750D01*
X52890000Y-154126250D01*
X52888826Y-154150142D01*
X52885316Y-154173803D01*
X52879504Y-154197007D01*
X52871446Y-154219529D01*
X52861218Y-154241153D01*
X52848921Y-154261670D01*
X52834671Y-154280883D01*
X52818607Y-154298607D01*
X52800883Y-154314671D01*
X52781670Y-154328921D01*
X52761153Y-154341218D01*
X52739529Y-154351446D01*
X52717007Y-154359504D01*
X52693803Y-154365316D01*
X52670142Y-154368826D01*
X52646250Y-154370000D01*
X52158750Y-154370000D01*
X52134858Y-154368826D01*
X52111197Y-154365316D01*
X52087993Y-154359504D01*
X52065471Y-154351446D01*
X52043847Y-154341218D01*
X52023330Y-154328921D01*
X52004117Y-154314671D01*
X51986393Y-154298607D01*
X51970329Y-154280883D01*
X51956079Y-154261670D01*
X51943782Y-154241153D01*
X51933554Y-154219529D01*
X51925496Y-154197007D01*
X51919684Y-154173803D01*
X51916174Y-154150142D01*
X51915000Y-154126250D01*
X51915000Y-153213750D01*
X51916174Y-153189858D01*
X51919684Y-153166197D01*
X51925496Y-153142993D01*
X51933554Y-153120471D01*
X51943782Y-153098847D01*
X51956079Y-153078330D01*
X51970329Y-153059117D01*
X51986393Y-153041393D01*
X52004117Y-153025329D01*
X52023330Y-153011079D01*
X52043847Y-152998782D01*
X52065471Y-152988554D01*
X52087993Y-152980496D01*
X52111197Y-152974684D01*
X52134858Y-152971174D01*
X52158750Y-152970000D01*
X52646250Y-152970000D01*
X52670142Y-152971174D01*
X52670142Y-152971174D01*
G37*
D11*
X52402500Y-153670000D03*
D10*
G36*
X54545142Y-152971174D02*
G01*
X54568803Y-152974684D01*
X54592007Y-152980496D01*
X54614529Y-152988554D01*
X54636153Y-152998782D01*
X54656670Y-153011079D01*
X54675883Y-153025329D01*
X54693607Y-153041393D01*
X54709671Y-153059117D01*
X54723921Y-153078330D01*
X54736218Y-153098847D01*
X54746446Y-153120471D01*
X54754504Y-153142993D01*
X54760316Y-153166197D01*
X54763826Y-153189858D01*
X54765000Y-153213750D01*
X54765000Y-154126250D01*
X54763826Y-154150142D01*
X54760316Y-154173803D01*
X54754504Y-154197007D01*
X54746446Y-154219529D01*
X54736218Y-154241153D01*
X54723921Y-154261670D01*
X54709671Y-154280883D01*
X54693607Y-154298607D01*
X54675883Y-154314671D01*
X54656670Y-154328921D01*
X54636153Y-154341218D01*
X54614529Y-154351446D01*
X54592007Y-154359504D01*
X54568803Y-154365316D01*
X54545142Y-154368826D01*
X54521250Y-154370000D01*
X54033750Y-154370000D01*
X54009858Y-154368826D01*
X53986197Y-154365316D01*
X53962993Y-154359504D01*
X53940471Y-154351446D01*
X53918847Y-154341218D01*
X53898330Y-154328921D01*
X53879117Y-154314671D01*
X53861393Y-154298607D01*
X53845329Y-154280883D01*
X53831079Y-154261670D01*
X53818782Y-154241153D01*
X53808554Y-154219529D01*
X53800496Y-154197007D01*
X53794684Y-154173803D01*
X53791174Y-154150142D01*
X53790000Y-154126250D01*
X53790000Y-153213750D01*
X53791174Y-153189858D01*
X53794684Y-153166197D01*
X53800496Y-153142993D01*
X53808554Y-153120471D01*
X53818782Y-153098847D01*
X53831079Y-153078330D01*
X53845329Y-153059117D01*
X53861393Y-153041393D01*
X53879117Y-153025329D01*
X53898330Y-153011079D01*
X53918847Y-152998782D01*
X53940471Y-152988554D01*
X53962993Y-152980496D01*
X53986197Y-152974684D01*
X54009858Y-152971174D01*
X54033750Y-152970000D01*
X54521250Y-152970000D01*
X54545142Y-152971174D01*
X54545142Y-152971174D01*
G37*
D11*
X54277500Y-153670000D03*
D10*
G36*
X52670142Y-150431174D02*
G01*
X52693803Y-150434684D01*
X52717007Y-150440496D01*
X52739529Y-150448554D01*
X52761153Y-150458782D01*
X52781670Y-150471079D01*
X52800883Y-150485329D01*
X52818607Y-150501393D01*
X52834671Y-150519117D01*
X52848921Y-150538330D01*
X52861218Y-150558847D01*
X52871446Y-150580471D01*
X52879504Y-150602993D01*
X52885316Y-150626197D01*
X52888826Y-150649858D01*
X52890000Y-150673750D01*
X52890000Y-151586250D01*
X52888826Y-151610142D01*
X52885316Y-151633803D01*
X52879504Y-151657007D01*
X52871446Y-151679529D01*
X52861218Y-151701153D01*
X52848921Y-151721670D01*
X52834671Y-151740883D01*
X52818607Y-151758607D01*
X52800883Y-151774671D01*
X52781670Y-151788921D01*
X52761153Y-151801218D01*
X52739529Y-151811446D01*
X52717007Y-151819504D01*
X52693803Y-151825316D01*
X52670142Y-151828826D01*
X52646250Y-151830000D01*
X52158750Y-151830000D01*
X52134858Y-151828826D01*
X52111197Y-151825316D01*
X52087993Y-151819504D01*
X52065471Y-151811446D01*
X52043847Y-151801218D01*
X52023330Y-151788921D01*
X52004117Y-151774671D01*
X51986393Y-151758607D01*
X51970329Y-151740883D01*
X51956079Y-151721670D01*
X51943782Y-151701153D01*
X51933554Y-151679529D01*
X51925496Y-151657007D01*
X51919684Y-151633803D01*
X51916174Y-151610142D01*
X51915000Y-151586250D01*
X51915000Y-150673750D01*
X51916174Y-150649858D01*
X51919684Y-150626197D01*
X51925496Y-150602993D01*
X51933554Y-150580471D01*
X51943782Y-150558847D01*
X51956079Y-150538330D01*
X51970329Y-150519117D01*
X51986393Y-150501393D01*
X52004117Y-150485329D01*
X52023330Y-150471079D01*
X52043847Y-150458782D01*
X52065471Y-150448554D01*
X52087993Y-150440496D01*
X52111197Y-150434684D01*
X52134858Y-150431174D01*
X52158750Y-150430000D01*
X52646250Y-150430000D01*
X52670142Y-150431174D01*
X52670142Y-150431174D01*
G37*
D11*
X52402500Y-151130000D03*
D10*
G36*
X54545142Y-150431174D02*
G01*
X54568803Y-150434684D01*
X54592007Y-150440496D01*
X54614529Y-150448554D01*
X54636153Y-150458782D01*
X54656670Y-150471079D01*
X54675883Y-150485329D01*
X54693607Y-150501393D01*
X54709671Y-150519117D01*
X54723921Y-150538330D01*
X54736218Y-150558847D01*
X54746446Y-150580471D01*
X54754504Y-150602993D01*
X54760316Y-150626197D01*
X54763826Y-150649858D01*
X54765000Y-150673750D01*
X54765000Y-151586250D01*
X54763826Y-151610142D01*
X54760316Y-151633803D01*
X54754504Y-151657007D01*
X54746446Y-151679529D01*
X54736218Y-151701153D01*
X54723921Y-151721670D01*
X54709671Y-151740883D01*
X54693607Y-151758607D01*
X54675883Y-151774671D01*
X54656670Y-151788921D01*
X54636153Y-151801218D01*
X54614529Y-151811446D01*
X54592007Y-151819504D01*
X54568803Y-151825316D01*
X54545142Y-151828826D01*
X54521250Y-151830000D01*
X54033750Y-151830000D01*
X54009858Y-151828826D01*
X53986197Y-151825316D01*
X53962993Y-151819504D01*
X53940471Y-151811446D01*
X53918847Y-151801218D01*
X53898330Y-151788921D01*
X53879117Y-151774671D01*
X53861393Y-151758607D01*
X53845329Y-151740883D01*
X53831079Y-151721670D01*
X53818782Y-151701153D01*
X53808554Y-151679529D01*
X53800496Y-151657007D01*
X53794684Y-151633803D01*
X53791174Y-151610142D01*
X53790000Y-151586250D01*
X53790000Y-150673750D01*
X53791174Y-150649858D01*
X53794684Y-150626197D01*
X53800496Y-150602993D01*
X53808554Y-150580471D01*
X53818782Y-150558847D01*
X53831079Y-150538330D01*
X53845329Y-150519117D01*
X53861393Y-150501393D01*
X53879117Y-150485329D01*
X53898330Y-150471079D01*
X53918847Y-150458782D01*
X53940471Y-150448554D01*
X53962993Y-150440496D01*
X53986197Y-150434684D01*
X54009858Y-150431174D01*
X54033750Y-150430000D01*
X54521250Y-150430000D01*
X54545142Y-150431174D01*
X54545142Y-150431174D01*
G37*
D11*
X54277500Y-151130000D03*
D10*
G36*
X58054504Y-155336204D02*
G01*
X58078773Y-155339804D01*
X58102571Y-155345765D01*
X58125671Y-155354030D01*
X58147849Y-155364520D01*
X58168893Y-155377133D01*
X58188598Y-155391747D01*
X58206777Y-155408223D01*
X58223253Y-155426402D01*
X58237867Y-155446107D01*
X58250480Y-155467151D01*
X58260970Y-155489329D01*
X58269235Y-155512429D01*
X58275196Y-155536227D01*
X58278796Y-155560496D01*
X58280000Y-155585000D01*
X58280000Y-156835000D01*
X58278796Y-156859504D01*
X58275196Y-156883773D01*
X58269235Y-156907571D01*
X58260970Y-156930671D01*
X58250480Y-156952849D01*
X58237867Y-156973893D01*
X58223253Y-156993598D01*
X58206777Y-157011777D01*
X58188598Y-157028253D01*
X58168893Y-157042867D01*
X58147849Y-157055480D01*
X58125671Y-157065970D01*
X58102571Y-157074235D01*
X58078773Y-157080196D01*
X58054504Y-157083796D01*
X58030000Y-157085000D01*
X57280000Y-157085000D01*
X57255496Y-157083796D01*
X57231227Y-157080196D01*
X57207429Y-157074235D01*
X57184329Y-157065970D01*
X57162151Y-157055480D01*
X57141107Y-157042867D01*
X57121402Y-157028253D01*
X57103223Y-157011777D01*
X57086747Y-156993598D01*
X57072133Y-156973893D01*
X57059520Y-156952849D01*
X57049030Y-156930671D01*
X57040765Y-156907571D01*
X57034804Y-156883773D01*
X57031204Y-156859504D01*
X57030000Y-156835000D01*
X57030000Y-155585000D01*
X57031204Y-155560496D01*
X57034804Y-155536227D01*
X57040765Y-155512429D01*
X57049030Y-155489329D01*
X57059520Y-155467151D01*
X57072133Y-155446107D01*
X57086747Y-155426402D01*
X57103223Y-155408223D01*
X57121402Y-155391747D01*
X57141107Y-155377133D01*
X57162151Y-155364520D01*
X57184329Y-155354030D01*
X57207429Y-155345765D01*
X57231227Y-155339804D01*
X57255496Y-155336204D01*
X57280000Y-155335000D01*
X58030000Y-155335000D01*
X58054504Y-155336204D01*
X58054504Y-155336204D01*
G37*
D17*
X57655000Y-156210000D03*
D10*
G36*
X60854504Y-155336204D02*
G01*
X60878773Y-155339804D01*
X60902571Y-155345765D01*
X60925671Y-155354030D01*
X60947849Y-155364520D01*
X60968893Y-155377133D01*
X60988598Y-155391747D01*
X61006777Y-155408223D01*
X61023253Y-155426402D01*
X61037867Y-155446107D01*
X61050480Y-155467151D01*
X61060970Y-155489329D01*
X61069235Y-155512429D01*
X61075196Y-155536227D01*
X61078796Y-155560496D01*
X61080000Y-155585000D01*
X61080000Y-156835000D01*
X61078796Y-156859504D01*
X61075196Y-156883773D01*
X61069235Y-156907571D01*
X61060970Y-156930671D01*
X61050480Y-156952849D01*
X61037867Y-156973893D01*
X61023253Y-156993598D01*
X61006777Y-157011777D01*
X60988598Y-157028253D01*
X60968893Y-157042867D01*
X60947849Y-157055480D01*
X60925671Y-157065970D01*
X60902571Y-157074235D01*
X60878773Y-157080196D01*
X60854504Y-157083796D01*
X60830000Y-157085000D01*
X60080000Y-157085000D01*
X60055496Y-157083796D01*
X60031227Y-157080196D01*
X60007429Y-157074235D01*
X59984329Y-157065970D01*
X59962151Y-157055480D01*
X59941107Y-157042867D01*
X59921402Y-157028253D01*
X59903223Y-157011777D01*
X59886747Y-156993598D01*
X59872133Y-156973893D01*
X59859520Y-156952849D01*
X59849030Y-156930671D01*
X59840765Y-156907571D01*
X59834804Y-156883773D01*
X59831204Y-156859504D01*
X59830000Y-156835000D01*
X59830000Y-155585000D01*
X59831204Y-155560496D01*
X59834804Y-155536227D01*
X59840765Y-155512429D01*
X59849030Y-155489329D01*
X59859520Y-155467151D01*
X59872133Y-155446107D01*
X59886747Y-155426402D01*
X59903223Y-155408223D01*
X59921402Y-155391747D01*
X59941107Y-155377133D01*
X59962151Y-155364520D01*
X59984329Y-155354030D01*
X60007429Y-155345765D01*
X60031227Y-155339804D01*
X60055496Y-155336204D01*
X60080000Y-155335000D01*
X60830000Y-155335000D01*
X60854504Y-155336204D01*
X60854504Y-155336204D01*
G37*
D17*
X60455000Y-156210000D03*
D18*
X184150800Y-145800940D03*
X184150800Y-149100940D03*
X165100800Y-145800940D03*
X165100800Y-149100940D03*
X146050800Y-145800940D03*
X146050800Y-149100940D03*
X165100800Y-126750940D03*
X165100800Y-130050940D03*
D19*
X315865406Y-106742157D03*
D10*
G36*
X316515775Y-107115681D02*
G01*
X315324720Y-107261924D01*
X315215037Y-106368633D01*
X316406092Y-106222390D01*
X316515775Y-107115681D01*
X316515775Y-107115681D01*
G37*
D19*
X316267574Y-110017559D03*
D10*
G36*
X316917943Y-110391083D02*
G01*
X315726888Y-110537326D01*
X315617205Y-109644035D01*
X316808260Y-109497792D01*
X316917943Y-110391083D01*
X316917943Y-110391083D01*
G37*
D19*
X296957402Y-109063768D03*
D10*
G36*
X297607771Y-109437292D02*
G01*
X296416716Y-109583535D01*
X296307033Y-108690244D01*
X297498088Y-108544001D01*
X297607771Y-109437292D01*
X297607771Y-109437292D01*
G37*
D19*
X297359570Y-112339170D03*
D10*
G36*
X298009939Y-112712694D02*
G01*
X296818884Y-112858937D01*
X296709201Y-111965646D01*
X297900256Y-111819403D01*
X298009939Y-112712694D01*
X298009939Y-112712694D01*
G37*
D19*
X278049397Y-111385379D03*
D10*
G36*
X278699766Y-111758903D02*
G01*
X277508711Y-111905146D01*
X277399028Y-111011855D01*
X278590083Y-110865612D01*
X278699766Y-111758903D01*
X278699766Y-111758903D01*
G37*
D19*
X278451565Y-114660781D03*
D10*
G36*
X279101934Y-115034305D02*
G01*
X277910879Y-115180548D01*
X277801196Y-114287257D01*
X278992251Y-114141014D01*
X279101934Y-115034305D01*
X279101934Y-115034305D01*
G37*
D19*
X259141393Y-113706990D03*
D10*
G36*
X259791762Y-114080514D02*
G01*
X258600707Y-114226757D01*
X258491024Y-113333466D01*
X259682079Y-113187223D01*
X259791762Y-114080514D01*
X259791762Y-114080514D01*
G37*
D19*
X259543561Y-116982392D03*
D10*
G36*
X260193930Y-117355916D02*
G01*
X259002875Y-117502159D01*
X258893192Y-116608868D01*
X260084247Y-116462625D01*
X260193930Y-117355916D01*
X260193930Y-117355916D01*
G37*
D19*
X240233389Y-116028601D03*
D10*
G36*
X240883758Y-116402125D02*
G01*
X239692703Y-116548368D01*
X239583020Y-115655077D01*
X240774075Y-115508834D01*
X240883758Y-116402125D01*
X240883758Y-116402125D01*
G37*
D19*
X240635557Y-119304003D03*
D10*
G36*
X241285926Y-119677527D02*
G01*
X240094871Y-119823770D01*
X239985188Y-118930479D01*
X241176243Y-118784236D01*
X241285926Y-119677527D01*
X241285926Y-119677527D01*
G37*
D19*
X221325385Y-118350212D03*
D10*
G36*
X221975754Y-118723736D02*
G01*
X220784699Y-118869979D01*
X220675016Y-117976688D01*
X221866071Y-117830445D01*
X221975754Y-118723736D01*
X221975754Y-118723736D01*
G37*
D19*
X221727553Y-121625614D03*
D10*
G36*
X222377922Y-121999138D02*
G01*
X221186867Y-122145381D01*
X221077184Y-121252090D01*
X222268239Y-121105847D01*
X222377922Y-121999138D01*
X222377922Y-121999138D01*
G37*
D18*
X184150000Y-97410000D03*
X184150000Y-100710000D03*
X165100000Y-97410000D03*
X165100000Y-100710000D03*
X146050000Y-97410000D03*
X146050000Y-100710000D03*
D19*
X108763387Y-120201715D03*
D10*
G36*
X109304073Y-120721482D02*
G01*
X108113018Y-120575239D01*
X108222701Y-119681948D01*
X109413756Y-119828191D01*
X109304073Y-120721482D01*
X109304073Y-120721482D01*
G37*
D19*
X108361219Y-123477117D03*
D10*
G36*
X108901905Y-123996884D02*
G01*
X107710850Y-123850641D01*
X107820533Y-122957350D01*
X109011588Y-123103593D01*
X108901905Y-123996884D01*
X108901905Y-123996884D01*
G37*
D19*
X89855383Y-117880104D03*
D10*
G36*
X90396069Y-118399871D02*
G01*
X89205014Y-118253628D01*
X89314697Y-117360337D01*
X90505752Y-117506580D01*
X90396069Y-118399871D01*
X90396069Y-118399871D01*
G37*
D19*
X89453215Y-121155506D03*
D10*
G36*
X89993901Y-121675273D02*
G01*
X88802846Y-121529030D01*
X88912529Y-120635739D01*
X90103584Y-120781982D01*
X89993901Y-121675273D01*
X89993901Y-121675273D01*
G37*
D19*
X70947379Y-115558493D03*
D10*
G36*
X71488065Y-116078260D02*
G01*
X70297010Y-115932017D01*
X70406693Y-115038726D01*
X71597748Y-115184969D01*
X71488065Y-116078260D01*
X71488065Y-116078260D01*
G37*
D19*
X70545211Y-118833895D03*
D10*
G36*
X71085897Y-119353662D02*
G01*
X69894842Y-119207419D01*
X70004525Y-118314128D01*
X71195580Y-118460371D01*
X71085897Y-119353662D01*
X71085897Y-119353662D01*
G37*
D19*
X52039375Y-113236882D03*
D10*
G36*
X52580061Y-113756649D02*
G01*
X51389006Y-113610406D01*
X51498689Y-112717115D01*
X52689744Y-112863358D01*
X52580061Y-113756649D01*
X52580061Y-113756649D01*
G37*
D19*
X51637207Y-116512284D03*
D10*
G36*
X52177893Y-117032051D02*
G01*
X50986838Y-116885808D01*
X51096521Y-115992517D01*
X52287576Y-116138760D01*
X52177893Y-117032051D01*
X52177893Y-117032051D01*
G37*
D19*
X33131371Y-110915271D03*
D10*
G36*
X33672057Y-111435038D02*
G01*
X32481002Y-111288795D01*
X32590685Y-110395504D01*
X33781740Y-110541747D01*
X33672057Y-111435038D01*
X33672057Y-111435038D01*
G37*
D19*
X32729203Y-114190673D03*
D10*
G36*
X33269889Y-114710440D02*
G01*
X32078834Y-114564197D01*
X32188517Y-113670906D01*
X33379572Y-113817149D01*
X33269889Y-114710440D01*
X33269889Y-114710440D01*
G37*
D19*
X14223366Y-108593660D03*
D10*
G36*
X14764052Y-109113427D02*
G01*
X13572997Y-108967184D01*
X13682680Y-108073893D01*
X14873735Y-108220136D01*
X14764052Y-109113427D01*
X14764052Y-109113427D01*
G37*
D19*
X13821198Y-111869062D03*
D10*
G36*
X14361884Y-112388829D02*
G01*
X13170829Y-112242586D01*
X13280512Y-111349295D01*
X14471567Y-111495538D01*
X14361884Y-112388829D01*
X14361884Y-112388829D01*
G37*
D19*
X313543795Y-87834153D03*
D10*
G36*
X314194164Y-88207677D02*
G01*
X313003109Y-88353920D01*
X312893426Y-87460629D01*
X314084481Y-87314386D01*
X314194164Y-88207677D01*
X314194164Y-88207677D01*
G37*
D19*
X313945963Y-91109555D03*
D10*
G36*
X314596332Y-91483079D02*
G01*
X313405277Y-91629322D01*
X313295594Y-90736031D01*
X314486649Y-90589788D01*
X314596332Y-91483079D01*
X314596332Y-91483079D01*
G37*
D19*
X294635791Y-90155764D03*
D10*
G36*
X295286160Y-90529288D02*
G01*
X294095105Y-90675531D01*
X293985422Y-89782240D01*
X295176477Y-89635997D01*
X295286160Y-90529288D01*
X295286160Y-90529288D01*
G37*
D19*
X295037959Y-93431166D03*
D10*
G36*
X295688328Y-93804690D02*
G01*
X294497273Y-93950933D01*
X294387590Y-93057642D01*
X295578645Y-92911399D01*
X295688328Y-93804690D01*
X295688328Y-93804690D01*
G37*
D19*
X275727786Y-92477375D03*
D10*
G36*
X276378155Y-92850899D02*
G01*
X275187100Y-92997142D01*
X275077417Y-92103851D01*
X276268472Y-91957608D01*
X276378155Y-92850899D01*
X276378155Y-92850899D01*
G37*
D19*
X276129954Y-95752777D03*
D10*
G36*
X276780323Y-96126301D02*
G01*
X275589268Y-96272544D01*
X275479585Y-95379253D01*
X276670640Y-95233010D01*
X276780323Y-96126301D01*
X276780323Y-96126301D01*
G37*
D19*
X256819782Y-94798986D03*
D10*
G36*
X257470151Y-95172510D02*
G01*
X256279096Y-95318753D01*
X256169413Y-94425462D01*
X257360468Y-94279219D01*
X257470151Y-95172510D01*
X257470151Y-95172510D01*
G37*
D19*
X257221950Y-98074388D03*
D10*
G36*
X257872319Y-98447912D02*
G01*
X256681264Y-98594155D01*
X256571581Y-97700864D01*
X257762636Y-97554621D01*
X257872319Y-98447912D01*
X257872319Y-98447912D01*
G37*
D19*
X237911778Y-97120597D03*
D10*
G36*
X238562147Y-97494121D02*
G01*
X237371092Y-97640364D01*
X237261409Y-96747073D01*
X238452464Y-96600830D01*
X238562147Y-97494121D01*
X238562147Y-97494121D01*
G37*
D19*
X238313946Y-100395999D03*
D10*
G36*
X238964315Y-100769523D02*
G01*
X237773260Y-100915766D01*
X237663577Y-100022475D01*
X238854632Y-99876232D01*
X238964315Y-100769523D01*
X238964315Y-100769523D01*
G37*
D19*
X219003774Y-99442208D03*
D10*
G36*
X219654143Y-99815732D02*
G01*
X218463088Y-99961975D01*
X218353405Y-99068684D01*
X219544460Y-98922441D01*
X219654143Y-99815732D01*
X219654143Y-99815732D01*
G37*
D19*
X219405942Y-102717610D03*
D10*
G36*
X220056311Y-103091134D02*
G01*
X218865256Y-103237377D01*
X218755573Y-102344086D01*
X219946628Y-102197843D01*
X220056311Y-103091134D01*
X220056311Y-103091134D01*
G37*
D18*
X184150000Y-78360000D03*
X184150000Y-81660000D03*
X165100000Y-78360000D03*
X165100000Y-81660000D03*
X146050000Y-78360000D03*
X146050000Y-81660000D03*
D19*
X111084998Y-101293710D03*
D10*
G36*
X111625684Y-101813477D02*
G01*
X110434629Y-101667234D01*
X110544312Y-100773943D01*
X111735367Y-100920186D01*
X111625684Y-101813477D01*
X111625684Y-101813477D01*
G37*
D19*
X110682830Y-104569112D03*
D10*
G36*
X111223516Y-105088879D02*
G01*
X110032461Y-104942636D01*
X110142144Y-104049345D01*
X111333199Y-104195588D01*
X111223516Y-105088879D01*
X111223516Y-105088879D01*
G37*
D19*
X92176994Y-98972099D03*
D10*
G36*
X92717680Y-99491866D02*
G01*
X91526625Y-99345623D01*
X91636308Y-98452332D01*
X92827363Y-98598575D01*
X92717680Y-99491866D01*
X92717680Y-99491866D01*
G37*
D19*
X91774826Y-102247501D03*
D10*
G36*
X92315512Y-102767268D02*
G01*
X91124457Y-102621025D01*
X91234140Y-101727734D01*
X92425195Y-101873977D01*
X92315512Y-102767268D01*
X92315512Y-102767268D01*
G37*
D19*
X73268990Y-96650488D03*
D10*
G36*
X73809676Y-97170255D02*
G01*
X72618621Y-97024012D01*
X72728304Y-96130721D01*
X73919359Y-96276964D01*
X73809676Y-97170255D01*
X73809676Y-97170255D01*
G37*
D19*
X72866822Y-99925890D03*
D10*
G36*
X73407508Y-100445657D02*
G01*
X72216453Y-100299414D01*
X72326136Y-99406123D01*
X73517191Y-99552366D01*
X73407508Y-100445657D01*
X73407508Y-100445657D01*
G37*
D19*
X54360986Y-94328877D03*
D10*
G36*
X54901672Y-94848644D02*
G01*
X53710617Y-94702401D01*
X53820300Y-93809110D01*
X55011355Y-93955353D01*
X54901672Y-94848644D01*
X54901672Y-94848644D01*
G37*
D19*
X53958818Y-97604279D03*
D10*
G36*
X54499504Y-98124046D02*
G01*
X53308449Y-97977803D01*
X53418132Y-97084512D01*
X54609187Y-97230755D01*
X54499504Y-98124046D01*
X54499504Y-98124046D01*
G37*
D19*
X35452982Y-92007266D03*
D10*
G36*
X35993668Y-92527033D02*
G01*
X34802613Y-92380790D01*
X34912296Y-91487499D01*
X36103351Y-91633742D01*
X35993668Y-92527033D01*
X35993668Y-92527033D01*
G37*
D19*
X35050814Y-95282668D03*
D10*
G36*
X35591500Y-95802435D02*
G01*
X34400445Y-95656192D01*
X34510128Y-94762901D01*
X35701183Y-94909144D01*
X35591500Y-95802435D01*
X35591500Y-95802435D01*
G37*
D19*
X16544977Y-89685655D03*
D10*
G36*
X17085663Y-90205422D02*
G01*
X15894608Y-90059179D01*
X16004291Y-89165888D01*
X17195346Y-89312131D01*
X17085663Y-90205422D01*
X17085663Y-90205422D01*
G37*
D19*
X16142809Y-92961057D03*
D10*
G36*
X16683495Y-93480824D02*
G01*
X15492440Y-93334581D01*
X15602123Y-92441290D01*
X16793178Y-92587533D01*
X16683495Y-93480824D01*
X16683495Y-93480824D01*
G37*
D19*
X311222184Y-68926148D03*
D10*
G36*
X311872553Y-69299672D02*
G01*
X310681498Y-69445915D01*
X310571815Y-68552624D01*
X311762870Y-68406381D01*
X311872553Y-69299672D01*
X311872553Y-69299672D01*
G37*
D19*
X311624352Y-72201550D03*
D10*
G36*
X312274721Y-72575074D02*
G01*
X311083666Y-72721317D01*
X310973983Y-71828026D01*
X312165038Y-71681783D01*
X312274721Y-72575074D01*
X312274721Y-72575074D01*
G37*
D19*
X292314180Y-71247759D03*
D10*
G36*
X292964549Y-71621283D02*
G01*
X291773494Y-71767526D01*
X291663811Y-70874235D01*
X292854866Y-70727992D01*
X292964549Y-71621283D01*
X292964549Y-71621283D01*
G37*
D19*
X292716348Y-74523161D03*
D10*
G36*
X293366717Y-74896685D02*
G01*
X292175662Y-75042928D01*
X292065979Y-74149637D01*
X293257034Y-74003394D01*
X293366717Y-74896685D01*
X293366717Y-74896685D01*
G37*
D19*
X273406175Y-73569370D03*
D10*
G36*
X274056544Y-73942894D02*
G01*
X272865489Y-74089137D01*
X272755806Y-73195846D01*
X273946861Y-73049603D01*
X274056544Y-73942894D01*
X274056544Y-73942894D01*
G37*
D19*
X273808343Y-76844772D03*
D10*
G36*
X274458712Y-77218296D02*
G01*
X273267657Y-77364539D01*
X273157974Y-76471248D01*
X274349029Y-76325005D01*
X274458712Y-77218296D01*
X274458712Y-77218296D01*
G37*
D19*
X254498171Y-75890981D03*
D10*
G36*
X255148540Y-76264505D02*
G01*
X253957485Y-76410748D01*
X253847802Y-75517457D01*
X255038857Y-75371214D01*
X255148540Y-76264505D01*
X255148540Y-76264505D01*
G37*
D19*
X254900339Y-79166383D03*
D10*
G36*
X255550708Y-79539907D02*
G01*
X254359653Y-79686150D01*
X254249970Y-78792859D01*
X255441025Y-78646616D01*
X255550708Y-79539907D01*
X255550708Y-79539907D01*
G37*
D19*
X235590167Y-78212592D03*
D10*
G36*
X236240536Y-78586116D02*
G01*
X235049481Y-78732359D01*
X234939798Y-77839068D01*
X236130853Y-77692825D01*
X236240536Y-78586116D01*
X236240536Y-78586116D01*
G37*
D19*
X235992335Y-81487994D03*
D10*
G36*
X236642704Y-81861518D02*
G01*
X235451649Y-82007761D01*
X235341966Y-81114470D01*
X236533021Y-80968227D01*
X236642704Y-81861518D01*
X236642704Y-81861518D01*
G37*
D19*
X216682163Y-80534203D03*
D10*
G36*
X217332532Y-80907727D02*
G01*
X216141477Y-81053970D01*
X216031794Y-80160679D01*
X217222849Y-80014436D01*
X217332532Y-80907727D01*
X217332532Y-80907727D01*
G37*
D19*
X217084331Y-83809605D03*
D10*
G36*
X217734700Y-84183129D02*
G01*
X216543645Y-84329372D01*
X216433962Y-83436081D01*
X217625017Y-83289838D01*
X217734700Y-84183129D01*
X217734700Y-84183129D01*
G37*
D18*
X184150000Y-59310000D03*
X184150000Y-62610000D03*
X165100000Y-59310000D03*
X165100000Y-62610000D03*
X146208750Y-59151250D03*
X146208750Y-62451250D03*
D19*
X113583523Y-82247486D03*
D10*
G36*
X114124209Y-82767253D02*
G01*
X112933154Y-82621010D01*
X113042837Y-81727719D01*
X114233892Y-81873962D01*
X114124209Y-82767253D01*
X114124209Y-82767253D01*
G37*
D19*
X113181355Y-85522888D03*
D10*
G36*
X113722041Y-86042655D02*
G01*
X112530986Y-85896412D01*
X112640669Y-85003121D01*
X113831724Y-85149364D01*
X113722041Y-86042655D01*
X113722041Y-86042655D01*
G37*
D19*
X94675519Y-79925875D03*
D10*
G36*
X95216205Y-80445642D02*
G01*
X94025150Y-80299399D01*
X94134833Y-79406108D01*
X95325888Y-79552351D01*
X95216205Y-80445642D01*
X95216205Y-80445642D01*
G37*
D19*
X94273351Y-83201277D03*
D10*
G36*
X94814037Y-83721044D02*
G01*
X93622982Y-83574801D01*
X93732665Y-82681510D01*
X94923720Y-82827753D01*
X94814037Y-83721044D01*
X94814037Y-83721044D01*
G37*
D19*
X75767514Y-77604264D03*
D10*
G36*
X76308200Y-78124031D02*
G01*
X75117145Y-77977788D01*
X75226828Y-77084497D01*
X76417883Y-77230740D01*
X76308200Y-78124031D01*
X76308200Y-78124031D01*
G37*
D19*
X75365346Y-80879666D03*
D10*
G36*
X75906032Y-81399433D02*
G01*
X74714977Y-81253190D01*
X74824660Y-80359899D01*
X76015715Y-80506142D01*
X75906032Y-81399433D01*
X75906032Y-81399433D01*
G37*
D19*
X56859510Y-75282653D03*
D10*
G36*
X57400196Y-75802420D02*
G01*
X56209141Y-75656177D01*
X56318824Y-74762886D01*
X57509879Y-74909129D01*
X57400196Y-75802420D01*
X57400196Y-75802420D01*
G37*
D19*
X56457342Y-78558055D03*
D10*
G36*
X56998028Y-79077822D02*
G01*
X55806973Y-78931579D01*
X55916656Y-78038288D01*
X57107711Y-78184531D01*
X56998028Y-79077822D01*
X56998028Y-79077822D01*
G37*
D19*
X37951506Y-72961042D03*
D10*
G36*
X38492192Y-73480809D02*
G01*
X37301137Y-73334566D01*
X37410820Y-72441275D01*
X38601875Y-72587518D01*
X38492192Y-73480809D01*
X38492192Y-73480809D01*
G37*
D19*
X37549338Y-76236444D03*
D10*
G36*
X38090024Y-76756211D02*
G01*
X36898969Y-76609968D01*
X37008652Y-75716677D01*
X38199707Y-75862920D01*
X38090024Y-76756211D01*
X38090024Y-76756211D01*
G37*
D19*
X19043502Y-70639431D03*
D10*
G36*
X19584188Y-71159198D02*
G01*
X18393133Y-71012955D01*
X18502816Y-70119664D01*
X19693871Y-70265907D01*
X19584188Y-71159198D01*
X19584188Y-71159198D01*
G37*
D19*
X18641334Y-73914833D03*
D10*
G36*
X19182020Y-74434600D02*
G01*
X17990965Y-74288357D01*
X18100648Y-73395066D01*
X19291703Y-73541309D01*
X19182020Y-74434600D01*
X19182020Y-74434600D01*
G37*
D19*
X309196360Y-49821884D03*
D10*
G36*
X309846729Y-50195408D02*
G01*
X308655674Y-50341651D01*
X308545991Y-49448360D01*
X309737046Y-49302117D01*
X309846729Y-50195408D01*
X309846729Y-50195408D01*
G37*
D19*
X309598528Y-53097286D03*
D10*
G36*
X310248897Y-53470810D02*
G01*
X309057842Y-53617053D01*
X308948159Y-52723762D01*
X310139214Y-52577519D01*
X310248897Y-53470810D01*
X310248897Y-53470810D01*
G37*
D19*
X290288355Y-52143495D03*
D10*
G36*
X290938724Y-52517019D02*
G01*
X289747669Y-52663262D01*
X289637986Y-51769971D01*
X290829041Y-51623728D01*
X290938724Y-52517019D01*
X290938724Y-52517019D01*
G37*
D19*
X290690523Y-55418897D03*
D10*
G36*
X291340892Y-55792421D02*
G01*
X290149837Y-55938664D01*
X290040154Y-55045373D01*
X291231209Y-54899130D01*
X291340892Y-55792421D01*
X291340892Y-55792421D01*
G37*
D19*
X271380351Y-54465106D03*
D10*
G36*
X272030720Y-54838630D02*
G01*
X270839665Y-54984873D01*
X270729982Y-54091582D01*
X271921037Y-53945339D01*
X272030720Y-54838630D01*
X272030720Y-54838630D01*
G37*
D19*
X271782519Y-57740508D03*
D10*
G36*
X272432888Y-58114032D02*
G01*
X271241833Y-58260275D01*
X271132150Y-57366984D01*
X272323205Y-57220741D01*
X272432888Y-58114032D01*
X272432888Y-58114032D01*
G37*
D19*
X252472347Y-56786717D03*
D10*
G36*
X253122716Y-57160241D02*
G01*
X251931661Y-57306484D01*
X251821978Y-56413193D01*
X253013033Y-56266950D01*
X253122716Y-57160241D01*
X253122716Y-57160241D01*
G37*
D19*
X252874515Y-60062119D03*
D10*
G36*
X253524884Y-60435643D02*
G01*
X252333829Y-60581886D01*
X252224146Y-59688595D01*
X253415201Y-59542352D01*
X253524884Y-60435643D01*
X253524884Y-60435643D01*
G37*
D19*
X233564343Y-59108328D03*
D10*
G36*
X234214712Y-59481852D02*
G01*
X233023657Y-59628095D01*
X232913974Y-58734804D01*
X234105029Y-58588561D01*
X234214712Y-59481852D01*
X234214712Y-59481852D01*
G37*
D19*
X233966511Y-62383730D03*
D10*
G36*
X234616880Y-62757254D02*
G01*
X233425825Y-62903497D01*
X233316142Y-62010206D01*
X234507197Y-61863963D01*
X234616880Y-62757254D01*
X234616880Y-62757254D01*
G37*
D19*
X214656339Y-61429939D03*
D10*
G36*
X215306708Y-61803463D02*
G01*
X214115653Y-61949706D01*
X214005970Y-61056415D01*
X215197025Y-60910172D01*
X215306708Y-61803463D01*
X215306708Y-61803463D01*
G37*
D19*
X215058507Y-64705341D03*
D10*
G36*
X215708876Y-65078865D02*
G01*
X214517821Y-65225108D01*
X214408138Y-64331817D01*
X215599193Y-64185574D01*
X215708876Y-65078865D01*
X215708876Y-65078865D01*
G37*
D18*
X184467500Y-40101250D03*
X184467500Y-43401250D03*
X165417500Y-40101250D03*
X165417500Y-43401250D03*
X146208750Y-40101250D03*
X146208750Y-43401250D03*
D19*
X115905134Y-63339482D03*
D10*
G36*
X116445820Y-63859249D02*
G01*
X115254765Y-63713006D01*
X115364448Y-62819715D01*
X116555503Y-62965958D01*
X116445820Y-63859249D01*
X116445820Y-63859249D01*
G37*
D19*
X115502966Y-66614884D03*
D10*
G36*
X116043652Y-67134651D02*
G01*
X114852597Y-66988408D01*
X114962280Y-66095117D01*
X116153335Y-66241360D01*
X116043652Y-67134651D01*
X116043652Y-67134651D01*
G37*
D19*
X96997130Y-61017871D03*
D10*
G36*
X97537816Y-61537638D02*
G01*
X96346761Y-61391395D01*
X96456444Y-60498104D01*
X97647499Y-60644347D01*
X97537816Y-61537638D01*
X97537816Y-61537638D01*
G37*
D19*
X96594962Y-64293273D03*
D10*
G36*
X97135648Y-64813040D02*
G01*
X95944593Y-64666797D01*
X96054276Y-63773506D01*
X97245331Y-63919749D01*
X97135648Y-64813040D01*
X97135648Y-64813040D01*
G37*
D19*
X78089125Y-58696260D03*
D10*
G36*
X78629811Y-59216027D02*
G01*
X77438756Y-59069784D01*
X77548439Y-58176493D01*
X78739494Y-58322736D01*
X78629811Y-59216027D01*
X78629811Y-59216027D01*
G37*
D19*
X77686957Y-61971662D03*
D10*
G36*
X78227643Y-62491429D02*
G01*
X77036588Y-62345186D01*
X77146271Y-61451895D01*
X78337326Y-61598138D01*
X78227643Y-62491429D01*
X78227643Y-62491429D01*
G37*
D19*
X59181121Y-56374649D03*
D10*
G36*
X59721807Y-56894416D02*
G01*
X58530752Y-56748173D01*
X58640435Y-55854882D01*
X59831490Y-56001125D01*
X59721807Y-56894416D01*
X59721807Y-56894416D01*
G37*
D19*
X58778953Y-59650051D03*
D10*
G36*
X59319639Y-60169818D02*
G01*
X58128584Y-60023575D01*
X58238267Y-59130284D01*
X59429322Y-59276527D01*
X59319639Y-60169818D01*
X59319639Y-60169818D01*
G37*
D19*
X40273117Y-54053038D03*
D10*
G36*
X40813803Y-54572805D02*
G01*
X39622748Y-54426562D01*
X39732431Y-53533271D01*
X40923486Y-53679514D01*
X40813803Y-54572805D01*
X40813803Y-54572805D01*
G37*
D19*
X39870949Y-57328440D03*
D10*
G36*
X40411635Y-57848207D02*
G01*
X39220580Y-57701964D01*
X39330263Y-56808673D01*
X40521318Y-56954916D01*
X40411635Y-57848207D01*
X40411635Y-57848207D01*
G37*
D19*
X21365113Y-51731427D03*
D10*
G36*
X21905799Y-52251194D02*
G01*
X20714744Y-52104951D01*
X20824427Y-51211660D01*
X22015482Y-51357903D01*
X21905799Y-52251194D01*
X21905799Y-52251194D01*
G37*
D19*
X20962945Y-55006829D03*
D10*
G36*
X21503631Y-55526596D02*
G01*
X20312576Y-55380353D01*
X20422259Y-54487062D01*
X21613314Y-54633305D01*
X21503631Y-55526596D01*
X21503631Y-55526596D01*
G37*
G36*
X74140142Y-145896174D02*
G01*
X74163803Y-145899684D01*
X74187007Y-145905496D01*
X74209529Y-145913554D01*
X74231153Y-145923782D01*
X74251670Y-145936079D01*
X74270883Y-145950329D01*
X74288607Y-145966393D01*
X74304671Y-145984117D01*
X74318921Y-146003330D01*
X74331218Y-146023847D01*
X74341446Y-146045471D01*
X74349504Y-146067993D01*
X74355316Y-146091197D01*
X74358826Y-146114858D01*
X74360000Y-146138750D01*
X74360000Y-146626250D01*
X74358826Y-146650142D01*
X74355316Y-146673803D01*
X74349504Y-146697007D01*
X74341446Y-146719529D01*
X74331218Y-146741153D01*
X74318921Y-146761670D01*
X74304671Y-146780883D01*
X74288607Y-146798607D01*
X74270883Y-146814671D01*
X74251670Y-146828921D01*
X74231153Y-146841218D01*
X74209529Y-146851446D01*
X74187007Y-146859504D01*
X74163803Y-146865316D01*
X74140142Y-146868826D01*
X74116250Y-146870000D01*
X73203750Y-146870000D01*
X73179858Y-146868826D01*
X73156197Y-146865316D01*
X73132993Y-146859504D01*
X73110471Y-146851446D01*
X73088847Y-146841218D01*
X73068330Y-146828921D01*
X73049117Y-146814671D01*
X73031393Y-146798607D01*
X73015329Y-146780883D01*
X73001079Y-146761670D01*
X72988782Y-146741153D01*
X72978554Y-146719529D01*
X72970496Y-146697007D01*
X72964684Y-146673803D01*
X72961174Y-146650142D01*
X72960000Y-146626250D01*
X72960000Y-146138750D01*
X72961174Y-146114858D01*
X72964684Y-146091197D01*
X72970496Y-146067993D01*
X72978554Y-146045471D01*
X72988782Y-146023847D01*
X73001079Y-146003330D01*
X73015329Y-145984117D01*
X73031393Y-145966393D01*
X73049117Y-145950329D01*
X73068330Y-145936079D01*
X73088847Y-145923782D01*
X73110471Y-145913554D01*
X73132993Y-145905496D01*
X73156197Y-145899684D01*
X73179858Y-145896174D01*
X73203750Y-145895000D01*
X74116250Y-145895000D01*
X74140142Y-145896174D01*
X74140142Y-145896174D01*
G37*
D11*
X73660000Y-146382500D03*
D10*
G36*
X74140142Y-147771174D02*
G01*
X74163803Y-147774684D01*
X74187007Y-147780496D01*
X74209529Y-147788554D01*
X74231153Y-147798782D01*
X74251670Y-147811079D01*
X74270883Y-147825329D01*
X74288607Y-147841393D01*
X74304671Y-147859117D01*
X74318921Y-147878330D01*
X74331218Y-147898847D01*
X74341446Y-147920471D01*
X74349504Y-147942993D01*
X74355316Y-147966197D01*
X74358826Y-147989858D01*
X74360000Y-148013750D01*
X74360000Y-148501250D01*
X74358826Y-148525142D01*
X74355316Y-148548803D01*
X74349504Y-148572007D01*
X74341446Y-148594529D01*
X74331218Y-148616153D01*
X74318921Y-148636670D01*
X74304671Y-148655883D01*
X74288607Y-148673607D01*
X74270883Y-148689671D01*
X74251670Y-148703921D01*
X74231153Y-148716218D01*
X74209529Y-148726446D01*
X74187007Y-148734504D01*
X74163803Y-148740316D01*
X74140142Y-148743826D01*
X74116250Y-148745000D01*
X73203750Y-148745000D01*
X73179858Y-148743826D01*
X73156197Y-148740316D01*
X73132993Y-148734504D01*
X73110471Y-148726446D01*
X73088847Y-148716218D01*
X73068330Y-148703921D01*
X73049117Y-148689671D01*
X73031393Y-148673607D01*
X73015329Y-148655883D01*
X73001079Y-148636670D01*
X72988782Y-148616153D01*
X72978554Y-148594529D01*
X72970496Y-148572007D01*
X72964684Y-148548803D01*
X72961174Y-148525142D01*
X72960000Y-148501250D01*
X72960000Y-148013750D01*
X72961174Y-147989858D01*
X72964684Y-147966197D01*
X72970496Y-147942993D01*
X72978554Y-147920471D01*
X72988782Y-147898847D01*
X73001079Y-147878330D01*
X73015329Y-147859117D01*
X73031393Y-147841393D01*
X73049117Y-147825329D01*
X73068330Y-147811079D01*
X73088847Y-147798782D01*
X73110471Y-147788554D01*
X73132993Y-147780496D01*
X73156197Y-147774684D01*
X73179858Y-147771174D01*
X73203750Y-147770000D01*
X74116250Y-147770000D01*
X74140142Y-147771174D01*
X74140142Y-147771174D01*
G37*
D11*
X73660000Y-148257500D03*
D10*
G36*
X74140142Y-137611174D02*
G01*
X74163803Y-137614684D01*
X74187007Y-137620496D01*
X74209529Y-137628554D01*
X74231153Y-137638782D01*
X74251670Y-137651079D01*
X74270883Y-137665329D01*
X74288607Y-137681393D01*
X74304671Y-137699117D01*
X74318921Y-137718330D01*
X74331218Y-137738847D01*
X74341446Y-137760471D01*
X74349504Y-137782993D01*
X74355316Y-137806197D01*
X74358826Y-137829858D01*
X74360000Y-137853750D01*
X74360000Y-138341250D01*
X74358826Y-138365142D01*
X74355316Y-138388803D01*
X74349504Y-138412007D01*
X74341446Y-138434529D01*
X74331218Y-138456153D01*
X74318921Y-138476670D01*
X74304671Y-138495883D01*
X74288607Y-138513607D01*
X74270883Y-138529671D01*
X74251670Y-138543921D01*
X74231153Y-138556218D01*
X74209529Y-138566446D01*
X74187007Y-138574504D01*
X74163803Y-138580316D01*
X74140142Y-138583826D01*
X74116250Y-138585000D01*
X73203750Y-138585000D01*
X73179858Y-138583826D01*
X73156197Y-138580316D01*
X73132993Y-138574504D01*
X73110471Y-138566446D01*
X73088847Y-138556218D01*
X73068330Y-138543921D01*
X73049117Y-138529671D01*
X73031393Y-138513607D01*
X73015329Y-138495883D01*
X73001079Y-138476670D01*
X72988782Y-138456153D01*
X72978554Y-138434529D01*
X72970496Y-138412007D01*
X72964684Y-138388803D01*
X72961174Y-138365142D01*
X72960000Y-138341250D01*
X72960000Y-137853750D01*
X72961174Y-137829858D01*
X72964684Y-137806197D01*
X72970496Y-137782993D01*
X72978554Y-137760471D01*
X72988782Y-137738847D01*
X73001079Y-137718330D01*
X73015329Y-137699117D01*
X73031393Y-137681393D01*
X73049117Y-137665329D01*
X73068330Y-137651079D01*
X73088847Y-137638782D01*
X73110471Y-137628554D01*
X73132993Y-137620496D01*
X73156197Y-137614684D01*
X73179858Y-137611174D01*
X73203750Y-137610000D01*
X74116250Y-137610000D01*
X74140142Y-137611174D01*
X74140142Y-137611174D01*
G37*
D11*
X73660000Y-138097500D03*
D10*
G36*
X74140142Y-135736174D02*
G01*
X74163803Y-135739684D01*
X74187007Y-135745496D01*
X74209529Y-135753554D01*
X74231153Y-135763782D01*
X74251670Y-135776079D01*
X74270883Y-135790329D01*
X74288607Y-135806393D01*
X74304671Y-135824117D01*
X74318921Y-135843330D01*
X74331218Y-135863847D01*
X74341446Y-135885471D01*
X74349504Y-135907993D01*
X74355316Y-135931197D01*
X74358826Y-135954858D01*
X74360000Y-135978750D01*
X74360000Y-136466250D01*
X74358826Y-136490142D01*
X74355316Y-136513803D01*
X74349504Y-136537007D01*
X74341446Y-136559529D01*
X74331218Y-136581153D01*
X74318921Y-136601670D01*
X74304671Y-136620883D01*
X74288607Y-136638607D01*
X74270883Y-136654671D01*
X74251670Y-136668921D01*
X74231153Y-136681218D01*
X74209529Y-136691446D01*
X74187007Y-136699504D01*
X74163803Y-136705316D01*
X74140142Y-136708826D01*
X74116250Y-136710000D01*
X73203750Y-136710000D01*
X73179858Y-136708826D01*
X73156197Y-136705316D01*
X73132993Y-136699504D01*
X73110471Y-136691446D01*
X73088847Y-136681218D01*
X73068330Y-136668921D01*
X73049117Y-136654671D01*
X73031393Y-136638607D01*
X73015329Y-136620883D01*
X73001079Y-136601670D01*
X72988782Y-136581153D01*
X72978554Y-136559529D01*
X72970496Y-136537007D01*
X72964684Y-136513803D01*
X72961174Y-136490142D01*
X72960000Y-136466250D01*
X72960000Y-135978750D01*
X72961174Y-135954858D01*
X72964684Y-135931197D01*
X72970496Y-135907993D01*
X72978554Y-135885471D01*
X72988782Y-135863847D01*
X73001079Y-135843330D01*
X73015329Y-135824117D01*
X73031393Y-135806393D01*
X73049117Y-135790329D01*
X73068330Y-135776079D01*
X73088847Y-135763782D01*
X73110471Y-135753554D01*
X73132993Y-135745496D01*
X73156197Y-135739684D01*
X73179858Y-135736174D01*
X73203750Y-135735000D01*
X74116250Y-135735000D01*
X74140142Y-135736174D01*
X74140142Y-135736174D01*
G37*
D11*
X73660000Y-136222500D03*
D10*
G36*
X59020142Y-132651174D02*
G01*
X59043803Y-132654684D01*
X59067007Y-132660496D01*
X59089529Y-132668554D01*
X59111153Y-132678782D01*
X59131670Y-132691079D01*
X59150883Y-132705329D01*
X59168607Y-132721393D01*
X59184671Y-132739117D01*
X59198921Y-132758330D01*
X59211218Y-132778847D01*
X59221446Y-132800471D01*
X59229504Y-132822993D01*
X59235316Y-132846197D01*
X59238826Y-132869858D01*
X59240000Y-132893750D01*
X59240000Y-133806250D01*
X59238826Y-133830142D01*
X59235316Y-133853803D01*
X59229504Y-133877007D01*
X59221446Y-133899529D01*
X59211218Y-133921153D01*
X59198921Y-133941670D01*
X59184671Y-133960883D01*
X59168607Y-133978607D01*
X59150883Y-133994671D01*
X59131670Y-134008921D01*
X59111153Y-134021218D01*
X59089529Y-134031446D01*
X59067007Y-134039504D01*
X59043803Y-134045316D01*
X59020142Y-134048826D01*
X58996250Y-134050000D01*
X58508750Y-134050000D01*
X58484858Y-134048826D01*
X58461197Y-134045316D01*
X58437993Y-134039504D01*
X58415471Y-134031446D01*
X58393847Y-134021218D01*
X58373330Y-134008921D01*
X58354117Y-133994671D01*
X58336393Y-133978607D01*
X58320329Y-133960883D01*
X58306079Y-133941670D01*
X58293782Y-133921153D01*
X58283554Y-133899529D01*
X58275496Y-133877007D01*
X58269684Y-133853803D01*
X58266174Y-133830142D01*
X58265000Y-133806250D01*
X58265000Y-132893750D01*
X58266174Y-132869858D01*
X58269684Y-132846197D01*
X58275496Y-132822993D01*
X58283554Y-132800471D01*
X58293782Y-132778847D01*
X58306079Y-132758330D01*
X58320329Y-132739117D01*
X58336393Y-132721393D01*
X58354117Y-132705329D01*
X58373330Y-132691079D01*
X58393847Y-132678782D01*
X58415471Y-132668554D01*
X58437993Y-132660496D01*
X58461197Y-132654684D01*
X58484858Y-132651174D01*
X58508750Y-132650000D01*
X58996250Y-132650000D01*
X59020142Y-132651174D01*
X59020142Y-132651174D01*
G37*
D11*
X58752500Y-133350000D03*
D10*
G36*
X60895142Y-132651174D02*
G01*
X60918803Y-132654684D01*
X60942007Y-132660496D01*
X60964529Y-132668554D01*
X60986153Y-132678782D01*
X61006670Y-132691079D01*
X61025883Y-132705329D01*
X61043607Y-132721393D01*
X61059671Y-132739117D01*
X61073921Y-132758330D01*
X61086218Y-132778847D01*
X61096446Y-132800471D01*
X61104504Y-132822993D01*
X61110316Y-132846197D01*
X61113826Y-132869858D01*
X61115000Y-132893750D01*
X61115000Y-133806250D01*
X61113826Y-133830142D01*
X61110316Y-133853803D01*
X61104504Y-133877007D01*
X61096446Y-133899529D01*
X61086218Y-133921153D01*
X61073921Y-133941670D01*
X61059671Y-133960883D01*
X61043607Y-133978607D01*
X61025883Y-133994671D01*
X61006670Y-134008921D01*
X60986153Y-134021218D01*
X60964529Y-134031446D01*
X60942007Y-134039504D01*
X60918803Y-134045316D01*
X60895142Y-134048826D01*
X60871250Y-134050000D01*
X60383750Y-134050000D01*
X60359858Y-134048826D01*
X60336197Y-134045316D01*
X60312993Y-134039504D01*
X60290471Y-134031446D01*
X60268847Y-134021218D01*
X60248330Y-134008921D01*
X60229117Y-133994671D01*
X60211393Y-133978607D01*
X60195329Y-133960883D01*
X60181079Y-133941670D01*
X60168782Y-133921153D01*
X60158554Y-133899529D01*
X60150496Y-133877007D01*
X60144684Y-133853803D01*
X60141174Y-133830142D01*
X60140000Y-133806250D01*
X60140000Y-132893750D01*
X60141174Y-132869858D01*
X60144684Y-132846197D01*
X60150496Y-132822993D01*
X60158554Y-132800471D01*
X60168782Y-132778847D01*
X60181079Y-132758330D01*
X60195329Y-132739117D01*
X60211393Y-132721393D01*
X60229117Y-132705329D01*
X60248330Y-132691079D01*
X60268847Y-132678782D01*
X60290471Y-132668554D01*
X60312993Y-132660496D01*
X60336197Y-132654684D01*
X60359858Y-132651174D01*
X60383750Y-132650000D01*
X60871250Y-132650000D01*
X60895142Y-132651174D01*
X60895142Y-132651174D01*
G37*
D11*
X60627500Y-133350000D03*
D10*
G36*
X58900142Y-151581174D02*
G01*
X58923803Y-151584684D01*
X58947007Y-151590496D01*
X58969529Y-151598554D01*
X58991153Y-151608782D01*
X59011670Y-151621079D01*
X59030883Y-151635329D01*
X59048607Y-151651393D01*
X59064671Y-151669117D01*
X59078921Y-151688330D01*
X59091218Y-151708847D01*
X59101446Y-151730471D01*
X59109504Y-151752993D01*
X59115316Y-151776197D01*
X59118826Y-151799858D01*
X59120000Y-151823750D01*
X59120000Y-152311250D01*
X59118826Y-152335142D01*
X59115316Y-152358803D01*
X59109504Y-152382007D01*
X59101446Y-152404529D01*
X59091218Y-152426153D01*
X59078921Y-152446670D01*
X59064671Y-152465883D01*
X59048607Y-152483607D01*
X59030883Y-152499671D01*
X59011670Y-152513921D01*
X58991153Y-152526218D01*
X58969529Y-152536446D01*
X58947007Y-152544504D01*
X58923803Y-152550316D01*
X58900142Y-152553826D01*
X58876250Y-152555000D01*
X57963750Y-152555000D01*
X57939858Y-152553826D01*
X57916197Y-152550316D01*
X57892993Y-152544504D01*
X57870471Y-152536446D01*
X57848847Y-152526218D01*
X57828330Y-152513921D01*
X57809117Y-152499671D01*
X57791393Y-152483607D01*
X57775329Y-152465883D01*
X57761079Y-152446670D01*
X57748782Y-152426153D01*
X57738554Y-152404529D01*
X57730496Y-152382007D01*
X57724684Y-152358803D01*
X57721174Y-152335142D01*
X57720000Y-152311250D01*
X57720000Y-151823750D01*
X57721174Y-151799858D01*
X57724684Y-151776197D01*
X57730496Y-151752993D01*
X57738554Y-151730471D01*
X57748782Y-151708847D01*
X57761079Y-151688330D01*
X57775329Y-151669117D01*
X57791393Y-151651393D01*
X57809117Y-151635329D01*
X57828330Y-151621079D01*
X57848847Y-151608782D01*
X57870471Y-151598554D01*
X57892993Y-151590496D01*
X57916197Y-151584684D01*
X57939858Y-151581174D01*
X57963750Y-151580000D01*
X58876250Y-151580000D01*
X58900142Y-151581174D01*
X58900142Y-151581174D01*
G37*
D11*
X58420000Y-152067500D03*
D10*
G36*
X58900142Y-149706174D02*
G01*
X58923803Y-149709684D01*
X58947007Y-149715496D01*
X58969529Y-149723554D01*
X58991153Y-149733782D01*
X59011670Y-149746079D01*
X59030883Y-149760329D01*
X59048607Y-149776393D01*
X59064671Y-149794117D01*
X59078921Y-149813330D01*
X59091218Y-149833847D01*
X59101446Y-149855471D01*
X59109504Y-149877993D01*
X59115316Y-149901197D01*
X59118826Y-149924858D01*
X59120000Y-149948750D01*
X59120000Y-150436250D01*
X59118826Y-150460142D01*
X59115316Y-150483803D01*
X59109504Y-150507007D01*
X59101446Y-150529529D01*
X59091218Y-150551153D01*
X59078921Y-150571670D01*
X59064671Y-150590883D01*
X59048607Y-150608607D01*
X59030883Y-150624671D01*
X59011670Y-150638921D01*
X58991153Y-150651218D01*
X58969529Y-150661446D01*
X58947007Y-150669504D01*
X58923803Y-150675316D01*
X58900142Y-150678826D01*
X58876250Y-150680000D01*
X57963750Y-150680000D01*
X57939858Y-150678826D01*
X57916197Y-150675316D01*
X57892993Y-150669504D01*
X57870471Y-150661446D01*
X57848847Y-150651218D01*
X57828330Y-150638921D01*
X57809117Y-150624671D01*
X57791393Y-150608607D01*
X57775329Y-150590883D01*
X57761079Y-150571670D01*
X57748782Y-150551153D01*
X57738554Y-150529529D01*
X57730496Y-150507007D01*
X57724684Y-150483803D01*
X57721174Y-150460142D01*
X57720000Y-150436250D01*
X57720000Y-149948750D01*
X57721174Y-149924858D01*
X57724684Y-149901197D01*
X57730496Y-149877993D01*
X57738554Y-149855471D01*
X57748782Y-149833847D01*
X57761079Y-149813330D01*
X57775329Y-149794117D01*
X57791393Y-149776393D01*
X57809117Y-149760329D01*
X57828330Y-149746079D01*
X57848847Y-149733782D01*
X57870471Y-149723554D01*
X57892993Y-149715496D01*
X57916197Y-149709684D01*
X57939858Y-149706174D01*
X57963750Y-149705000D01*
X58876250Y-149705000D01*
X58900142Y-149706174D01*
X58900142Y-149706174D01*
G37*
D11*
X58420000Y-150192500D03*
D10*
G36*
X64705142Y-150431174D02*
G01*
X64728803Y-150434684D01*
X64752007Y-150440496D01*
X64774529Y-150448554D01*
X64796153Y-150458782D01*
X64816670Y-150471079D01*
X64835883Y-150485329D01*
X64853607Y-150501393D01*
X64869671Y-150519117D01*
X64883921Y-150538330D01*
X64896218Y-150558847D01*
X64906446Y-150580471D01*
X64914504Y-150602993D01*
X64920316Y-150626197D01*
X64923826Y-150649858D01*
X64925000Y-150673750D01*
X64925000Y-151586250D01*
X64923826Y-151610142D01*
X64920316Y-151633803D01*
X64914504Y-151657007D01*
X64906446Y-151679529D01*
X64896218Y-151701153D01*
X64883921Y-151721670D01*
X64869671Y-151740883D01*
X64853607Y-151758607D01*
X64835883Y-151774671D01*
X64816670Y-151788921D01*
X64796153Y-151801218D01*
X64774529Y-151811446D01*
X64752007Y-151819504D01*
X64728803Y-151825316D01*
X64705142Y-151828826D01*
X64681250Y-151830000D01*
X64193750Y-151830000D01*
X64169858Y-151828826D01*
X64146197Y-151825316D01*
X64122993Y-151819504D01*
X64100471Y-151811446D01*
X64078847Y-151801218D01*
X64058330Y-151788921D01*
X64039117Y-151774671D01*
X64021393Y-151758607D01*
X64005329Y-151740883D01*
X63991079Y-151721670D01*
X63978782Y-151701153D01*
X63968554Y-151679529D01*
X63960496Y-151657007D01*
X63954684Y-151633803D01*
X63951174Y-151610142D01*
X63950000Y-151586250D01*
X63950000Y-150673750D01*
X63951174Y-150649858D01*
X63954684Y-150626197D01*
X63960496Y-150602993D01*
X63968554Y-150580471D01*
X63978782Y-150558847D01*
X63991079Y-150538330D01*
X64005329Y-150519117D01*
X64021393Y-150501393D01*
X64039117Y-150485329D01*
X64058330Y-150471079D01*
X64078847Y-150458782D01*
X64100471Y-150448554D01*
X64122993Y-150440496D01*
X64146197Y-150434684D01*
X64169858Y-150431174D01*
X64193750Y-150430000D01*
X64681250Y-150430000D01*
X64705142Y-150431174D01*
X64705142Y-150431174D01*
G37*
D11*
X64437500Y-151130000D03*
D10*
G36*
X62830142Y-150431174D02*
G01*
X62853803Y-150434684D01*
X62877007Y-150440496D01*
X62899529Y-150448554D01*
X62921153Y-150458782D01*
X62941670Y-150471079D01*
X62960883Y-150485329D01*
X62978607Y-150501393D01*
X62994671Y-150519117D01*
X63008921Y-150538330D01*
X63021218Y-150558847D01*
X63031446Y-150580471D01*
X63039504Y-150602993D01*
X63045316Y-150626197D01*
X63048826Y-150649858D01*
X63050000Y-150673750D01*
X63050000Y-151586250D01*
X63048826Y-151610142D01*
X63045316Y-151633803D01*
X63039504Y-151657007D01*
X63031446Y-151679529D01*
X63021218Y-151701153D01*
X63008921Y-151721670D01*
X62994671Y-151740883D01*
X62978607Y-151758607D01*
X62960883Y-151774671D01*
X62941670Y-151788921D01*
X62921153Y-151801218D01*
X62899529Y-151811446D01*
X62877007Y-151819504D01*
X62853803Y-151825316D01*
X62830142Y-151828826D01*
X62806250Y-151830000D01*
X62318750Y-151830000D01*
X62294858Y-151828826D01*
X62271197Y-151825316D01*
X62247993Y-151819504D01*
X62225471Y-151811446D01*
X62203847Y-151801218D01*
X62183330Y-151788921D01*
X62164117Y-151774671D01*
X62146393Y-151758607D01*
X62130329Y-151740883D01*
X62116079Y-151721670D01*
X62103782Y-151701153D01*
X62093554Y-151679529D01*
X62085496Y-151657007D01*
X62079684Y-151633803D01*
X62076174Y-151610142D01*
X62075000Y-151586250D01*
X62075000Y-150673750D01*
X62076174Y-150649858D01*
X62079684Y-150626197D01*
X62085496Y-150602993D01*
X62093554Y-150580471D01*
X62103782Y-150558847D01*
X62116079Y-150538330D01*
X62130329Y-150519117D01*
X62146393Y-150501393D01*
X62164117Y-150485329D01*
X62183330Y-150471079D01*
X62203847Y-150458782D01*
X62225471Y-150448554D01*
X62247993Y-150440496D01*
X62271197Y-150434684D01*
X62294858Y-150431174D01*
X62318750Y-150430000D01*
X62806250Y-150430000D01*
X62830142Y-150431174D01*
X62830142Y-150431174D01*
G37*
D11*
X62562500Y-151130000D03*
D10*
G36*
X52670142Y-146621174D02*
G01*
X52693803Y-146624684D01*
X52717007Y-146630496D01*
X52739529Y-146638554D01*
X52761153Y-146648782D01*
X52781670Y-146661079D01*
X52800883Y-146675329D01*
X52818607Y-146691393D01*
X52834671Y-146709117D01*
X52848921Y-146728330D01*
X52861218Y-146748847D01*
X52871446Y-146770471D01*
X52879504Y-146792993D01*
X52885316Y-146816197D01*
X52888826Y-146839858D01*
X52890000Y-146863750D01*
X52890000Y-147776250D01*
X52888826Y-147800142D01*
X52885316Y-147823803D01*
X52879504Y-147847007D01*
X52871446Y-147869529D01*
X52861218Y-147891153D01*
X52848921Y-147911670D01*
X52834671Y-147930883D01*
X52818607Y-147948607D01*
X52800883Y-147964671D01*
X52781670Y-147978921D01*
X52761153Y-147991218D01*
X52739529Y-148001446D01*
X52717007Y-148009504D01*
X52693803Y-148015316D01*
X52670142Y-148018826D01*
X52646250Y-148020000D01*
X52158750Y-148020000D01*
X52134858Y-148018826D01*
X52111197Y-148015316D01*
X52087993Y-148009504D01*
X52065471Y-148001446D01*
X52043847Y-147991218D01*
X52023330Y-147978921D01*
X52004117Y-147964671D01*
X51986393Y-147948607D01*
X51970329Y-147930883D01*
X51956079Y-147911670D01*
X51943782Y-147891153D01*
X51933554Y-147869529D01*
X51925496Y-147847007D01*
X51919684Y-147823803D01*
X51916174Y-147800142D01*
X51915000Y-147776250D01*
X51915000Y-146863750D01*
X51916174Y-146839858D01*
X51919684Y-146816197D01*
X51925496Y-146792993D01*
X51933554Y-146770471D01*
X51943782Y-146748847D01*
X51956079Y-146728330D01*
X51970329Y-146709117D01*
X51986393Y-146691393D01*
X52004117Y-146675329D01*
X52023330Y-146661079D01*
X52043847Y-146648782D01*
X52065471Y-146638554D01*
X52087993Y-146630496D01*
X52111197Y-146624684D01*
X52134858Y-146621174D01*
X52158750Y-146620000D01*
X52646250Y-146620000D01*
X52670142Y-146621174D01*
X52670142Y-146621174D01*
G37*
D11*
X52402500Y-147320000D03*
D10*
G36*
X54545142Y-146621174D02*
G01*
X54568803Y-146624684D01*
X54592007Y-146630496D01*
X54614529Y-146638554D01*
X54636153Y-146648782D01*
X54656670Y-146661079D01*
X54675883Y-146675329D01*
X54693607Y-146691393D01*
X54709671Y-146709117D01*
X54723921Y-146728330D01*
X54736218Y-146748847D01*
X54746446Y-146770471D01*
X54754504Y-146792993D01*
X54760316Y-146816197D01*
X54763826Y-146839858D01*
X54765000Y-146863750D01*
X54765000Y-147776250D01*
X54763826Y-147800142D01*
X54760316Y-147823803D01*
X54754504Y-147847007D01*
X54746446Y-147869529D01*
X54736218Y-147891153D01*
X54723921Y-147911670D01*
X54709671Y-147930883D01*
X54693607Y-147948607D01*
X54675883Y-147964671D01*
X54656670Y-147978921D01*
X54636153Y-147991218D01*
X54614529Y-148001446D01*
X54592007Y-148009504D01*
X54568803Y-148015316D01*
X54545142Y-148018826D01*
X54521250Y-148020000D01*
X54033750Y-148020000D01*
X54009858Y-148018826D01*
X53986197Y-148015316D01*
X53962993Y-148009504D01*
X53940471Y-148001446D01*
X53918847Y-147991218D01*
X53898330Y-147978921D01*
X53879117Y-147964671D01*
X53861393Y-147948607D01*
X53845329Y-147930883D01*
X53831079Y-147911670D01*
X53818782Y-147891153D01*
X53808554Y-147869529D01*
X53800496Y-147847007D01*
X53794684Y-147823803D01*
X53791174Y-147800142D01*
X53790000Y-147776250D01*
X53790000Y-146863750D01*
X53791174Y-146839858D01*
X53794684Y-146816197D01*
X53800496Y-146792993D01*
X53808554Y-146770471D01*
X53818782Y-146748847D01*
X53831079Y-146728330D01*
X53845329Y-146709117D01*
X53861393Y-146691393D01*
X53879117Y-146675329D01*
X53898330Y-146661079D01*
X53918847Y-146648782D01*
X53940471Y-146638554D01*
X53962993Y-146630496D01*
X53986197Y-146624684D01*
X54009858Y-146621174D01*
X54033750Y-146620000D01*
X54521250Y-146620000D01*
X54545142Y-146621174D01*
X54545142Y-146621174D01*
G37*
D11*
X54277500Y-147320000D03*
D10*
G36*
X52670142Y-136461174D02*
G01*
X52693803Y-136464684D01*
X52717007Y-136470496D01*
X52739529Y-136478554D01*
X52761153Y-136488782D01*
X52781670Y-136501079D01*
X52800883Y-136515329D01*
X52818607Y-136531393D01*
X52834671Y-136549117D01*
X52848921Y-136568330D01*
X52861218Y-136588847D01*
X52871446Y-136610471D01*
X52879504Y-136632993D01*
X52885316Y-136656197D01*
X52888826Y-136679858D01*
X52890000Y-136703750D01*
X52890000Y-137616250D01*
X52888826Y-137640142D01*
X52885316Y-137663803D01*
X52879504Y-137687007D01*
X52871446Y-137709529D01*
X52861218Y-137731153D01*
X52848921Y-137751670D01*
X52834671Y-137770883D01*
X52818607Y-137788607D01*
X52800883Y-137804671D01*
X52781670Y-137818921D01*
X52761153Y-137831218D01*
X52739529Y-137841446D01*
X52717007Y-137849504D01*
X52693803Y-137855316D01*
X52670142Y-137858826D01*
X52646250Y-137860000D01*
X52158750Y-137860000D01*
X52134858Y-137858826D01*
X52111197Y-137855316D01*
X52087993Y-137849504D01*
X52065471Y-137841446D01*
X52043847Y-137831218D01*
X52023330Y-137818921D01*
X52004117Y-137804671D01*
X51986393Y-137788607D01*
X51970329Y-137770883D01*
X51956079Y-137751670D01*
X51943782Y-137731153D01*
X51933554Y-137709529D01*
X51925496Y-137687007D01*
X51919684Y-137663803D01*
X51916174Y-137640142D01*
X51915000Y-137616250D01*
X51915000Y-136703750D01*
X51916174Y-136679858D01*
X51919684Y-136656197D01*
X51925496Y-136632993D01*
X51933554Y-136610471D01*
X51943782Y-136588847D01*
X51956079Y-136568330D01*
X51970329Y-136549117D01*
X51986393Y-136531393D01*
X52004117Y-136515329D01*
X52023330Y-136501079D01*
X52043847Y-136488782D01*
X52065471Y-136478554D01*
X52087993Y-136470496D01*
X52111197Y-136464684D01*
X52134858Y-136461174D01*
X52158750Y-136460000D01*
X52646250Y-136460000D01*
X52670142Y-136461174D01*
X52670142Y-136461174D01*
G37*
D11*
X52402500Y-137160000D03*
D10*
G36*
X54545142Y-136461174D02*
G01*
X54568803Y-136464684D01*
X54592007Y-136470496D01*
X54614529Y-136478554D01*
X54636153Y-136488782D01*
X54656670Y-136501079D01*
X54675883Y-136515329D01*
X54693607Y-136531393D01*
X54709671Y-136549117D01*
X54723921Y-136568330D01*
X54736218Y-136588847D01*
X54746446Y-136610471D01*
X54754504Y-136632993D01*
X54760316Y-136656197D01*
X54763826Y-136679858D01*
X54765000Y-136703750D01*
X54765000Y-137616250D01*
X54763826Y-137640142D01*
X54760316Y-137663803D01*
X54754504Y-137687007D01*
X54746446Y-137709529D01*
X54736218Y-137731153D01*
X54723921Y-137751670D01*
X54709671Y-137770883D01*
X54693607Y-137788607D01*
X54675883Y-137804671D01*
X54656670Y-137818921D01*
X54636153Y-137831218D01*
X54614529Y-137841446D01*
X54592007Y-137849504D01*
X54568803Y-137855316D01*
X54545142Y-137858826D01*
X54521250Y-137860000D01*
X54033750Y-137860000D01*
X54009858Y-137858826D01*
X53986197Y-137855316D01*
X53962993Y-137849504D01*
X53940471Y-137841446D01*
X53918847Y-137831218D01*
X53898330Y-137818921D01*
X53879117Y-137804671D01*
X53861393Y-137788607D01*
X53845329Y-137770883D01*
X53831079Y-137751670D01*
X53818782Y-137731153D01*
X53808554Y-137709529D01*
X53800496Y-137687007D01*
X53794684Y-137663803D01*
X53791174Y-137640142D01*
X53790000Y-137616250D01*
X53790000Y-136703750D01*
X53791174Y-136679858D01*
X53794684Y-136656197D01*
X53800496Y-136632993D01*
X53808554Y-136610471D01*
X53818782Y-136588847D01*
X53831079Y-136568330D01*
X53845329Y-136549117D01*
X53861393Y-136531393D01*
X53879117Y-136515329D01*
X53898330Y-136501079D01*
X53918847Y-136488782D01*
X53940471Y-136478554D01*
X53962993Y-136470496D01*
X53986197Y-136464684D01*
X54009858Y-136461174D01*
X54033750Y-136460000D01*
X54521250Y-136460000D01*
X54545142Y-136461174D01*
X54545142Y-136461174D01*
G37*
D11*
X54277500Y-137160000D03*
M02*
