G04 #@! TF.GenerationSoftware,KiCad,Pcbnew,(5.1.4)-1*
G04 #@! TF.CreationDate,2021-01-15T16:27:36-05:00*
G04 #@! TF.ProjectId,proto,70726f74-6f2e-46b6-9963-61645f706362,rev?*
G04 #@! TF.SameCoordinates,Original*
G04 #@! TF.FileFunction,Legend,Bot*
G04 #@! TF.FilePolarity,Positive*
%FSLAX46Y46*%
G04 Gerber Fmt 4.6, Leading zero omitted, Abs format (unit mm)*
G04 Created by KiCad (PCBNEW (5.1.4)-1) date 2021-01-15 16:27:36*
%MOMM*%
%LPD*%
G04 APERTURE LIST*
%ADD10C,0.120000*%
%ADD11C,0.150000*%
%ADD12R,2.102000X2.102000*%
%ADD13C,2.102000*%
%ADD14R,2.102000X3.302000*%
%ADD15C,0.100000*%
%ADD16C,1.077000*%
%ADD17O,1.802000X2.802000*%
%ADD18R,0.602000X2.352000*%
%ADD19R,1.302000X1.502000*%
%ADD20R,1.602000X0.652000*%
%ADD21R,0.652000X1.602000*%
%ADD22R,1.202000X1.902000*%
%ADD23C,1.852000*%
%ADD24R,2.007000X2.007000*%
%ADD25C,2.007000*%
%ADD26C,2.352000*%
%ADD27C,4.089800*%
%ADD28C,2.352000*%
%ADD29C,1.352000*%
%ADD30R,1.302000X1.002000*%
%ADD31C,1.002000*%
G04 APERTURE END LIST*
D10*
X175134200Y-115064278D02*
X175134200Y-114547122D01*
X176554200Y-115064278D02*
X176554200Y-114547122D01*
X181558000Y-114549422D02*
X181558000Y-115066578D01*
X180138000Y-114549422D02*
X180138000Y-115066578D01*
D11*
X2500000Y-31750000D02*
X2500000Y-37200000D01*
X10200000Y-31750000D02*
X10200000Y-37200000D01*
X2500000Y-37200000D02*
X10200000Y-37200000D01*
D10*
X54990000Y-140240000D02*
X54990000Y-144240000D01*
X51690000Y-140240000D02*
X54990000Y-140240000D01*
D11*
X69370000Y-147415000D02*
X69370000Y-148690000D01*
X69945000Y-137065000D02*
X69945000Y-137740000D01*
X59595000Y-137065000D02*
X59595000Y-137740000D01*
X59595000Y-147415000D02*
X59595000Y-146740000D01*
X69945000Y-147415000D02*
X69945000Y-146740000D01*
X59595000Y-147415000D02*
X60270000Y-147415000D01*
X59595000Y-137065000D02*
X60270000Y-137065000D01*
X69945000Y-137065000D02*
X69270000Y-137065000D01*
X69945000Y-147415000D02*
X69370000Y-147415000D01*
X36890000Y-143570000D02*
X36890000Y-138370000D01*
X36890000Y-138370000D02*
X31690000Y-138370000D01*
X31690000Y-138370000D02*
X31690000Y-143570000D01*
X31690000Y-143570000D02*
X36890000Y-143570000D01*
X35290000Y-140970000D02*
G75*
G03X35290000Y-140970000I-1000000J0D01*
G01*
D10*
X70210178Y-134060000D02*
X69693022Y-134060000D01*
X70210178Y-132640000D02*
X69693022Y-132640000D01*
X53598578Y-156920000D02*
X53081422Y-156920000D01*
X53598578Y-155500000D02*
X53081422Y-155500000D01*
X53598578Y-154380000D02*
X53081422Y-154380000D01*
X53598578Y-152960000D02*
X53081422Y-152960000D01*
X53598578Y-151840000D02*
X53081422Y-151840000D01*
X53598578Y-150420000D02*
X53081422Y-150420000D01*
X59657064Y-157120000D02*
X58452936Y-157120000D01*
X59657064Y-155300000D02*
X58452936Y-155300000D01*
X185150800Y-149700940D02*
X185150800Y-145800940D01*
X183150800Y-149700940D02*
X183150800Y-145800940D01*
X185150800Y-149700940D02*
X183150800Y-149700940D01*
X166100800Y-149700940D02*
X166100800Y-145800940D01*
X164100800Y-149700940D02*
X164100800Y-145800940D01*
X166100800Y-149700940D02*
X164100800Y-149700940D01*
X147050800Y-149700940D02*
X147050800Y-145800940D01*
X145050800Y-149700940D02*
X145050800Y-145800940D01*
X147050800Y-149700940D02*
X145050800Y-149700940D01*
X166100800Y-130650940D02*
X166100800Y-126750940D01*
X164100800Y-130650940D02*
X164100800Y-126750940D01*
X166100800Y-130650940D02*
X164100800Y-130650940D01*
X317333242Y-110491217D02*
X316857952Y-106620288D01*
X315348150Y-110734956D02*
X314872859Y-106864026D01*
X317333242Y-110491217D02*
X315348150Y-110734956D01*
X298425238Y-112812828D02*
X297949948Y-108941899D01*
X296440146Y-113056567D02*
X295964855Y-109185637D01*
X298425238Y-112812828D02*
X296440146Y-113056567D01*
X279517233Y-115134439D02*
X279041943Y-111263510D01*
X277532141Y-115378178D02*
X277056850Y-111507248D01*
X279517233Y-115134439D02*
X277532141Y-115378178D01*
X260609229Y-117456050D02*
X260133939Y-113585121D01*
X258624137Y-117699789D02*
X258148846Y-113828859D01*
X260609229Y-117456050D02*
X258624137Y-117699789D01*
X241701225Y-119777661D02*
X241225935Y-115906732D01*
X239716133Y-120021400D02*
X239240842Y-116150470D01*
X241701225Y-119777661D02*
X239716133Y-120021400D01*
X222793221Y-122099272D02*
X222317931Y-118228343D01*
X220808129Y-122343011D02*
X220332838Y-118472081D01*
X222793221Y-122099272D02*
X220808129Y-122343011D01*
X185150000Y-101310000D02*
X185150000Y-97410000D01*
X183150000Y-101310000D02*
X183150000Y-97410000D01*
X185150000Y-101310000D02*
X183150000Y-101310000D01*
X166100000Y-101310000D02*
X166100000Y-97410000D01*
X164100000Y-101310000D02*
X164100000Y-97410000D01*
X166100000Y-101310000D02*
X164100000Y-101310000D01*
X147050000Y-101310000D02*
X147050000Y-97410000D01*
X145050000Y-101310000D02*
X145050000Y-97410000D01*
X147050000Y-101310000D02*
X145050000Y-101310000D01*
X109280643Y-124194514D02*
X109755934Y-120323584D01*
X107295551Y-123950775D02*
X107770841Y-120079846D01*
X109280643Y-124194514D02*
X107295551Y-123950775D01*
X90372639Y-121872903D02*
X90847930Y-118001973D01*
X88387547Y-121629164D02*
X88862837Y-117758235D01*
X90372639Y-121872903D02*
X88387547Y-121629164D01*
X71464635Y-119551292D02*
X71939926Y-115680362D01*
X69479543Y-119307553D02*
X69954833Y-115436624D01*
X71464635Y-119551292D02*
X69479543Y-119307553D01*
X52556631Y-117229681D02*
X53031922Y-113358751D01*
X50571539Y-116985942D02*
X51046829Y-113115013D01*
X52556631Y-117229681D02*
X50571539Y-116985942D01*
X33648627Y-114908070D02*
X34123918Y-111037140D01*
X31663535Y-114664331D02*
X32138825Y-110793402D01*
X33648627Y-114908070D02*
X31663535Y-114664331D01*
X14740622Y-112586459D02*
X15215913Y-108715529D01*
X12755530Y-112342720D02*
X13230820Y-108471791D01*
X14740622Y-112586459D02*
X12755530Y-112342720D01*
X315011631Y-91583213D02*
X314536341Y-87712284D01*
X313026539Y-91826952D02*
X312551248Y-87956022D01*
X315011631Y-91583213D02*
X313026539Y-91826952D01*
X296103627Y-93904824D02*
X295628337Y-90033895D01*
X294118535Y-94148563D02*
X293643244Y-90277633D01*
X296103627Y-93904824D02*
X294118535Y-94148563D01*
X277195622Y-96226435D02*
X276720332Y-92355506D01*
X275210530Y-96470174D02*
X274735239Y-92599244D01*
X277195622Y-96226435D02*
X275210530Y-96470174D01*
X258287618Y-98548046D02*
X257812328Y-94677117D01*
X256302526Y-98791785D02*
X255827235Y-94920855D01*
X258287618Y-98548046D02*
X256302526Y-98791785D01*
X239379614Y-100869657D02*
X238904324Y-96998728D01*
X237394522Y-101113396D02*
X236919231Y-97242466D01*
X239379614Y-100869657D02*
X237394522Y-101113396D01*
X220471610Y-103191268D02*
X219996320Y-99320339D01*
X218486518Y-103435007D02*
X218011227Y-99564077D01*
X220471610Y-103191268D02*
X218486518Y-103435007D01*
X185150000Y-82260000D02*
X185150000Y-78360000D01*
X183150000Y-82260000D02*
X183150000Y-78360000D01*
X185150000Y-82260000D02*
X183150000Y-82260000D01*
X166100000Y-82260000D02*
X166100000Y-78360000D01*
X164100000Y-82260000D02*
X164100000Y-78360000D01*
X166100000Y-82260000D02*
X164100000Y-82260000D01*
X147050000Y-82260000D02*
X147050000Y-78360000D01*
X145050000Y-82260000D02*
X145050000Y-78360000D01*
X147050000Y-82260000D02*
X145050000Y-82260000D01*
X111602254Y-105286509D02*
X112077545Y-101415579D01*
X109617162Y-105042770D02*
X110092452Y-101171841D01*
X111602254Y-105286509D02*
X109617162Y-105042770D01*
X92694250Y-102964898D02*
X93169541Y-99093968D01*
X90709158Y-102721159D02*
X91184448Y-98850230D01*
X92694250Y-102964898D02*
X90709158Y-102721159D01*
X73786246Y-100643287D02*
X74261537Y-96772357D01*
X71801154Y-100399548D02*
X72276444Y-96528619D01*
X73786246Y-100643287D02*
X71801154Y-100399548D01*
X54878242Y-98321676D02*
X55353533Y-94450746D01*
X52893150Y-98077937D02*
X53368440Y-94207008D01*
X54878242Y-98321676D02*
X52893150Y-98077937D01*
X35970238Y-96000065D02*
X36445529Y-92129135D01*
X33985146Y-95756326D02*
X34460436Y-91885397D01*
X35970238Y-96000065D02*
X33985146Y-95756326D01*
X17062233Y-93678454D02*
X17537524Y-89807524D01*
X15077141Y-93434715D02*
X15552431Y-89563786D01*
X17062233Y-93678454D02*
X15077141Y-93434715D01*
X312690020Y-72675208D02*
X312214730Y-68804279D01*
X310704928Y-72918947D02*
X310229637Y-69048017D01*
X312690020Y-72675208D02*
X310704928Y-72918947D01*
X293782016Y-74996819D02*
X293306726Y-71125890D01*
X291796924Y-75240558D02*
X291321633Y-71369628D01*
X293782016Y-74996819D02*
X291796924Y-75240558D01*
X274874011Y-77318430D02*
X274398721Y-73447501D01*
X272888919Y-77562169D02*
X272413628Y-73691239D01*
X274874011Y-77318430D02*
X272888919Y-77562169D01*
X255966007Y-79640041D02*
X255490717Y-75769112D01*
X253980915Y-79883780D02*
X253505624Y-76012850D01*
X255966007Y-79640041D02*
X253980915Y-79883780D01*
X237058003Y-81961652D02*
X236582713Y-78090723D01*
X235072911Y-82205391D02*
X234597620Y-78334461D01*
X237058003Y-81961652D02*
X235072911Y-82205391D01*
X218149999Y-84283263D02*
X217674709Y-80412334D01*
X216164907Y-84527002D02*
X215689616Y-80656072D01*
X218149999Y-84283263D02*
X216164907Y-84527002D01*
X185150000Y-63210000D02*
X185150000Y-59310000D01*
X183150000Y-63210000D02*
X183150000Y-59310000D01*
X185150000Y-63210000D02*
X183150000Y-63210000D01*
X166100000Y-63210000D02*
X166100000Y-59310000D01*
X164100000Y-63210000D02*
X164100000Y-59310000D01*
X166100000Y-63210000D02*
X164100000Y-63210000D01*
X147208750Y-63051250D02*
X147208750Y-59151250D01*
X145208750Y-63051250D02*
X145208750Y-59151250D01*
X147208750Y-63051250D02*
X145208750Y-63051250D01*
X114100779Y-86240285D02*
X114576070Y-82369355D01*
X112115687Y-85996546D02*
X112590977Y-82125617D01*
X114100779Y-86240285D02*
X112115687Y-85996546D01*
X95192775Y-83918674D02*
X95668066Y-80047744D01*
X93207683Y-83674935D02*
X93682973Y-79804006D01*
X95192775Y-83918674D02*
X93207683Y-83674935D01*
X76284770Y-81597063D02*
X76760061Y-77726133D01*
X74299678Y-81353324D02*
X74774968Y-77482395D01*
X76284770Y-81597063D02*
X74299678Y-81353324D01*
X57376766Y-79275452D02*
X57852057Y-75404522D01*
X55391674Y-79031713D02*
X55866964Y-75160784D01*
X57376766Y-79275452D02*
X55391674Y-79031713D01*
X38468762Y-76953841D02*
X38944053Y-73082911D01*
X36483670Y-76710102D02*
X36958960Y-72839173D01*
X38468762Y-76953841D02*
X36483670Y-76710102D01*
X19560758Y-74632230D02*
X20036049Y-70761300D01*
X17575666Y-74388491D02*
X18050956Y-70517562D01*
X19560758Y-74632230D02*
X17575666Y-74388491D01*
X310664196Y-53570944D02*
X310188906Y-49700015D01*
X308679104Y-53814683D02*
X308203813Y-49943753D01*
X310664196Y-53570944D02*
X308679104Y-53814683D01*
X291756191Y-55892555D02*
X291280901Y-52021626D01*
X289771099Y-56136294D02*
X289295808Y-52265364D01*
X291756191Y-55892555D02*
X289771099Y-56136294D01*
X272848187Y-58214166D02*
X272372897Y-54343237D01*
X270863095Y-58457905D02*
X270387804Y-54586975D01*
X272848187Y-58214166D02*
X270863095Y-58457905D01*
X253940183Y-60535777D02*
X253464893Y-56664848D01*
X251955091Y-60779516D02*
X251479800Y-56908586D01*
X253940183Y-60535777D02*
X251955091Y-60779516D01*
X235032179Y-62857388D02*
X234556889Y-58986459D01*
X233047087Y-63101127D02*
X232571796Y-59230197D01*
X235032179Y-62857388D02*
X233047087Y-63101127D01*
X216124175Y-65178999D02*
X215648885Y-61308070D01*
X214139083Y-65422738D02*
X213663792Y-61551808D01*
X216124175Y-65178999D02*
X214139083Y-65422738D01*
X185467500Y-44001250D02*
X185467500Y-40101250D01*
X183467500Y-44001250D02*
X183467500Y-40101250D01*
X185467500Y-44001250D02*
X183467500Y-44001250D01*
X166417500Y-44001250D02*
X166417500Y-40101250D01*
X164417500Y-44001250D02*
X164417500Y-40101250D01*
X166417500Y-44001250D02*
X164417500Y-44001250D01*
X147208750Y-44001250D02*
X147208750Y-40101250D01*
X145208750Y-44001250D02*
X145208750Y-40101250D01*
X147208750Y-44001250D02*
X145208750Y-44001250D01*
X116422390Y-67332281D02*
X116897681Y-63461351D01*
X114437298Y-67088542D02*
X114912588Y-63217613D01*
X116422390Y-67332281D02*
X114437298Y-67088542D01*
X97514386Y-65010670D02*
X97989677Y-61139740D01*
X95529294Y-64766931D02*
X96004584Y-60896002D01*
X97514386Y-65010670D02*
X95529294Y-64766931D01*
X78606381Y-62689059D02*
X79081672Y-58818129D01*
X76621289Y-62445320D02*
X77096579Y-58574391D01*
X78606381Y-62689059D02*
X76621289Y-62445320D01*
X59698377Y-60367448D02*
X60173668Y-56496518D01*
X57713285Y-60123709D02*
X58188575Y-56252780D01*
X59698377Y-60367448D02*
X57713285Y-60123709D01*
X40790373Y-58045837D02*
X41265664Y-54174907D01*
X38805281Y-57802098D02*
X39280571Y-53931169D01*
X40790373Y-58045837D02*
X38805281Y-57802098D01*
X21882369Y-55724226D02*
X22357660Y-51853296D01*
X19897277Y-55480487D02*
X20372567Y-51609558D01*
X21882369Y-55724226D02*
X19897277Y-55480487D01*
X72950000Y-147578578D02*
X72950000Y-147061422D01*
X74370000Y-147578578D02*
X74370000Y-147061422D01*
X74370000Y-136901422D02*
X74370000Y-137418578D01*
X72950000Y-136901422D02*
X72950000Y-137418578D01*
X59948578Y-134060000D02*
X59431422Y-134060000D01*
X59948578Y-132640000D02*
X59431422Y-132640000D01*
X59130000Y-150871422D02*
X59130000Y-151388578D01*
X57710000Y-150871422D02*
X57710000Y-151388578D01*
X63241422Y-150420000D02*
X63758578Y-150420000D01*
X63241422Y-151840000D02*
X63758578Y-151840000D01*
X53081422Y-148030000D02*
X53598578Y-148030000D01*
X53081422Y-146610000D02*
X53598578Y-146610000D01*
X53598578Y-137870000D02*
X53081422Y-137870000D01*
X53598578Y-136450000D02*
X53081422Y-136450000D01*
D11*
X177851342Y-114639033D02*
X177898961Y-114591414D01*
X177946580Y-114448557D01*
X177946580Y-114353319D01*
X177898961Y-114210461D01*
X177803723Y-114115223D01*
X177708485Y-114067604D01*
X177518009Y-114019985D01*
X177375152Y-114019985D01*
X177184676Y-114067604D01*
X177089438Y-114115223D01*
X176994200Y-114210461D01*
X176946580Y-114353319D01*
X176946580Y-114448557D01*
X176994200Y-114591414D01*
X177041819Y-114639033D01*
X177946580Y-115115223D02*
X177946580Y-115305700D01*
X177898961Y-115400938D01*
X177851342Y-115448557D01*
X177708485Y-115543795D01*
X177518009Y-115591414D01*
X177137057Y-115591414D01*
X177041819Y-115543795D01*
X176994200Y-115496176D01*
X176946580Y-115400938D01*
X176946580Y-115210461D01*
X176994200Y-115115223D01*
X177041819Y-115067604D01*
X177137057Y-115019985D01*
X177375152Y-115019985D01*
X177470390Y-115067604D01*
X177518009Y-115115223D01*
X177565628Y-115210461D01*
X177565628Y-115400938D01*
X177518009Y-115496176D01*
X177470390Y-115543795D01*
X177375152Y-115591414D01*
X179555142Y-114641333D02*
X179602761Y-114593714D01*
X179650380Y-114450857D01*
X179650380Y-114355619D01*
X179602761Y-114212761D01*
X179507523Y-114117523D01*
X179412285Y-114069904D01*
X179221809Y-114022285D01*
X179078952Y-114022285D01*
X178888476Y-114069904D01*
X178793238Y-114117523D01*
X178698000Y-114212761D01*
X178650380Y-114355619D01*
X178650380Y-114450857D01*
X178698000Y-114593714D01*
X178745619Y-114641333D01*
X179078952Y-115212761D02*
X179031333Y-115117523D01*
X178983714Y-115069904D01*
X178888476Y-115022285D01*
X178840857Y-115022285D01*
X178745619Y-115069904D01*
X178698000Y-115117523D01*
X178650380Y-115212761D01*
X178650380Y-115403238D01*
X178698000Y-115498476D01*
X178745619Y-115546095D01*
X178840857Y-115593714D01*
X178888476Y-115593714D01*
X178983714Y-115546095D01*
X179031333Y-115498476D01*
X179078952Y-115403238D01*
X179078952Y-115212761D01*
X179126571Y-115117523D01*
X179174190Y-115069904D01*
X179269428Y-115022285D01*
X179459904Y-115022285D01*
X179555142Y-115069904D01*
X179602761Y-115117523D01*
X179650380Y-115212761D01*
X179650380Y-115403238D01*
X179602761Y-115498476D01*
X179555142Y-115546095D01*
X179459904Y-115593714D01*
X179269428Y-115593714D01*
X179174190Y-115546095D01*
X179126571Y-115498476D01*
X179078952Y-115403238D01*
X8088095Y-33234380D02*
X8088095Y-34043904D01*
X8040476Y-34139142D01*
X7992857Y-34186761D01*
X7897619Y-34234380D01*
X7707142Y-34234380D01*
X7611904Y-34186761D01*
X7564285Y-34139142D01*
X7516666Y-34043904D01*
X7516666Y-33234380D01*
X7088095Y-34186761D02*
X6945238Y-34234380D01*
X6707142Y-34234380D01*
X6611904Y-34186761D01*
X6564285Y-34139142D01*
X6516666Y-34043904D01*
X6516666Y-33948666D01*
X6564285Y-33853428D01*
X6611904Y-33805809D01*
X6707142Y-33758190D01*
X6897619Y-33710571D01*
X6992857Y-33662952D01*
X7040476Y-33615333D01*
X7088095Y-33520095D01*
X7088095Y-33424857D01*
X7040476Y-33329619D01*
X6992857Y-33282000D01*
X6897619Y-33234380D01*
X6659523Y-33234380D01*
X6516666Y-33282000D01*
X5754761Y-33710571D02*
X5611904Y-33758190D01*
X5564285Y-33805809D01*
X5516666Y-33901047D01*
X5516666Y-34043904D01*
X5564285Y-34139142D01*
X5611904Y-34186761D01*
X5707142Y-34234380D01*
X6088095Y-34234380D01*
X6088095Y-33234380D01*
X5754761Y-33234380D01*
X5659523Y-33282000D01*
X5611904Y-33329619D01*
X5564285Y-33424857D01*
X5564285Y-33520095D01*
X5611904Y-33615333D01*
X5659523Y-33662952D01*
X5754761Y-33710571D01*
X6088095Y-33710571D01*
X4564285Y-34234380D02*
X5135714Y-34234380D01*
X4850000Y-34234380D02*
X4850000Y-33234380D01*
X4945238Y-33377238D01*
X5040476Y-33472476D01*
X5135714Y-33520095D01*
X50866190Y-141763809D02*
X51342380Y-141763809D01*
X50342380Y-141430476D02*
X50866190Y-141763809D01*
X50342380Y-142097142D01*
X51342380Y-142954285D02*
X51342380Y-142382857D01*
X51342380Y-142668571D02*
X50342380Y-142668571D01*
X50485238Y-142573333D01*
X50580476Y-142478095D01*
X50628095Y-142382857D01*
X71672380Y-141478095D02*
X72481904Y-141478095D01*
X72577142Y-141525714D01*
X72624761Y-141573333D01*
X72672380Y-141668571D01*
X72672380Y-141859047D01*
X72624761Y-141954285D01*
X72577142Y-142001904D01*
X72481904Y-142049523D01*
X71672380Y-142049523D01*
X72672380Y-143049523D02*
X72672380Y-142478095D01*
X72672380Y-142763809D02*
X71672380Y-142763809D01*
X71815238Y-142668571D01*
X71910476Y-142573333D01*
X71958095Y-142478095D01*
X30630761Y-139636666D02*
X30678380Y-139779523D01*
X30678380Y-140017619D01*
X30630761Y-140112857D01*
X30583142Y-140160476D01*
X30487904Y-140208095D01*
X30392666Y-140208095D01*
X30297428Y-140160476D01*
X30249809Y-140112857D01*
X30202190Y-140017619D01*
X30154571Y-139827142D01*
X30106952Y-139731904D01*
X30059333Y-139684285D01*
X29964095Y-139636666D01*
X29868857Y-139636666D01*
X29773619Y-139684285D01*
X29726000Y-139731904D01*
X29678380Y-139827142D01*
X29678380Y-140065238D01*
X29726000Y-140208095D01*
X29678380Y-140541428D02*
X30678380Y-140779523D01*
X29964095Y-140970000D01*
X30678380Y-141160476D01*
X29678380Y-141398571D01*
X30678380Y-142303333D02*
X30678380Y-141731904D01*
X30678380Y-142017619D02*
X29678380Y-142017619D01*
X29821238Y-141922380D01*
X29916476Y-141827142D01*
X29964095Y-141731904D01*
X70118266Y-132152380D02*
X70451600Y-131676190D01*
X70689695Y-132152380D02*
X70689695Y-131152380D01*
X70308742Y-131152380D01*
X70213504Y-131200000D01*
X70165885Y-131247619D01*
X70118266Y-131342857D01*
X70118266Y-131485714D01*
X70165885Y-131580952D01*
X70213504Y-131628571D01*
X70308742Y-131676190D01*
X70689695Y-131676190D01*
X69261123Y-131485714D02*
X69261123Y-132152380D01*
X69499219Y-131104761D02*
X69737314Y-131819047D01*
X69118266Y-131819047D01*
X53506666Y-155012380D02*
X53840000Y-154536190D01*
X54078095Y-155012380D02*
X54078095Y-154012380D01*
X53697142Y-154012380D01*
X53601904Y-154060000D01*
X53554285Y-154107619D01*
X53506666Y-154202857D01*
X53506666Y-154345714D01*
X53554285Y-154440952D01*
X53601904Y-154488571D01*
X53697142Y-154536190D01*
X54078095Y-154536190D01*
X53173333Y-154012380D02*
X52554285Y-154012380D01*
X52887619Y-154393333D01*
X52744761Y-154393333D01*
X52649523Y-154440952D01*
X52601904Y-154488571D01*
X52554285Y-154583809D01*
X52554285Y-154821904D01*
X52601904Y-154917142D01*
X52649523Y-154964761D01*
X52744761Y-155012380D01*
X53030476Y-155012380D01*
X53125714Y-154964761D01*
X53173333Y-154917142D01*
X53506666Y-152472380D02*
X53840000Y-151996190D01*
X54078095Y-152472380D02*
X54078095Y-151472380D01*
X53697142Y-151472380D01*
X53601904Y-151520000D01*
X53554285Y-151567619D01*
X53506666Y-151662857D01*
X53506666Y-151805714D01*
X53554285Y-151900952D01*
X53601904Y-151948571D01*
X53697142Y-151996190D01*
X54078095Y-151996190D01*
X53125714Y-151567619D02*
X53078095Y-151520000D01*
X52982857Y-151472380D01*
X52744761Y-151472380D01*
X52649523Y-151520000D01*
X52601904Y-151567619D01*
X52554285Y-151662857D01*
X52554285Y-151758095D01*
X52601904Y-151900952D01*
X53173333Y-152472380D01*
X52554285Y-152472380D01*
X53506666Y-149932380D02*
X53840000Y-149456190D01*
X54078095Y-149932380D02*
X54078095Y-148932380D01*
X53697142Y-148932380D01*
X53601904Y-148980000D01*
X53554285Y-149027619D01*
X53506666Y-149122857D01*
X53506666Y-149265714D01*
X53554285Y-149360952D01*
X53601904Y-149408571D01*
X53697142Y-149456190D01*
X54078095Y-149456190D01*
X52554285Y-149932380D02*
X53125714Y-149932380D01*
X52840000Y-149932380D02*
X52840000Y-148932380D01*
X52935238Y-149075238D01*
X53030476Y-149170476D01*
X53125714Y-149218095D01*
X59388333Y-154318571D02*
X59721666Y-154318571D01*
X59721666Y-154842380D02*
X59721666Y-153842380D01*
X59245476Y-153842380D01*
X58340714Y-154842380D02*
X58912142Y-154842380D01*
X58626428Y-154842380D02*
X58626428Y-153842380D01*
X58721666Y-153985238D01*
X58816904Y-154080476D01*
X58912142Y-154128095D01*
X186603180Y-146236654D02*
X185603180Y-146236654D01*
X185603180Y-146474749D01*
X185650800Y-146617606D01*
X185746038Y-146712844D01*
X185841276Y-146760463D01*
X186031752Y-146808082D01*
X186174609Y-146808082D01*
X186365085Y-146760463D01*
X186460323Y-146712844D01*
X186555561Y-146617606D01*
X186603180Y-146474749D01*
X186603180Y-146236654D01*
X185603180Y-147665225D02*
X185603180Y-147474749D01*
X185650800Y-147379511D01*
X185698419Y-147331892D01*
X185841276Y-147236654D01*
X186031752Y-147189035D01*
X186412704Y-147189035D01*
X186507942Y-147236654D01*
X186555561Y-147284273D01*
X186603180Y-147379511D01*
X186603180Y-147569987D01*
X186555561Y-147665225D01*
X186507942Y-147712844D01*
X186412704Y-147760463D01*
X186174609Y-147760463D01*
X186079371Y-147712844D01*
X186031752Y-147665225D01*
X185984133Y-147569987D01*
X185984133Y-147379511D01*
X186031752Y-147284273D01*
X186079371Y-147236654D01*
X186174609Y-147189035D01*
X185603180Y-148665225D02*
X185603180Y-148189035D01*
X186079371Y-148141416D01*
X186031752Y-148189035D01*
X185984133Y-148284273D01*
X185984133Y-148522368D01*
X186031752Y-148617606D01*
X186079371Y-148665225D01*
X186174609Y-148712844D01*
X186412704Y-148712844D01*
X186507942Y-148665225D01*
X186555561Y-148617606D01*
X186603180Y-148522368D01*
X186603180Y-148284273D01*
X186555561Y-148189035D01*
X186507942Y-148141416D01*
X167553180Y-146236654D02*
X166553180Y-146236654D01*
X166553180Y-146474749D01*
X166600800Y-146617606D01*
X166696038Y-146712844D01*
X166791276Y-146760463D01*
X166981752Y-146808082D01*
X167124609Y-146808082D01*
X167315085Y-146760463D01*
X167410323Y-146712844D01*
X167505561Y-146617606D01*
X167553180Y-146474749D01*
X167553180Y-146236654D01*
X166553180Y-147665225D02*
X166553180Y-147474749D01*
X166600800Y-147379511D01*
X166648419Y-147331892D01*
X166791276Y-147236654D01*
X166981752Y-147189035D01*
X167362704Y-147189035D01*
X167457942Y-147236654D01*
X167505561Y-147284273D01*
X167553180Y-147379511D01*
X167553180Y-147569987D01*
X167505561Y-147665225D01*
X167457942Y-147712844D01*
X167362704Y-147760463D01*
X167124609Y-147760463D01*
X167029371Y-147712844D01*
X166981752Y-147665225D01*
X166934133Y-147569987D01*
X166934133Y-147379511D01*
X166981752Y-147284273D01*
X167029371Y-147236654D01*
X167124609Y-147189035D01*
X166886514Y-148617606D02*
X167553180Y-148617606D01*
X166505561Y-148379511D02*
X167219847Y-148141416D01*
X167219847Y-148760463D01*
X148503180Y-146236654D02*
X147503180Y-146236654D01*
X147503180Y-146474749D01*
X147550800Y-146617606D01*
X147646038Y-146712844D01*
X147741276Y-146760463D01*
X147931752Y-146808082D01*
X148074609Y-146808082D01*
X148265085Y-146760463D01*
X148360323Y-146712844D01*
X148455561Y-146617606D01*
X148503180Y-146474749D01*
X148503180Y-146236654D01*
X147503180Y-147665225D02*
X147503180Y-147474749D01*
X147550800Y-147379511D01*
X147598419Y-147331892D01*
X147741276Y-147236654D01*
X147931752Y-147189035D01*
X148312704Y-147189035D01*
X148407942Y-147236654D01*
X148455561Y-147284273D01*
X148503180Y-147379511D01*
X148503180Y-147569987D01*
X148455561Y-147665225D01*
X148407942Y-147712844D01*
X148312704Y-147760463D01*
X148074609Y-147760463D01*
X147979371Y-147712844D01*
X147931752Y-147665225D01*
X147884133Y-147569987D01*
X147884133Y-147379511D01*
X147931752Y-147284273D01*
X147979371Y-147236654D01*
X148074609Y-147189035D01*
X147503180Y-148093797D02*
X147503180Y-148712844D01*
X147884133Y-148379511D01*
X147884133Y-148522368D01*
X147931752Y-148617606D01*
X147979371Y-148665225D01*
X148074609Y-148712844D01*
X148312704Y-148712844D01*
X148407942Y-148665225D01*
X148455561Y-148617606D01*
X148503180Y-148522368D01*
X148503180Y-148236654D01*
X148455561Y-148141416D01*
X148407942Y-148093797D01*
X167553180Y-127186654D02*
X166553180Y-127186654D01*
X166553180Y-127424749D01*
X166600800Y-127567606D01*
X166696038Y-127662844D01*
X166791276Y-127710463D01*
X166981752Y-127758082D01*
X167124609Y-127758082D01*
X167315085Y-127710463D01*
X167410323Y-127662844D01*
X167505561Y-127567606D01*
X167553180Y-127424749D01*
X167553180Y-127186654D01*
X166553180Y-128615225D02*
X166553180Y-128424749D01*
X166600800Y-128329511D01*
X166648419Y-128281892D01*
X166791276Y-128186654D01*
X166981752Y-128139035D01*
X167362704Y-128139035D01*
X167457942Y-128186654D01*
X167505561Y-128234273D01*
X167553180Y-128329511D01*
X167553180Y-128519987D01*
X167505561Y-128615225D01*
X167457942Y-128662844D01*
X167362704Y-128710463D01*
X167124609Y-128710463D01*
X167029371Y-128662844D01*
X166981752Y-128615225D01*
X166934133Y-128519987D01*
X166934133Y-128329511D01*
X166981752Y-128234273D01*
X167029371Y-128186654D01*
X167124609Y-128139035D01*
X167553180Y-129662844D02*
X167553180Y-129091416D01*
X167553180Y-129377130D02*
X166553180Y-129377130D01*
X166696038Y-129281892D01*
X166791276Y-129186654D01*
X166838895Y-129091416D01*
X317750557Y-109396484D02*
X318743103Y-109274615D01*
X318714086Y-109038295D01*
X318649412Y-108902306D01*
X318543278Y-108819384D01*
X318442946Y-108783727D01*
X318248086Y-108759676D01*
X318106294Y-108777086D01*
X317923041Y-108847563D01*
X317834316Y-108906434D01*
X317751394Y-109012568D01*
X317721540Y-109160164D01*
X317750557Y-109396484D01*
X318569004Y-107856692D02*
X318592217Y-108045748D01*
X318556560Y-108146080D01*
X318515099Y-108199147D01*
X318384913Y-108311085D01*
X318201660Y-108381563D01*
X317823547Y-108427989D01*
X317723216Y-108392332D01*
X317670148Y-108350871D01*
X317611277Y-108262146D01*
X317588064Y-108073090D01*
X317623722Y-107972758D01*
X317665183Y-107919691D01*
X317753907Y-107860820D01*
X317990228Y-107831803D01*
X318090559Y-107867461D01*
X318143627Y-107908922D01*
X318202498Y-107997647D01*
X318225711Y-108186703D01*
X318190053Y-108287035D01*
X318148593Y-108340102D01*
X318059868Y-108398973D01*
X318481954Y-107147731D02*
X318470348Y-107053202D01*
X318411477Y-106964477D01*
X318358410Y-106923017D01*
X318258078Y-106887359D01*
X318063218Y-106863308D01*
X317826898Y-106892325D01*
X317643645Y-106962802D01*
X317554920Y-107021673D01*
X317513459Y-107074740D01*
X317477802Y-107175072D01*
X317489408Y-107269600D01*
X317548279Y-107358325D01*
X317601346Y-107399786D01*
X317701678Y-107435443D01*
X317896537Y-107459494D01*
X318132858Y-107430477D01*
X318316111Y-107360000D01*
X318404836Y-107301129D01*
X318446297Y-107248062D01*
X318481954Y-107147731D01*
X298842553Y-111718095D02*
X299835099Y-111596226D01*
X299806082Y-111359906D01*
X299741408Y-111223917D01*
X299635274Y-111140995D01*
X299534942Y-111105338D01*
X299340082Y-111081287D01*
X299198290Y-111098697D01*
X299015037Y-111169174D01*
X298926312Y-111228045D01*
X298843390Y-111334179D01*
X298813536Y-111481775D01*
X298842553Y-111718095D01*
X299655197Y-110131039D02*
X299713230Y-110603680D01*
X299246392Y-110708977D01*
X299287853Y-110655910D01*
X299323510Y-110555578D01*
X299294494Y-110319258D01*
X299235623Y-110230533D01*
X299182555Y-110189072D01*
X299082224Y-110153414D01*
X298845903Y-110182431D01*
X298757179Y-110241302D01*
X298715718Y-110294369D01*
X298680060Y-110394701D01*
X298709077Y-110631021D01*
X298767947Y-110719746D01*
X298821015Y-110761207D01*
X298598814Y-109733003D02*
X298575601Y-109543947D01*
X298611258Y-109443615D01*
X298652719Y-109390548D01*
X298782905Y-109278610D01*
X298966158Y-109208132D01*
X299344271Y-109161706D01*
X299444602Y-109197364D01*
X299497670Y-109238824D01*
X299556540Y-109327549D01*
X299579754Y-109516606D01*
X299544096Y-109616937D01*
X299502635Y-109670005D01*
X299413910Y-109728875D01*
X299177590Y-109757892D01*
X299077258Y-109722234D01*
X299024191Y-109680773D01*
X298965320Y-109592049D01*
X298942107Y-109402992D01*
X298977765Y-109302661D01*
X299019225Y-109249593D01*
X299107950Y-109190723D01*
X279934548Y-114039706D02*
X280927094Y-113917837D01*
X280898077Y-113681517D01*
X280833403Y-113545528D01*
X280727269Y-113462606D01*
X280626937Y-113426949D01*
X280432077Y-113402898D01*
X280290285Y-113420308D01*
X280107032Y-113490785D01*
X280018307Y-113549656D01*
X279935385Y-113655790D01*
X279905531Y-113803386D01*
X279934548Y-114039706D01*
X280747192Y-112452650D02*
X280805225Y-112925291D01*
X280338387Y-113030588D01*
X280379848Y-112977521D01*
X280415505Y-112877189D01*
X280386489Y-112640869D01*
X280327618Y-112552144D01*
X280274550Y-112510683D01*
X280174219Y-112475025D01*
X279937898Y-112504042D01*
X279849174Y-112562913D01*
X279807713Y-112615980D01*
X279772055Y-112716312D01*
X279801072Y-112952632D01*
X279859942Y-113041357D01*
X279913010Y-113082818D01*
X280246372Y-111890446D02*
X280305242Y-111979171D01*
X280358310Y-112020632D01*
X280458641Y-112056290D01*
X280505905Y-112050486D01*
X280594630Y-111991616D01*
X280636091Y-111938548D01*
X280671749Y-111838217D01*
X280648535Y-111649160D01*
X280589665Y-111560435D01*
X280536597Y-111518975D01*
X280436266Y-111483317D01*
X280389002Y-111489120D01*
X280300277Y-111547991D01*
X280258816Y-111601058D01*
X280223158Y-111701390D01*
X280246372Y-111890446D01*
X280210714Y-111990778D01*
X280169253Y-112043845D01*
X280080528Y-112102716D01*
X279891472Y-112125929D01*
X279791141Y-112090272D01*
X279738073Y-112048811D01*
X279679202Y-111960086D01*
X279655989Y-111771030D01*
X279691647Y-111670698D01*
X279733108Y-111617631D01*
X279821832Y-111558760D01*
X280010889Y-111535547D01*
X280111220Y-111571204D01*
X280164288Y-111612665D01*
X280223158Y-111701390D01*
X261026544Y-116361317D02*
X262019090Y-116239448D01*
X261990073Y-116003128D01*
X261925399Y-115867139D01*
X261819265Y-115784217D01*
X261718933Y-115748560D01*
X261524073Y-115724509D01*
X261382281Y-115741919D01*
X261199028Y-115812396D01*
X261110303Y-115871267D01*
X261027381Y-115977401D01*
X260997527Y-116124997D01*
X261026544Y-116361317D01*
X261839188Y-114774261D02*
X261897221Y-115246902D01*
X261430383Y-115352199D01*
X261471844Y-115299132D01*
X261507501Y-115198800D01*
X261478485Y-114962480D01*
X261419614Y-114873755D01*
X261366546Y-114832294D01*
X261266215Y-114796636D01*
X261029894Y-114825653D01*
X260941170Y-114884524D01*
X260899709Y-114937591D01*
X260864051Y-115037923D01*
X260893068Y-115274243D01*
X260951938Y-115362968D01*
X261005006Y-115404429D01*
X261792761Y-114396148D02*
X261711515Y-113734451D01*
X260771198Y-114281697D01*
X242118540Y-118682928D02*
X243111086Y-118561059D01*
X243082069Y-118324739D01*
X243017395Y-118188750D01*
X242911261Y-118105828D01*
X242810929Y-118070171D01*
X242616069Y-118046120D01*
X242474277Y-118063530D01*
X242291024Y-118134007D01*
X242202299Y-118192878D01*
X242119377Y-118299012D01*
X242089523Y-118446608D01*
X242118540Y-118682928D01*
X242931184Y-117095872D02*
X242989217Y-117568513D01*
X242522379Y-117673810D01*
X242563840Y-117620743D01*
X242599497Y-117520411D01*
X242570481Y-117284091D01*
X242511610Y-117195366D01*
X242458542Y-117153905D01*
X242358211Y-117118247D01*
X242121890Y-117147264D01*
X242033166Y-117206135D01*
X241991705Y-117259202D01*
X241956047Y-117359534D01*
X241985064Y-117595854D01*
X242043934Y-117684579D01*
X242097002Y-117726040D01*
X242820921Y-116197854D02*
X242844134Y-116386910D01*
X242808476Y-116487242D01*
X242767016Y-116540309D01*
X242636830Y-116652247D01*
X242453577Y-116722725D01*
X242075464Y-116769151D01*
X241975133Y-116733494D01*
X241922065Y-116692033D01*
X241863194Y-116603308D01*
X241839981Y-116414252D01*
X241875639Y-116313920D01*
X241917100Y-116260853D01*
X242005824Y-116201982D01*
X242242145Y-116172965D01*
X242342476Y-116208623D01*
X242395544Y-116250084D01*
X242454415Y-116338809D01*
X242477628Y-116527865D01*
X242441970Y-116628197D01*
X242400509Y-116681264D01*
X242311785Y-116740135D01*
X223210536Y-121004539D02*
X224203082Y-120882670D01*
X224174065Y-120646350D01*
X224109391Y-120510361D01*
X224003257Y-120427439D01*
X223902925Y-120391782D01*
X223708065Y-120367731D01*
X223566273Y-120385141D01*
X223383020Y-120455618D01*
X223294295Y-120514489D01*
X223211373Y-120620623D01*
X223181519Y-120768219D01*
X223210536Y-121004539D01*
X224023180Y-119417483D02*
X224081213Y-119890124D01*
X223614375Y-119995421D01*
X223655836Y-119942354D01*
X223691493Y-119842022D01*
X223662477Y-119605702D01*
X223603606Y-119516977D01*
X223550538Y-119475516D01*
X223450207Y-119439858D01*
X223213886Y-119468875D01*
X223125162Y-119527746D01*
X223083701Y-119580813D01*
X223048043Y-119681145D01*
X223077060Y-119917465D01*
X223135930Y-120006190D01*
X223188998Y-120047651D01*
X223907113Y-118472201D02*
X223965146Y-118944842D01*
X223498309Y-119050139D01*
X223539770Y-118997072D01*
X223575427Y-118896740D01*
X223546411Y-118660420D01*
X223487540Y-118571695D01*
X223434472Y-118530234D01*
X223334141Y-118494576D01*
X223097820Y-118523593D01*
X223009096Y-118582464D01*
X222967635Y-118635531D01*
X222931977Y-118735863D01*
X222960994Y-118972183D01*
X223019864Y-119060908D01*
X223072932Y-119102369D01*
X186602380Y-97845714D02*
X185602380Y-97845714D01*
X185602380Y-98083809D01*
X185650000Y-98226666D01*
X185745238Y-98321904D01*
X185840476Y-98369523D01*
X186030952Y-98417142D01*
X186173809Y-98417142D01*
X186364285Y-98369523D01*
X186459523Y-98321904D01*
X186554761Y-98226666D01*
X186602380Y-98083809D01*
X186602380Y-97845714D01*
X185602380Y-99321904D02*
X185602380Y-98845714D01*
X186078571Y-98798095D01*
X186030952Y-98845714D01*
X185983333Y-98940952D01*
X185983333Y-99179047D01*
X186030952Y-99274285D01*
X186078571Y-99321904D01*
X186173809Y-99369523D01*
X186411904Y-99369523D01*
X186507142Y-99321904D01*
X186554761Y-99274285D01*
X186602380Y-99179047D01*
X186602380Y-98940952D01*
X186554761Y-98845714D01*
X186507142Y-98798095D01*
X185935714Y-100226666D02*
X186602380Y-100226666D01*
X185554761Y-99988571D02*
X186269047Y-99750476D01*
X186269047Y-100369523D01*
X167552380Y-97845714D02*
X166552380Y-97845714D01*
X166552380Y-98083809D01*
X166600000Y-98226666D01*
X166695238Y-98321904D01*
X166790476Y-98369523D01*
X166980952Y-98417142D01*
X167123809Y-98417142D01*
X167314285Y-98369523D01*
X167409523Y-98321904D01*
X167504761Y-98226666D01*
X167552380Y-98083809D01*
X167552380Y-97845714D01*
X166552380Y-99321904D02*
X166552380Y-98845714D01*
X167028571Y-98798095D01*
X166980952Y-98845714D01*
X166933333Y-98940952D01*
X166933333Y-99179047D01*
X166980952Y-99274285D01*
X167028571Y-99321904D01*
X167123809Y-99369523D01*
X167361904Y-99369523D01*
X167457142Y-99321904D01*
X167504761Y-99274285D01*
X167552380Y-99179047D01*
X167552380Y-98940952D01*
X167504761Y-98845714D01*
X167457142Y-98798095D01*
X166552380Y-99702857D02*
X166552380Y-100321904D01*
X166933333Y-99988571D01*
X166933333Y-100131428D01*
X166980952Y-100226666D01*
X167028571Y-100274285D01*
X167123809Y-100321904D01*
X167361904Y-100321904D01*
X167457142Y-100274285D01*
X167504761Y-100226666D01*
X167552380Y-100131428D01*
X167552380Y-99845714D01*
X167504761Y-99750476D01*
X167457142Y-99702857D01*
X148502380Y-97845714D02*
X147502380Y-97845714D01*
X147502380Y-98083809D01*
X147550000Y-98226666D01*
X147645238Y-98321904D01*
X147740476Y-98369523D01*
X147930952Y-98417142D01*
X148073809Y-98417142D01*
X148264285Y-98369523D01*
X148359523Y-98321904D01*
X148454761Y-98226666D01*
X148502380Y-98083809D01*
X148502380Y-97845714D01*
X147502380Y-99321904D02*
X147502380Y-98845714D01*
X147978571Y-98798095D01*
X147930952Y-98845714D01*
X147883333Y-98940952D01*
X147883333Y-99179047D01*
X147930952Y-99274285D01*
X147978571Y-99321904D01*
X148073809Y-99369523D01*
X148311904Y-99369523D01*
X148407142Y-99321904D01*
X148454761Y-99274285D01*
X148502380Y-99179047D01*
X148502380Y-98940952D01*
X148454761Y-98845714D01*
X148407142Y-98798095D01*
X147597619Y-99750476D02*
X147550000Y-99798095D01*
X147502380Y-99893333D01*
X147502380Y-100131428D01*
X147550000Y-100226666D01*
X147597619Y-100274285D01*
X147692857Y-100321904D01*
X147788095Y-100321904D01*
X147930952Y-100274285D01*
X148502380Y-99702857D01*
X148502380Y-100321904D01*
X111144388Y-120933051D02*
X110151842Y-120811182D01*
X110122825Y-121047502D01*
X110152679Y-121195098D01*
X110235601Y-121301233D01*
X110324326Y-121360104D01*
X110507579Y-121430581D01*
X110649371Y-121447991D01*
X110844231Y-121423940D01*
X110944562Y-121388282D01*
X111050697Y-121305361D01*
X111115371Y-121169372D01*
X111144388Y-120933051D01*
X109971939Y-122276369D02*
X110029972Y-121803728D01*
X110508417Y-121814497D01*
X110455349Y-121855958D01*
X110396478Y-121944683D01*
X110367462Y-122181003D01*
X110403119Y-122281335D01*
X110444580Y-122334402D01*
X110533305Y-122393273D01*
X110769626Y-122422289D01*
X110869957Y-122386632D01*
X110923025Y-122345171D01*
X110981895Y-122256446D01*
X111010912Y-122020126D01*
X110975254Y-121919794D01*
X110933793Y-121866727D01*
X110842616Y-123390785D02*
X110912256Y-122823615D01*
X110877436Y-123107200D02*
X109884890Y-122985331D01*
X110038289Y-122908212D01*
X110144423Y-122825291D01*
X110203294Y-122736566D01*
X92236384Y-118611440D02*
X91243838Y-118489571D01*
X91214821Y-118725891D01*
X91244675Y-118873487D01*
X91327597Y-118979622D01*
X91416322Y-119038493D01*
X91599575Y-119108970D01*
X91741367Y-119126380D01*
X91936227Y-119102329D01*
X92036558Y-119066671D01*
X92142693Y-118983750D01*
X92207367Y-118847761D01*
X92236384Y-118611440D01*
X91063935Y-119954758D02*
X91121968Y-119482117D01*
X91600413Y-119492886D01*
X91547345Y-119534347D01*
X91488474Y-119623072D01*
X91459458Y-119859392D01*
X91495115Y-119959724D01*
X91536576Y-120012791D01*
X91625301Y-120071662D01*
X91861622Y-120100678D01*
X91961953Y-120065021D01*
X92015021Y-120023560D01*
X92073891Y-119934835D01*
X92102908Y-119698515D01*
X92067250Y-119598183D01*
X92025789Y-119545116D01*
X90982689Y-120616456D02*
X90971082Y-120710984D01*
X91006740Y-120811315D01*
X91048201Y-120864383D01*
X91136926Y-120923253D01*
X91320179Y-120993731D01*
X91556499Y-121022747D01*
X91751359Y-120998696D01*
X91851690Y-120963039D01*
X91904758Y-120921578D01*
X91963628Y-120832853D01*
X91975235Y-120738325D01*
X91939578Y-120637993D01*
X91898117Y-120584926D01*
X91809392Y-120526055D01*
X91626139Y-120455578D01*
X91389818Y-120426561D01*
X91194959Y-120450612D01*
X91094627Y-120486270D01*
X91041560Y-120527731D01*
X90982689Y-120616456D01*
X73328380Y-116289829D02*
X72335834Y-116167960D01*
X72306817Y-116404280D01*
X72336671Y-116551876D01*
X72419593Y-116658011D01*
X72508318Y-116716882D01*
X72691571Y-116787359D01*
X72833363Y-116804769D01*
X73028223Y-116780718D01*
X73128554Y-116745060D01*
X73234689Y-116662139D01*
X73299363Y-116526150D01*
X73328380Y-116289829D01*
X72492583Y-117626506D02*
X73154281Y-117707752D01*
X72143487Y-117343759D02*
X72881465Y-117194488D01*
X72806022Y-117808922D01*
X73084641Y-118274922D02*
X73061428Y-118463978D01*
X73002557Y-118552703D01*
X72949490Y-118594164D01*
X72796091Y-118671282D01*
X72601231Y-118695333D01*
X72223118Y-118648906D01*
X72134393Y-118590036D01*
X72092933Y-118536968D01*
X72057275Y-118436637D01*
X72080488Y-118247580D01*
X72139359Y-118158856D01*
X72192426Y-118117395D01*
X72292758Y-118081737D01*
X72529078Y-118110754D01*
X72617803Y-118169624D01*
X72659264Y-118222692D01*
X72694922Y-118323023D01*
X72671708Y-118512080D01*
X72612838Y-118600805D01*
X72559770Y-118642265D01*
X72459439Y-118677923D01*
X54420376Y-113968218D02*
X53427830Y-113846349D01*
X53398813Y-114082669D01*
X53428667Y-114230265D01*
X53511589Y-114336400D01*
X53600314Y-114395271D01*
X53783567Y-114465748D01*
X53925359Y-114483158D01*
X54120219Y-114459107D01*
X54220550Y-114423449D01*
X54326685Y-114340528D01*
X54391359Y-114204539D01*
X54420376Y-113968218D01*
X53584579Y-115304895D02*
X54246277Y-115386141D01*
X53235483Y-115022148D02*
X53973461Y-114872877D01*
X53898018Y-115487311D01*
X53597861Y-115978199D02*
X53562204Y-115877868D01*
X53520743Y-115824800D01*
X53432018Y-115765930D01*
X53384754Y-115760126D01*
X53284422Y-115795784D01*
X53231355Y-115837245D01*
X53172484Y-115925969D01*
X53149271Y-116115026D01*
X53184929Y-116215357D01*
X53226389Y-116268425D01*
X53315114Y-116327295D01*
X53362378Y-116333099D01*
X53462710Y-116297441D01*
X53515777Y-116255980D01*
X53574648Y-116167256D01*
X53597861Y-115978199D01*
X53656732Y-115889474D01*
X53709799Y-115848013D01*
X53810131Y-115812356D01*
X53999187Y-115835569D01*
X54087912Y-115894440D01*
X54129373Y-115947507D01*
X54165030Y-116047839D01*
X54141817Y-116236895D01*
X54082946Y-116325620D01*
X54029879Y-116367081D01*
X53929548Y-116402738D01*
X53740491Y-116379525D01*
X53651766Y-116320654D01*
X53610305Y-116267587D01*
X53574648Y-116167256D01*
X35512372Y-111646607D02*
X34519826Y-111524738D01*
X34490809Y-111761058D01*
X34520663Y-111908654D01*
X34603585Y-112014789D01*
X34692310Y-112073660D01*
X34875563Y-112144137D01*
X35017355Y-112161547D01*
X35212215Y-112137496D01*
X35312546Y-112101838D01*
X35418681Y-112018917D01*
X35483355Y-111882928D01*
X35512372Y-111646607D01*
X34676575Y-112983284D02*
X35338273Y-113064530D01*
X34327479Y-112700537D02*
X35065457Y-112551266D01*
X34990014Y-113165700D01*
X34293497Y-113368038D02*
X34212251Y-114029735D01*
X35257026Y-113726228D01*
X16604367Y-109324996D02*
X15611821Y-109203127D01*
X15582804Y-109439447D01*
X15612658Y-109587043D01*
X15695580Y-109693178D01*
X15784305Y-109752049D01*
X15967558Y-109822526D01*
X16109350Y-109839936D01*
X16304210Y-109815885D01*
X16404541Y-109780227D01*
X16510676Y-109697306D01*
X16575350Y-109561317D01*
X16604367Y-109324996D01*
X15768570Y-110661673D02*
X16430268Y-110742919D01*
X15419474Y-110378926D02*
X16157452Y-110229655D01*
X16082009Y-110844089D01*
X15321655Y-111566332D02*
X15344869Y-111377276D01*
X15403739Y-111288551D01*
X15456807Y-111247090D01*
X15610206Y-111169972D01*
X15805065Y-111145921D01*
X16183178Y-111192347D01*
X16271903Y-111251218D01*
X16313364Y-111304285D01*
X16349021Y-111404617D01*
X16325808Y-111593673D01*
X16266937Y-111682398D01*
X16213870Y-111723859D01*
X16113539Y-111759516D01*
X15877218Y-111730500D01*
X15788493Y-111671629D01*
X15747032Y-111618562D01*
X15711375Y-111518230D01*
X15734588Y-111329174D01*
X15793459Y-111240449D01*
X15846526Y-111198988D01*
X15946858Y-111163331D01*
X315428946Y-90488480D02*
X316421492Y-90366611D01*
X316392475Y-90130291D01*
X316327801Y-89994302D01*
X316221667Y-89911380D01*
X316121335Y-89875723D01*
X315926475Y-89851672D01*
X315784683Y-89869082D01*
X315601430Y-89939559D01*
X315512705Y-89998430D01*
X315429783Y-90104564D01*
X315399929Y-90252160D01*
X315428946Y-90488480D01*
X315916544Y-88989311D02*
X315254847Y-89070557D01*
X316323673Y-89179205D02*
X315643728Y-89502575D01*
X315568285Y-88888142D01*
X316125523Y-87956142D02*
X316183556Y-88428783D01*
X315716719Y-88534080D01*
X315758180Y-88481013D01*
X315793837Y-88380681D01*
X315764821Y-88144361D01*
X315705950Y-88055636D01*
X315652882Y-88014175D01*
X315552551Y-87978517D01*
X315316230Y-88007534D01*
X315227506Y-88066405D01*
X315186045Y-88119472D01*
X315150387Y-88219804D01*
X315179404Y-88456124D01*
X315238274Y-88544849D01*
X315291342Y-88586310D01*
X296520942Y-92810091D02*
X297513488Y-92688222D01*
X297484471Y-92451902D01*
X297419797Y-92315913D01*
X297313663Y-92232991D01*
X297213331Y-92197334D01*
X297018471Y-92173283D01*
X296876679Y-92190693D01*
X296693426Y-92261170D01*
X296604701Y-92320041D01*
X296521779Y-92426175D01*
X296491925Y-92573771D01*
X296520942Y-92810091D01*
X297008540Y-91310922D02*
X296346843Y-91392168D01*
X297415669Y-91500816D02*
X296735724Y-91824186D01*
X296660281Y-91209753D01*
X296892474Y-90365640D02*
X296230777Y-90446886D01*
X297299603Y-90555534D02*
X296619658Y-90878904D01*
X296544215Y-90264471D01*
X277612937Y-95131702D02*
X278605483Y-95009833D01*
X278576466Y-94773513D01*
X278511792Y-94637524D01*
X278405658Y-94554602D01*
X278305326Y-94518945D01*
X278110466Y-94494894D01*
X277968674Y-94512304D01*
X277785421Y-94582781D01*
X277696696Y-94641652D01*
X277613774Y-94747786D01*
X277583920Y-94895382D01*
X277612937Y-95131702D01*
X278100535Y-93632533D02*
X277438838Y-93713779D01*
X278507664Y-93822427D02*
X277827719Y-94145797D01*
X277752276Y-93531364D01*
X278379154Y-93166533D02*
X278303711Y-92552100D01*
X277966221Y-92929375D01*
X277948812Y-92787583D01*
X277889941Y-92698858D01*
X277836873Y-92657397D01*
X277736542Y-92621739D01*
X277500221Y-92650756D01*
X277411497Y-92709627D01*
X277370036Y-92762694D01*
X277334378Y-92863026D01*
X277369198Y-93146610D01*
X277428069Y-93235335D01*
X277481136Y-93276796D01*
X258704933Y-97453313D02*
X259697479Y-97331444D01*
X259668462Y-97095124D01*
X259603788Y-96959135D01*
X259497654Y-96876213D01*
X259397322Y-96840556D01*
X259202462Y-96816505D01*
X259060670Y-96833915D01*
X258877417Y-96904392D01*
X258788692Y-96963263D01*
X258705770Y-97069397D01*
X258675916Y-97216993D01*
X258704933Y-97453313D01*
X259192531Y-95954144D02*
X258530834Y-96035390D01*
X259599660Y-96144038D02*
X258919715Y-96467408D01*
X258844272Y-95852975D01*
X259370819Y-95452487D02*
X259412279Y-95399419D01*
X259447937Y-95299088D01*
X259418920Y-95062767D01*
X259360050Y-94974042D01*
X259306982Y-94932582D01*
X259206651Y-94896924D01*
X259112123Y-94908531D01*
X258976134Y-94973205D01*
X258478604Y-95610013D01*
X258403161Y-94995580D01*
X239796929Y-99774924D02*
X240789475Y-99653055D01*
X240760458Y-99416735D01*
X240695784Y-99280746D01*
X240589650Y-99197824D01*
X240489318Y-99162167D01*
X240294458Y-99138116D01*
X240152666Y-99155526D01*
X239969413Y-99226003D01*
X239880688Y-99284874D01*
X239797766Y-99391008D01*
X239767912Y-99538604D01*
X239796929Y-99774924D01*
X240284527Y-98275755D02*
X239622830Y-98357001D01*
X240691656Y-98465649D02*
X240011711Y-98789019D01*
X239936268Y-98174586D01*
X239495157Y-97317191D02*
X239564797Y-97884360D01*
X239529977Y-97600776D02*
X240522523Y-97478906D01*
X240392337Y-97590845D01*
X240309416Y-97696979D01*
X240273758Y-97797311D01*
X220888925Y-102096535D02*
X221881471Y-101974666D01*
X221852454Y-101738346D01*
X221787780Y-101602357D01*
X221681646Y-101519435D01*
X221581314Y-101483778D01*
X221386454Y-101459727D01*
X221244662Y-101477137D01*
X221061409Y-101547614D01*
X220972684Y-101606485D01*
X220889762Y-101712619D01*
X220859908Y-101860215D01*
X220888925Y-102096535D01*
X221376523Y-100597366D02*
X220714826Y-100678612D01*
X221783652Y-100787260D02*
X221103707Y-101110630D01*
X221028264Y-100496197D01*
X221620322Y-99847782D02*
X221608716Y-99753253D01*
X221549845Y-99664528D01*
X221496778Y-99623068D01*
X221396446Y-99587410D01*
X221201586Y-99563359D01*
X220965266Y-99592376D01*
X220782013Y-99662853D01*
X220693288Y-99721724D01*
X220651827Y-99774791D01*
X220616170Y-99875123D01*
X220627776Y-99969651D01*
X220686647Y-100058376D01*
X220739714Y-100099837D01*
X220840046Y-100135494D01*
X221034905Y-100159545D01*
X221271226Y-100130528D01*
X221454479Y-100060051D01*
X221543204Y-100001180D01*
X221584665Y-99948113D01*
X221620322Y-99847782D01*
X186602380Y-78795714D02*
X185602380Y-78795714D01*
X185602380Y-79033809D01*
X185650000Y-79176666D01*
X185745238Y-79271904D01*
X185840476Y-79319523D01*
X186030952Y-79367142D01*
X186173809Y-79367142D01*
X186364285Y-79319523D01*
X186459523Y-79271904D01*
X186554761Y-79176666D01*
X186602380Y-79033809D01*
X186602380Y-78795714D01*
X185602380Y-79700476D02*
X185602380Y-80319523D01*
X185983333Y-79986190D01*
X185983333Y-80129047D01*
X186030952Y-80224285D01*
X186078571Y-80271904D01*
X186173809Y-80319523D01*
X186411904Y-80319523D01*
X186507142Y-80271904D01*
X186554761Y-80224285D01*
X186602380Y-80129047D01*
X186602380Y-79843333D01*
X186554761Y-79748095D01*
X186507142Y-79700476D01*
X186602380Y-80795714D02*
X186602380Y-80986190D01*
X186554761Y-81081428D01*
X186507142Y-81129047D01*
X186364285Y-81224285D01*
X186173809Y-81271904D01*
X185792857Y-81271904D01*
X185697619Y-81224285D01*
X185650000Y-81176666D01*
X185602380Y-81081428D01*
X185602380Y-80890952D01*
X185650000Y-80795714D01*
X185697619Y-80748095D01*
X185792857Y-80700476D01*
X186030952Y-80700476D01*
X186126190Y-80748095D01*
X186173809Y-80795714D01*
X186221428Y-80890952D01*
X186221428Y-81081428D01*
X186173809Y-81176666D01*
X186126190Y-81224285D01*
X186030952Y-81271904D01*
X167552380Y-78795714D02*
X166552380Y-78795714D01*
X166552380Y-79033809D01*
X166600000Y-79176666D01*
X166695238Y-79271904D01*
X166790476Y-79319523D01*
X166980952Y-79367142D01*
X167123809Y-79367142D01*
X167314285Y-79319523D01*
X167409523Y-79271904D01*
X167504761Y-79176666D01*
X167552380Y-79033809D01*
X167552380Y-78795714D01*
X166552380Y-79700476D02*
X166552380Y-80319523D01*
X166933333Y-79986190D01*
X166933333Y-80129047D01*
X166980952Y-80224285D01*
X167028571Y-80271904D01*
X167123809Y-80319523D01*
X167361904Y-80319523D01*
X167457142Y-80271904D01*
X167504761Y-80224285D01*
X167552380Y-80129047D01*
X167552380Y-79843333D01*
X167504761Y-79748095D01*
X167457142Y-79700476D01*
X166980952Y-80890952D02*
X166933333Y-80795714D01*
X166885714Y-80748095D01*
X166790476Y-80700476D01*
X166742857Y-80700476D01*
X166647619Y-80748095D01*
X166600000Y-80795714D01*
X166552380Y-80890952D01*
X166552380Y-81081428D01*
X166600000Y-81176666D01*
X166647619Y-81224285D01*
X166742857Y-81271904D01*
X166790476Y-81271904D01*
X166885714Y-81224285D01*
X166933333Y-81176666D01*
X166980952Y-81081428D01*
X166980952Y-80890952D01*
X167028571Y-80795714D01*
X167076190Y-80748095D01*
X167171428Y-80700476D01*
X167361904Y-80700476D01*
X167457142Y-80748095D01*
X167504761Y-80795714D01*
X167552380Y-80890952D01*
X167552380Y-81081428D01*
X167504761Y-81176666D01*
X167457142Y-81224285D01*
X167361904Y-81271904D01*
X167171428Y-81271904D01*
X167076190Y-81224285D01*
X167028571Y-81176666D01*
X166980952Y-81081428D01*
X148502380Y-78795714D02*
X147502380Y-78795714D01*
X147502380Y-79033809D01*
X147550000Y-79176666D01*
X147645238Y-79271904D01*
X147740476Y-79319523D01*
X147930952Y-79367142D01*
X148073809Y-79367142D01*
X148264285Y-79319523D01*
X148359523Y-79271904D01*
X148454761Y-79176666D01*
X148502380Y-79033809D01*
X148502380Y-78795714D01*
X147502380Y-79700476D02*
X147502380Y-80319523D01*
X147883333Y-79986190D01*
X147883333Y-80129047D01*
X147930952Y-80224285D01*
X147978571Y-80271904D01*
X148073809Y-80319523D01*
X148311904Y-80319523D01*
X148407142Y-80271904D01*
X148454761Y-80224285D01*
X148502380Y-80129047D01*
X148502380Y-79843333D01*
X148454761Y-79748095D01*
X148407142Y-79700476D01*
X147502380Y-80652857D02*
X147502380Y-81319523D01*
X148502380Y-80890952D01*
X113465999Y-102025046D02*
X112473453Y-101903177D01*
X112444436Y-102139497D01*
X112474290Y-102287093D01*
X112557212Y-102393228D01*
X112645937Y-102452099D01*
X112829190Y-102522576D01*
X112970982Y-102539986D01*
X113165842Y-102515935D01*
X113266173Y-102480277D01*
X113372308Y-102397356D01*
X113436982Y-102261367D01*
X113465999Y-102025046D01*
X112363190Y-102801195D02*
X112287747Y-103415628D01*
X112706483Y-103131206D01*
X112689073Y-103272998D01*
X112724730Y-103373330D01*
X112766191Y-103426397D01*
X112854916Y-103485268D01*
X113091237Y-103514284D01*
X113191568Y-103478627D01*
X113244636Y-103437166D01*
X113303506Y-103348441D01*
X113338326Y-103064857D01*
X113302669Y-102964525D01*
X113261208Y-102911458D01*
X112183287Y-104266382D02*
X112206501Y-104077326D01*
X112265371Y-103988601D01*
X112318439Y-103947140D01*
X112471838Y-103870022D01*
X112666697Y-103845971D01*
X113044810Y-103892397D01*
X113133535Y-103951268D01*
X113174996Y-104004335D01*
X113210653Y-104104667D01*
X113187440Y-104293723D01*
X113128569Y-104382448D01*
X113075502Y-104423909D01*
X112975171Y-104459566D01*
X112738850Y-104430550D01*
X112650125Y-104371679D01*
X112608664Y-104318612D01*
X112573007Y-104218280D01*
X112596220Y-104029224D01*
X112655091Y-103940499D01*
X112708158Y-103899038D01*
X112808490Y-103863381D01*
X94557995Y-99703435D02*
X93565449Y-99581566D01*
X93536432Y-99817886D01*
X93566286Y-99965482D01*
X93649208Y-100071617D01*
X93737933Y-100130488D01*
X93921186Y-100200965D01*
X94062978Y-100218375D01*
X94257838Y-100194324D01*
X94358169Y-100158666D01*
X94464304Y-100075745D01*
X94528978Y-99939756D01*
X94557995Y-99703435D01*
X93455186Y-100479584D02*
X93379743Y-101094017D01*
X93798479Y-100809595D01*
X93781069Y-100951387D01*
X93816726Y-101051719D01*
X93858187Y-101104786D01*
X93946912Y-101163657D01*
X94183233Y-101192673D01*
X94283564Y-101157016D01*
X94336632Y-101115555D01*
X94395502Y-101026830D01*
X94430322Y-100743246D01*
X94394665Y-100642914D01*
X94353204Y-100589847D01*
X93269480Y-101992035D02*
X93327513Y-101519394D01*
X93805957Y-101530163D01*
X93752890Y-101571624D01*
X93694019Y-101660349D01*
X93665003Y-101896669D01*
X93700660Y-101997001D01*
X93742121Y-102050068D01*
X93830846Y-102108939D01*
X94067167Y-102137955D01*
X94167498Y-102102298D01*
X94220565Y-102060837D01*
X94279436Y-101972112D01*
X94308453Y-101735792D01*
X94272795Y-101635460D01*
X94231334Y-101582393D01*
X75649991Y-97381824D02*
X74657445Y-97259955D01*
X74628428Y-97496275D01*
X74658282Y-97643871D01*
X74741204Y-97750006D01*
X74829929Y-97808877D01*
X75013182Y-97879354D01*
X75154974Y-97896764D01*
X75349834Y-97872713D01*
X75450165Y-97837055D01*
X75556300Y-97754134D01*
X75620974Y-97618145D01*
X75649991Y-97381824D01*
X74547182Y-98157973D02*
X74471739Y-98772406D01*
X74890475Y-98487984D01*
X74873065Y-98629776D01*
X74908722Y-98730108D01*
X74950183Y-98783175D01*
X75038908Y-98842046D01*
X75275229Y-98871062D01*
X75375560Y-98835405D01*
X75428628Y-98793944D01*
X75487498Y-98705219D01*
X75522318Y-98421635D01*
X75486661Y-98321303D01*
X75445200Y-98268236D01*
X74698128Y-99663783D02*
X75359826Y-99745029D01*
X74349032Y-99381036D02*
X75087010Y-99231765D01*
X75011567Y-99846199D01*
X56741987Y-95060213D02*
X55749441Y-94938344D01*
X55720424Y-95174664D01*
X55750278Y-95322260D01*
X55833200Y-95428395D01*
X55921925Y-95487266D01*
X56105178Y-95557743D01*
X56246970Y-95575153D01*
X56441830Y-95551102D01*
X56542161Y-95515444D01*
X56648296Y-95432523D01*
X56712970Y-95296534D01*
X56741987Y-95060213D01*
X55639178Y-95836362D02*
X55563735Y-96450795D01*
X55982471Y-96166373D01*
X55965061Y-96308165D01*
X56000718Y-96408497D01*
X56042179Y-96461564D01*
X56130904Y-96520435D01*
X56367225Y-96549451D01*
X56467556Y-96513794D01*
X56520624Y-96472333D01*
X56579494Y-96383608D01*
X56614314Y-96100024D01*
X56578657Y-95999692D01*
X56537196Y-95946625D01*
X55523112Y-96781644D02*
X55447669Y-97396077D01*
X55866405Y-97111655D01*
X55848995Y-97253447D01*
X55884652Y-97353779D01*
X55926113Y-97406846D01*
X56014838Y-97465717D01*
X56251159Y-97494733D01*
X56351490Y-97459076D01*
X56404557Y-97417615D01*
X56463428Y-97328890D01*
X56498248Y-97045306D01*
X56462590Y-96944974D01*
X56421130Y-96891907D01*
X37833983Y-92738602D02*
X36841437Y-92616733D01*
X36812420Y-92853053D01*
X36842274Y-93000649D01*
X36925196Y-93106784D01*
X37013921Y-93165655D01*
X37197174Y-93236132D01*
X37338966Y-93253542D01*
X37533826Y-93229491D01*
X37634157Y-93193833D01*
X37740292Y-93110912D01*
X37804966Y-92974923D01*
X37833983Y-92738602D01*
X36731174Y-93514751D02*
X36655731Y-94129184D01*
X37074467Y-93844762D01*
X37057057Y-93986554D01*
X37092714Y-94086886D01*
X37134175Y-94139953D01*
X37222900Y-94198824D01*
X37459221Y-94227840D01*
X37559552Y-94192183D01*
X37612620Y-94150722D01*
X37671490Y-94061997D01*
X37706310Y-93778413D01*
X37670653Y-93678081D01*
X37629192Y-93625014D01*
X36703833Y-94518904D02*
X36650765Y-94560364D01*
X36591895Y-94649089D01*
X36562878Y-94885410D01*
X36598536Y-94985741D01*
X36639996Y-95038809D01*
X36728721Y-95097679D01*
X36823249Y-95109286D01*
X36970845Y-95079432D01*
X37607654Y-94581902D01*
X37532211Y-95196336D01*
X18925978Y-90416991D02*
X17933432Y-90295122D01*
X17904415Y-90531442D01*
X17934269Y-90679038D01*
X18017191Y-90785173D01*
X18105916Y-90844044D01*
X18289169Y-90914521D01*
X18430961Y-90931931D01*
X18625821Y-90907880D01*
X18726152Y-90872222D01*
X18832287Y-90789301D01*
X18896961Y-90653312D01*
X18925978Y-90416991D01*
X17823169Y-91193140D02*
X17747726Y-91807573D01*
X18166462Y-91523151D01*
X18149052Y-91664943D01*
X18184709Y-91765275D01*
X18226170Y-91818342D01*
X18314895Y-91877213D01*
X18551216Y-91906229D01*
X18651547Y-91870572D01*
X18704615Y-91829111D01*
X18763485Y-91740386D01*
X18798305Y-91456802D01*
X18762648Y-91356470D01*
X18721187Y-91303403D01*
X18624206Y-92874725D02*
X18693846Y-92307555D01*
X18659026Y-92591140D02*
X17666480Y-92469271D01*
X17819879Y-92392152D01*
X17926013Y-92309231D01*
X17984884Y-92220506D01*
X313107335Y-71580475D02*
X314099881Y-71458606D01*
X314070864Y-71222286D01*
X314006190Y-71086297D01*
X313900056Y-71003375D01*
X313799724Y-70967718D01*
X313604864Y-70943667D01*
X313463072Y-70961077D01*
X313279819Y-71031554D01*
X313191094Y-71090425D01*
X313108172Y-71196559D01*
X313078318Y-71344155D01*
X313107335Y-71580475D01*
X313989618Y-70560588D02*
X313914175Y-69946155D01*
X313576686Y-70323430D01*
X313559276Y-70181638D01*
X313500405Y-70092913D01*
X313447337Y-70051452D01*
X313347006Y-70015794D01*
X313110685Y-70044811D01*
X313021961Y-70103682D01*
X312980500Y-70156749D01*
X312944842Y-70257081D01*
X312979662Y-70540665D01*
X313038533Y-70629390D01*
X313091600Y-70670851D01*
X313838732Y-69331722D02*
X313827126Y-69237193D01*
X313768255Y-69148468D01*
X313715188Y-69107008D01*
X313614856Y-69071350D01*
X313419996Y-69047299D01*
X313183676Y-69076316D01*
X313000423Y-69146793D01*
X312911698Y-69205664D01*
X312870237Y-69258731D01*
X312834580Y-69359063D01*
X312846186Y-69453591D01*
X312905057Y-69542316D01*
X312958124Y-69583777D01*
X313058456Y-69619434D01*
X313253315Y-69643485D01*
X313489636Y-69614468D01*
X313672889Y-69543991D01*
X313761614Y-69485120D01*
X313803075Y-69432053D01*
X313838732Y-69331722D01*
X294199331Y-73902086D02*
X295191877Y-73780217D01*
X295162860Y-73543897D01*
X295098186Y-73407908D01*
X294992052Y-73324986D01*
X294891720Y-73289329D01*
X294696860Y-73265278D01*
X294555068Y-73282688D01*
X294371815Y-73353165D01*
X294283090Y-73412036D01*
X294200168Y-73518170D01*
X294170314Y-73665766D01*
X294199331Y-73902086D01*
X294981283Y-72846542D02*
X295022743Y-72793474D01*
X295058401Y-72693143D01*
X295029384Y-72456822D01*
X294970514Y-72368097D01*
X294917446Y-72326637D01*
X294817115Y-72290979D01*
X294722587Y-72302586D01*
X294586598Y-72367260D01*
X294089068Y-73004069D01*
X294013625Y-72389635D01*
X293955592Y-71916994D02*
X293932379Y-71727938D01*
X293968036Y-71627606D01*
X294009497Y-71574539D01*
X294139683Y-71462601D01*
X294322936Y-71392123D01*
X294701049Y-71345697D01*
X294801380Y-71381355D01*
X294854448Y-71422815D01*
X294913318Y-71511540D01*
X294936532Y-71700597D01*
X294900874Y-71800928D01*
X294859413Y-71853996D01*
X294770688Y-71912866D01*
X294534368Y-71941883D01*
X294434036Y-71906225D01*
X294380969Y-71864764D01*
X294322098Y-71776040D01*
X294298885Y-71586983D01*
X294334543Y-71486652D01*
X294376003Y-71433584D01*
X294464728Y-71374714D01*
X275291326Y-76223697D02*
X276283872Y-76101828D01*
X276254855Y-75865508D01*
X276190181Y-75729519D01*
X276084047Y-75646597D01*
X275983715Y-75610940D01*
X275788855Y-75586889D01*
X275647063Y-75604299D01*
X275463810Y-75674776D01*
X275375085Y-75733647D01*
X275292163Y-75839781D01*
X275262309Y-75987377D01*
X275291326Y-76223697D01*
X276073278Y-75168153D02*
X276114738Y-75115085D01*
X276150396Y-75014754D01*
X276121379Y-74778433D01*
X276062509Y-74689708D01*
X276009441Y-74648248D01*
X275909110Y-74612590D01*
X275814582Y-74624197D01*
X275678593Y-74688871D01*
X275181063Y-75325680D01*
X275105620Y-74711246D01*
X275603150Y-74074437D02*
X275662020Y-74163162D01*
X275715088Y-74204623D01*
X275815419Y-74240281D01*
X275862683Y-74234477D01*
X275951408Y-74175607D01*
X275992869Y-74122539D01*
X276028527Y-74022208D01*
X276005313Y-73833151D01*
X275946443Y-73744426D01*
X275893375Y-73702966D01*
X275793044Y-73667308D01*
X275745780Y-73673111D01*
X275657055Y-73731982D01*
X275615594Y-73785049D01*
X275579936Y-73885381D01*
X275603150Y-74074437D01*
X275567492Y-74174769D01*
X275526031Y-74227836D01*
X275437306Y-74286707D01*
X275248250Y-74309920D01*
X275147919Y-74274263D01*
X275094851Y-74232802D01*
X275035980Y-74144077D01*
X275012767Y-73955021D01*
X275048425Y-73854689D01*
X275089886Y-73801622D01*
X275178610Y-73742751D01*
X275367667Y-73719538D01*
X275467998Y-73755195D01*
X275521066Y-73796656D01*
X275579936Y-73885381D01*
X256383322Y-78545308D02*
X257375868Y-78423439D01*
X257346851Y-78187119D01*
X257282177Y-78051130D01*
X257176043Y-77968208D01*
X257075711Y-77932551D01*
X256880851Y-77908500D01*
X256739059Y-77925910D01*
X256555806Y-77996387D01*
X256467081Y-78055258D01*
X256384159Y-78161392D01*
X256354305Y-78308988D01*
X256383322Y-78545308D01*
X257165274Y-77489764D02*
X257206734Y-77436696D01*
X257242392Y-77336365D01*
X257213375Y-77100044D01*
X257154505Y-77011319D01*
X257101437Y-76969859D01*
X257001106Y-76934201D01*
X256906578Y-76945808D01*
X256770589Y-77010482D01*
X256273059Y-77647291D01*
X256197616Y-77032857D01*
X257149539Y-76580139D02*
X257068293Y-75918442D01*
X256127976Y-76465688D01*
X237475318Y-80866919D02*
X238467864Y-80745050D01*
X238438847Y-80508730D01*
X238374173Y-80372741D01*
X238268039Y-80289819D01*
X238167707Y-80254162D01*
X237972847Y-80230111D01*
X237831055Y-80247521D01*
X237647802Y-80317998D01*
X237559077Y-80376869D01*
X237476155Y-80483003D01*
X237446301Y-80630599D01*
X237475318Y-80866919D01*
X238257270Y-79811375D02*
X238298730Y-79758307D01*
X238334388Y-79657976D01*
X238305371Y-79421655D01*
X238246501Y-79332930D01*
X238193433Y-79291470D01*
X238093102Y-79255812D01*
X237998574Y-79267419D01*
X237862585Y-79332093D01*
X237365055Y-79968902D01*
X237289612Y-79354468D01*
X238177699Y-78381845D02*
X238200912Y-78570901D01*
X238165254Y-78671233D01*
X238123794Y-78724300D01*
X237993608Y-78836238D01*
X237810355Y-78906716D01*
X237432242Y-78953142D01*
X237331911Y-78917485D01*
X237278843Y-78876024D01*
X237219972Y-78787299D01*
X237196759Y-78598243D01*
X237232417Y-78497911D01*
X237273878Y-78444844D01*
X237362602Y-78385973D01*
X237598923Y-78356956D01*
X237699254Y-78392614D01*
X237752322Y-78434075D01*
X237811193Y-78522800D01*
X237834406Y-78711856D01*
X237798748Y-78812188D01*
X237757287Y-78865255D01*
X237668563Y-78924126D01*
X218567314Y-83188530D02*
X219559860Y-83066661D01*
X219530843Y-82830341D01*
X219466169Y-82694352D01*
X219360035Y-82611430D01*
X219259703Y-82575773D01*
X219064843Y-82551722D01*
X218923051Y-82569132D01*
X218739798Y-82639609D01*
X218651073Y-82698480D01*
X218568151Y-82804614D01*
X218538297Y-82952210D01*
X218567314Y-83188530D01*
X219349266Y-82132986D02*
X219390726Y-82079918D01*
X219426384Y-81979587D01*
X219397367Y-81743266D01*
X219338497Y-81654541D01*
X219285429Y-81613081D01*
X219185098Y-81577423D01*
X219090570Y-81589030D01*
X218954581Y-81653704D01*
X218457051Y-82290513D01*
X218381608Y-81676079D01*
X219263891Y-80656192D02*
X219321924Y-81128833D01*
X218855087Y-81234130D01*
X218896548Y-81181063D01*
X218932205Y-81080731D01*
X218903189Y-80844411D01*
X218844318Y-80755686D01*
X218791250Y-80714225D01*
X218690919Y-80678567D01*
X218454598Y-80707584D01*
X218365874Y-80766455D01*
X218324413Y-80819522D01*
X218288755Y-80919854D01*
X218317772Y-81156174D01*
X218376642Y-81244899D01*
X218429710Y-81286360D01*
X186602380Y-59745714D02*
X185602380Y-59745714D01*
X185602380Y-59983809D01*
X185650000Y-60126666D01*
X185745238Y-60221904D01*
X185840476Y-60269523D01*
X186030952Y-60317142D01*
X186173809Y-60317142D01*
X186364285Y-60269523D01*
X186459523Y-60221904D01*
X186554761Y-60126666D01*
X186602380Y-59983809D01*
X186602380Y-59745714D01*
X185697619Y-60698095D02*
X185650000Y-60745714D01*
X185602380Y-60840952D01*
X185602380Y-61079047D01*
X185650000Y-61174285D01*
X185697619Y-61221904D01*
X185792857Y-61269523D01*
X185888095Y-61269523D01*
X186030952Y-61221904D01*
X186602380Y-60650476D01*
X186602380Y-61269523D01*
X185935714Y-62126666D02*
X186602380Y-62126666D01*
X185554761Y-61888571D02*
X186269047Y-61650476D01*
X186269047Y-62269523D01*
X167552380Y-59745714D02*
X166552380Y-59745714D01*
X166552380Y-59983809D01*
X166600000Y-60126666D01*
X166695238Y-60221904D01*
X166790476Y-60269523D01*
X166980952Y-60317142D01*
X167123809Y-60317142D01*
X167314285Y-60269523D01*
X167409523Y-60221904D01*
X167504761Y-60126666D01*
X167552380Y-59983809D01*
X167552380Y-59745714D01*
X166647619Y-60698095D02*
X166600000Y-60745714D01*
X166552380Y-60840952D01*
X166552380Y-61079047D01*
X166600000Y-61174285D01*
X166647619Y-61221904D01*
X166742857Y-61269523D01*
X166838095Y-61269523D01*
X166980952Y-61221904D01*
X167552380Y-60650476D01*
X167552380Y-61269523D01*
X166552380Y-61602857D02*
X166552380Y-62221904D01*
X166933333Y-61888571D01*
X166933333Y-62031428D01*
X166980952Y-62126666D01*
X167028571Y-62174285D01*
X167123809Y-62221904D01*
X167361904Y-62221904D01*
X167457142Y-62174285D01*
X167504761Y-62126666D01*
X167552380Y-62031428D01*
X167552380Y-61745714D01*
X167504761Y-61650476D01*
X167457142Y-61602857D01*
X148661130Y-59586964D02*
X147661130Y-59586964D01*
X147661130Y-59825059D01*
X147708750Y-59967916D01*
X147803988Y-60063154D01*
X147899226Y-60110773D01*
X148089702Y-60158392D01*
X148232559Y-60158392D01*
X148423035Y-60110773D01*
X148518273Y-60063154D01*
X148613511Y-59967916D01*
X148661130Y-59825059D01*
X148661130Y-59586964D01*
X147756369Y-60539345D02*
X147708750Y-60586964D01*
X147661130Y-60682202D01*
X147661130Y-60920297D01*
X147708750Y-61015535D01*
X147756369Y-61063154D01*
X147851607Y-61110773D01*
X147946845Y-61110773D01*
X148089702Y-61063154D01*
X148661130Y-60491726D01*
X148661130Y-61110773D01*
X147756369Y-61491726D02*
X147708750Y-61539345D01*
X147661130Y-61634583D01*
X147661130Y-61872678D01*
X147708750Y-61967916D01*
X147756369Y-62015535D01*
X147851607Y-62063154D01*
X147946845Y-62063154D01*
X148089702Y-62015535D01*
X148661130Y-61444107D01*
X148661130Y-62063154D01*
X115964524Y-82978822D02*
X114971978Y-82856953D01*
X114942961Y-83093273D01*
X114972815Y-83240869D01*
X115055737Y-83347004D01*
X115144462Y-83405875D01*
X115327715Y-83476352D01*
X115469507Y-83493762D01*
X115664367Y-83469711D01*
X115764698Y-83434053D01*
X115870833Y-83351132D01*
X115935507Y-83215143D01*
X115964524Y-82978822D01*
X114950440Y-83813842D02*
X114897372Y-83855302D01*
X114838502Y-83944027D01*
X114809485Y-84180348D01*
X114845143Y-84280679D01*
X114886603Y-84333747D01*
X114975328Y-84392617D01*
X115069856Y-84404224D01*
X115217452Y-84374370D01*
X115854261Y-83876840D01*
X115778818Y-84491274D01*
X115662752Y-85436556D02*
X115732392Y-84869386D01*
X115697572Y-85152971D02*
X114705026Y-85031102D01*
X114858425Y-84953983D01*
X114964559Y-84871062D01*
X115023430Y-84782337D01*
X97056520Y-80657211D02*
X96063974Y-80535342D01*
X96034957Y-80771662D01*
X96064811Y-80919258D01*
X96147733Y-81025393D01*
X96236458Y-81084264D01*
X96419711Y-81154741D01*
X96561503Y-81172151D01*
X96756363Y-81148100D01*
X96856694Y-81112442D01*
X96962829Y-81029521D01*
X97027503Y-80893532D01*
X97056520Y-80657211D01*
X96042436Y-81492231D02*
X95989368Y-81533691D01*
X95930498Y-81622416D01*
X95901481Y-81858737D01*
X95937139Y-81959068D01*
X95978599Y-82012136D01*
X96067324Y-82071006D01*
X96161852Y-82082613D01*
X96309448Y-82052759D01*
X96946257Y-81555229D01*
X96870814Y-82169663D01*
X95802825Y-82662227D02*
X95791218Y-82756755D01*
X95826876Y-82857086D01*
X95868337Y-82910154D01*
X95957062Y-82969024D01*
X96140315Y-83039502D01*
X96376635Y-83068518D01*
X96571495Y-83044467D01*
X96671826Y-83008810D01*
X96724894Y-82967349D01*
X96783764Y-82878624D01*
X96795371Y-82784096D01*
X96759714Y-82683764D01*
X96718253Y-82630697D01*
X96629528Y-82571826D01*
X96446275Y-82501349D01*
X96209954Y-82472332D01*
X96015095Y-82496383D01*
X95914763Y-82532041D01*
X95861696Y-82573502D01*
X95802825Y-82662227D01*
X78148515Y-78335600D02*
X77155969Y-78213731D01*
X77126952Y-78450051D01*
X77156806Y-78597647D01*
X77239728Y-78703782D01*
X77328453Y-78762653D01*
X77511706Y-78833130D01*
X77653498Y-78850540D01*
X77848358Y-78826489D01*
X77948689Y-78790831D01*
X78054824Y-78707910D01*
X78119498Y-78571921D01*
X78148515Y-78335600D01*
X77962809Y-79848052D02*
X78032449Y-79280882D01*
X77997629Y-79564467D02*
X77005083Y-79442598D01*
X77158482Y-79365479D01*
X77264616Y-79282558D01*
X77323487Y-79193833D01*
X77904776Y-80320693D02*
X77881563Y-80509749D01*
X77822692Y-80598474D01*
X77769625Y-80639935D01*
X77616226Y-80717053D01*
X77421366Y-80741104D01*
X77043253Y-80694677D01*
X76954528Y-80635807D01*
X76913068Y-80582739D01*
X76877410Y-80482408D01*
X76900623Y-80293351D01*
X76959494Y-80204627D01*
X77012561Y-80163166D01*
X77112893Y-80127508D01*
X77349213Y-80156525D01*
X77437938Y-80215395D01*
X77479399Y-80268463D01*
X77515057Y-80368794D01*
X77491843Y-80557851D01*
X77432973Y-80646576D01*
X77379905Y-80688036D01*
X77279574Y-80723694D01*
X59240511Y-76013989D02*
X58247965Y-75892120D01*
X58218948Y-76128440D01*
X58248802Y-76276036D01*
X58331724Y-76382171D01*
X58420449Y-76441042D01*
X58603702Y-76511519D01*
X58745494Y-76528929D01*
X58940354Y-76504878D01*
X59040685Y-76469220D01*
X59146820Y-76386299D01*
X59211494Y-76250310D01*
X59240511Y-76013989D01*
X59054805Y-77526441D02*
X59124445Y-76959271D01*
X59089625Y-77242856D02*
X58097079Y-77120987D01*
X58250478Y-77043868D01*
X58356612Y-76960947D01*
X58415483Y-76872222D01*
X58417996Y-78023970D02*
X58382339Y-77923639D01*
X58340878Y-77870571D01*
X58252153Y-77811701D01*
X58204889Y-77805897D01*
X58104557Y-77841555D01*
X58051490Y-77883016D01*
X57992619Y-77971740D01*
X57969406Y-78160797D01*
X58005064Y-78261128D01*
X58046524Y-78314196D01*
X58135249Y-78373066D01*
X58182513Y-78378870D01*
X58282845Y-78343212D01*
X58335912Y-78301751D01*
X58394783Y-78213027D01*
X58417996Y-78023970D01*
X58476867Y-77935245D01*
X58529934Y-77893784D01*
X58630266Y-77858127D01*
X58819322Y-77881340D01*
X58908047Y-77940211D01*
X58949508Y-77993278D01*
X58985165Y-78093610D01*
X58961952Y-78282666D01*
X58903081Y-78371391D01*
X58850014Y-78412852D01*
X58749683Y-78448509D01*
X58560626Y-78425296D01*
X58471901Y-78366425D01*
X58430440Y-78313358D01*
X58394783Y-78213027D01*
X40332507Y-73692378D02*
X39339961Y-73570509D01*
X39310944Y-73806829D01*
X39340798Y-73954425D01*
X39423720Y-74060560D01*
X39512445Y-74119431D01*
X39695698Y-74189908D01*
X39837490Y-74207318D01*
X40032350Y-74183267D01*
X40132681Y-74147609D01*
X40238816Y-74064688D01*
X40303490Y-73928699D01*
X40332507Y-73692378D01*
X40146801Y-75204830D02*
X40216441Y-74637660D01*
X40181621Y-74921245D02*
X39189075Y-74799376D01*
X39342474Y-74722257D01*
X39448608Y-74639336D01*
X39507479Y-74550611D01*
X39113632Y-75413809D02*
X39032386Y-76075506D01*
X40077161Y-75771999D01*
X21424503Y-71370767D02*
X20431957Y-71248898D01*
X20402940Y-71485218D01*
X20432794Y-71632814D01*
X20515716Y-71738949D01*
X20604441Y-71797820D01*
X20787694Y-71868297D01*
X20929486Y-71885707D01*
X21124346Y-71861656D01*
X21224677Y-71825998D01*
X21330812Y-71743077D01*
X21395486Y-71607088D01*
X21424503Y-71370767D01*
X21238797Y-72883219D02*
X21308437Y-72316049D01*
X21273617Y-72599634D02*
X20281071Y-72477765D01*
X20434470Y-72400646D01*
X20540604Y-72317725D01*
X20599475Y-72229000D01*
X20141791Y-73612103D02*
X20165005Y-73423047D01*
X20223875Y-73334322D01*
X20276943Y-73292861D01*
X20430342Y-73215743D01*
X20625201Y-73191692D01*
X21003314Y-73238118D01*
X21092039Y-73296989D01*
X21133500Y-73350056D01*
X21169157Y-73450388D01*
X21145944Y-73639444D01*
X21087073Y-73728169D01*
X21034006Y-73769630D01*
X20933675Y-73805287D01*
X20697354Y-73776271D01*
X20608629Y-73717400D01*
X20567168Y-73664333D01*
X20531511Y-73564001D01*
X20554724Y-73374945D01*
X20613595Y-73286220D01*
X20666662Y-73244759D01*
X20766994Y-73209102D01*
X311081511Y-52476211D02*
X312074057Y-52354342D01*
X312045040Y-52118022D01*
X311980366Y-51982033D01*
X311874232Y-51899111D01*
X311773900Y-51863454D01*
X311579040Y-51839403D01*
X311437248Y-51856813D01*
X311253995Y-51927290D01*
X311165270Y-51986161D01*
X311082348Y-52092295D01*
X311052494Y-52239891D01*
X311081511Y-52476211D01*
X310895805Y-50963760D02*
X310965445Y-51530929D01*
X310930625Y-51247345D02*
X311923171Y-51125475D01*
X311792985Y-51237414D01*
X311710064Y-51343548D01*
X311674406Y-51443880D01*
X311778088Y-49943873D02*
X311836121Y-50416514D01*
X311369284Y-50521811D01*
X311410745Y-50468744D01*
X311446402Y-50368412D01*
X311417386Y-50132092D01*
X311358515Y-50043367D01*
X311305447Y-50001906D01*
X311205116Y-49966248D01*
X310968795Y-49995265D01*
X310880071Y-50054136D01*
X310838610Y-50107203D01*
X310802952Y-50207535D01*
X310831969Y-50443855D01*
X310890839Y-50532580D01*
X310943907Y-50574041D01*
X292173506Y-54797822D02*
X293166052Y-54675953D01*
X293137035Y-54439633D01*
X293072361Y-54303644D01*
X292966227Y-54220722D01*
X292865895Y-54185065D01*
X292671035Y-54161014D01*
X292529243Y-54178424D01*
X292345990Y-54248901D01*
X292257265Y-54307772D01*
X292174343Y-54413906D01*
X292144489Y-54561502D01*
X292173506Y-54797822D01*
X291987800Y-53285371D02*
X292057440Y-53852540D01*
X292022620Y-53568956D02*
X293015166Y-53447086D01*
X292884980Y-53559025D01*
X292802059Y-53665159D01*
X292766401Y-53765491D01*
X292545038Y-52353371D02*
X291883341Y-52434617D01*
X292952167Y-52543265D02*
X292272222Y-52866635D01*
X292196779Y-52252202D01*
X273265502Y-57119433D02*
X274258048Y-56997564D01*
X274229031Y-56761244D01*
X274164357Y-56625255D01*
X274058223Y-56542333D01*
X273957891Y-56506676D01*
X273763031Y-56482625D01*
X273621239Y-56500035D01*
X273437986Y-56570512D01*
X273349261Y-56629383D01*
X273266339Y-56735517D01*
X273236485Y-56883113D01*
X273265502Y-57119433D01*
X273079796Y-55606982D02*
X273149436Y-56174151D01*
X273114616Y-55890567D02*
X274107162Y-55768697D01*
X273976976Y-55880636D01*
X273894055Y-55986770D01*
X273858397Y-56087102D01*
X274031719Y-55154264D02*
X273956276Y-54539831D01*
X273618786Y-54917106D01*
X273601377Y-54775314D01*
X273542506Y-54686589D01*
X273489438Y-54645128D01*
X273389107Y-54609470D01*
X273152786Y-54638487D01*
X273064062Y-54697358D01*
X273022601Y-54750425D01*
X272986943Y-54850757D01*
X273021763Y-55134341D01*
X273080634Y-55223066D01*
X273133701Y-55264527D01*
X254357498Y-59441044D02*
X255350044Y-59319175D01*
X255321027Y-59082855D01*
X255256353Y-58946866D01*
X255150219Y-58863944D01*
X255049887Y-58828287D01*
X254855027Y-58804236D01*
X254713235Y-58821646D01*
X254529982Y-58892123D01*
X254441257Y-58950994D01*
X254358335Y-59057128D01*
X254328481Y-59204724D01*
X254357498Y-59441044D01*
X254171792Y-57928593D02*
X254241432Y-58495762D01*
X254206612Y-58212178D02*
X255199158Y-58090308D01*
X255068972Y-58202247D01*
X254986051Y-58308381D01*
X254950393Y-58408713D01*
X255023384Y-57440218D02*
X255064844Y-57387150D01*
X255100502Y-57286819D01*
X255071485Y-57050498D01*
X255012615Y-56961773D01*
X254959547Y-56920313D01*
X254859216Y-56884655D01*
X254764688Y-56896262D01*
X254628699Y-56960936D01*
X254131169Y-57597744D01*
X254055726Y-56983311D01*
X235449494Y-61762655D02*
X236442040Y-61640786D01*
X236413023Y-61404466D01*
X236348349Y-61268477D01*
X236242215Y-61185555D01*
X236141883Y-61149898D01*
X235947023Y-61125847D01*
X235805231Y-61143257D01*
X235621978Y-61213734D01*
X235533253Y-61272605D01*
X235450331Y-61378739D01*
X235420477Y-61526335D01*
X235449494Y-61762655D01*
X235263788Y-60250204D02*
X235333428Y-60817373D01*
X235298608Y-60533789D02*
X236291154Y-60411919D01*
X236160968Y-60523858D01*
X236078047Y-60629992D01*
X236042389Y-60730324D01*
X235147722Y-59304922D02*
X235217362Y-59872091D01*
X235182542Y-59588507D02*
X236175088Y-59466637D01*
X236044902Y-59578576D01*
X235961981Y-59684710D01*
X235926323Y-59785042D01*
X216541490Y-64084266D02*
X217534036Y-63962397D01*
X217505019Y-63726077D01*
X217440345Y-63590088D01*
X217334211Y-63507166D01*
X217233879Y-63471509D01*
X217039019Y-63447458D01*
X216897227Y-63464868D01*
X216713974Y-63535345D01*
X216625249Y-63594216D01*
X216542327Y-63700350D01*
X216512473Y-63847946D01*
X216541490Y-64084266D01*
X216355784Y-62571815D02*
X216425424Y-63138984D01*
X216390604Y-62855400D02*
X217383150Y-62733530D01*
X217252964Y-62845469D01*
X217170043Y-62951603D01*
X217134385Y-63051935D01*
X217272887Y-61835513D02*
X217261281Y-61740984D01*
X217202410Y-61652259D01*
X217149343Y-61610799D01*
X217049011Y-61575141D01*
X216854151Y-61551090D01*
X216617831Y-61580107D01*
X216434578Y-61650584D01*
X216345853Y-61709455D01*
X216304392Y-61762522D01*
X216268735Y-61862854D01*
X216280341Y-61957382D01*
X216339212Y-62046107D01*
X216392279Y-62087568D01*
X216492611Y-62123225D01*
X216687470Y-62147276D01*
X216923791Y-62118259D01*
X217107044Y-62047782D01*
X217195769Y-61988911D01*
X217237230Y-61935844D01*
X217272887Y-61835513D01*
X186015119Y-42489345D02*
X187015119Y-42489345D01*
X187015119Y-42251250D01*
X186967500Y-42108392D01*
X186872261Y-42013154D01*
X186777023Y-41965535D01*
X186586547Y-41917916D01*
X186443690Y-41917916D01*
X186253214Y-41965535D01*
X186157976Y-42013154D01*
X186062738Y-42108392D01*
X186015119Y-42251250D01*
X186015119Y-42489345D01*
X186015119Y-41441726D02*
X186015119Y-41251250D01*
X186062738Y-41156011D01*
X186110357Y-41108392D01*
X186253214Y-41013154D01*
X186443690Y-40965535D01*
X186824642Y-40965535D01*
X186919880Y-41013154D01*
X186967500Y-41060773D01*
X187015119Y-41156011D01*
X187015119Y-41346488D01*
X186967500Y-41441726D01*
X186919880Y-41489345D01*
X186824642Y-41536964D01*
X186586547Y-41536964D01*
X186491309Y-41489345D01*
X186443690Y-41441726D01*
X186396071Y-41346488D01*
X186396071Y-41156011D01*
X186443690Y-41060773D01*
X186491309Y-41013154D01*
X186586547Y-40965535D01*
X166965119Y-42489345D02*
X167965119Y-42489345D01*
X167965119Y-42251250D01*
X167917500Y-42108392D01*
X167822261Y-42013154D01*
X167727023Y-41965535D01*
X167536547Y-41917916D01*
X167393690Y-41917916D01*
X167203214Y-41965535D01*
X167107976Y-42013154D01*
X167012738Y-42108392D01*
X166965119Y-42251250D01*
X166965119Y-42489345D01*
X167536547Y-41346488D02*
X167584166Y-41441726D01*
X167631785Y-41489345D01*
X167727023Y-41536964D01*
X167774642Y-41536964D01*
X167869880Y-41489345D01*
X167917500Y-41441726D01*
X167965119Y-41346488D01*
X167965119Y-41156011D01*
X167917500Y-41060773D01*
X167869880Y-41013154D01*
X167774642Y-40965535D01*
X167727023Y-40965535D01*
X167631785Y-41013154D01*
X167584166Y-41060773D01*
X167536547Y-41156011D01*
X167536547Y-41346488D01*
X167488928Y-41441726D01*
X167441309Y-41489345D01*
X167346071Y-41536964D01*
X167155595Y-41536964D01*
X167060357Y-41489345D01*
X167012738Y-41441726D01*
X166965119Y-41346488D01*
X166965119Y-41156011D01*
X167012738Y-41060773D01*
X167060357Y-41013154D01*
X167155595Y-40965535D01*
X167346071Y-40965535D01*
X167441309Y-41013154D01*
X167488928Y-41060773D01*
X167536547Y-41156011D01*
X147756369Y-42489345D02*
X148756369Y-42489345D01*
X148756369Y-42251250D01*
X148708750Y-42108392D01*
X148613511Y-42013154D01*
X148518273Y-41965535D01*
X148327797Y-41917916D01*
X148184940Y-41917916D01*
X147994464Y-41965535D01*
X147899226Y-42013154D01*
X147803988Y-42108392D01*
X147756369Y-42251250D01*
X147756369Y-42489345D01*
X148756369Y-41584583D02*
X148756369Y-40917916D01*
X147756369Y-41346488D01*
X118228102Y-64543459D02*
X117235556Y-64421590D01*
X117206539Y-64657910D01*
X117236393Y-64805506D01*
X117319315Y-64911641D01*
X117408040Y-64970512D01*
X117591293Y-65040989D01*
X117733085Y-65058399D01*
X117927945Y-65034348D01*
X118028276Y-64998690D01*
X118134411Y-64915769D01*
X118199085Y-64779780D01*
X118228102Y-64543459D01*
X117061456Y-65839513D02*
X117084670Y-65650457D01*
X117143540Y-65561732D01*
X117196608Y-65520271D01*
X117350007Y-65443153D01*
X117544866Y-65419102D01*
X117922979Y-65465528D01*
X118011704Y-65524399D01*
X118053165Y-65577466D01*
X118088822Y-65677798D01*
X118065609Y-65866854D01*
X118006738Y-65955579D01*
X117953671Y-65997040D01*
X117853340Y-66032697D01*
X117617019Y-66003681D01*
X117528294Y-65944810D01*
X117486833Y-65891743D01*
X117451176Y-65791411D01*
X117474389Y-65602355D01*
X117533260Y-65513630D01*
X117586327Y-65472169D01*
X117686659Y-65436512D01*
X99320098Y-62221848D02*
X98327552Y-62099979D01*
X98298535Y-62336299D01*
X98328389Y-62483895D01*
X98411311Y-62590030D01*
X98500036Y-62648901D01*
X98683289Y-62719378D01*
X98825081Y-62736788D01*
X99019941Y-62712737D01*
X99120272Y-62677079D01*
X99226407Y-62594158D01*
X99291081Y-62458169D01*
X99320098Y-62221848D01*
X98147649Y-63565166D02*
X98205682Y-63092525D01*
X98684126Y-63103294D01*
X98631059Y-63144755D01*
X98572188Y-63233480D01*
X98543172Y-63469800D01*
X98578829Y-63570132D01*
X98620290Y-63623199D01*
X98709015Y-63682070D01*
X98945336Y-63711086D01*
X99045667Y-63675429D01*
X99098734Y-63633968D01*
X99157605Y-63545243D01*
X99186622Y-63308923D01*
X99150964Y-63208591D01*
X99109503Y-63155524D01*
X80412093Y-59900237D02*
X79419547Y-59778368D01*
X79390530Y-60014688D01*
X79420384Y-60162284D01*
X79503306Y-60268419D01*
X79592031Y-60327290D01*
X79775284Y-60397767D01*
X79917076Y-60415177D01*
X80111936Y-60391126D01*
X80212267Y-60355468D01*
X80318402Y-60272547D01*
X80383076Y-60136558D01*
X80412093Y-59900237D01*
X79576296Y-61236914D02*
X80237994Y-61318160D01*
X79227200Y-60954167D02*
X79965178Y-60804896D01*
X79889735Y-61419330D01*
X61504089Y-57578626D02*
X60511543Y-57456757D01*
X60482526Y-57693077D01*
X60512380Y-57840673D01*
X60595302Y-57946808D01*
X60684027Y-58005679D01*
X60867280Y-58076156D01*
X61009072Y-58093566D01*
X61203932Y-58069515D01*
X61304263Y-58033857D01*
X61410398Y-57950936D01*
X61475072Y-57814947D01*
X61504089Y-57578626D01*
X60401280Y-58354775D02*
X60325837Y-58969208D01*
X60744573Y-58684786D01*
X60727163Y-58826578D01*
X60762820Y-58926910D01*
X60804281Y-58979977D01*
X60893006Y-59038848D01*
X61129327Y-59067864D01*
X61229658Y-59032207D01*
X61282725Y-58990746D01*
X61341596Y-58902021D01*
X61376416Y-58618437D01*
X61340759Y-58518105D01*
X61299298Y-58465038D01*
X42596085Y-55257015D02*
X41603539Y-55135146D01*
X41574522Y-55371466D01*
X41604376Y-55519062D01*
X41687298Y-55625197D01*
X41776023Y-55684068D01*
X41959276Y-55754545D01*
X42101068Y-55771955D01*
X42295928Y-55747904D01*
X42396259Y-55712246D01*
X42502394Y-55629325D01*
X42567068Y-55493336D01*
X42596085Y-55257015D01*
X41582001Y-56092035D02*
X41528933Y-56133495D01*
X41470063Y-56222220D01*
X41441046Y-56458541D01*
X41476704Y-56558872D01*
X41518164Y-56611940D01*
X41606889Y-56670810D01*
X41701417Y-56682417D01*
X41849013Y-56652563D01*
X42485822Y-56155033D01*
X42410379Y-56769467D01*
X23688081Y-52935404D02*
X22695535Y-52813535D01*
X22666518Y-53049855D01*
X22696372Y-53197451D01*
X22779294Y-53303586D01*
X22868019Y-53362457D01*
X23051272Y-53432934D01*
X23193064Y-53450344D01*
X23387924Y-53426293D01*
X23488255Y-53390635D01*
X23594390Y-53307714D01*
X23659064Y-53171725D01*
X23688081Y-52935404D01*
X23502375Y-54447856D02*
X23572015Y-53880686D01*
X23537195Y-54164271D02*
X22544649Y-54042402D01*
X22698048Y-53965283D01*
X22804182Y-53882362D01*
X22863053Y-53793637D01*
X75667142Y-147153333D02*
X75714761Y-147105714D01*
X75762380Y-146962857D01*
X75762380Y-146867619D01*
X75714761Y-146724761D01*
X75619523Y-146629523D01*
X75524285Y-146581904D01*
X75333809Y-146534285D01*
X75190952Y-146534285D01*
X75000476Y-146581904D01*
X74905238Y-146629523D01*
X74810000Y-146724761D01*
X74762380Y-146867619D01*
X74762380Y-146962857D01*
X74810000Y-147105714D01*
X74857619Y-147153333D01*
X74762380Y-147486666D02*
X74762380Y-148153333D01*
X75762380Y-147724761D01*
X72367142Y-136993333D02*
X72414761Y-136945714D01*
X72462380Y-136802857D01*
X72462380Y-136707619D01*
X72414761Y-136564761D01*
X72319523Y-136469523D01*
X72224285Y-136421904D01*
X72033809Y-136374285D01*
X71890952Y-136374285D01*
X71700476Y-136421904D01*
X71605238Y-136469523D01*
X71510000Y-136564761D01*
X71462380Y-136707619D01*
X71462380Y-136802857D01*
X71510000Y-136945714D01*
X71557619Y-136993333D01*
X71462380Y-137850476D02*
X71462380Y-137660000D01*
X71510000Y-137564761D01*
X71557619Y-137517142D01*
X71700476Y-137421904D01*
X71890952Y-137374285D01*
X72271904Y-137374285D01*
X72367142Y-137421904D01*
X72414761Y-137469523D01*
X72462380Y-137564761D01*
X72462380Y-137755238D01*
X72414761Y-137850476D01*
X72367142Y-137898095D01*
X72271904Y-137945714D01*
X72033809Y-137945714D01*
X71938571Y-137898095D01*
X71890952Y-137850476D01*
X71843333Y-137755238D01*
X71843333Y-137564761D01*
X71890952Y-137469523D01*
X71938571Y-137421904D01*
X72033809Y-137374285D01*
X59856666Y-132057142D02*
X59904285Y-132104761D01*
X60047142Y-132152380D01*
X60142380Y-132152380D01*
X60285238Y-132104761D01*
X60380476Y-132009523D01*
X60428095Y-131914285D01*
X60475714Y-131723809D01*
X60475714Y-131580952D01*
X60428095Y-131390476D01*
X60380476Y-131295238D01*
X60285238Y-131200000D01*
X60142380Y-131152380D01*
X60047142Y-131152380D01*
X59904285Y-131200000D01*
X59856666Y-131247619D01*
X58951904Y-131152380D02*
X59428095Y-131152380D01*
X59475714Y-131628571D01*
X59428095Y-131580952D01*
X59332857Y-131533333D01*
X59094761Y-131533333D01*
X58999523Y-131580952D01*
X58951904Y-131628571D01*
X58904285Y-131723809D01*
X58904285Y-131961904D01*
X58951904Y-132057142D01*
X58999523Y-132104761D01*
X59094761Y-132152380D01*
X59332857Y-132152380D01*
X59428095Y-132104761D01*
X59475714Y-132057142D01*
X57127142Y-150963333D02*
X57174761Y-150915714D01*
X57222380Y-150772857D01*
X57222380Y-150677619D01*
X57174761Y-150534761D01*
X57079523Y-150439523D01*
X56984285Y-150391904D01*
X56793809Y-150344285D01*
X56650952Y-150344285D01*
X56460476Y-150391904D01*
X56365238Y-150439523D01*
X56270000Y-150534761D01*
X56222380Y-150677619D01*
X56222380Y-150772857D01*
X56270000Y-150915714D01*
X56317619Y-150963333D01*
X56555714Y-151820476D02*
X57222380Y-151820476D01*
X56174761Y-151582380D02*
X56889047Y-151344285D01*
X56889047Y-151963333D01*
X63666666Y-153137142D02*
X63714285Y-153184761D01*
X63857142Y-153232380D01*
X63952380Y-153232380D01*
X64095238Y-153184761D01*
X64190476Y-153089523D01*
X64238095Y-152994285D01*
X64285714Y-152803809D01*
X64285714Y-152660952D01*
X64238095Y-152470476D01*
X64190476Y-152375238D01*
X64095238Y-152280000D01*
X63952380Y-152232380D01*
X63857142Y-152232380D01*
X63714285Y-152280000D01*
X63666666Y-152327619D01*
X63333333Y-152232380D02*
X62714285Y-152232380D01*
X63047619Y-152613333D01*
X62904761Y-152613333D01*
X62809523Y-152660952D01*
X62761904Y-152708571D01*
X62714285Y-152803809D01*
X62714285Y-153041904D01*
X62761904Y-153137142D01*
X62809523Y-153184761D01*
X62904761Y-153232380D01*
X63190476Y-153232380D01*
X63285714Y-153184761D01*
X63333333Y-153137142D01*
X53506666Y-149327142D02*
X53554285Y-149374761D01*
X53697142Y-149422380D01*
X53792380Y-149422380D01*
X53935238Y-149374761D01*
X54030476Y-149279523D01*
X54078095Y-149184285D01*
X54125714Y-148993809D01*
X54125714Y-148850952D01*
X54078095Y-148660476D01*
X54030476Y-148565238D01*
X53935238Y-148470000D01*
X53792380Y-148422380D01*
X53697142Y-148422380D01*
X53554285Y-148470000D01*
X53506666Y-148517619D01*
X53125714Y-148517619D02*
X53078095Y-148470000D01*
X52982857Y-148422380D01*
X52744761Y-148422380D01*
X52649523Y-148470000D01*
X52601904Y-148517619D01*
X52554285Y-148612857D01*
X52554285Y-148708095D01*
X52601904Y-148850952D01*
X53173333Y-149422380D01*
X52554285Y-149422380D01*
X53506666Y-135867142D02*
X53554285Y-135914761D01*
X53697142Y-135962380D01*
X53792380Y-135962380D01*
X53935238Y-135914761D01*
X54030476Y-135819523D01*
X54078095Y-135724285D01*
X54125714Y-135533809D01*
X54125714Y-135390952D01*
X54078095Y-135200476D01*
X54030476Y-135105238D01*
X53935238Y-135010000D01*
X53792380Y-134962380D01*
X53697142Y-134962380D01*
X53554285Y-135010000D01*
X53506666Y-135057619D01*
X52554285Y-135962380D02*
X53125714Y-135962380D01*
X52840000Y-135962380D02*
X52840000Y-134962380D01*
X52935238Y-135105238D01*
X53030476Y-135200476D01*
X53125714Y-135248095D01*
%LPC*%
D12*
X180848000Y-120396000D03*
D13*
X178348000Y-120396000D03*
X175848000Y-120396000D03*
D14*
X183948000Y-127896000D03*
X172748000Y-127896000D03*
D13*
X180848000Y-134896000D03*
X175848000Y-134896000D03*
D15*
G36*
X176352341Y-113330997D02*
G01*
X176378478Y-113334874D01*
X176404109Y-113341294D01*
X176428988Y-113350195D01*
X176452874Y-113361493D01*
X176475537Y-113375077D01*
X176496760Y-113390817D01*
X176516339Y-113408561D01*
X176534083Y-113428140D01*
X176549823Y-113449363D01*
X176563407Y-113472026D01*
X176574705Y-113495912D01*
X176583606Y-113520791D01*
X176590026Y-113546422D01*
X176593903Y-113572559D01*
X176595200Y-113598950D01*
X176595200Y-114137450D01*
X176593903Y-114163841D01*
X176590026Y-114189978D01*
X176583606Y-114215609D01*
X176574705Y-114240488D01*
X176563407Y-114264374D01*
X176549823Y-114287037D01*
X176534083Y-114308260D01*
X176516339Y-114327839D01*
X176496760Y-114345583D01*
X176475537Y-114361323D01*
X176452874Y-114374907D01*
X176428988Y-114386205D01*
X176404109Y-114395106D01*
X176378478Y-114401526D01*
X176352341Y-114405403D01*
X176325950Y-114406700D01*
X175362450Y-114406700D01*
X175336059Y-114405403D01*
X175309922Y-114401526D01*
X175284291Y-114395106D01*
X175259412Y-114386205D01*
X175235526Y-114374907D01*
X175212863Y-114361323D01*
X175191640Y-114345583D01*
X175172061Y-114327839D01*
X175154317Y-114308260D01*
X175138577Y-114287037D01*
X175124993Y-114264374D01*
X175113695Y-114240488D01*
X175104794Y-114215609D01*
X175098374Y-114189978D01*
X175094497Y-114163841D01*
X175093200Y-114137450D01*
X175093200Y-113598950D01*
X175094497Y-113572559D01*
X175098374Y-113546422D01*
X175104794Y-113520791D01*
X175113695Y-113495912D01*
X175124993Y-113472026D01*
X175138577Y-113449363D01*
X175154317Y-113428140D01*
X175172061Y-113408561D01*
X175191640Y-113390817D01*
X175212863Y-113375077D01*
X175235526Y-113361493D01*
X175259412Y-113350195D01*
X175284291Y-113341294D01*
X175309922Y-113334874D01*
X175336059Y-113330997D01*
X175362450Y-113329700D01*
X176325950Y-113329700D01*
X176352341Y-113330997D01*
X176352341Y-113330997D01*
G37*
D16*
X175844200Y-113868200D03*
D15*
G36*
X176352341Y-115205997D02*
G01*
X176378478Y-115209874D01*
X176404109Y-115216294D01*
X176428988Y-115225195D01*
X176452874Y-115236493D01*
X176475537Y-115250077D01*
X176496760Y-115265817D01*
X176516339Y-115283561D01*
X176534083Y-115303140D01*
X176549823Y-115324363D01*
X176563407Y-115347026D01*
X176574705Y-115370912D01*
X176583606Y-115395791D01*
X176590026Y-115421422D01*
X176593903Y-115447559D01*
X176595200Y-115473950D01*
X176595200Y-116012450D01*
X176593903Y-116038841D01*
X176590026Y-116064978D01*
X176583606Y-116090609D01*
X176574705Y-116115488D01*
X176563407Y-116139374D01*
X176549823Y-116162037D01*
X176534083Y-116183260D01*
X176516339Y-116202839D01*
X176496760Y-116220583D01*
X176475537Y-116236323D01*
X176452874Y-116249907D01*
X176428988Y-116261205D01*
X176404109Y-116270106D01*
X176378478Y-116276526D01*
X176352341Y-116280403D01*
X176325950Y-116281700D01*
X175362450Y-116281700D01*
X175336059Y-116280403D01*
X175309922Y-116276526D01*
X175284291Y-116270106D01*
X175259412Y-116261205D01*
X175235526Y-116249907D01*
X175212863Y-116236323D01*
X175191640Y-116220583D01*
X175172061Y-116202839D01*
X175154317Y-116183260D01*
X175138577Y-116162037D01*
X175124993Y-116139374D01*
X175113695Y-116115488D01*
X175104794Y-116090609D01*
X175098374Y-116064978D01*
X175094497Y-116038841D01*
X175093200Y-116012450D01*
X175093200Y-115473950D01*
X175094497Y-115447559D01*
X175098374Y-115421422D01*
X175104794Y-115395791D01*
X175113695Y-115370912D01*
X175124993Y-115347026D01*
X175138577Y-115324363D01*
X175154317Y-115303140D01*
X175172061Y-115283561D01*
X175191640Y-115265817D01*
X175212863Y-115250077D01*
X175235526Y-115236493D01*
X175259412Y-115225195D01*
X175284291Y-115216294D01*
X175309922Y-115209874D01*
X175336059Y-115205997D01*
X175362450Y-115204700D01*
X176325950Y-115204700D01*
X176352341Y-115205997D01*
X176352341Y-115205997D01*
G37*
D16*
X175844200Y-115743200D03*
D15*
G36*
X181356141Y-115208297D02*
G01*
X181382278Y-115212174D01*
X181407909Y-115218594D01*
X181432788Y-115227495D01*
X181456674Y-115238793D01*
X181479337Y-115252377D01*
X181500560Y-115268117D01*
X181520139Y-115285861D01*
X181537883Y-115305440D01*
X181553623Y-115326663D01*
X181567207Y-115349326D01*
X181578505Y-115373212D01*
X181587406Y-115398091D01*
X181593826Y-115423722D01*
X181597703Y-115449859D01*
X181599000Y-115476250D01*
X181599000Y-116014750D01*
X181597703Y-116041141D01*
X181593826Y-116067278D01*
X181587406Y-116092909D01*
X181578505Y-116117788D01*
X181567207Y-116141674D01*
X181553623Y-116164337D01*
X181537883Y-116185560D01*
X181520139Y-116205139D01*
X181500560Y-116222883D01*
X181479337Y-116238623D01*
X181456674Y-116252207D01*
X181432788Y-116263505D01*
X181407909Y-116272406D01*
X181382278Y-116278826D01*
X181356141Y-116282703D01*
X181329750Y-116284000D01*
X180366250Y-116284000D01*
X180339859Y-116282703D01*
X180313722Y-116278826D01*
X180288091Y-116272406D01*
X180263212Y-116263505D01*
X180239326Y-116252207D01*
X180216663Y-116238623D01*
X180195440Y-116222883D01*
X180175861Y-116205139D01*
X180158117Y-116185560D01*
X180142377Y-116164337D01*
X180128793Y-116141674D01*
X180117495Y-116117788D01*
X180108594Y-116092909D01*
X180102174Y-116067278D01*
X180098297Y-116041141D01*
X180097000Y-116014750D01*
X180097000Y-115476250D01*
X180098297Y-115449859D01*
X180102174Y-115423722D01*
X180108594Y-115398091D01*
X180117495Y-115373212D01*
X180128793Y-115349326D01*
X180142377Y-115326663D01*
X180158117Y-115305440D01*
X180175861Y-115285861D01*
X180195440Y-115268117D01*
X180216663Y-115252377D01*
X180239326Y-115238793D01*
X180263212Y-115227495D01*
X180288091Y-115218594D01*
X180313722Y-115212174D01*
X180339859Y-115208297D01*
X180366250Y-115207000D01*
X181329750Y-115207000D01*
X181356141Y-115208297D01*
X181356141Y-115208297D01*
G37*
D16*
X180848000Y-115745500D03*
D15*
G36*
X181356141Y-113333297D02*
G01*
X181382278Y-113337174D01*
X181407909Y-113343594D01*
X181432788Y-113352495D01*
X181456674Y-113363793D01*
X181479337Y-113377377D01*
X181500560Y-113393117D01*
X181520139Y-113410861D01*
X181537883Y-113430440D01*
X181553623Y-113451663D01*
X181567207Y-113474326D01*
X181578505Y-113498212D01*
X181587406Y-113523091D01*
X181593826Y-113548722D01*
X181597703Y-113574859D01*
X181599000Y-113601250D01*
X181599000Y-114139750D01*
X181597703Y-114166141D01*
X181593826Y-114192278D01*
X181587406Y-114217909D01*
X181578505Y-114242788D01*
X181567207Y-114266674D01*
X181553623Y-114289337D01*
X181537883Y-114310560D01*
X181520139Y-114330139D01*
X181500560Y-114347883D01*
X181479337Y-114363623D01*
X181456674Y-114377207D01*
X181432788Y-114388505D01*
X181407909Y-114397406D01*
X181382278Y-114403826D01*
X181356141Y-114407703D01*
X181329750Y-114409000D01*
X180366250Y-114409000D01*
X180339859Y-114407703D01*
X180313722Y-114403826D01*
X180288091Y-114397406D01*
X180263212Y-114388505D01*
X180239326Y-114377207D01*
X180216663Y-114363623D01*
X180195440Y-114347883D01*
X180175861Y-114330139D01*
X180158117Y-114310560D01*
X180142377Y-114289337D01*
X180128793Y-114266674D01*
X180117495Y-114242788D01*
X180108594Y-114217909D01*
X180102174Y-114192278D01*
X180098297Y-114166141D01*
X180097000Y-114139750D01*
X180097000Y-113601250D01*
X180098297Y-113574859D01*
X180102174Y-113548722D01*
X180108594Y-113523091D01*
X180117495Y-113498212D01*
X180128793Y-113474326D01*
X180142377Y-113451663D01*
X180158117Y-113430440D01*
X180175861Y-113410861D01*
X180195440Y-113393117D01*
X180216663Y-113377377D01*
X180239326Y-113363793D01*
X180263212Y-113352495D01*
X180288091Y-113343594D01*
X180313722Y-113337174D01*
X180339859Y-113333297D01*
X180366250Y-113332000D01*
X181329750Y-113332000D01*
X181356141Y-113333297D01*
X181356141Y-113333297D01*
G37*
D16*
X180848000Y-113870500D03*
D17*
X2700000Y-31750000D03*
X10000000Y-31750000D03*
X10000000Y-36250000D03*
X2700000Y-36250000D03*
D18*
X4750000Y-36250000D03*
X5550000Y-36250000D03*
X6350000Y-36250000D03*
X7150000Y-36250000D03*
X7950000Y-36250000D03*
D19*
X52490000Y-141140000D03*
X52490000Y-143340000D03*
X54190000Y-143340000D03*
X54190000Y-141140000D03*
D20*
X70470000Y-146240000D03*
X70470000Y-145440000D03*
X70470000Y-144640000D03*
X70470000Y-143840000D03*
X70470000Y-143040000D03*
X70470000Y-142240000D03*
X70470000Y-141440000D03*
X70470000Y-140640000D03*
X70470000Y-139840000D03*
X70470000Y-139040000D03*
X70470000Y-138240000D03*
D21*
X68770000Y-136540000D03*
X67970000Y-136540000D03*
X67170000Y-136540000D03*
X66370000Y-136540000D03*
X65570000Y-136540000D03*
X64770000Y-136540000D03*
X63970000Y-136540000D03*
X63170000Y-136540000D03*
X62370000Y-136540000D03*
X61570000Y-136540000D03*
X60770000Y-136540000D03*
D20*
X59070000Y-138240000D03*
X59070000Y-139040000D03*
X59070000Y-139840000D03*
X59070000Y-140640000D03*
X59070000Y-141440000D03*
X59070000Y-142240000D03*
X59070000Y-143040000D03*
X59070000Y-143840000D03*
X59070000Y-144640000D03*
X59070000Y-145440000D03*
X59070000Y-146240000D03*
D21*
X60770000Y-147940000D03*
X61570000Y-147940000D03*
X62370000Y-147940000D03*
X63170000Y-147940000D03*
X63970000Y-147940000D03*
X64770000Y-147940000D03*
X65570000Y-147940000D03*
X66370000Y-147940000D03*
X67170000Y-147940000D03*
X67970000Y-147940000D03*
X68770000Y-147940000D03*
D22*
X32440000Y-144070000D03*
X36140000Y-137870000D03*
X36140000Y-144070000D03*
X32440000Y-137870000D03*
D15*
G36*
X69309741Y-132600297D02*
G01*
X69335878Y-132604174D01*
X69361509Y-132610594D01*
X69386388Y-132619495D01*
X69410274Y-132630793D01*
X69432937Y-132644377D01*
X69454160Y-132660117D01*
X69473739Y-132677861D01*
X69491483Y-132697440D01*
X69507223Y-132718663D01*
X69520807Y-132741326D01*
X69532105Y-132765212D01*
X69541006Y-132790091D01*
X69547426Y-132815722D01*
X69551303Y-132841859D01*
X69552600Y-132868250D01*
X69552600Y-133831750D01*
X69551303Y-133858141D01*
X69547426Y-133884278D01*
X69541006Y-133909909D01*
X69532105Y-133934788D01*
X69520807Y-133958674D01*
X69507223Y-133981337D01*
X69491483Y-134002560D01*
X69473739Y-134022139D01*
X69454160Y-134039883D01*
X69432937Y-134055623D01*
X69410274Y-134069207D01*
X69386388Y-134080505D01*
X69361509Y-134089406D01*
X69335878Y-134095826D01*
X69309741Y-134099703D01*
X69283350Y-134101000D01*
X68744850Y-134101000D01*
X68718459Y-134099703D01*
X68692322Y-134095826D01*
X68666691Y-134089406D01*
X68641812Y-134080505D01*
X68617926Y-134069207D01*
X68595263Y-134055623D01*
X68574040Y-134039883D01*
X68554461Y-134022139D01*
X68536717Y-134002560D01*
X68520977Y-133981337D01*
X68507393Y-133958674D01*
X68496095Y-133934788D01*
X68487194Y-133909909D01*
X68480774Y-133884278D01*
X68476897Y-133858141D01*
X68475600Y-133831750D01*
X68475600Y-132868250D01*
X68476897Y-132841859D01*
X68480774Y-132815722D01*
X68487194Y-132790091D01*
X68496095Y-132765212D01*
X68507393Y-132741326D01*
X68520977Y-132718663D01*
X68536717Y-132697440D01*
X68554461Y-132677861D01*
X68574040Y-132660117D01*
X68595263Y-132644377D01*
X68617926Y-132630793D01*
X68641812Y-132619495D01*
X68666691Y-132610594D01*
X68692322Y-132604174D01*
X68718459Y-132600297D01*
X68744850Y-132599000D01*
X69283350Y-132599000D01*
X69309741Y-132600297D01*
X69309741Y-132600297D01*
G37*
D16*
X69014100Y-133350000D03*
D15*
G36*
X71184741Y-132600297D02*
G01*
X71210878Y-132604174D01*
X71236509Y-132610594D01*
X71261388Y-132619495D01*
X71285274Y-132630793D01*
X71307937Y-132644377D01*
X71329160Y-132660117D01*
X71348739Y-132677861D01*
X71366483Y-132697440D01*
X71382223Y-132718663D01*
X71395807Y-132741326D01*
X71407105Y-132765212D01*
X71416006Y-132790091D01*
X71422426Y-132815722D01*
X71426303Y-132841859D01*
X71427600Y-132868250D01*
X71427600Y-133831750D01*
X71426303Y-133858141D01*
X71422426Y-133884278D01*
X71416006Y-133909909D01*
X71407105Y-133934788D01*
X71395807Y-133958674D01*
X71382223Y-133981337D01*
X71366483Y-134002560D01*
X71348739Y-134022139D01*
X71329160Y-134039883D01*
X71307937Y-134055623D01*
X71285274Y-134069207D01*
X71261388Y-134080505D01*
X71236509Y-134089406D01*
X71210878Y-134095826D01*
X71184741Y-134099703D01*
X71158350Y-134101000D01*
X70619850Y-134101000D01*
X70593459Y-134099703D01*
X70567322Y-134095826D01*
X70541691Y-134089406D01*
X70516812Y-134080505D01*
X70492926Y-134069207D01*
X70470263Y-134055623D01*
X70449040Y-134039883D01*
X70429461Y-134022139D01*
X70411717Y-134002560D01*
X70395977Y-133981337D01*
X70382393Y-133958674D01*
X70371095Y-133934788D01*
X70362194Y-133909909D01*
X70355774Y-133884278D01*
X70351897Y-133858141D01*
X70350600Y-133831750D01*
X70350600Y-132868250D01*
X70351897Y-132841859D01*
X70355774Y-132815722D01*
X70362194Y-132790091D01*
X70371095Y-132765212D01*
X70382393Y-132741326D01*
X70395977Y-132718663D01*
X70411717Y-132697440D01*
X70429461Y-132677861D01*
X70449040Y-132660117D01*
X70470263Y-132644377D01*
X70492926Y-132630793D01*
X70516812Y-132619495D01*
X70541691Y-132610594D01*
X70567322Y-132604174D01*
X70593459Y-132600297D01*
X70619850Y-132599000D01*
X71158350Y-132599000D01*
X71184741Y-132600297D01*
X71184741Y-132600297D01*
G37*
D16*
X70889100Y-133350000D03*
D15*
G36*
X52698141Y-155460297D02*
G01*
X52724278Y-155464174D01*
X52749909Y-155470594D01*
X52774788Y-155479495D01*
X52798674Y-155490793D01*
X52821337Y-155504377D01*
X52842560Y-155520117D01*
X52862139Y-155537861D01*
X52879883Y-155557440D01*
X52895623Y-155578663D01*
X52909207Y-155601326D01*
X52920505Y-155625212D01*
X52929406Y-155650091D01*
X52935826Y-155675722D01*
X52939703Y-155701859D01*
X52941000Y-155728250D01*
X52941000Y-156691750D01*
X52939703Y-156718141D01*
X52935826Y-156744278D01*
X52929406Y-156769909D01*
X52920505Y-156794788D01*
X52909207Y-156818674D01*
X52895623Y-156841337D01*
X52879883Y-156862560D01*
X52862139Y-156882139D01*
X52842560Y-156899883D01*
X52821337Y-156915623D01*
X52798674Y-156929207D01*
X52774788Y-156940505D01*
X52749909Y-156949406D01*
X52724278Y-156955826D01*
X52698141Y-156959703D01*
X52671750Y-156961000D01*
X52133250Y-156961000D01*
X52106859Y-156959703D01*
X52080722Y-156955826D01*
X52055091Y-156949406D01*
X52030212Y-156940505D01*
X52006326Y-156929207D01*
X51983663Y-156915623D01*
X51962440Y-156899883D01*
X51942861Y-156882139D01*
X51925117Y-156862560D01*
X51909377Y-156841337D01*
X51895793Y-156818674D01*
X51884495Y-156794788D01*
X51875594Y-156769909D01*
X51869174Y-156744278D01*
X51865297Y-156718141D01*
X51864000Y-156691750D01*
X51864000Y-155728250D01*
X51865297Y-155701859D01*
X51869174Y-155675722D01*
X51875594Y-155650091D01*
X51884495Y-155625212D01*
X51895793Y-155601326D01*
X51909377Y-155578663D01*
X51925117Y-155557440D01*
X51942861Y-155537861D01*
X51962440Y-155520117D01*
X51983663Y-155504377D01*
X52006326Y-155490793D01*
X52030212Y-155479495D01*
X52055091Y-155470594D01*
X52080722Y-155464174D01*
X52106859Y-155460297D01*
X52133250Y-155459000D01*
X52671750Y-155459000D01*
X52698141Y-155460297D01*
X52698141Y-155460297D01*
G37*
D16*
X52402500Y-156210000D03*
D15*
G36*
X54573141Y-155460297D02*
G01*
X54599278Y-155464174D01*
X54624909Y-155470594D01*
X54649788Y-155479495D01*
X54673674Y-155490793D01*
X54696337Y-155504377D01*
X54717560Y-155520117D01*
X54737139Y-155537861D01*
X54754883Y-155557440D01*
X54770623Y-155578663D01*
X54784207Y-155601326D01*
X54795505Y-155625212D01*
X54804406Y-155650091D01*
X54810826Y-155675722D01*
X54814703Y-155701859D01*
X54816000Y-155728250D01*
X54816000Y-156691750D01*
X54814703Y-156718141D01*
X54810826Y-156744278D01*
X54804406Y-156769909D01*
X54795505Y-156794788D01*
X54784207Y-156818674D01*
X54770623Y-156841337D01*
X54754883Y-156862560D01*
X54737139Y-156882139D01*
X54717560Y-156899883D01*
X54696337Y-156915623D01*
X54673674Y-156929207D01*
X54649788Y-156940505D01*
X54624909Y-156949406D01*
X54599278Y-156955826D01*
X54573141Y-156959703D01*
X54546750Y-156961000D01*
X54008250Y-156961000D01*
X53981859Y-156959703D01*
X53955722Y-156955826D01*
X53930091Y-156949406D01*
X53905212Y-156940505D01*
X53881326Y-156929207D01*
X53858663Y-156915623D01*
X53837440Y-156899883D01*
X53817861Y-156882139D01*
X53800117Y-156862560D01*
X53784377Y-156841337D01*
X53770793Y-156818674D01*
X53759495Y-156794788D01*
X53750594Y-156769909D01*
X53744174Y-156744278D01*
X53740297Y-156718141D01*
X53739000Y-156691750D01*
X53739000Y-155728250D01*
X53740297Y-155701859D01*
X53744174Y-155675722D01*
X53750594Y-155650091D01*
X53759495Y-155625212D01*
X53770793Y-155601326D01*
X53784377Y-155578663D01*
X53800117Y-155557440D01*
X53817861Y-155537861D01*
X53837440Y-155520117D01*
X53858663Y-155504377D01*
X53881326Y-155490793D01*
X53905212Y-155479495D01*
X53930091Y-155470594D01*
X53955722Y-155464174D01*
X53981859Y-155460297D01*
X54008250Y-155459000D01*
X54546750Y-155459000D01*
X54573141Y-155460297D01*
X54573141Y-155460297D01*
G37*
D16*
X54277500Y-156210000D03*
D15*
G36*
X52698141Y-152920297D02*
G01*
X52724278Y-152924174D01*
X52749909Y-152930594D01*
X52774788Y-152939495D01*
X52798674Y-152950793D01*
X52821337Y-152964377D01*
X52842560Y-152980117D01*
X52862139Y-152997861D01*
X52879883Y-153017440D01*
X52895623Y-153038663D01*
X52909207Y-153061326D01*
X52920505Y-153085212D01*
X52929406Y-153110091D01*
X52935826Y-153135722D01*
X52939703Y-153161859D01*
X52941000Y-153188250D01*
X52941000Y-154151750D01*
X52939703Y-154178141D01*
X52935826Y-154204278D01*
X52929406Y-154229909D01*
X52920505Y-154254788D01*
X52909207Y-154278674D01*
X52895623Y-154301337D01*
X52879883Y-154322560D01*
X52862139Y-154342139D01*
X52842560Y-154359883D01*
X52821337Y-154375623D01*
X52798674Y-154389207D01*
X52774788Y-154400505D01*
X52749909Y-154409406D01*
X52724278Y-154415826D01*
X52698141Y-154419703D01*
X52671750Y-154421000D01*
X52133250Y-154421000D01*
X52106859Y-154419703D01*
X52080722Y-154415826D01*
X52055091Y-154409406D01*
X52030212Y-154400505D01*
X52006326Y-154389207D01*
X51983663Y-154375623D01*
X51962440Y-154359883D01*
X51942861Y-154342139D01*
X51925117Y-154322560D01*
X51909377Y-154301337D01*
X51895793Y-154278674D01*
X51884495Y-154254788D01*
X51875594Y-154229909D01*
X51869174Y-154204278D01*
X51865297Y-154178141D01*
X51864000Y-154151750D01*
X51864000Y-153188250D01*
X51865297Y-153161859D01*
X51869174Y-153135722D01*
X51875594Y-153110091D01*
X51884495Y-153085212D01*
X51895793Y-153061326D01*
X51909377Y-153038663D01*
X51925117Y-153017440D01*
X51942861Y-152997861D01*
X51962440Y-152980117D01*
X51983663Y-152964377D01*
X52006326Y-152950793D01*
X52030212Y-152939495D01*
X52055091Y-152930594D01*
X52080722Y-152924174D01*
X52106859Y-152920297D01*
X52133250Y-152919000D01*
X52671750Y-152919000D01*
X52698141Y-152920297D01*
X52698141Y-152920297D01*
G37*
D16*
X52402500Y-153670000D03*
D15*
G36*
X54573141Y-152920297D02*
G01*
X54599278Y-152924174D01*
X54624909Y-152930594D01*
X54649788Y-152939495D01*
X54673674Y-152950793D01*
X54696337Y-152964377D01*
X54717560Y-152980117D01*
X54737139Y-152997861D01*
X54754883Y-153017440D01*
X54770623Y-153038663D01*
X54784207Y-153061326D01*
X54795505Y-153085212D01*
X54804406Y-153110091D01*
X54810826Y-153135722D01*
X54814703Y-153161859D01*
X54816000Y-153188250D01*
X54816000Y-154151750D01*
X54814703Y-154178141D01*
X54810826Y-154204278D01*
X54804406Y-154229909D01*
X54795505Y-154254788D01*
X54784207Y-154278674D01*
X54770623Y-154301337D01*
X54754883Y-154322560D01*
X54737139Y-154342139D01*
X54717560Y-154359883D01*
X54696337Y-154375623D01*
X54673674Y-154389207D01*
X54649788Y-154400505D01*
X54624909Y-154409406D01*
X54599278Y-154415826D01*
X54573141Y-154419703D01*
X54546750Y-154421000D01*
X54008250Y-154421000D01*
X53981859Y-154419703D01*
X53955722Y-154415826D01*
X53930091Y-154409406D01*
X53905212Y-154400505D01*
X53881326Y-154389207D01*
X53858663Y-154375623D01*
X53837440Y-154359883D01*
X53817861Y-154342139D01*
X53800117Y-154322560D01*
X53784377Y-154301337D01*
X53770793Y-154278674D01*
X53759495Y-154254788D01*
X53750594Y-154229909D01*
X53744174Y-154204278D01*
X53740297Y-154178141D01*
X53739000Y-154151750D01*
X53739000Y-153188250D01*
X53740297Y-153161859D01*
X53744174Y-153135722D01*
X53750594Y-153110091D01*
X53759495Y-153085212D01*
X53770793Y-153061326D01*
X53784377Y-153038663D01*
X53800117Y-153017440D01*
X53817861Y-152997861D01*
X53837440Y-152980117D01*
X53858663Y-152964377D01*
X53881326Y-152950793D01*
X53905212Y-152939495D01*
X53930091Y-152930594D01*
X53955722Y-152924174D01*
X53981859Y-152920297D01*
X54008250Y-152919000D01*
X54546750Y-152919000D01*
X54573141Y-152920297D01*
X54573141Y-152920297D01*
G37*
D16*
X54277500Y-153670000D03*
D15*
G36*
X52698141Y-150380297D02*
G01*
X52724278Y-150384174D01*
X52749909Y-150390594D01*
X52774788Y-150399495D01*
X52798674Y-150410793D01*
X52821337Y-150424377D01*
X52842560Y-150440117D01*
X52862139Y-150457861D01*
X52879883Y-150477440D01*
X52895623Y-150498663D01*
X52909207Y-150521326D01*
X52920505Y-150545212D01*
X52929406Y-150570091D01*
X52935826Y-150595722D01*
X52939703Y-150621859D01*
X52941000Y-150648250D01*
X52941000Y-151611750D01*
X52939703Y-151638141D01*
X52935826Y-151664278D01*
X52929406Y-151689909D01*
X52920505Y-151714788D01*
X52909207Y-151738674D01*
X52895623Y-151761337D01*
X52879883Y-151782560D01*
X52862139Y-151802139D01*
X52842560Y-151819883D01*
X52821337Y-151835623D01*
X52798674Y-151849207D01*
X52774788Y-151860505D01*
X52749909Y-151869406D01*
X52724278Y-151875826D01*
X52698141Y-151879703D01*
X52671750Y-151881000D01*
X52133250Y-151881000D01*
X52106859Y-151879703D01*
X52080722Y-151875826D01*
X52055091Y-151869406D01*
X52030212Y-151860505D01*
X52006326Y-151849207D01*
X51983663Y-151835623D01*
X51962440Y-151819883D01*
X51942861Y-151802139D01*
X51925117Y-151782560D01*
X51909377Y-151761337D01*
X51895793Y-151738674D01*
X51884495Y-151714788D01*
X51875594Y-151689909D01*
X51869174Y-151664278D01*
X51865297Y-151638141D01*
X51864000Y-151611750D01*
X51864000Y-150648250D01*
X51865297Y-150621859D01*
X51869174Y-150595722D01*
X51875594Y-150570091D01*
X51884495Y-150545212D01*
X51895793Y-150521326D01*
X51909377Y-150498663D01*
X51925117Y-150477440D01*
X51942861Y-150457861D01*
X51962440Y-150440117D01*
X51983663Y-150424377D01*
X52006326Y-150410793D01*
X52030212Y-150399495D01*
X52055091Y-150390594D01*
X52080722Y-150384174D01*
X52106859Y-150380297D01*
X52133250Y-150379000D01*
X52671750Y-150379000D01*
X52698141Y-150380297D01*
X52698141Y-150380297D01*
G37*
D16*
X52402500Y-151130000D03*
D15*
G36*
X54573141Y-150380297D02*
G01*
X54599278Y-150384174D01*
X54624909Y-150390594D01*
X54649788Y-150399495D01*
X54673674Y-150410793D01*
X54696337Y-150424377D01*
X54717560Y-150440117D01*
X54737139Y-150457861D01*
X54754883Y-150477440D01*
X54770623Y-150498663D01*
X54784207Y-150521326D01*
X54795505Y-150545212D01*
X54804406Y-150570091D01*
X54810826Y-150595722D01*
X54814703Y-150621859D01*
X54816000Y-150648250D01*
X54816000Y-151611750D01*
X54814703Y-151638141D01*
X54810826Y-151664278D01*
X54804406Y-151689909D01*
X54795505Y-151714788D01*
X54784207Y-151738674D01*
X54770623Y-151761337D01*
X54754883Y-151782560D01*
X54737139Y-151802139D01*
X54717560Y-151819883D01*
X54696337Y-151835623D01*
X54673674Y-151849207D01*
X54649788Y-151860505D01*
X54624909Y-151869406D01*
X54599278Y-151875826D01*
X54573141Y-151879703D01*
X54546750Y-151881000D01*
X54008250Y-151881000D01*
X53981859Y-151879703D01*
X53955722Y-151875826D01*
X53930091Y-151869406D01*
X53905212Y-151860505D01*
X53881326Y-151849207D01*
X53858663Y-151835623D01*
X53837440Y-151819883D01*
X53817861Y-151802139D01*
X53800117Y-151782560D01*
X53784377Y-151761337D01*
X53770793Y-151738674D01*
X53759495Y-151714788D01*
X53750594Y-151689909D01*
X53744174Y-151664278D01*
X53740297Y-151638141D01*
X53739000Y-151611750D01*
X53739000Y-150648250D01*
X53740297Y-150621859D01*
X53744174Y-150595722D01*
X53750594Y-150570091D01*
X53759495Y-150545212D01*
X53770793Y-150521326D01*
X53784377Y-150498663D01*
X53800117Y-150477440D01*
X53817861Y-150457861D01*
X53837440Y-150440117D01*
X53858663Y-150424377D01*
X53881326Y-150410793D01*
X53905212Y-150399495D01*
X53930091Y-150390594D01*
X53955722Y-150384174D01*
X53981859Y-150380297D01*
X54008250Y-150379000D01*
X54546750Y-150379000D01*
X54573141Y-150380297D01*
X54573141Y-150380297D01*
G37*
D16*
X54277500Y-151130000D03*
D23*
X181610800Y-147450940D03*
X171450800Y-147450940D03*
D24*
X177800800Y-152530940D03*
D25*
X175260800Y-152530940D03*
D26*
X174030800Y-143450940D03*
D27*
X176530800Y-147450940D03*
D26*
X173375801Y-144180940D03*
D28*
X172720800Y-144910940D02*
X174030802Y-143450940D01*
D26*
X179070800Y-142370940D03*
X179050800Y-142660940D03*
D28*
X179030800Y-142950940D02*
X179070800Y-142370940D01*
D23*
X162560800Y-147450940D03*
X152400800Y-147450940D03*
D24*
X158750800Y-152530940D03*
D25*
X156210800Y-152530940D03*
D26*
X154980800Y-143450940D03*
D27*
X157480800Y-147450940D03*
D26*
X154325801Y-144180940D03*
D28*
X153670800Y-144910940D02*
X154980802Y-143450940D01*
D26*
X160020800Y-142370940D03*
X160000800Y-142660940D03*
D28*
X159980800Y-142950940D02*
X160020800Y-142370940D01*
D23*
X143510800Y-147450940D03*
X133350800Y-147450940D03*
D24*
X139700800Y-152530940D03*
D25*
X137160800Y-152530940D03*
D26*
X135930800Y-143450940D03*
D27*
X138430800Y-147450940D03*
D26*
X135275801Y-144180940D03*
D28*
X134620800Y-144910940D02*
X135930802Y-143450940D01*
D26*
X140970800Y-142370940D03*
X140950800Y-142660940D03*
D28*
X140930800Y-142950940D02*
X140970800Y-142370940D01*
D23*
X162560800Y-128400940D03*
X152400800Y-128400940D03*
D24*
X158750800Y-133480940D03*
D25*
X156210800Y-133480940D03*
D26*
X154980800Y-124400940D03*
D27*
X157480800Y-128400940D03*
D26*
X154325801Y-125130940D03*
D28*
X153670800Y-125860940D02*
X154980802Y-124400940D01*
D26*
X160020800Y-123320940D03*
X160000800Y-123610940D03*
D28*
X159980800Y-123900940D02*
X160020800Y-123320940D01*
D23*
X313545422Y-108689406D03*
X303461154Y-109927598D03*
D25*
X310382918Y-114195862D03*
D15*
G36*
X309509194Y-115314178D02*
G01*
X309264602Y-113322138D01*
X311256642Y-113077546D01*
X311501234Y-115069586D01*
X309509194Y-115314178D01*
X309509194Y-115314178D01*
G37*
D25*
X307861851Y-114505411D03*
D26*
X305534445Y-105642991D03*
D27*
X308503288Y-109308502D03*
D26*
X304973293Y-106447374D03*
D28*
X304412139Y-107251757D02*
X305534447Y-105642991D01*
D26*
X310405259Y-103956819D03*
X310420750Y-104247095D03*
D28*
X310436241Y-104537371D02*
X310405259Y-103956819D01*
D23*
X294637418Y-111011017D03*
X284553150Y-112249209D03*
D25*
X291474914Y-116517473D03*
D15*
G36*
X290601190Y-117635789D02*
G01*
X290356598Y-115643749D01*
X292348638Y-115399157D01*
X292593230Y-117391197D01*
X290601190Y-117635789D01*
X290601190Y-117635789D01*
G37*
D25*
X288953847Y-116827022D03*
D26*
X286626441Y-107964602D03*
D27*
X289595284Y-111630113D03*
D26*
X286065289Y-108768985D03*
D28*
X285504135Y-109573368D02*
X286626443Y-107964602D01*
D26*
X291497255Y-106278430D03*
X291512746Y-106568706D03*
D28*
X291528237Y-106858982D02*
X291497255Y-106278430D01*
D23*
X275729414Y-113332628D03*
X265645146Y-114570820D03*
D25*
X272566910Y-118839084D03*
D15*
G36*
X271693186Y-119957400D02*
G01*
X271448594Y-117965360D01*
X273440634Y-117720768D01*
X273685226Y-119712808D01*
X271693186Y-119957400D01*
X271693186Y-119957400D01*
G37*
D25*
X270045843Y-119148633D03*
D26*
X267718437Y-110286213D03*
D27*
X270687280Y-113951724D03*
D26*
X267157285Y-111090596D03*
D28*
X266596131Y-111894979D02*
X267718439Y-110286213D01*
D26*
X272589251Y-108600041D03*
X272604742Y-108890317D03*
D28*
X272620233Y-109180593D02*
X272589251Y-108600041D01*
D23*
X256821410Y-115654239D03*
X246737142Y-116892431D03*
D25*
X253658906Y-121160695D03*
D15*
G36*
X252785182Y-122279011D02*
G01*
X252540590Y-120286971D01*
X254532630Y-120042379D01*
X254777222Y-122034419D01*
X252785182Y-122279011D01*
X252785182Y-122279011D01*
G37*
D25*
X251137839Y-121470244D03*
D26*
X248810433Y-112607824D03*
D27*
X251779276Y-116273335D03*
D26*
X248249281Y-113412207D03*
D28*
X247688127Y-114216590D02*
X248810435Y-112607824D01*
D26*
X253681247Y-110921652D03*
X253696738Y-111211928D03*
D28*
X253712229Y-111502204D02*
X253681247Y-110921652D01*
D23*
X237913405Y-117975850D03*
X227829137Y-119214042D03*
D25*
X234750901Y-123482306D03*
D15*
G36*
X233877177Y-124600622D02*
G01*
X233632585Y-122608582D01*
X235624625Y-122363990D01*
X235869217Y-124356030D01*
X233877177Y-124600622D01*
X233877177Y-124600622D01*
G37*
D25*
X232229834Y-123791855D03*
D26*
X229902428Y-114929435D03*
D27*
X232871271Y-118594946D03*
D26*
X229341276Y-115733818D03*
D28*
X228780122Y-116538201D02*
X229902430Y-114929435D01*
D26*
X234773242Y-113243263D03*
X234788733Y-113533539D03*
D28*
X234804224Y-113823815D02*
X234773242Y-113243263D01*
D23*
X219005401Y-120297461D03*
X208921133Y-121535653D03*
D25*
X215842897Y-125803917D03*
D15*
G36*
X214969173Y-126922233D02*
G01*
X214724581Y-124930193D01*
X216716621Y-124685601D01*
X216961213Y-126677641D01*
X214969173Y-126922233D01*
X214969173Y-126922233D01*
G37*
D25*
X213321830Y-126113466D03*
D26*
X210994424Y-117251046D03*
D27*
X213963267Y-120916557D03*
D26*
X210433272Y-118055429D03*
D28*
X209872118Y-118859812D02*
X210994426Y-117251046D01*
D26*
X215865238Y-115564874D03*
X215880729Y-115855150D03*
D28*
X215896220Y-116145426D02*
X215865238Y-115564874D01*
D23*
X181610000Y-99060000D03*
X171450000Y-99060000D03*
D24*
X177800000Y-104140000D03*
D25*
X175260000Y-104140000D03*
D26*
X174030000Y-95060000D03*
D27*
X176530000Y-99060000D03*
D26*
X173375001Y-95790000D03*
D28*
X172720000Y-96520000D02*
X174030002Y-95060000D01*
D26*
X179070000Y-93980000D03*
X179050000Y-94270000D03*
D28*
X179030000Y-94560000D02*
X179070000Y-93980000D01*
D23*
X162560000Y-99060000D03*
X152400000Y-99060000D03*
D24*
X158750000Y-104140000D03*
D25*
X156210000Y-104140000D03*
D26*
X154980000Y-95060000D03*
D27*
X157480000Y-99060000D03*
D26*
X154325001Y-95790000D03*
D28*
X153670000Y-96520000D02*
X154980002Y-95060000D01*
D26*
X160020000Y-93980000D03*
X160000000Y-94270000D03*
D28*
X159980000Y-94560000D02*
X160020000Y-93980000D01*
D23*
X143510000Y-99060000D03*
X133350000Y-99060000D03*
D24*
X139700000Y-104140000D03*
D25*
X137160000Y-104140000D03*
D26*
X135930000Y-95060000D03*
D27*
X138430000Y-99060000D03*
D26*
X135275001Y-95790000D03*
D28*
X134620000Y-96520000D02*
X135930002Y-95060000D01*
D26*
X140970000Y-93980000D03*
X140950000Y-94270000D03*
D28*
X140930000Y-94560000D02*
X140970000Y-93980000D01*
D23*
X106041236Y-121529867D03*
X95956968Y-120291675D03*
D25*
X101640539Y-126107680D03*
D15*
G36*
X100522223Y-126981404D02*
G01*
X100766815Y-124989364D01*
X102758855Y-125233956D01*
X102514263Y-127225996D01*
X100522223Y-126981404D01*
X100522223Y-126981404D01*
G37*
D25*
X99119472Y-125798131D03*
D26*
X99005214Y-116635913D03*
D27*
X100999102Y-120910771D03*
D26*
X98266132Y-117280648D03*
D28*
X97527049Y-117925382D02*
X99005215Y-116635914D01*
D26*
X104139265Y-116178185D03*
X104084072Y-116463586D03*
D28*
X104028879Y-116748987D02*
X104139265Y-116178185D01*
D23*
X87133231Y-119208256D03*
X77048963Y-117970064D03*
D25*
X82732534Y-123786069D03*
D15*
G36*
X81614218Y-124659793D02*
G01*
X81858810Y-122667753D01*
X83850850Y-122912345D01*
X83606258Y-124904385D01*
X81614218Y-124659793D01*
X81614218Y-124659793D01*
G37*
D25*
X80211467Y-123476520D03*
D26*
X80097209Y-114314302D03*
D27*
X82091097Y-118589160D03*
D26*
X79358127Y-114959037D03*
D28*
X78619044Y-115603771D02*
X80097210Y-114314303D01*
D26*
X85231260Y-113856574D03*
X85176067Y-114141975D03*
D28*
X85120874Y-114427376D02*
X85231260Y-113856574D01*
D23*
X68225227Y-116886645D03*
X58140959Y-115648453D03*
D25*
X63824530Y-121464458D03*
D15*
G36*
X62706214Y-122338182D02*
G01*
X62950806Y-120346142D01*
X64942846Y-120590734D01*
X64698254Y-122582774D01*
X62706214Y-122338182D01*
X62706214Y-122338182D01*
G37*
D25*
X61303463Y-121154909D03*
D26*
X61189205Y-111992691D03*
D27*
X63183093Y-116267549D03*
D26*
X60450123Y-112637426D03*
D28*
X59711040Y-113282160D02*
X61189206Y-111992692D01*
D26*
X66323256Y-111534963D03*
X66268063Y-111820364D03*
D28*
X66212870Y-112105765D02*
X66323256Y-111534963D01*
D23*
X49317223Y-114565034D03*
X39232955Y-113326842D03*
D25*
X44916526Y-119142847D03*
D15*
G36*
X43798210Y-120016571D02*
G01*
X44042802Y-118024531D01*
X46034842Y-118269123D01*
X45790250Y-120261163D01*
X43798210Y-120016571D01*
X43798210Y-120016571D01*
G37*
D25*
X42395459Y-118833298D03*
D26*
X42281201Y-109671080D03*
D27*
X44275089Y-113945938D03*
D26*
X41542119Y-110315815D03*
D28*
X40803036Y-110960549D02*
X42281202Y-109671081D01*
D26*
X47415252Y-109213352D03*
X47360059Y-109498753D03*
D28*
X47304866Y-109784154D02*
X47415252Y-109213352D01*
D23*
X30409219Y-112243423D03*
X20324951Y-111005231D03*
D25*
X26008522Y-116821236D03*
D15*
G36*
X24890206Y-117694960D02*
G01*
X25134798Y-115702920D01*
X27126838Y-115947512D01*
X26882246Y-117939552D01*
X24890206Y-117694960D01*
X24890206Y-117694960D01*
G37*
D25*
X23487455Y-116511687D03*
D26*
X23373197Y-107349469D03*
D27*
X25367085Y-111624327D03*
D26*
X22634115Y-107994204D03*
D28*
X21895032Y-108638938D02*
X23373198Y-107349470D01*
D26*
X28507248Y-106891741D03*
X28452055Y-107177142D03*
D28*
X28396862Y-107462543D02*
X28507248Y-106891741D01*
D23*
X11501215Y-109921812D03*
X1416947Y-108683620D03*
D25*
X7100518Y-114499625D03*
D15*
G36*
X5982202Y-115373349D02*
G01*
X6226794Y-113381309D01*
X8218834Y-113625901D01*
X7974242Y-115617941D01*
X5982202Y-115373349D01*
X5982202Y-115373349D01*
G37*
D25*
X4579451Y-114190076D03*
D26*
X4465193Y-105027858D03*
D27*
X6459081Y-109302716D03*
D26*
X3726111Y-105672593D03*
D28*
X2987028Y-106317327D02*
X4465194Y-105027859D01*
D26*
X9599244Y-104570130D03*
X9544051Y-104855531D03*
D28*
X9488858Y-105140932D02*
X9599244Y-104570130D01*
D23*
X311223811Y-89781402D03*
X301139543Y-91019594D03*
D25*
X308061307Y-95287858D03*
D15*
G36*
X307187583Y-96406174D02*
G01*
X306942991Y-94414134D01*
X308935031Y-94169542D01*
X309179623Y-96161582D01*
X307187583Y-96406174D01*
X307187583Y-96406174D01*
G37*
D25*
X305540240Y-95597407D03*
D26*
X303212834Y-86734987D03*
D27*
X306181677Y-90400498D03*
D26*
X302651682Y-87539370D03*
D28*
X302090528Y-88343753D02*
X303212836Y-86734987D01*
D26*
X308083648Y-85048815D03*
X308099139Y-85339091D03*
D28*
X308114630Y-85629367D02*
X308083648Y-85048815D01*
D23*
X292315807Y-92103013D03*
X282231539Y-93341205D03*
D25*
X289153303Y-97609469D03*
D15*
G36*
X288279579Y-98727785D02*
G01*
X288034987Y-96735745D01*
X290027027Y-96491153D01*
X290271619Y-98483193D01*
X288279579Y-98727785D01*
X288279579Y-98727785D01*
G37*
D25*
X286632236Y-97919018D03*
D26*
X284304830Y-89056598D03*
D27*
X287273673Y-92722109D03*
D26*
X283743678Y-89860981D03*
D28*
X283182524Y-90665364D02*
X284304832Y-89056598D01*
D26*
X289175644Y-87370426D03*
X289191135Y-87660702D03*
D28*
X289206626Y-87950978D02*
X289175644Y-87370426D01*
D23*
X273407803Y-94424624D03*
X263323535Y-95662816D03*
D25*
X270245299Y-99931080D03*
D15*
G36*
X269371575Y-101049396D02*
G01*
X269126983Y-99057356D01*
X271119023Y-98812764D01*
X271363615Y-100804804D01*
X269371575Y-101049396D01*
X269371575Y-101049396D01*
G37*
D25*
X267724232Y-100240629D03*
D26*
X265396826Y-91378209D03*
D27*
X268365669Y-95043720D03*
D26*
X264835674Y-92182592D03*
D28*
X264274520Y-92986975D02*
X265396828Y-91378209D01*
D26*
X270267640Y-89692037D03*
X270283131Y-89982313D03*
D28*
X270298622Y-90272589D02*
X270267640Y-89692037D01*
D23*
X254499799Y-96746235D03*
X244415531Y-97984427D03*
D25*
X251337295Y-102252691D03*
D15*
G36*
X250463571Y-103371007D02*
G01*
X250218979Y-101378967D01*
X252211019Y-101134375D01*
X252455611Y-103126415D01*
X250463571Y-103371007D01*
X250463571Y-103371007D01*
G37*
D25*
X248816228Y-102562240D03*
D26*
X246488822Y-93699820D03*
D27*
X249457665Y-97365331D03*
D26*
X245927670Y-94504203D03*
D28*
X245366516Y-95308586D02*
X246488824Y-93699820D01*
D26*
X251359636Y-92013648D03*
X251375127Y-92303924D03*
D28*
X251390618Y-92594200D02*
X251359636Y-92013648D01*
D23*
X235591794Y-99067846D03*
X225507526Y-100306038D03*
D25*
X232429290Y-104574302D03*
D15*
G36*
X231555566Y-105692618D02*
G01*
X231310974Y-103700578D01*
X233303014Y-103455986D01*
X233547606Y-105448026D01*
X231555566Y-105692618D01*
X231555566Y-105692618D01*
G37*
D25*
X229908223Y-104883851D03*
D26*
X227580817Y-96021431D03*
D27*
X230549660Y-99686942D03*
D26*
X227019665Y-96825814D03*
D28*
X226458511Y-97630197D02*
X227580819Y-96021431D01*
D26*
X232451631Y-94335259D03*
X232467122Y-94625535D03*
D28*
X232482613Y-94915811D02*
X232451631Y-94335259D01*
D23*
X216683790Y-101389457D03*
X206599522Y-102627649D03*
D25*
X213521286Y-106895913D03*
D15*
G36*
X212647562Y-108014229D02*
G01*
X212402970Y-106022189D01*
X214395010Y-105777597D01*
X214639602Y-107769637D01*
X212647562Y-108014229D01*
X212647562Y-108014229D01*
G37*
D25*
X211000219Y-107205462D03*
D26*
X208672813Y-98343042D03*
D27*
X211641656Y-102008553D03*
D26*
X208111661Y-99147425D03*
D28*
X207550507Y-99951808D02*
X208672815Y-98343042D01*
D26*
X213543627Y-96656870D03*
X213559118Y-96947146D03*
D28*
X213574609Y-97237422D02*
X213543627Y-96656870D01*
D23*
X181610000Y-80010000D03*
X171450000Y-80010000D03*
D24*
X177800000Y-85090000D03*
D25*
X175260000Y-85090000D03*
D26*
X174030000Y-76010000D03*
D27*
X176530000Y-80010000D03*
D26*
X173375001Y-76740000D03*
D28*
X172720000Y-77470000D02*
X174030002Y-76010000D01*
D26*
X179070000Y-74930000D03*
X179050000Y-75220000D03*
D28*
X179030000Y-75510000D02*
X179070000Y-74930000D01*
D23*
X162560000Y-80010000D03*
X152400000Y-80010000D03*
D24*
X158750000Y-85090000D03*
D25*
X156210000Y-85090000D03*
D26*
X154980000Y-76010000D03*
D27*
X157480000Y-80010000D03*
D26*
X154325001Y-76740000D03*
D28*
X153670000Y-77470000D02*
X154980002Y-76010000D01*
D26*
X160020000Y-74930000D03*
X160000000Y-75220000D03*
D28*
X159980000Y-75510000D02*
X160020000Y-74930000D01*
D23*
X143510000Y-80010000D03*
X133350000Y-80010000D03*
D24*
X139700000Y-85090000D03*
D25*
X137160000Y-85090000D03*
D26*
X135930000Y-76010000D03*
D27*
X138430000Y-80010000D03*
D26*
X135275001Y-76740000D03*
D28*
X134620000Y-77470000D02*
X135930002Y-76010000D01*
D26*
X140970000Y-74930000D03*
X140950000Y-75220000D03*
D28*
X140930000Y-75510000D02*
X140970000Y-74930000D01*
D23*
X108362847Y-102621863D03*
X98278579Y-101383671D03*
D25*
X103962150Y-107199676D03*
D15*
G36*
X102843834Y-108073400D02*
G01*
X103088426Y-106081360D01*
X105080466Y-106325952D01*
X104835874Y-108317992D01*
X102843834Y-108073400D01*
X102843834Y-108073400D01*
G37*
D25*
X101441083Y-106890127D03*
D26*
X101326825Y-97727909D03*
D27*
X103320713Y-102002767D03*
D26*
X100587743Y-98372644D03*
D28*
X99848660Y-99017378D02*
X101326826Y-97727910D01*
D26*
X106460876Y-97270181D03*
X106405683Y-97555582D03*
D28*
X106350490Y-97840983D02*
X106460876Y-97270181D01*
D23*
X89454842Y-100300252D03*
X79370574Y-99062060D03*
D25*
X85054145Y-104878065D03*
D15*
G36*
X83935829Y-105751789D02*
G01*
X84180421Y-103759749D01*
X86172461Y-104004341D01*
X85927869Y-105996381D01*
X83935829Y-105751789D01*
X83935829Y-105751789D01*
G37*
D25*
X82533078Y-104568516D03*
D26*
X82418820Y-95406298D03*
D27*
X84412708Y-99681156D03*
D26*
X81679738Y-96051033D03*
D28*
X80940655Y-96695767D02*
X82418821Y-95406299D01*
D26*
X87552871Y-94948570D03*
X87497678Y-95233971D03*
D28*
X87442485Y-95519372D02*
X87552871Y-94948570D01*
D23*
X70546838Y-97978641D03*
X60462570Y-96740449D03*
D25*
X66146141Y-102556454D03*
D15*
G36*
X65027825Y-103430178D02*
G01*
X65272417Y-101438138D01*
X67264457Y-101682730D01*
X67019865Y-103674770D01*
X65027825Y-103430178D01*
X65027825Y-103430178D01*
G37*
D25*
X63625074Y-102246905D03*
D26*
X63510816Y-93084687D03*
D27*
X65504704Y-97359545D03*
D26*
X62771734Y-93729422D03*
D28*
X62032651Y-94374156D02*
X63510817Y-93084688D01*
D26*
X68644867Y-92626959D03*
X68589674Y-92912360D03*
D28*
X68534481Y-93197761D02*
X68644867Y-92626959D01*
D23*
X51638834Y-95657030D03*
X41554566Y-94418838D03*
D25*
X47238137Y-100234843D03*
D15*
G36*
X46119821Y-101108567D02*
G01*
X46364413Y-99116527D01*
X48356453Y-99361119D01*
X48111861Y-101353159D01*
X46119821Y-101108567D01*
X46119821Y-101108567D01*
G37*
D25*
X44717070Y-99925294D03*
D26*
X44602812Y-90763076D03*
D27*
X46596700Y-95037934D03*
D26*
X43863730Y-91407811D03*
D28*
X43124647Y-92052545D02*
X44602813Y-90763077D01*
D26*
X49736863Y-90305348D03*
X49681670Y-90590749D03*
D28*
X49626477Y-90876150D02*
X49736863Y-90305348D01*
D23*
X32730830Y-93335419D03*
X22646562Y-92097227D03*
D25*
X28330133Y-97913232D03*
D15*
G36*
X27211817Y-98786956D02*
G01*
X27456409Y-96794916D01*
X29448449Y-97039508D01*
X29203857Y-99031548D01*
X27211817Y-98786956D01*
X27211817Y-98786956D01*
G37*
D25*
X25809066Y-97603683D03*
D26*
X25694808Y-88441465D03*
D27*
X27688696Y-92716323D03*
D26*
X24955726Y-89086200D03*
D28*
X24216643Y-89730934D02*
X25694809Y-88441466D01*
D26*
X30828859Y-87983737D03*
X30773666Y-88269138D03*
D28*
X30718473Y-88554539D02*
X30828859Y-87983737D01*
D23*
X13822826Y-91013808D03*
X3738558Y-89775616D03*
D25*
X9422129Y-95591621D03*
D15*
G36*
X8303813Y-96465345D02*
G01*
X8548405Y-94473305D01*
X10540445Y-94717897D01*
X10295853Y-96709937D01*
X8303813Y-96465345D01*
X8303813Y-96465345D01*
G37*
D25*
X6901062Y-95282072D03*
D26*
X6786804Y-86119854D03*
D27*
X8780692Y-90394712D03*
D26*
X6047722Y-86764589D03*
D28*
X5308639Y-87409323D02*
X6786805Y-86119855D01*
D26*
X11920855Y-85662126D03*
X11865662Y-85947527D03*
D28*
X11810469Y-86232928D02*
X11920855Y-85662126D01*
D23*
X308902200Y-70873398D03*
X298817932Y-72111590D03*
D25*
X305739696Y-76379854D03*
D15*
G36*
X304865972Y-77498170D02*
G01*
X304621380Y-75506130D01*
X306613420Y-75261538D01*
X306858012Y-77253578D01*
X304865972Y-77498170D01*
X304865972Y-77498170D01*
G37*
D25*
X303218629Y-76689403D03*
D26*
X300891223Y-67826983D03*
D27*
X303860066Y-71492494D03*
D26*
X300330071Y-68631366D03*
D28*
X299768917Y-69435749D02*
X300891225Y-67826983D01*
D26*
X305762037Y-66140811D03*
X305777528Y-66431087D03*
D28*
X305793019Y-66721363D02*
X305762037Y-66140811D01*
D23*
X289994196Y-73195009D03*
X279909928Y-74433201D03*
D25*
X286831692Y-78701465D03*
D15*
G36*
X285957968Y-79819781D02*
G01*
X285713376Y-77827741D01*
X287705416Y-77583149D01*
X287950008Y-79575189D01*
X285957968Y-79819781D01*
X285957968Y-79819781D01*
G37*
D25*
X284310625Y-79011014D03*
D26*
X281983219Y-70148594D03*
D27*
X284952062Y-73814105D03*
D26*
X281422067Y-70952977D03*
D28*
X280860913Y-71757360D02*
X281983221Y-70148594D01*
D26*
X286854033Y-68462422D03*
X286869524Y-68752698D03*
D28*
X286885015Y-69042974D02*
X286854033Y-68462422D01*
D23*
X271086192Y-75516620D03*
X261001924Y-76754812D03*
D25*
X267923688Y-81023076D03*
D15*
G36*
X267049964Y-82141392D02*
G01*
X266805372Y-80149352D01*
X268797412Y-79904760D01*
X269042004Y-81896800D01*
X267049964Y-82141392D01*
X267049964Y-82141392D01*
G37*
D25*
X265402621Y-81332625D03*
D26*
X263075215Y-72470205D03*
D27*
X266044058Y-76135716D03*
D26*
X262514063Y-73274588D03*
D28*
X261952909Y-74078971D02*
X263075217Y-72470205D01*
D26*
X267946029Y-70784033D03*
X267961520Y-71074309D03*
D28*
X267977011Y-71364585D02*
X267946029Y-70784033D01*
D23*
X252178188Y-77838231D03*
X242093920Y-79076423D03*
D25*
X249015684Y-83344687D03*
D15*
G36*
X248141960Y-84463003D02*
G01*
X247897368Y-82470963D01*
X249889408Y-82226371D01*
X250134000Y-84218411D01*
X248141960Y-84463003D01*
X248141960Y-84463003D01*
G37*
D25*
X246494617Y-83654236D03*
D26*
X244167211Y-74791816D03*
D27*
X247136054Y-78457327D03*
D26*
X243606059Y-75596199D03*
D28*
X243044905Y-76400582D02*
X244167213Y-74791816D01*
D26*
X249038025Y-73105644D03*
X249053516Y-73395920D03*
D28*
X249069007Y-73686196D02*
X249038025Y-73105644D01*
D23*
X233270183Y-80159842D03*
X223185915Y-81398034D03*
D25*
X230107679Y-85666298D03*
D15*
G36*
X229233955Y-86784614D02*
G01*
X228989363Y-84792574D01*
X230981403Y-84547982D01*
X231225995Y-86540022D01*
X229233955Y-86784614D01*
X229233955Y-86784614D01*
G37*
D25*
X227586612Y-85975847D03*
D26*
X225259206Y-77113427D03*
D27*
X228228049Y-80778938D03*
D26*
X224698054Y-77917810D03*
D28*
X224136900Y-78722193D02*
X225259208Y-77113427D01*
D26*
X230130020Y-75427255D03*
X230145511Y-75717531D03*
D28*
X230161002Y-76007807D02*
X230130020Y-75427255D01*
D23*
X214362179Y-82481453D03*
X204277911Y-83719645D03*
D25*
X211199675Y-87987909D03*
D15*
G36*
X210325951Y-89106225D02*
G01*
X210081359Y-87114185D01*
X212073399Y-86869593D01*
X212317991Y-88861633D01*
X210325951Y-89106225D01*
X210325951Y-89106225D01*
G37*
D25*
X208678608Y-88297458D03*
D26*
X206351202Y-79435038D03*
D27*
X209320045Y-83100549D03*
D26*
X205790050Y-80239421D03*
D28*
X205228896Y-81043804D02*
X206351204Y-79435038D01*
D26*
X211222016Y-77748866D03*
X211237507Y-78039142D03*
D28*
X211252998Y-78329418D02*
X211222016Y-77748866D01*
D23*
X181610000Y-60960000D03*
X171450000Y-60960000D03*
D24*
X177800000Y-66040000D03*
D25*
X175260000Y-66040000D03*
D26*
X174030000Y-56960000D03*
D27*
X176530000Y-60960000D03*
D26*
X173375001Y-57690000D03*
D28*
X172720000Y-58420000D02*
X174030002Y-56960000D01*
D26*
X179070000Y-55880000D03*
X179050000Y-56170000D03*
D28*
X179030000Y-56460000D02*
X179070000Y-55880000D01*
D23*
X162560000Y-60960000D03*
X152400000Y-60960000D03*
D24*
X158750000Y-66040000D03*
D25*
X156210000Y-66040000D03*
D26*
X154980000Y-56960000D03*
D27*
X157480000Y-60960000D03*
D26*
X154325001Y-57690000D03*
D28*
X153670000Y-58420000D02*
X154980002Y-56960000D01*
D26*
X160020000Y-55880000D03*
X160000000Y-56170000D03*
D28*
X159980000Y-56460000D02*
X160020000Y-55880000D01*
D23*
X143510000Y-60960000D03*
X133350000Y-60960000D03*
D24*
X139700000Y-66040000D03*
D25*
X137160000Y-66040000D03*
D26*
X135930000Y-56960000D03*
D27*
X138430000Y-60960000D03*
D26*
X135275001Y-57690000D03*
D28*
X134620000Y-58420000D02*
X135930002Y-56960000D01*
D26*
X140970000Y-55880000D03*
X140950000Y-56170000D03*
D28*
X140930000Y-56460000D02*
X140970000Y-55880000D01*
D23*
X110684458Y-83713859D03*
X100600190Y-82475667D03*
D25*
X106283761Y-88291672D03*
D15*
G36*
X105165445Y-89165396D02*
G01*
X105410037Y-87173356D01*
X107402077Y-87417948D01*
X107157485Y-89409988D01*
X105165445Y-89165396D01*
X105165445Y-89165396D01*
G37*
D25*
X103762694Y-87982123D03*
D26*
X103648436Y-78819905D03*
D27*
X105642324Y-83094763D03*
D26*
X102909354Y-79464640D03*
D28*
X102170271Y-80109374D02*
X103648437Y-78819906D01*
D26*
X108782487Y-78362177D03*
X108727294Y-78647578D03*
D28*
X108672101Y-78932979D02*
X108782487Y-78362177D01*
D23*
X91776453Y-81392248D03*
X81692185Y-80154056D03*
D25*
X87375756Y-85970061D03*
D15*
G36*
X86257440Y-86843785D02*
G01*
X86502032Y-84851745D01*
X88494072Y-85096337D01*
X88249480Y-87088377D01*
X86257440Y-86843785D01*
X86257440Y-86843785D01*
G37*
D25*
X84854689Y-85660512D03*
D26*
X84740431Y-76498294D03*
D27*
X86734319Y-80773152D03*
D26*
X84001349Y-77143029D03*
D28*
X83262266Y-77787763D02*
X84740432Y-76498295D01*
D26*
X89874482Y-76040566D03*
X89819289Y-76325967D03*
D28*
X89764096Y-76611368D02*
X89874482Y-76040566D01*
D23*
X72868449Y-79070637D03*
X62784181Y-77832445D03*
D25*
X68467752Y-83648450D03*
D15*
G36*
X67349436Y-84522174D02*
G01*
X67594028Y-82530134D01*
X69586068Y-82774726D01*
X69341476Y-84766766D01*
X67349436Y-84522174D01*
X67349436Y-84522174D01*
G37*
D25*
X65946685Y-83338901D03*
D26*
X65832427Y-74176683D03*
D27*
X67826315Y-78451541D03*
D26*
X65093345Y-74821418D03*
D28*
X64354262Y-75466152D02*
X65832428Y-74176684D01*
D26*
X70966478Y-73718955D03*
X70911285Y-74004356D03*
D28*
X70856092Y-74289757D02*
X70966478Y-73718955D01*
D23*
X53960445Y-76749026D03*
X43876177Y-75510834D03*
D25*
X49559748Y-81326839D03*
D15*
G36*
X48441432Y-82200563D02*
G01*
X48686024Y-80208523D01*
X50678064Y-80453115D01*
X50433472Y-82445155D01*
X48441432Y-82200563D01*
X48441432Y-82200563D01*
G37*
D25*
X47038681Y-81017290D03*
D26*
X46924423Y-71855072D03*
D27*
X48918311Y-76129930D03*
D26*
X46185341Y-72499807D03*
D28*
X45446258Y-73144541D02*
X46924424Y-71855073D01*
D26*
X52058474Y-71397344D03*
X52003281Y-71682745D03*
D28*
X51948088Y-71968146D02*
X52058474Y-71397344D01*
D23*
X35052441Y-74427415D03*
X24968173Y-73189223D03*
D25*
X30651744Y-79005228D03*
D15*
G36*
X29533428Y-79878952D02*
G01*
X29778020Y-77886912D01*
X31770060Y-78131504D01*
X31525468Y-80123544D01*
X29533428Y-79878952D01*
X29533428Y-79878952D01*
G37*
D25*
X28130677Y-78695679D03*
D26*
X28016419Y-69533461D03*
D27*
X30010307Y-73808319D03*
D26*
X27277337Y-70178196D03*
D28*
X26538254Y-70822930D02*
X28016420Y-69533462D01*
D26*
X33150470Y-69075733D03*
X33095277Y-69361134D03*
D28*
X33040084Y-69646535D02*
X33150470Y-69075733D01*
D23*
X16144437Y-72105804D03*
X6060169Y-70867612D03*
D25*
X11743740Y-76683617D03*
D15*
G36*
X10625424Y-77557341D02*
G01*
X10870016Y-75565301D01*
X12862056Y-75809893D01*
X12617464Y-77801933D01*
X10625424Y-77557341D01*
X10625424Y-77557341D01*
G37*
D25*
X9222673Y-76374068D03*
D26*
X9108415Y-67211850D03*
D27*
X11102303Y-71486708D03*
D26*
X8369333Y-67856585D03*
D28*
X7630250Y-68501319D02*
X9108416Y-67211851D01*
D26*
X14242466Y-66754122D03*
X14187273Y-67039523D03*
D28*
X14132080Y-67324924D02*
X14242466Y-66754122D01*
D23*
X306580589Y-51965394D03*
X296496321Y-53203586D03*
D25*
X303418085Y-57471850D03*
D15*
G36*
X302544361Y-58590166D02*
G01*
X302299769Y-56598126D01*
X304291809Y-56353534D01*
X304536401Y-58345574D01*
X302544361Y-58590166D01*
X302544361Y-58590166D01*
G37*
D25*
X300897018Y-57781399D03*
D26*
X298569612Y-48918979D03*
D27*
X301538455Y-52584490D03*
D26*
X298008460Y-49723362D03*
D28*
X297447306Y-50527745D02*
X298569614Y-48918979D01*
D26*
X303440426Y-47232807D03*
X303455917Y-47523083D03*
D28*
X303471408Y-47813359D02*
X303440426Y-47232807D01*
D23*
X287672585Y-54287005D03*
X277588317Y-55525197D03*
D25*
X284510081Y-59793461D03*
D15*
G36*
X283636357Y-60911777D02*
G01*
X283391765Y-58919737D01*
X285383805Y-58675145D01*
X285628397Y-60667185D01*
X283636357Y-60911777D01*
X283636357Y-60911777D01*
G37*
D25*
X281989014Y-60103010D03*
D26*
X279661608Y-51240590D03*
D27*
X282630451Y-54906101D03*
D26*
X279100456Y-52044973D03*
D28*
X278539302Y-52849356D02*
X279661610Y-51240590D01*
D26*
X284532422Y-49554418D03*
X284547913Y-49844694D03*
D28*
X284563404Y-50134970D02*
X284532422Y-49554418D01*
D23*
X268764581Y-56608616D03*
X258680313Y-57846808D03*
D25*
X265602077Y-62115072D03*
D15*
G36*
X264728353Y-63233388D02*
G01*
X264483761Y-61241348D01*
X266475801Y-60996756D01*
X266720393Y-62988796D01*
X264728353Y-63233388D01*
X264728353Y-63233388D01*
G37*
D25*
X263081010Y-62424621D03*
D26*
X260753604Y-53562201D03*
D27*
X263722447Y-57227712D03*
D26*
X260192452Y-54366584D03*
D28*
X259631298Y-55170967D02*
X260753606Y-53562201D01*
D26*
X265624418Y-51876029D03*
X265639909Y-52166305D03*
D28*
X265655400Y-52456581D02*
X265624418Y-51876029D01*
D23*
X249856577Y-58930227D03*
X239772309Y-60168419D03*
D25*
X246694073Y-64436683D03*
D15*
G36*
X245820349Y-65554999D02*
G01*
X245575757Y-63562959D01*
X247567797Y-63318367D01*
X247812389Y-65310407D01*
X245820349Y-65554999D01*
X245820349Y-65554999D01*
G37*
D25*
X244173006Y-64746232D03*
D26*
X241845600Y-55883812D03*
D27*
X244814443Y-59549323D03*
D26*
X241284448Y-56688195D03*
D28*
X240723294Y-57492578D02*
X241845602Y-55883812D01*
D26*
X246716414Y-54197640D03*
X246731905Y-54487916D03*
D28*
X246747396Y-54778192D02*
X246716414Y-54197640D01*
D23*
X230948572Y-61251838D03*
X220864304Y-62490030D03*
D25*
X227786068Y-66758294D03*
D15*
G36*
X226912344Y-67876610D02*
G01*
X226667752Y-65884570D01*
X228659792Y-65639978D01*
X228904384Y-67632018D01*
X226912344Y-67876610D01*
X226912344Y-67876610D01*
G37*
D25*
X225265001Y-67067843D03*
D26*
X222937595Y-58205423D03*
D27*
X225906438Y-61870934D03*
D26*
X222376443Y-59009806D03*
D28*
X221815289Y-59814189D02*
X222937597Y-58205423D01*
D26*
X227808409Y-56519251D03*
X227823900Y-56809527D03*
D28*
X227839391Y-57099803D02*
X227808409Y-56519251D01*
D23*
X212040568Y-63573449D03*
X201956300Y-64811641D03*
D25*
X208878064Y-69079905D03*
D15*
G36*
X208004340Y-70198221D02*
G01*
X207759748Y-68206181D01*
X209751788Y-67961589D01*
X209996380Y-69953629D01*
X208004340Y-70198221D01*
X208004340Y-70198221D01*
G37*
D25*
X206356997Y-69389454D03*
D26*
X204029591Y-60527034D03*
D27*
X206998434Y-64192545D03*
D26*
X203468439Y-61331417D03*
D28*
X202907285Y-62135800D02*
X204029593Y-60527034D01*
D26*
X208900405Y-58840862D03*
X208915896Y-59131138D03*
D28*
X208931387Y-59421414D02*
X208900405Y-58840862D01*
D23*
X181610000Y-41910000D03*
X171450000Y-41910000D03*
D24*
X177800000Y-46990000D03*
D25*
X175260000Y-46990000D03*
D26*
X174030000Y-37910000D03*
D27*
X176530000Y-41910000D03*
D26*
X173375001Y-38640000D03*
D28*
X172720000Y-39370000D02*
X174030002Y-37910000D01*
D26*
X179070000Y-36830000D03*
X179050000Y-37120000D03*
D28*
X179030000Y-37410000D02*
X179070000Y-36830000D01*
D23*
X162560000Y-41910000D03*
X152400000Y-41910000D03*
D24*
X158750000Y-46990000D03*
D25*
X156210000Y-46990000D03*
D26*
X154980000Y-37910000D03*
D27*
X157480000Y-41910000D03*
D26*
X154325001Y-38640000D03*
D28*
X153670000Y-39370000D02*
X154980002Y-37910000D01*
D26*
X160020000Y-36830000D03*
X160000000Y-37120000D03*
D28*
X159980000Y-37410000D02*
X160020000Y-36830000D01*
D23*
X143510000Y-41910000D03*
X133350000Y-41910000D03*
D24*
X139700000Y-46990000D03*
D25*
X137160000Y-46990000D03*
D26*
X135930000Y-37910000D03*
D27*
X138430000Y-41910000D03*
D26*
X135275001Y-38640000D03*
D28*
X134620000Y-39370000D02*
X135930002Y-37910000D01*
D26*
X140970000Y-36830000D03*
X140950000Y-37120000D03*
D28*
X140930000Y-37410000D02*
X140970000Y-36830000D01*
D23*
X113006069Y-64805855D03*
X102921801Y-63567663D03*
D25*
X108605372Y-69383668D03*
D15*
G36*
X107487056Y-70257392D02*
G01*
X107731648Y-68265352D01*
X109723688Y-68509944D01*
X109479096Y-70501984D01*
X107487056Y-70257392D01*
X107487056Y-70257392D01*
G37*
D25*
X106084305Y-69074119D03*
D26*
X105970047Y-59911901D03*
D27*
X107963935Y-64186759D03*
D26*
X105230965Y-60556636D03*
D28*
X104491882Y-61201370D02*
X105970048Y-59911902D01*
D26*
X111104098Y-59454173D03*
X111048905Y-59739574D03*
D28*
X110993712Y-60024975D02*
X111104098Y-59454173D01*
D23*
X94098064Y-62484244D03*
X84013796Y-61246052D03*
D25*
X89697367Y-67062057D03*
D15*
G36*
X88579051Y-67935781D02*
G01*
X88823643Y-65943741D01*
X90815683Y-66188333D01*
X90571091Y-68180373D01*
X88579051Y-67935781D01*
X88579051Y-67935781D01*
G37*
D25*
X87176300Y-66752508D03*
D26*
X87062042Y-57590290D03*
D27*
X89055930Y-61865148D03*
D26*
X86322960Y-58235025D03*
D28*
X85583877Y-58879759D02*
X87062043Y-57590291D01*
D26*
X92196093Y-57132562D03*
X92140900Y-57417963D03*
D28*
X92085707Y-57703364D02*
X92196093Y-57132562D01*
D23*
X75190060Y-60162633D03*
X65105792Y-58924441D03*
D25*
X70789363Y-64740446D03*
D15*
G36*
X69671047Y-65614170D02*
G01*
X69915639Y-63622130D01*
X71907679Y-63866722D01*
X71663087Y-65858762D01*
X69671047Y-65614170D01*
X69671047Y-65614170D01*
G37*
D25*
X68268296Y-64430897D03*
D26*
X68154038Y-55268679D03*
D27*
X70147926Y-59543537D03*
D26*
X67414956Y-55913414D03*
D28*
X66675873Y-56558148D02*
X68154039Y-55268680D01*
D26*
X73288089Y-54810951D03*
X73232896Y-55096352D03*
D28*
X73177703Y-55381753D02*
X73288089Y-54810951D01*
D23*
X56282056Y-57841022D03*
X46197788Y-56602830D03*
D25*
X51881359Y-62418835D03*
D15*
G36*
X50763043Y-63292559D02*
G01*
X51007635Y-61300519D01*
X52999675Y-61545111D01*
X52755083Y-63537151D01*
X50763043Y-63292559D01*
X50763043Y-63292559D01*
G37*
D25*
X49360292Y-62109286D03*
D26*
X49246034Y-52947068D03*
D27*
X51239922Y-57221926D03*
D26*
X48506952Y-53591803D03*
D28*
X47767869Y-54236537D02*
X49246035Y-52947069D01*
D26*
X54380085Y-52489340D03*
X54324892Y-52774741D03*
D28*
X54269699Y-53060142D02*
X54380085Y-52489340D01*
D23*
X37374052Y-55519411D03*
X27289784Y-54281219D03*
D25*
X32973355Y-60097224D03*
D15*
G36*
X31855039Y-60970948D02*
G01*
X32099631Y-58978908D01*
X34091671Y-59223500D01*
X33847079Y-61215540D01*
X31855039Y-60970948D01*
X31855039Y-60970948D01*
G37*
D25*
X30452288Y-59787675D03*
D26*
X30338030Y-50625457D03*
D27*
X32331918Y-54900315D03*
D26*
X29598948Y-51270192D03*
D28*
X28859865Y-51914926D02*
X30338031Y-50625458D01*
D26*
X35472081Y-50167729D03*
X35416888Y-50453130D03*
D28*
X35361695Y-50738531D02*
X35472081Y-50167729D01*
D23*
X18466048Y-53197800D03*
X8381780Y-51959608D03*
D25*
X14065351Y-57775613D03*
D15*
G36*
X12947035Y-58649337D02*
G01*
X13191627Y-56657297D01*
X15183667Y-56901889D01*
X14939075Y-58893929D01*
X12947035Y-58649337D01*
X12947035Y-58649337D01*
G37*
D25*
X11544284Y-57466064D03*
D26*
X11430026Y-48303846D03*
D27*
X13423914Y-52578704D03*
D26*
X10690944Y-48948581D03*
D28*
X9951861Y-49593315D02*
X11430027Y-48303847D01*
D26*
X16564077Y-47846118D03*
X16508884Y-48131519D03*
D28*
X16453691Y-48416920D02*
X16564077Y-47846118D01*
D15*
G36*
X58087104Y-155285302D02*
G01*
X58113352Y-155289196D01*
X58139093Y-155295643D01*
X58164078Y-155304583D01*
X58188066Y-155315928D01*
X58210826Y-155329571D01*
X58232140Y-155345378D01*
X58251802Y-155363198D01*
X58269622Y-155382860D01*
X58285429Y-155404174D01*
X58299072Y-155426934D01*
X58310417Y-155450922D01*
X58319357Y-155475907D01*
X58325804Y-155501648D01*
X58329698Y-155527896D01*
X58331000Y-155554400D01*
X58331000Y-156865600D01*
X58329698Y-156892104D01*
X58325804Y-156918352D01*
X58319357Y-156944093D01*
X58310417Y-156969078D01*
X58299072Y-156993066D01*
X58285429Y-157015826D01*
X58269622Y-157037140D01*
X58251802Y-157056802D01*
X58232140Y-157074622D01*
X58210826Y-157090429D01*
X58188066Y-157104072D01*
X58164078Y-157115417D01*
X58139093Y-157124357D01*
X58113352Y-157130804D01*
X58087104Y-157134698D01*
X58060600Y-157136000D01*
X57249400Y-157136000D01*
X57222896Y-157134698D01*
X57196648Y-157130804D01*
X57170907Y-157124357D01*
X57145922Y-157115417D01*
X57121934Y-157104072D01*
X57099174Y-157090429D01*
X57077860Y-157074622D01*
X57058198Y-157056802D01*
X57040378Y-157037140D01*
X57024571Y-157015826D01*
X57010928Y-156993066D01*
X56999583Y-156969078D01*
X56990643Y-156944093D01*
X56984196Y-156918352D01*
X56980302Y-156892104D01*
X56979000Y-156865600D01*
X56979000Y-155554400D01*
X56980302Y-155527896D01*
X56984196Y-155501648D01*
X56990643Y-155475907D01*
X56999583Y-155450922D01*
X57010928Y-155426934D01*
X57024571Y-155404174D01*
X57040378Y-155382860D01*
X57058198Y-155363198D01*
X57077860Y-155345378D01*
X57099174Y-155329571D01*
X57121934Y-155315928D01*
X57145922Y-155304583D01*
X57170907Y-155295643D01*
X57196648Y-155289196D01*
X57222896Y-155285302D01*
X57249400Y-155284000D01*
X58060600Y-155284000D01*
X58087104Y-155285302D01*
X58087104Y-155285302D01*
G37*
D29*
X57655000Y-156210000D03*
D15*
G36*
X60887104Y-155285302D02*
G01*
X60913352Y-155289196D01*
X60939093Y-155295643D01*
X60964078Y-155304583D01*
X60988066Y-155315928D01*
X61010826Y-155329571D01*
X61032140Y-155345378D01*
X61051802Y-155363198D01*
X61069622Y-155382860D01*
X61085429Y-155404174D01*
X61099072Y-155426934D01*
X61110417Y-155450922D01*
X61119357Y-155475907D01*
X61125804Y-155501648D01*
X61129698Y-155527896D01*
X61131000Y-155554400D01*
X61131000Y-156865600D01*
X61129698Y-156892104D01*
X61125804Y-156918352D01*
X61119357Y-156944093D01*
X61110417Y-156969078D01*
X61099072Y-156993066D01*
X61085429Y-157015826D01*
X61069622Y-157037140D01*
X61051802Y-157056802D01*
X61032140Y-157074622D01*
X61010826Y-157090429D01*
X60988066Y-157104072D01*
X60964078Y-157115417D01*
X60939093Y-157124357D01*
X60913352Y-157130804D01*
X60887104Y-157134698D01*
X60860600Y-157136000D01*
X60049400Y-157136000D01*
X60022896Y-157134698D01*
X59996648Y-157130804D01*
X59970907Y-157124357D01*
X59945922Y-157115417D01*
X59921934Y-157104072D01*
X59899174Y-157090429D01*
X59877860Y-157074622D01*
X59858198Y-157056802D01*
X59840378Y-157037140D01*
X59824571Y-157015826D01*
X59810928Y-156993066D01*
X59799583Y-156969078D01*
X59790643Y-156944093D01*
X59784196Y-156918352D01*
X59780302Y-156892104D01*
X59779000Y-156865600D01*
X59779000Y-155554400D01*
X59780302Y-155527896D01*
X59784196Y-155501648D01*
X59790643Y-155475907D01*
X59799583Y-155450922D01*
X59810928Y-155426934D01*
X59824571Y-155404174D01*
X59840378Y-155382860D01*
X59858198Y-155363198D01*
X59877860Y-155345378D01*
X59899174Y-155329571D01*
X59921934Y-155315928D01*
X59945922Y-155304583D01*
X59970907Y-155295643D01*
X59996648Y-155289196D01*
X60022896Y-155285302D01*
X60049400Y-155284000D01*
X60860600Y-155284000D01*
X60887104Y-155285302D01*
X60887104Y-155285302D01*
G37*
D29*
X60455000Y-156210000D03*
D30*
X184150800Y-145800940D03*
X184150800Y-149100940D03*
X165100800Y-145800940D03*
X165100800Y-149100940D03*
X146050800Y-145800940D03*
X146050800Y-149100940D03*
X165100800Y-126750940D03*
X165100800Y-130050940D03*
D31*
X315865406Y-106742157D03*
D15*
G36*
X316572610Y-107160086D02*
G01*
X315280315Y-107318760D01*
X315158202Y-106324228D01*
X316450497Y-106165554D01*
X316572610Y-107160086D01*
X316572610Y-107160086D01*
G37*
D31*
X316267574Y-110017559D03*
D15*
G36*
X316974778Y-110435488D02*
G01*
X315682483Y-110594162D01*
X315560370Y-109599630D01*
X316852665Y-109440956D01*
X316974778Y-110435488D01*
X316974778Y-110435488D01*
G37*
D31*
X296957402Y-109063768D03*
D15*
G36*
X297664606Y-109481697D02*
G01*
X296372311Y-109640371D01*
X296250198Y-108645839D01*
X297542493Y-108487165D01*
X297664606Y-109481697D01*
X297664606Y-109481697D01*
G37*
D31*
X297359570Y-112339170D03*
D15*
G36*
X298066774Y-112757099D02*
G01*
X296774479Y-112915773D01*
X296652366Y-111921241D01*
X297944661Y-111762567D01*
X298066774Y-112757099D01*
X298066774Y-112757099D01*
G37*
D31*
X278049397Y-111385379D03*
D15*
G36*
X278756601Y-111803308D02*
G01*
X277464306Y-111961982D01*
X277342193Y-110967450D01*
X278634488Y-110808776D01*
X278756601Y-111803308D01*
X278756601Y-111803308D01*
G37*
D31*
X278451565Y-114660781D03*
D15*
G36*
X279158769Y-115078710D02*
G01*
X277866474Y-115237384D01*
X277744361Y-114242852D01*
X279036656Y-114084178D01*
X279158769Y-115078710D01*
X279158769Y-115078710D01*
G37*
D31*
X259141393Y-113706990D03*
D15*
G36*
X259848597Y-114124919D02*
G01*
X258556302Y-114283593D01*
X258434189Y-113289061D01*
X259726484Y-113130387D01*
X259848597Y-114124919D01*
X259848597Y-114124919D01*
G37*
D31*
X259543561Y-116982392D03*
D15*
G36*
X260250765Y-117400321D02*
G01*
X258958470Y-117558995D01*
X258836357Y-116564463D01*
X260128652Y-116405789D01*
X260250765Y-117400321D01*
X260250765Y-117400321D01*
G37*
D31*
X240233389Y-116028601D03*
D15*
G36*
X240940593Y-116446530D02*
G01*
X239648298Y-116605204D01*
X239526185Y-115610672D01*
X240818480Y-115451998D01*
X240940593Y-116446530D01*
X240940593Y-116446530D01*
G37*
D31*
X240635557Y-119304003D03*
D15*
G36*
X241342761Y-119721932D02*
G01*
X240050466Y-119880606D01*
X239928353Y-118886074D01*
X241220648Y-118727400D01*
X241342761Y-119721932D01*
X241342761Y-119721932D01*
G37*
D31*
X221325385Y-118350212D03*
D15*
G36*
X222032589Y-118768141D02*
G01*
X220740294Y-118926815D01*
X220618181Y-117932283D01*
X221910476Y-117773609D01*
X222032589Y-118768141D01*
X222032589Y-118768141D01*
G37*
D31*
X221727553Y-121625614D03*
D15*
G36*
X222434757Y-122043543D02*
G01*
X221142462Y-122202217D01*
X221020349Y-121207685D01*
X222312644Y-121049011D01*
X222434757Y-122043543D01*
X222434757Y-122043543D01*
G37*
D30*
X184150000Y-97410000D03*
X184150000Y-100710000D03*
X165100000Y-97410000D03*
X165100000Y-100710000D03*
X146050000Y-97410000D03*
X146050000Y-100710000D03*
D31*
X108763387Y-120201715D03*
D15*
G36*
X109348478Y-120778318D02*
G01*
X108056183Y-120619644D01*
X108178296Y-119625112D01*
X109470591Y-119783786D01*
X109348478Y-120778318D01*
X109348478Y-120778318D01*
G37*
D31*
X108361219Y-123477117D03*
D15*
G36*
X108946310Y-124053720D02*
G01*
X107654015Y-123895046D01*
X107776128Y-122900514D01*
X109068423Y-123059188D01*
X108946310Y-124053720D01*
X108946310Y-124053720D01*
G37*
D31*
X89855383Y-117880104D03*
D15*
G36*
X90440474Y-118456707D02*
G01*
X89148179Y-118298033D01*
X89270292Y-117303501D01*
X90562587Y-117462175D01*
X90440474Y-118456707D01*
X90440474Y-118456707D01*
G37*
D31*
X89453215Y-121155506D03*
D15*
G36*
X90038306Y-121732109D02*
G01*
X88746011Y-121573435D01*
X88868124Y-120578903D01*
X90160419Y-120737577D01*
X90038306Y-121732109D01*
X90038306Y-121732109D01*
G37*
D31*
X70947379Y-115558493D03*
D15*
G36*
X71532470Y-116135096D02*
G01*
X70240175Y-115976422D01*
X70362288Y-114981890D01*
X71654583Y-115140564D01*
X71532470Y-116135096D01*
X71532470Y-116135096D01*
G37*
D31*
X70545211Y-118833895D03*
D15*
G36*
X71130302Y-119410498D02*
G01*
X69838007Y-119251824D01*
X69960120Y-118257292D01*
X71252415Y-118415966D01*
X71130302Y-119410498D01*
X71130302Y-119410498D01*
G37*
D31*
X52039375Y-113236882D03*
D15*
G36*
X52624466Y-113813485D02*
G01*
X51332171Y-113654811D01*
X51454284Y-112660279D01*
X52746579Y-112818953D01*
X52624466Y-113813485D01*
X52624466Y-113813485D01*
G37*
D31*
X51637207Y-116512284D03*
D15*
G36*
X52222298Y-117088887D02*
G01*
X50930003Y-116930213D01*
X51052116Y-115935681D01*
X52344411Y-116094355D01*
X52222298Y-117088887D01*
X52222298Y-117088887D01*
G37*
D31*
X33131371Y-110915271D03*
D15*
G36*
X33716462Y-111491874D02*
G01*
X32424167Y-111333200D01*
X32546280Y-110338668D01*
X33838575Y-110497342D01*
X33716462Y-111491874D01*
X33716462Y-111491874D01*
G37*
D31*
X32729203Y-114190673D03*
D15*
G36*
X33314294Y-114767276D02*
G01*
X32021999Y-114608602D01*
X32144112Y-113614070D01*
X33436407Y-113772744D01*
X33314294Y-114767276D01*
X33314294Y-114767276D01*
G37*
D31*
X14223366Y-108593660D03*
D15*
G36*
X14808457Y-109170263D02*
G01*
X13516162Y-109011589D01*
X13638275Y-108017057D01*
X14930570Y-108175731D01*
X14808457Y-109170263D01*
X14808457Y-109170263D01*
G37*
D31*
X13821198Y-111869062D03*
D15*
G36*
X14406289Y-112445665D02*
G01*
X13113994Y-112286991D01*
X13236107Y-111292459D01*
X14528402Y-111451133D01*
X14406289Y-112445665D01*
X14406289Y-112445665D01*
G37*
D31*
X313543795Y-87834153D03*
D15*
G36*
X314250999Y-88252082D02*
G01*
X312958704Y-88410756D01*
X312836591Y-87416224D01*
X314128886Y-87257550D01*
X314250999Y-88252082D01*
X314250999Y-88252082D01*
G37*
D31*
X313945963Y-91109555D03*
D15*
G36*
X314653167Y-91527484D02*
G01*
X313360872Y-91686158D01*
X313238759Y-90691626D01*
X314531054Y-90532952D01*
X314653167Y-91527484D01*
X314653167Y-91527484D01*
G37*
D31*
X294635791Y-90155764D03*
D15*
G36*
X295342995Y-90573693D02*
G01*
X294050700Y-90732367D01*
X293928587Y-89737835D01*
X295220882Y-89579161D01*
X295342995Y-90573693D01*
X295342995Y-90573693D01*
G37*
D31*
X295037959Y-93431166D03*
D15*
G36*
X295745163Y-93849095D02*
G01*
X294452868Y-94007769D01*
X294330755Y-93013237D01*
X295623050Y-92854563D01*
X295745163Y-93849095D01*
X295745163Y-93849095D01*
G37*
D31*
X275727786Y-92477375D03*
D15*
G36*
X276434990Y-92895304D02*
G01*
X275142695Y-93053978D01*
X275020582Y-92059446D01*
X276312877Y-91900772D01*
X276434990Y-92895304D01*
X276434990Y-92895304D01*
G37*
D31*
X276129954Y-95752777D03*
D15*
G36*
X276837158Y-96170706D02*
G01*
X275544863Y-96329380D01*
X275422750Y-95334848D01*
X276715045Y-95176174D01*
X276837158Y-96170706D01*
X276837158Y-96170706D01*
G37*
D31*
X256819782Y-94798986D03*
D15*
G36*
X257526986Y-95216915D02*
G01*
X256234691Y-95375589D01*
X256112578Y-94381057D01*
X257404873Y-94222383D01*
X257526986Y-95216915D01*
X257526986Y-95216915D01*
G37*
D31*
X257221950Y-98074388D03*
D15*
G36*
X257929154Y-98492317D02*
G01*
X256636859Y-98650991D01*
X256514746Y-97656459D01*
X257807041Y-97497785D01*
X257929154Y-98492317D01*
X257929154Y-98492317D01*
G37*
D31*
X237911778Y-97120597D03*
D15*
G36*
X238618982Y-97538526D02*
G01*
X237326687Y-97697200D01*
X237204574Y-96702668D01*
X238496869Y-96543994D01*
X238618982Y-97538526D01*
X238618982Y-97538526D01*
G37*
D31*
X238313946Y-100395999D03*
D15*
G36*
X239021150Y-100813928D02*
G01*
X237728855Y-100972602D01*
X237606742Y-99978070D01*
X238899037Y-99819396D01*
X239021150Y-100813928D01*
X239021150Y-100813928D01*
G37*
D31*
X219003774Y-99442208D03*
D15*
G36*
X219710978Y-99860137D02*
G01*
X218418683Y-100018811D01*
X218296570Y-99024279D01*
X219588865Y-98865605D01*
X219710978Y-99860137D01*
X219710978Y-99860137D01*
G37*
D31*
X219405942Y-102717610D03*
D15*
G36*
X220113146Y-103135539D02*
G01*
X218820851Y-103294213D01*
X218698738Y-102299681D01*
X219991033Y-102141007D01*
X220113146Y-103135539D01*
X220113146Y-103135539D01*
G37*
D30*
X184150000Y-78360000D03*
X184150000Y-81660000D03*
X165100000Y-78360000D03*
X165100000Y-81660000D03*
X146050000Y-78360000D03*
X146050000Y-81660000D03*
D31*
X111084998Y-101293710D03*
D15*
G36*
X111670089Y-101870313D02*
G01*
X110377794Y-101711639D01*
X110499907Y-100717107D01*
X111792202Y-100875781D01*
X111670089Y-101870313D01*
X111670089Y-101870313D01*
G37*
D31*
X110682830Y-104569112D03*
D15*
G36*
X111267921Y-105145715D02*
G01*
X109975626Y-104987041D01*
X110097739Y-103992509D01*
X111390034Y-104151183D01*
X111267921Y-105145715D01*
X111267921Y-105145715D01*
G37*
D31*
X92176994Y-98972099D03*
D15*
G36*
X92762085Y-99548702D02*
G01*
X91469790Y-99390028D01*
X91591903Y-98395496D01*
X92884198Y-98554170D01*
X92762085Y-99548702D01*
X92762085Y-99548702D01*
G37*
D31*
X91774826Y-102247501D03*
D15*
G36*
X92359917Y-102824104D02*
G01*
X91067622Y-102665430D01*
X91189735Y-101670898D01*
X92482030Y-101829572D01*
X92359917Y-102824104D01*
X92359917Y-102824104D01*
G37*
D31*
X73268990Y-96650488D03*
D15*
G36*
X73854081Y-97227091D02*
G01*
X72561786Y-97068417D01*
X72683899Y-96073885D01*
X73976194Y-96232559D01*
X73854081Y-97227091D01*
X73854081Y-97227091D01*
G37*
D31*
X72866822Y-99925890D03*
D15*
G36*
X73451913Y-100502493D02*
G01*
X72159618Y-100343819D01*
X72281731Y-99349287D01*
X73574026Y-99507961D01*
X73451913Y-100502493D01*
X73451913Y-100502493D01*
G37*
D31*
X54360986Y-94328877D03*
D15*
G36*
X54946077Y-94905480D02*
G01*
X53653782Y-94746806D01*
X53775895Y-93752274D01*
X55068190Y-93910948D01*
X54946077Y-94905480D01*
X54946077Y-94905480D01*
G37*
D31*
X53958818Y-97604279D03*
D15*
G36*
X54543909Y-98180882D02*
G01*
X53251614Y-98022208D01*
X53373727Y-97027676D01*
X54666022Y-97186350D01*
X54543909Y-98180882D01*
X54543909Y-98180882D01*
G37*
D31*
X35452982Y-92007266D03*
D15*
G36*
X36038073Y-92583869D02*
G01*
X34745778Y-92425195D01*
X34867891Y-91430663D01*
X36160186Y-91589337D01*
X36038073Y-92583869D01*
X36038073Y-92583869D01*
G37*
D31*
X35050814Y-95282668D03*
D15*
G36*
X35635905Y-95859271D02*
G01*
X34343610Y-95700597D01*
X34465723Y-94706065D01*
X35758018Y-94864739D01*
X35635905Y-95859271D01*
X35635905Y-95859271D01*
G37*
D31*
X16544977Y-89685655D03*
D15*
G36*
X17130068Y-90262258D02*
G01*
X15837773Y-90103584D01*
X15959886Y-89109052D01*
X17252181Y-89267726D01*
X17130068Y-90262258D01*
X17130068Y-90262258D01*
G37*
D31*
X16142809Y-92961057D03*
D15*
G36*
X16727900Y-93537660D02*
G01*
X15435605Y-93378986D01*
X15557718Y-92384454D01*
X16850013Y-92543128D01*
X16727900Y-93537660D01*
X16727900Y-93537660D01*
G37*
D31*
X311222184Y-68926148D03*
D15*
G36*
X311929388Y-69344077D02*
G01*
X310637093Y-69502751D01*
X310514980Y-68508219D01*
X311807275Y-68349545D01*
X311929388Y-69344077D01*
X311929388Y-69344077D01*
G37*
D31*
X311624352Y-72201550D03*
D15*
G36*
X312331556Y-72619479D02*
G01*
X311039261Y-72778153D01*
X310917148Y-71783621D01*
X312209443Y-71624947D01*
X312331556Y-72619479D01*
X312331556Y-72619479D01*
G37*
D31*
X292314180Y-71247759D03*
D15*
G36*
X293021384Y-71665688D02*
G01*
X291729089Y-71824362D01*
X291606976Y-70829830D01*
X292899271Y-70671156D01*
X293021384Y-71665688D01*
X293021384Y-71665688D01*
G37*
D31*
X292716348Y-74523161D03*
D15*
G36*
X293423552Y-74941090D02*
G01*
X292131257Y-75099764D01*
X292009144Y-74105232D01*
X293301439Y-73946558D01*
X293423552Y-74941090D01*
X293423552Y-74941090D01*
G37*
D31*
X273406175Y-73569370D03*
D15*
G36*
X274113379Y-73987299D02*
G01*
X272821084Y-74145973D01*
X272698971Y-73151441D01*
X273991266Y-72992767D01*
X274113379Y-73987299D01*
X274113379Y-73987299D01*
G37*
D31*
X273808343Y-76844772D03*
D15*
G36*
X274515547Y-77262701D02*
G01*
X273223252Y-77421375D01*
X273101139Y-76426843D01*
X274393434Y-76268169D01*
X274515547Y-77262701D01*
X274515547Y-77262701D01*
G37*
D31*
X254498171Y-75890981D03*
D15*
G36*
X255205375Y-76308910D02*
G01*
X253913080Y-76467584D01*
X253790967Y-75473052D01*
X255083262Y-75314378D01*
X255205375Y-76308910D01*
X255205375Y-76308910D01*
G37*
D31*
X254900339Y-79166383D03*
D15*
G36*
X255607543Y-79584312D02*
G01*
X254315248Y-79742986D01*
X254193135Y-78748454D01*
X255485430Y-78589780D01*
X255607543Y-79584312D01*
X255607543Y-79584312D01*
G37*
D31*
X235590167Y-78212592D03*
D15*
G36*
X236297371Y-78630521D02*
G01*
X235005076Y-78789195D01*
X234882963Y-77794663D01*
X236175258Y-77635989D01*
X236297371Y-78630521D01*
X236297371Y-78630521D01*
G37*
D31*
X235992335Y-81487994D03*
D15*
G36*
X236699539Y-81905923D02*
G01*
X235407244Y-82064597D01*
X235285131Y-81070065D01*
X236577426Y-80911391D01*
X236699539Y-81905923D01*
X236699539Y-81905923D01*
G37*
D31*
X216682163Y-80534203D03*
D15*
G36*
X217389367Y-80952132D02*
G01*
X216097072Y-81110806D01*
X215974959Y-80116274D01*
X217267254Y-79957600D01*
X217389367Y-80952132D01*
X217389367Y-80952132D01*
G37*
D31*
X217084331Y-83809605D03*
D15*
G36*
X217791535Y-84227534D02*
G01*
X216499240Y-84386208D01*
X216377127Y-83391676D01*
X217669422Y-83233002D01*
X217791535Y-84227534D01*
X217791535Y-84227534D01*
G37*
D30*
X184150000Y-59310000D03*
X184150000Y-62610000D03*
X165100000Y-59310000D03*
X165100000Y-62610000D03*
X146208750Y-59151250D03*
X146208750Y-62451250D03*
D31*
X113583523Y-82247486D03*
D15*
G36*
X114168614Y-82824089D02*
G01*
X112876319Y-82665415D01*
X112998432Y-81670883D01*
X114290727Y-81829557D01*
X114168614Y-82824089D01*
X114168614Y-82824089D01*
G37*
D31*
X113181355Y-85522888D03*
D15*
G36*
X113766446Y-86099491D02*
G01*
X112474151Y-85940817D01*
X112596264Y-84946285D01*
X113888559Y-85104959D01*
X113766446Y-86099491D01*
X113766446Y-86099491D01*
G37*
D31*
X94675519Y-79925875D03*
D15*
G36*
X95260610Y-80502478D02*
G01*
X93968315Y-80343804D01*
X94090428Y-79349272D01*
X95382723Y-79507946D01*
X95260610Y-80502478D01*
X95260610Y-80502478D01*
G37*
D31*
X94273351Y-83201277D03*
D15*
G36*
X94858442Y-83777880D02*
G01*
X93566147Y-83619206D01*
X93688260Y-82624674D01*
X94980555Y-82783348D01*
X94858442Y-83777880D01*
X94858442Y-83777880D01*
G37*
D31*
X75767514Y-77604264D03*
D15*
G36*
X76352605Y-78180867D02*
G01*
X75060310Y-78022193D01*
X75182423Y-77027661D01*
X76474718Y-77186335D01*
X76352605Y-78180867D01*
X76352605Y-78180867D01*
G37*
D31*
X75365346Y-80879666D03*
D15*
G36*
X75950437Y-81456269D02*
G01*
X74658142Y-81297595D01*
X74780255Y-80303063D01*
X76072550Y-80461737D01*
X75950437Y-81456269D01*
X75950437Y-81456269D01*
G37*
D31*
X56859510Y-75282653D03*
D15*
G36*
X57444601Y-75859256D02*
G01*
X56152306Y-75700582D01*
X56274419Y-74706050D01*
X57566714Y-74864724D01*
X57444601Y-75859256D01*
X57444601Y-75859256D01*
G37*
D31*
X56457342Y-78558055D03*
D15*
G36*
X57042433Y-79134658D02*
G01*
X55750138Y-78975984D01*
X55872251Y-77981452D01*
X57164546Y-78140126D01*
X57042433Y-79134658D01*
X57042433Y-79134658D01*
G37*
D31*
X37951506Y-72961042D03*
D15*
G36*
X38536597Y-73537645D02*
G01*
X37244302Y-73378971D01*
X37366415Y-72384439D01*
X38658710Y-72543113D01*
X38536597Y-73537645D01*
X38536597Y-73537645D01*
G37*
D31*
X37549338Y-76236444D03*
D15*
G36*
X38134429Y-76813047D02*
G01*
X36842134Y-76654373D01*
X36964247Y-75659841D01*
X38256542Y-75818515D01*
X38134429Y-76813047D01*
X38134429Y-76813047D01*
G37*
D31*
X19043502Y-70639431D03*
D15*
G36*
X19628593Y-71216034D02*
G01*
X18336298Y-71057360D01*
X18458411Y-70062828D01*
X19750706Y-70221502D01*
X19628593Y-71216034D01*
X19628593Y-71216034D01*
G37*
D31*
X18641334Y-73914833D03*
D15*
G36*
X19226425Y-74491436D02*
G01*
X17934130Y-74332762D01*
X18056243Y-73338230D01*
X19348538Y-73496904D01*
X19226425Y-74491436D01*
X19226425Y-74491436D01*
G37*
D31*
X309196360Y-49821884D03*
D15*
G36*
X309903564Y-50239813D02*
G01*
X308611269Y-50398487D01*
X308489156Y-49403955D01*
X309781451Y-49245281D01*
X309903564Y-50239813D01*
X309903564Y-50239813D01*
G37*
D31*
X309598528Y-53097286D03*
D15*
G36*
X310305732Y-53515215D02*
G01*
X309013437Y-53673889D01*
X308891324Y-52679357D01*
X310183619Y-52520683D01*
X310305732Y-53515215D01*
X310305732Y-53515215D01*
G37*
D31*
X290288355Y-52143495D03*
D15*
G36*
X290995559Y-52561424D02*
G01*
X289703264Y-52720098D01*
X289581151Y-51725566D01*
X290873446Y-51566892D01*
X290995559Y-52561424D01*
X290995559Y-52561424D01*
G37*
D31*
X290690523Y-55418897D03*
D15*
G36*
X291397727Y-55836826D02*
G01*
X290105432Y-55995500D01*
X289983319Y-55000968D01*
X291275614Y-54842294D01*
X291397727Y-55836826D01*
X291397727Y-55836826D01*
G37*
D31*
X271380351Y-54465106D03*
D15*
G36*
X272087555Y-54883035D02*
G01*
X270795260Y-55041709D01*
X270673147Y-54047177D01*
X271965442Y-53888503D01*
X272087555Y-54883035D01*
X272087555Y-54883035D01*
G37*
D31*
X271782519Y-57740508D03*
D15*
G36*
X272489723Y-58158437D02*
G01*
X271197428Y-58317111D01*
X271075315Y-57322579D01*
X272367610Y-57163905D01*
X272489723Y-58158437D01*
X272489723Y-58158437D01*
G37*
D31*
X252472347Y-56786717D03*
D15*
G36*
X253179551Y-57204646D02*
G01*
X251887256Y-57363320D01*
X251765143Y-56368788D01*
X253057438Y-56210114D01*
X253179551Y-57204646D01*
X253179551Y-57204646D01*
G37*
D31*
X252874515Y-60062119D03*
D15*
G36*
X253581719Y-60480048D02*
G01*
X252289424Y-60638722D01*
X252167311Y-59644190D01*
X253459606Y-59485516D01*
X253581719Y-60480048D01*
X253581719Y-60480048D01*
G37*
D31*
X233564343Y-59108328D03*
D15*
G36*
X234271547Y-59526257D02*
G01*
X232979252Y-59684931D01*
X232857139Y-58690399D01*
X234149434Y-58531725D01*
X234271547Y-59526257D01*
X234271547Y-59526257D01*
G37*
D31*
X233966511Y-62383730D03*
D15*
G36*
X234673715Y-62801659D02*
G01*
X233381420Y-62960333D01*
X233259307Y-61965801D01*
X234551602Y-61807127D01*
X234673715Y-62801659D01*
X234673715Y-62801659D01*
G37*
D31*
X214656339Y-61429939D03*
D15*
G36*
X215363543Y-61847868D02*
G01*
X214071248Y-62006542D01*
X213949135Y-61012010D01*
X215241430Y-60853336D01*
X215363543Y-61847868D01*
X215363543Y-61847868D01*
G37*
D31*
X215058507Y-64705341D03*
D15*
G36*
X215765711Y-65123270D02*
G01*
X214473416Y-65281944D01*
X214351303Y-64287412D01*
X215643598Y-64128738D01*
X215765711Y-65123270D01*
X215765711Y-65123270D01*
G37*
D30*
X184467500Y-40101250D03*
X184467500Y-43401250D03*
X165417500Y-40101250D03*
X165417500Y-43401250D03*
X146208750Y-40101250D03*
X146208750Y-43401250D03*
D31*
X115905134Y-63339482D03*
D15*
G36*
X116490225Y-63916085D02*
G01*
X115197930Y-63757411D01*
X115320043Y-62762879D01*
X116612338Y-62921553D01*
X116490225Y-63916085D01*
X116490225Y-63916085D01*
G37*
D31*
X115502966Y-66614884D03*
D15*
G36*
X116088057Y-67191487D02*
G01*
X114795762Y-67032813D01*
X114917875Y-66038281D01*
X116210170Y-66196955D01*
X116088057Y-67191487D01*
X116088057Y-67191487D01*
G37*
D31*
X96997130Y-61017871D03*
D15*
G36*
X97582221Y-61594474D02*
G01*
X96289926Y-61435800D01*
X96412039Y-60441268D01*
X97704334Y-60599942D01*
X97582221Y-61594474D01*
X97582221Y-61594474D01*
G37*
D31*
X96594962Y-64293273D03*
D15*
G36*
X97180053Y-64869876D02*
G01*
X95887758Y-64711202D01*
X96009871Y-63716670D01*
X97302166Y-63875344D01*
X97180053Y-64869876D01*
X97180053Y-64869876D01*
G37*
D31*
X78089125Y-58696260D03*
D15*
G36*
X78674216Y-59272863D02*
G01*
X77381921Y-59114189D01*
X77504034Y-58119657D01*
X78796329Y-58278331D01*
X78674216Y-59272863D01*
X78674216Y-59272863D01*
G37*
D31*
X77686957Y-61971662D03*
D15*
G36*
X78272048Y-62548265D02*
G01*
X76979753Y-62389591D01*
X77101866Y-61395059D01*
X78394161Y-61553733D01*
X78272048Y-62548265D01*
X78272048Y-62548265D01*
G37*
D31*
X59181121Y-56374649D03*
D15*
G36*
X59766212Y-56951252D02*
G01*
X58473917Y-56792578D01*
X58596030Y-55798046D01*
X59888325Y-55956720D01*
X59766212Y-56951252D01*
X59766212Y-56951252D01*
G37*
D31*
X58778953Y-59650051D03*
D15*
G36*
X59364044Y-60226654D02*
G01*
X58071749Y-60067980D01*
X58193862Y-59073448D01*
X59486157Y-59232122D01*
X59364044Y-60226654D01*
X59364044Y-60226654D01*
G37*
D31*
X40273117Y-54053038D03*
D15*
G36*
X40858208Y-54629641D02*
G01*
X39565913Y-54470967D01*
X39688026Y-53476435D01*
X40980321Y-53635109D01*
X40858208Y-54629641D01*
X40858208Y-54629641D01*
G37*
D31*
X39870949Y-57328440D03*
D15*
G36*
X40456040Y-57905043D02*
G01*
X39163745Y-57746369D01*
X39285858Y-56751837D01*
X40578153Y-56910511D01*
X40456040Y-57905043D01*
X40456040Y-57905043D01*
G37*
D31*
X21365113Y-51731427D03*
D15*
G36*
X21950204Y-52308030D02*
G01*
X20657909Y-52149356D01*
X20780022Y-51154824D01*
X22072317Y-51313498D01*
X21950204Y-52308030D01*
X21950204Y-52308030D01*
G37*
D31*
X20962945Y-55006829D03*
D15*
G36*
X21548036Y-55583432D02*
G01*
X20255741Y-55424758D01*
X20377854Y-54430226D01*
X21670149Y-54588900D01*
X21548036Y-55583432D01*
X21548036Y-55583432D01*
G37*
G36*
X74168141Y-145845297D02*
G01*
X74194278Y-145849174D01*
X74219909Y-145855594D01*
X74244788Y-145864495D01*
X74268674Y-145875793D01*
X74291337Y-145889377D01*
X74312560Y-145905117D01*
X74332139Y-145922861D01*
X74349883Y-145942440D01*
X74365623Y-145963663D01*
X74379207Y-145986326D01*
X74390505Y-146010212D01*
X74399406Y-146035091D01*
X74405826Y-146060722D01*
X74409703Y-146086859D01*
X74411000Y-146113250D01*
X74411000Y-146651750D01*
X74409703Y-146678141D01*
X74405826Y-146704278D01*
X74399406Y-146729909D01*
X74390505Y-146754788D01*
X74379207Y-146778674D01*
X74365623Y-146801337D01*
X74349883Y-146822560D01*
X74332139Y-146842139D01*
X74312560Y-146859883D01*
X74291337Y-146875623D01*
X74268674Y-146889207D01*
X74244788Y-146900505D01*
X74219909Y-146909406D01*
X74194278Y-146915826D01*
X74168141Y-146919703D01*
X74141750Y-146921000D01*
X73178250Y-146921000D01*
X73151859Y-146919703D01*
X73125722Y-146915826D01*
X73100091Y-146909406D01*
X73075212Y-146900505D01*
X73051326Y-146889207D01*
X73028663Y-146875623D01*
X73007440Y-146859883D01*
X72987861Y-146842139D01*
X72970117Y-146822560D01*
X72954377Y-146801337D01*
X72940793Y-146778674D01*
X72929495Y-146754788D01*
X72920594Y-146729909D01*
X72914174Y-146704278D01*
X72910297Y-146678141D01*
X72909000Y-146651750D01*
X72909000Y-146113250D01*
X72910297Y-146086859D01*
X72914174Y-146060722D01*
X72920594Y-146035091D01*
X72929495Y-146010212D01*
X72940793Y-145986326D01*
X72954377Y-145963663D01*
X72970117Y-145942440D01*
X72987861Y-145922861D01*
X73007440Y-145905117D01*
X73028663Y-145889377D01*
X73051326Y-145875793D01*
X73075212Y-145864495D01*
X73100091Y-145855594D01*
X73125722Y-145849174D01*
X73151859Y-145845297D01*
X73178250Y-145844000D01*
X74141750Y-145844000D01*
X74168141Y-145845297D01*
X74168141Y-145845297D01*
G37*
D16*
X73660000Y-146382500D03*
D15*
G36*
X74168141Y-147720297D02*
G01*
X74194278Y-147724174D01*
X74219909Y-147730594D01*
X74244788Y-147739495D01*
X74268674Y-147750793D01*
X74291337Y-147764377D01*
X74312560Y-147780117D01*
X74332139Y-147797861D01*
X74349883Y-147817440D01*
X74365623Y-147838663D01*
X74379207Y-147861326D01*
X74390505Y-147885212D01*
X74399406Y-147910091D01*
X74405826Y-147935722D01*
X74409703Y-147961859D01*
X74411000Y-147988250D01*
X74411000Y-148526750D01*
X74409703Y-148553141D01*
X74405826Y-148579278D01*
X74399406Y-148604909D01*
X74390505Y-148629788D01*
X74379207Y-148653674D01*
X74365623Y-148676337D01*
X74349883Y-148697560D01*
X74332139Y-148717139D01*
X74312560Y-148734883D01*
X74291337Y-148750623D01*
X74268674Y-148764207D01*
X74244788Y-148775505D01*
X74219909Y-148784406D01*
X74194278Y-148790826D01*
X74168141Y-148794703D01*
X74141750Y-148796000D01*
X73178250Y-148796000D01*
X73151859Y-148794703D01*
X73125722Y-148790826D01*
X73100091Y-148784406D01*
X73075212Y-148775505D01*
X73051326Y-148764207D01*
X73028663Y-148750623D01*
X73007440Y-148734883D01*
X72987861Y-148717139D01*
X72970117Y-148697560D01*
X72954377Y-148676337D01*
X72940793Y-148653674D01*
X72929495Y-148629788D01*
X72920594Y-148604909D01*
X72914174Y-148579278D01*
X72910297Y-148553141D01*
X72909000Y-148526750D01*
X72909000Y-147988250D01*
X72910297Y-147961859D01*
X72914174Y-147935722D01*
X72920594Y-147910091D01*
X72929495Y-147885212D01*
X72940793Y-147861326D01*
X72954377Y-147838663D01*
X72970117Y-147817440D01*
X72987861Y-147797861D01*
X73007440Y-147780117D01*
X73028663Y-147764377D01*
X73051326Y-147750793D01*
X73075212Y-147739495D01*
X73100091Y-147730594D01*
X73125722Y-147724174D01*
X73151859Y-147720297D01*
X73178250Y-147719000D01*
X74141750Y-147719000D01*
X74168141Y-147720297D01*
X74168141Y-147720297D01*
G37*
D16*
X73660000Y-148257500D03*
D15*
G36*
X74168141Y-137560297D02*
G01*
X74194278Y-137564174D01*
X74219909Y-137570594D01*
X74244788Y-137579495D01*
X74268674Y-137590793D01*
X74291337Y-137604377D01*
X74312560Y-137620117D01*
X74332139Y-137637861D01*
X74349883Y-137657440D01*
X74365623Y-137678663D01*
X74379207Y-137701326D01*
X74390505Y-137725212D01*
X74399406Y-137750091D01*
X74405826Y-137775722D01*
X74409703Y-137801859D01*
X74411000Y-137828250D01*
X74411000Y-138366750D01*
X74409703Y-138393141D01*
X74405826Y-138419278D01*
X74399406Y-138444909D01*
X74390505Y-138469788D01*
X74379207Y-138493674D01*
X74365623Y-138516337D01*
X74349883Y-138537560D01*
X74332139Y-138557139D01*
X74312560Y-138574883D01*
X74291337Y-138590623D01*
X74268674Y-138604207D01*
X74244788Y-138615505D01*
X74219909Y-138624406D01*
X74194278Y-138630826D01*
X74168141Y-138634703D01*
X74141750Y-138636000D01*
X73178250Y-138636000D01*
X73151859Y-138634703D01*
X73125722Y-138630826D01*
X73100091Y-138624406D01*
X73075212Y-138615505D01*
X73051326Y-138604207D01*
X73028663Y-138590623D01*
X73007440Y-138574883D01*
X72987861Y-138557139D01*
X72970117Y-138537560D01*
X72954377Y-138516337D01*
X72940793Y-138493674D01*
X72929495Y-138469788D01*
X72920594Y-138444909D01*
X72914174Y-138419278D01*
X72910297Y-138393141D01*
X72909000Y-138366750D01*
X72909000Y-137828250D01*
X72910297Y-137801859D01*
X72914174Y-137775722D01*
X72920594Y-137750091D01*
X72929495Y-137725212D01*
X72940793Y-137701326D01*
X72954377Y-137678663D01*
X72970117Y-137657440D01*
X72987861Y-137637861D01*
X73007440Y-137620117D01*
X73028663Y-137604377D01*
X73051326Y-137590793D01*
X73075212Y-137579495D01*
X73100091Y-137570594D01*
X73125722Y-137564174D01*
X73151859Y-137560297D01*
X73178250Y-137559000D01*
X74141750Y-137559000D01*
X74168141Y-137560297D01*
X74168141Y-137560297D01*
G37*
D16*
X73660000Y-138097500D03*
D15*
G36*
X74168141Y-135685297D02*
G01*
X74194278Y-135689174D01*
X74219909Y-135695594D01*
X74244788Y-135704495D01*
X74268674Y-135715793D01*
X74291337Y-135729377D01*
X74312560Y-135745117D01*
X74332139Y-135762861D01*
X74349883Y-135782440D01*
X74365623Y-135803663D01*
X74379207Y-135826326D01*
X74390505Y-135850212D01*
X74399406Y-135875091D01*
X74405826Y-135900722D01*
X74409703Y-135926859D01*
X74411000Y-135953250D01*
X74411000Y-136491750D01*
X74409703Y-136518141D01*
X74405826Y-136544278D01*
X74399406Y-136569909D01*
X74390505Y-136594788D01*
X74379207Y-136618674D01*
X74365623Y-136641337D01*
X74349883Y-136662560D01*
X74332139Y-136682139D01*
X74312560Y-136699883D01*
X74291337Y-136715623D01*
X74268674Y-136729207D01*
X74244788Y-136740505D01*
X74219909Y-136749406D01*
X74194278Y-136755826D01*
X74168141Y-136759703D01*
X74141750Y-136761000D01*
X73178250Y-136761000D01*
X73151859Y-136759703D01*
X73125722Y-136755826D01*
X73100091Y-136749406D01*
X73075212Y-136740505D01*
X73051326Y-136729207D01*
X73028663Y-136715623D01*
X73007440Y-136699883D01*
X72987861Y-136682139D01*
X72970117Y-136662560D01*
X72954377Y-136641337D01*
X72940793Y-136618674D01*
X72929495Y-136594788D01*
X72920594Y-136569909D01*
X72914174Y-136544278D01*
X72910297Y-136518141D01*
X72909000Y-136491750D01*
X72909000Y-135953250D01*
X72910297Y-135926859D01*
X72914174Y-135900722D01*
X72920594Y-135875091D01*
X72929495Y-135850212D01*
X72940793Y-135826326D01*
X72954377Y-135803663D01*
X72970117Y-135782440D01*
X72987861Y-135762861D01*
X73007440Y-135745117D01*
X73028663Y-135729377D01*
X73051326Y-135715793D01*
X73075212Y-135704495D01*
X73100091Y-135695594D01*
X73125722Y-135689174D01*
X73151859Y-135685297D01*
X73178250Y-135684000D01*
X74141750Y-135684000D01*
X74168141Y-135685297D01*
X74168141Y-135685297D01*
G37*
D16*
X73660000Y-136222500D03*
D15*
G36*
X59048141Y-132600297D02*
G01*
X59074278Y-132604174D01*
X59099909Y-132610594D01*
X59124788Y-132619495D01*
X59148674Y-132630793D01*
X59171337Y-132644377D01*
X59192560Y-132660117D01*
X59212139Y-132677861D01*
X59229883Y-132697440D01*
X59245623Y-132718663D01*
X59259207Y-132741326D01*
X59270505Y-132765212D01*
X59279406Y-132790091D01*
X59285826Y-132815722D01*
X59289703Y-132841859D01*
X59291000Y-132868250D01*
X59291000Y-133831750D01*
X59289703Y-133858141D01*
X59285826Y-133884278D01*
X59279406Y-133909909D01*
X59270505Y-133934788D01*
X59259207Y-133958674D01*
X59245623Y-133981337D01*
X59229883Y-134002560D01*
X59212139Y-134022139D01*
X59192560Y-134039883D01*
X59171337Y-134055623D01*
X59148674Y-134069207D01*
X59124788Y-134080505D01*
X59099909Y-134089406D01*
X59074278Y-134095826D01*
X59048141Y-134099703D01*
X59021750Y-134101000D01*
X58483250Y-134101000D01*
X58456859Y-134099703D01*
X58430722Y-134095826D01*
X58405091Y-134089406D01*
X58380212Y-134080505D01*
X58356326Y-134069207D01*
X58333663Y-134055623D01*
X58312440Y-134039883D01*
X58292861Y-134022139D01*
X58275117Y-134002560D01*
X58259377Y-133981337D01*
X58245793Y-133958674D01*
X58234495Y-133934788D01*
X58225594Y-133909909D01*
X58219174Y-133884278D01*
X58215297Y-133858141D01*
X58214000Y-133831750D01*
X58214000Y-132868250D01*
X58215297Y-132841859D01*
X58219174Y-132815722D01*
X58225594Y-132790091D01*
X58234495Y-132765212D01*
X58245793Y-132741326D01*
X58259377Y-132718663D01*
X58275117Y-132697440D01*
X58292861Y-132677861D01*
X58312440Y-132660117D01*
X58333663Y-132644377D01*
X58356326Y-132630793D01*
X58380212Y-132619495D01*
X58405091Y-132610594D01*
X58430722Y-132604174D01*
X58456859Y-132600297D01*
X58483250Y-132599000D01*
X59021750Y-132599000D01*
X59048141Y-132600297D01*
X59048141Y-132600297D01*
G37*
D16*
X58752500Y-133350000D03*
D15*
G36*
X60923141Y-132600297D02*
G01*
X60949278Y-132604174D01*
X60974909Y-132610594D01*
X60999788Y-132619495D01*
X61023674Y-132630793D01*
X61046337Y-132644377D01*
X61067560Y-132660117D01*
X61087139Y-132677861D01*
X61104883Y-132697440D01*
X61120623Y-132718663D01*
X61134207Y-132741326D01*
X61145505Y-132765212D01*
X61154406Y-132790091D01*
X61160826Y-132815722D01*
X61164703Y-132841859D01*
X61166000Y-132868250D01*
X61166000Y-133831750D01*
X61164703Y-133858141D01*
X61160826Y-133884278D01*
X61154406Y-133909909D01*
X61145505Y-133934788D01*
X61134207Y-133958674D01*
X61120623Y-133981337D01*
X61104883Y-134002560D01*
X61087139Y-134022139D01*
X61067560Y-134039883D01*
X61046337Y-134055623D01*
X61023674Y-134069207D01*
X60999788Y-134080505D01*
X60974909Y-134089406D01*
X60949278Y-134095826D01*
X60923141Y-134099703D01*
X60896750Y-134101000D01*
X60358250Y-134101000D01*
X60331859Y-134099703D01*
X60305722Y-134095826D01*
X60280091Y-134089406D01*
X60255212Y-134080505D01*
X60231326Y-134069207D01*
X60208663Y-134055623D01*
X60187440Y-134039883D01*
X60167861Y-134022139D01*
X60150117Y-134002560D01*
X60134377Y-133981337D01*
X60120793Y-133958674D01*
X60109495Y-133934788D01*
X60100594Y-133909909D01*
X60094174Y-133884278D01*
X60090297Y-133858141D01*
X60089000Y-133831750D01*
X60089000Y-132868250D01*
X60090297Y-132841859D01*
X60094174Y-132815722D01*
X60100594Y-132790091D01*
X60109495Y-132765212D01*
X60120793Y-132741326D01*
X60134377Y-132718663D01*
X60150117Y-132697440D01*
X60167861Y-132677861D01*
X60187440Y-132660117D01*
X60208663Y-132644377D01*
X60231326Y-132630793D01*
X60255212Y-132619495D01*
X60280091Y-132610594D01*
X60305722Y-132604174D01*
X60331859Y-132600297D01*
X60358250Y-132599000D01*
X60896750Y-132599000D01*
X60923141Y-132600297D01*
X60923141Y-132600297D01*
G37*
D16*
X60627500Y-133350000D03*
D15*
G36*
X58928141Y-151530297D02*
G01*
X58954278Y-151534174D01*
X58979909Y-151540594D01*
X59004788Y-151549495D01*
X59028674Y-151560793D01*
X59051337Y-151574377D01*
X59072560Y-151590117D01*
X59092139Y-151607861D01*
X59109883Y-151627440D01*
X59125623Y-151648663D01*
X59139207Y-151671326D01*
X59150505Y-151695212D01*
X59159406Y-151720091D01*
X59165826Y-151745722D01*
X59169703Y-151771859D01*
X59171000Y-151798250D01*
X59171000Y-152336750D01*
X59169703Y-152363141D01*
X59165826Y-152389278D01*
X59159406Y-152414909D01*
X59150505Y-152439788D01*
X59139207Y-152463674D01*
X59125623Y-152486337D01*
X59109883Y-152507560D01*
X59092139Y-152527139D01*
X59072560Y-152544883D01*
X59051337Y-152560623D01*
X59028674Y-152574207D01*
X59004788Y-152585505D01*
X58979909Y-152594406D01*
X58954278Y-152600826D01*
X58928141Y-152604703D01*
X58901750Y-152606000D01*
X57938250Y-152606000D01*
X57911859Y-152604703D01*
X57885722Y-152600826D01*
X57860091Y-152594406D01*
X57835212Y-152585505D01*
X57811326Y-152574207D01*
X57788663Y-152560623D01*
X57767440Y-152544883D01*
X57747861Y-152527139D01*
X57730117Y-152507560D01*
X57714377Y-152486337D01*
X57700793Y-152463674D01*
X57689495Y-152439788D01*
X57680594Y-152414909D01*
X57674174Y-152389278D01*
X57670297Y-152363141D01*
X57669000Y-152336750D01*
X57669000Y-151798250D01*
X57670297Y-151771859D01*
X57674174Y-151745722D01*
X57680594Y-151720091D01*
X57689495Y-151695212D01*
X57700793Y-151671326D01*
X57714377Y-151648663D01*
X57730117Y-151627440D01*
X57747861Y-151607861D01*
X57767440Y-151590117D01*
X57788663Y-151574377D01*
X57811326Y-151560793D01*
X57835212Y-151549495D01*
X57860091Y-151540594D01*
X57885722Y-151534174D01*
X57911859Y-151530297D01*
X57938250Y-151529000D01*
X58901750Y-151529000D01*
X58928141Y-151530297D01*
X58928141Y-151530297D01*
G37*
D16*
X58420000Y-152067500D03*
D15*
G36*
X58928141Y-149655297D02*
G01*
X58954278Y-149659174D01*
X58979909Y-149665594D01*
X59004788Y-149674495D01*
X59028674Y-149685793D01*
X59051337Y-149699377D01*
X59072560Y-149715117D01*
X59092139Y-149732861D01*
X59109883Y-149752440D01*
X59125623Y-149773663D01*
X59139207Y-149796326D01*
X59150505Y-149820212D01*
X59159406Y-149845091D01*
X59165826Y-149870722D01*
X59169703Y-149896859D01*
X59171000Y-149923250D01*
X59171000Y-150461750D01*
X59169703Y-150488141D01*
X59165826Y-150514278D01*
X59159406Y-150539909D01*
X59150505Y-150564788D01*
X59139207Y-150588674D01*
X59125623Y-150611337D01*
X59109883Y-150632560D01*
X59092139Y-150652139D01*
X59072560Y-150669883D01*
X59051337Y-150685623D01*
X59028674Y-150699207D01*
X59004788Y-150710505D01*
X58979909Y-150719406D01*
X58954278Y-150725826D01*
X58928141Y-150729703D01*
X58901750Y-150731000D01*
X57938250Y-150731000D01*
X57911859Y-150729703D01*
X57885722Y-150725826D01*
X57860091Y-150719406D01*
X57835212Y-150710505D01*
X57811326Y-150699207D01*
X57788663Y-150685623D01*
X57767440Y-150669883D01*
X57747861Y-150652139D01*
X57730117Y-150632560D01*
X57714377Y-150611337D01*
X57700793Y-150588674D01*
X57689495Y-150564788D01*
X57680594Y-150539909D01*
X57674174Y-150514278D01*
X57670297Y-150488141D01*
X57669000Y-150461750D01*
X57669000Y-149923250D01*
X57670297Y-149896859D01*
X57674174Y-149870722D01*
X57680594Y-149845091D01*
X57689495Y-149820212D01*
X57700793Y-149796326D01*
X57714377Y-149773663D01*
X57730117Y-149752440D01*
X57747861Y-149732861D01*
X57767440Y-149715117D01*
X57788663Y-149699377D01*
X57811326Y-149685793D01*
X57835212Y-149674495D01*
X57860091Y-149665594D01*
X57885722Y-149659174D01*
X57911859Y-149655297D01*
X57938250Y-149654000D01*
X58901750Y-149654000D01*
X58928141Y-149655297D01*
X58928141Y-149655297D01*
G37*
D16*
X58420000Y-150192500D03*
D15*
G36*
X64733141Y-150380297D02*
G01*
X64759278Y-150384174D01*
X64784909Y-150390594D01*
X64809788Y-150399495D01*
X64833674Y-150410793D01*
X64856337Y-150424377D01*
X64877560Y-150440117D01*
X64897139Y-150457861D01*
X64914883Y-150477440D01*
X64930623Y-150498663D01*
X64944207Y-150521326D01*
X64955505Y-150545212D01*
X64964406Y-150570091D01*
X64970826Y-150595722D01*
X64974703Y-150621859D01*
X64976000Y-150648250D01*
X64976000Y-151611750D01*
X64974703Y-151638141D01*
X64970826Y-151664278D01*
X64964406Y-151689909D01*
X64955505Y-151714788D01*
X64944207Y-151738674D01*
X64930623Y-151761337D01*
X64914883Y-151782560D01*
X64897139Y-151802139D01*
X64877560Y-151819883D01*
X64856337Y-151835623D01*
X64833674Y-151849207D01*
X64809788Y-151860505D01*
X64784909Y-151869406D01*
X64759278Y-151875826D01*
X64733141Y-151879703D01*
X64706750Y-151881000D01*
X64168250Y-151881000D01*
X64141859Y-151879703D01*
X64115722Y-151875826D01*
X64090091Y-151869406D01*
X64065212Y-151860505D01*
X64041326Y-151849207D01*
X64018663Y-151835623D01*
X63997440Y-151819883D01*
X63977861Y-151802139D01*
X63960117Y-151782560D01*
X63944377Y-151761337D01*
X63930793Y-151738674D01*
X63919495Y-151714788D01*
X63910594Y-151689909D01*
X63904174Y-151664278D01*
X63900297Y-151638141D01*
X63899000Y-151611750D01*
X63899000Y-150648250D01*
X63900297Y-150621859D01*
X63904174Y-150595722D01*
X63910594Y-150570091D01*
X63919495Y-150545212D01*
X63930793Y-150521326D01*
X63944377Y-150498663D01*
X63960117Y-150477440D01*
X63977861Y-150457861D01*
X63997440Y-150440117D01*
X64018663Y-150424377D01*
X64041326Y-150410793D01*
X64065212Y-150399495D01*
X64090091Y-150390594D01*
X64115722Y-150384174D01*
X64141859Y-150380297D01*
X64168250Y-150379000D01*
X64706750Y-150379000D01*
X64733141Y-150380297D01*
X64733141Y-150380297D01*
G37*
D16*
X64437500Y-151130000D03*
D15*
G36*
X62858141Y-150380297D02*
G01*
X62884278Y-150384174D01*
X62909909Y-150390594D01*
X62934788Y-150399495D01*
X62958674Y-150410793D01*
X62981337Y-150424377D01*
X63002560Y-150440117D01*
X63022139Y-150457861D01*
X63039883Y-150477440D01*
X63055623Y-150498663D01*
X63069207Y-150521326D01*
X63080505Y-150545212D01*
X63089406Y-150570091D01*
X63095826Y-150595722D01*
X63099703Y-150621859D01*
X63101000Y-150648250D01*
X63101000Y-151611750D01*
X63099703Y-151638141D01*
X63095826Y-151664278D01*
X63089406Y-151689909D01*
X63080505Y-151714788D01*
X63069207Y-151738674D01*
X63055623Y-151761337D01*
X63039883Y-151782560D01*
X63022139Y-151802139D01*
X63002560Y-151819883D01*
X62981337Y-151835623D01*
X62958674Y-151849207D01*
X62934788Y-151860505D01*
X62909909Y-151869406D01*
X62884278Y-151875826D01*
X62858141Y-151879703D01*
X62831750Y-151881000D01*
X62293250Y-151881000D01*
X62266859Y-151879703D01*
X62240722Y-151875826D01*
X62215091Y-151869406D01*
X62190212Y-151860505D01*
X62166326Y-151849207D01*
X62143663Y-151835623D01*
X62122440Y-151819883D01*
X62102861Y-151802139D01*
X62085117Y-151782560D01*
X62069377Y-151761337D01*
X62055793Y-151738674D01*
X62044495Y-151714788D01*
X62035594Y-151689909D01*
X62029174Y-151664278D01*
X62025297Y-151638141D01*
X62024000Y-151611750D01*
X62024000Y-150648250D01*
X62025297Y-150621859D01*
X62029174Y-150595722D01*
X62035594Y-150570091D01*
X62044495Y-150545212D01*
X62055793Y-150521326D01*
X62069377Y-150498663D01*
X62085117Y-150477440D01*
X62102861Y-150457861D01*
X62122440Y-150440117D01*
X62143663Y-150424377D01*
X62166326Y-150410793D01*
X62190212Y-150399495D01*
X62215091Y-150390594D01*
X62240722Y-150384174D01*
X62266859Y-150380297D01*
X62293250Y-150379000D01*
X62831750Y-150379000D01*
X62858141Y-150380297D01*
X62858141Y-150380297D01*
G37*
D16*
X62562500Y-151130000D03*
D15*
G36*
X52698141Y-146570297D02*
G01*
X52724278Y-146574174D01*
X52749909Y-146580594D01*
X52774788Y-146589495D01*
X52798674Y-146600793D01*
X52821337Y-146614377D01*
X52842560Y-146630117D01*
X52862139Y-146647861D01*
X52879883Y-146667440D01*
X52895623Y-146688663D01*
X52909207Y-146711326D01*
X52920505Y-146735212D01*
X52929406Y-146760091D01*
X52935826Y-146785722D01*
X52939703Y-146811859D01*
X52941000Y-146838250D01*
X52941000Y-147801750D01*
X52939703Y-147828141D01*
X52935826Y-147854278D01*
X52929406Y-147879909D01*
X52920505Y-147904788D01*
X52909207Y-147928674D01*
X52895623Y-147951337D01*
X52879883Y-147972560D01*
X52862139Y-147992139D01*
X52842560Y-148009883D01*
X52821337Y-148025623D01*
X52798674Y-148039207D01*
X52774788Y-148050505D01*
X52749909Y-148059406D01*
X52724278Y-148065826D01*
X52698141Y-148069703D01*
X52671750Y-148071000D01*
X52133250Y-148071000D01*
X52106859Y-148069703D01*
X52080722Y-148065826D01*
X52055091Y-148059406D01*
X52030212Y-148050505D01*
X52006326Y-148039207D01*
X51983663Y-148025623D01*
X51962440Y-148009883D01*
X51942861Y-147992139D01*
X51925117Y-147972560D01*
X51909377Y-147951337D01*
X51895793Y-147928674D01*
X51884495Y-147904788D01*
X51875594Y-147879909D01*
X51869174Y-147854278D01*
X51865297Y-147828141D01*
X51864000Y-147801750D01*
X51864000Y-146838250D01*
X51865297Y-146811859D01*
X51869174Y-146785722D01*
X51875594Y-146760091D01*
X51884495Y-146735212D01*
X51895793Y-146711326D01*
X51909377Y-146688663D01*
X51925117Y-146667440D01*
X51942861Y-146647861D01*
X51962440Y-146630117D01*
X51983663Y-146614377D01*
X52006326Y-146600793D01*
X52030212Y-146589495D01*
X52055091Y-146580594D01*
X52080722Y-146574174D01*
X52106859Y-146570297D01*
X52133250Y-146569000D01*
X52671750Y-146569000D01*
X52698141Y-146570297D01*
X52698141Y-146570297D01*
G37*
D16*
X52402500Y-147320000D03*
D15*
G36*
X54573141Y-146570297D02*
G01*
X54599278Y-146574174D01*
X54624909Y-146580594D01*
X54649788Y-146589495D01*
X54673674Y-146600793D01*
X54696337Y-146614377D01*
X54717560Y-146630117D01*
X54737139Y-146647861D01*
X54754883Y-146667440D01*
X54770623Y-146688663D01*
X54784207Y-146711326D01*
X54795505Y-146735212D01*
X54804406Y-146760091D01*
X54810826Y-146785722D01*
X54814703Y-146811859D01*
X54816000Y-146838250D01*
X54816000Y-147801750D01*
X54814703Y-147828141D01*
X54810826Y-147854278D01*
X54804406Y-147879909D01*
X54795505Y-147904788D01*
X54784207Y-147928674D01*
X54770623Y-147951337D01*
X54754883Y-147972560D01*
X54737139Y-147992139D01*
X54717560Y-148009883D01*
X54696337Y-148025623D01*
X54673674Y-148039207D01*
X54649788Y-148050505D01*
X54624909Y-148059406D01*
X54599278Y-148065826D01*
X54573141Y-148069703D01*
X54546750Y-148071000D01*
X54008250Y-148071000D01*
X53981859Y-148069703D01*
X53955722Y-148065826D01*
X53930091Y-148059406D01*
X53905212Y-148050505D01*
X53881326Y-148039207D01*
X53858663Y-148025623D01*
X53837440Y-148009883D01*
X53817861Y-147992139D01*
X53800117Y-147972560D01*
X53784377Y-147951337D01*
X53770793Y-147928674D01*
X53759495Y-147904788D01*
X53750594Y-147879909D01*
X53744174Y-147854278D01*
X53740297Y-147828141D01*
X53739000Y-147801750D01*
X53739000Y-146838250D01*
X53740297Y-146811859D01*
X53744174Y-146785722D01*
X53750594Y-146760091D01*
X53759495Y-146735212D01*
X53770793Y-146711326D01*
X53784377Y-146688663D01*
X53800117Y-146667440D01*
X53817861Y-146647861D01*
X53837440Y-146630117D01*
X53858663Y-146614377D01*
X53881326Y-146600793D01*
X53905212Y-146589495D01*
X53930091Y-146580594D01*
X53955722Y-146574174D01*
X53981859Y-146570297D01*
X54008250Y-146569000D01*
X54546750Y-146569000D01*
X54573141Y-146570297D01*
X54573141Y-146570297D01*
G37*
D16*
X54277500Y-147320000D03*
D15*
G36*
X52698141Y-136410297D02*
G01*
X52724278Y-136414174D01*
X52749909Y-136420594D01*
X52774788Y-136429495D01*
X52798674Y-136440793D01*
X52821337Y-136454377D01*
X52842560Y-136470117D01*
X52862139Y-136487861D01*
X52879883Y-136507440D01*
X52895623Y-136528663D01*
X52909207Y-136551326D01*
X52920505Y-136575212D01*
X52929406Y-136600091D01*
X52935826Y-136625722D01*
X52939703Y-136651859D01*
X52941000Y-136678250D01*
X52941000Y-137641750D01*
X52939703Y-137668141D01*
X52935826Y-137694278D01*
X52929406Y-137719909D01*
X52920505Y-137744788D01*
X52909207Y-137768674D01*
X52895623Y-137791337D01*
X52879883Y-137812560D01*
X52862139Y-137832139D01*
X52842560Y-137849883D01*
X52821337Y-137865623D01*
X52798674Y-137879207D01*
X52774788Y-137890505D01*
X52749909Y-137899406D01*
X52724278Y-137905826D01*
X52698141Y-137909703D01*
X52671750Y-137911000D01*
X52133250Y-137911000D01*
X52106859Y-137909703D01*
X52080722Y-137905826D01*
X52055091Y-137899406D01*
X52030212Y-137890505D01*
X52006326Y-137879207D01*
X51983663Y-137865623D01*
X51962440Y-137849883D01*
X51942861Y-137832139D01*
X51925117Y-137812560D01*
X51909377Y-137791337D01*
X51895793Y-137768674D01*
X51884495Y-137744788D01*
X51875594Y-137719909D01*
X51869174Y-137694278D01*
X51865297Y-137668141D01*
X51864000Y-137641750D01*
X51864000Y-136678250D01*
X51865297Y-136651859D01*
X51869174Y-136625722D01*
X51875594Y-136600091D01*
X51884495Y-136575212D01*
X51895793Y-136551326D01*
X51909377Y-136528663D01*
X51925117Y-136507440D01*
X51942861Y-136487861D01*
X51962440Y-136470117D01*
X51983663Y-136454377D01*
X52006326Y-136440793D01*
X52030212Y-136429495D01*
X52055091Y-136420594D01*
X52080722Y-136414174D01*
X52106859Y-136410297D01*
X52133250Y-136409000D01*
X52671750Y-136409000D01*
X52698141Y-136410297D01*
X52698141Y-136410297D01*
G37*
D16*
X52402500Y-137160000D03*
D15*
G36*
X54573141Y-136410297D02*
G01*
X54599278Y-136414174D01*
X54624909Y-136420594D01*
X54649788Y-136429495D01*
X54673674Y-136440793D01*
X54696337Y-136454377D01*
X54717560Y-136470117D01*
X54737139Y-136487861D01*
X54754883Y-136507440D01*
X54770623Y-136528663D01*
X54784207Y-136551326D01*
X54795505Y-136575212D01*
X54804406Y-136600091D01*
X54810826Y-136625722D01*
X54814703Y-136651859D01*
X54816000Y-136678250D01*
X54816000Y-137641750D01*
X54814703Y-137668141D01*
X54810826Y-137694278D01*
X54804406Y-137719909D01*
X54795505Y-137744788D01*
X54784207Y-137768674D01*
X54770623Y-137791337D01*
X54754883Y-137812560D01*
X54737139Y-137832139D01*
X54717560Y-137849883D01*
X54696337Y-137865623D01*
X54673674Y-137879207D01*
X54649788Y-137890505D01*
X54624909Y-137899406D01*
X54599278Y-137905826D01*
X54573141Y-137909703D01*
X54546750Y-137911000D01*
X54008250Y-137911000D01*
X53981859Y-137909703D01*
X53955722Y-137905826D01*
X53930091Y-137899406D01*
X53905212Y-137890505D01*
X53881326Y-137879207D01*
X53858663Y-137865623D01*
X53837440Y-137849883D01*
X53817861Y-137832139D01*
X53800117Y-137812560D01*
X53784377Y-137791337D01*
X53770793Y-137768674D01*
X53759495Y-137744788D01*
X53750594Y-137719909D01*
X53744174Y-137694278D01*
X53740297Y-137668141D01*
X53739000Y-137641750D01*
X53739000Y-136678250D01*
X53740297Y-136651859D01*
X53744174Y-136625722D01*
X53750594Y-136600091D01*
X53759495Y-136575212D01*
X53770793Y-136551326D01*
X53784377Y-136528663D01*
X53800117Y-136507440D01*
X53817861Y-136487861D01*
X53837440Y-136470117D01*
X53858663Y-136454377D01*
X53881326Y-136440793D01*
X53905212Y-136429495D01*
X53930091Y-136420594D01*
X53955722Y-136414174D01*
X53981859Y-136410297D01*
X54008250Y-136409000D01*
X54546750Y-136409000D01*
X54573141Y-136410297D01*
X54573141Y-136410297D01*
G37*
D16*
X54277500Y-137160000D03*
M02*
