G04 #@! TF.GenerationSoftware,KiCad,Pcbnew,(5.1.4)-1*
G04 #@! TF.CreationDate,2021-01-15T16:27:36-05:00*
G04 #@! TF.ProjectId,proto,70726f74-6f2e-46b6-9963-61645f706362,rev?*
G04 #@! TF.SameCoordinates,Original*
G04 #@! TF.FileFunction,Profile,NP*
%FSLAX46Y46*%
G04 Gerber Fmt 4.6, Leading zero omitted, Abs format (unit mm)*
G04 Created by KiCad (PCBNEW (5.1.4)-1) date 2021-01-15 16:27:36*
%MOMM*%
%LPD*%
G04 APERTURE LIST*
%ADD10C,1.000000*%
G04 APERTURE END LIST*
D10*
X-7188953Y-30377980D02*
X-7213600Y-30327600D01*
X-7213600Y-31038800D02*
X-7213600Y-30327600D01*
X-4719320Y-29337000D02*
X-5938520Y-29334460D01*
X-6243320Y-29337000D02*
X-5938520Y-29334460D01*
X321280000Y-29400000D02*
X321130000Y-29397960D01*
X322127880Y-30378400D02*
X322130000Y-30250000D01*
X322122800Y-158953200D02*
X322130000Y-159219200D01*
X321005200Y-159979360D02*
X321380000Y-159969200D01*
X-6096000Y-159969200D02*
X-6552006Y-159865292D01*
X-7193280Y-158800800D02*
X-7170000Y-158850000D01*
X322130000Y-159219200D02*
G75*
G02X321380000Y-159969200I-750000J0D01*
G01*
X321280000Y-29400000D02*
G75*
G02X322130000Y-30250000I0J-850000D01*
G01*
X-7188953Y-30377980D02*
G75*
G02X-6243320Y-29337000I945633J90980D01*
G01*
X-6552006Y-159865292D02*
G75*
G02X-7170000Y-158850000I525006J1015292D01*
G01*
X-5036200Y-159979360D02*
X-6096000Y-159969200D01*
X322127880Y-106664760D02*
X322122800Y-158953200D01*
X319979040Y-29397960D02*
X321130000Y-29397960D01*
X322127880Y-106664760D02*
X322127880Y-30378400D01*
X-5036200Y-159979360D02*
X321005200Y-159979360D01*
X-7213600Y-31038800D02*
X-7193280Y-158800800D01*
X319979040Y-29397960D02*
X-4719320Y-29337000D01*
M02*
