M48
; DRILL file {KiCad (5.1.4)-1} date 2021-01-15 22:15:34
; FORMAT={-:-/ absolute / inch / decimal}
; #@! TF.CreationDate,2021-01-15T22:15:34-05:00
; #@! TF.GenerationSoftware,Kicad,Pcbnew,(5.1.4)-1
; #@! TF.FileFunction,NonPlated,1,2,NPTH
FMAT,2
INCH
T1C0.0689
T2C0.1570
%
G90
G05
T1
X6.0Y-3.15
X6.4Y-3.15
X0.1472Y-3.5345
X0.5442Y-3.5832
X10.4585Y-4.5107
X10.8555Y-4.4619
X5.25Y-3.9
X5.65Y-3.9
X6.0Y-2.4
X6.4Y-2.4
X11.2029Y-4.4193
X11.5999Y-4.3705
X3.1248Y-3.9001
X3.5218Y-3.9488
X10.9287Y-2.186
X11.3257Y-2.1373
X5.25Y-2.4
X5.65Y-2.4
X8.9697Y-4.6935
X9.3667Y-4.6447
X8.1338Y-4.0405
X8.5309Y-3.9917
X4.052Y-2.5027
X4.4491Y-2.5514
X8.0424Y-3.296
X8.4395Y-3.2473
X11.8559Y-3.5834
X12.2529Y-3.5347
X11.6731Y-2.0946
X12.0701Y-2.0459
X3.2162Y-3.1557
X3.6132Y-3.2044
X3.7778Y-4.7359
X4.1749Y-4.7846
X0.33Y-2.0457
X0.727Y-2.0944
X1.636Y-3.7173
X2.033Y-3.766
X7.951Y-2.5516
X8.3481Y-2.5029
X6.0Y-1.65
X6.4Y-1.65
X6.75Y-3.9
X7.15Y-3.9
X8.8782Y-3.9491
X9.2753Y-3.9003
X8.7868Y-3.2046
X9.1839Y-3.1559
X6.0Y-5.0552
X6.4Y-5.0552
X5.25Y-3.15
X5.65Y-3.15
X5.25Y-1.65
X5.65Y-1.65
X1.7274Y-2.9729
X2.1244Y-3.0216
X9.7141Y-4.6021
X10.1111Y-4.5533
X2.289Y-4.5531
X2.686Y-4.6018
X9.4399Y-2.3688
X9.8369Y-2.3201
X11.0201Y-2.9304
X11.4171Y-2.8817
X0.0558Y-4.2789
X0.4528Y-4.3276
X1.8188Y-2.2285
X2.2158Y-2.2772
X0.8916Y-3.6259
X1.2886Y-3.6746
X10.3671Y-3.7663
X10.7641Y-3.7175
X10.1843Y-2.2774
X10.5813Y-2.2287
X6.75Y-5.8052
X7.15Y-5.8052
X10.2757Y-3.0218
X10.6727Y-2.9731
X3.0334Y-4.6445
X3.4304Y-4.6932
X11.7645Y-2.839
X12.1615Y-2.7903
X0.2386Y-2.7901
X0.6356Y-2.8388
X6.0Y-3.9
X6.4Y-3.9
X11.1115Y-3.6749
X11.5085Y-3.6261
X6.75Y-2.4
X7.15Y-2.4
X11.9473Y-4.3279
X12.3443Y-4.2791
X3.8692Y-3.9915
X4.2663Y-4.0402
X3.3076Y-2.4113
X3.7046Y-2.46
X0.983Y-2.8815
X1.38Y-2.9302
X8.2252Y-4.7849
X8.6223Y-4.7361
X0.8002Y-4.3703
X1.1972Y-4.419
X2.5632Y-2.3199
X2.9602Y-2.3686
X2.3804Y-3.8087
X2.7774Y-3.8574
X1.5446Y-4.4617
X1.9416Y-4.5104
X1.0744Y-2.1371
X1.4714Y-2.1858
X9.5313Y-3.1132
X9.9283Y-3.0645
X9.6227Y-3.8577
X10.0197Y-3.8089
X8.6954Y-2.4602
X9.0925Y-2.4115
X2.4718Y-3.0643
X2.8688Y-3.113
X6.75Y-3.15
X7.15Y-3.15
X3.9606Y-3.2471
X4.3577Y-3.2958
X6.75Y-1.65
X7.15Y-1.65
X5.25Y-5.8052
X5.65Y-5.8052
X6.0Y-5.8052
X6.4Y-5.8052
T2
X11.31Y-3.6505
X6.95Y-2.4
X12.1458Y-4.3035
X4.0677Y-4.0159
X3.5061Y-2.4356
X1.1815Y-2.9058
X8.4238Y-4.7605
X0.9987Y-4.3947
X2.7617Y-2.3442
X2.5789Y-3.8331
X1.7431Y-4.4861
X1.2729Y-2.1614
X9.7298Y-3.0889
X9.8212Y-3.8333
X8.894Y-2.4359
X2.6703Y-3.0886
X6.95Y-3.15
X4.1591Y-3.2714
X6.95Y-1.65
X5.45Y-5.8052
X6.2Y-5.8052
X6.2Y-3.15
X0.3457Y-3.5588
X10.657Y-4.4863
X5.45Y-3.9
X6.2Y-2.4
X11.4014Y-4.3949
X3.3233Y-3.9245
X11.1272Y-2.1617
X5.45Y-2.4
X9.1682Y-4.6691
X8.3323Y-4.0161
X4.2505Y-2.527
X8.2409Y-3.2717
X12.0544Y-3.5591
X11.8716Y-2.0703
X3.4147Y-3.18
X3.9763Y-4.7603
X0.5285Y-2.07
X1.8345Y-3.7417
X8.1495Y-2.5273
X6.2Y-1.65
X6.95Y-3.9
X9.0768Y-3.9247
X8.9854Y-3.1803
X6.2Y-5.0552
X5.45Y-3.15
X5.45Y-1.65
X1.9259Y-2.9972
X9.9126Y-4.5777
X2.4875Y-4.5775
X9.6384Y-2.3445
X11.2186Y-2.9061
X0.2543Y-4.3033
X2.0173Y-2.2528
X1.0901Y-3.6502
X10.5656Y-3.7419
X10.3828Y-2.2531
X6.95Y-5.8052
X10.4742Y-2.9975
X3.2319Y-4.6689
X11.963Y-2.8147
X0.4371Y-2.8144
X6.2Y-3.9
T0
M30
