M48
; DRILL file {KiCad (5.1.4)-1} date 2021-01-15 22:15:34
; FORMAT={-:-/ absolute / inch / decimal}
; #@! TF.CreationDate,2021-01-15T22:15:34-05:00
; #@! TF.GenerationSoftware,Kicad,Pcbnew,(5.1.4)-1
; #@! TF.FileFunction,Plated,1,2,PTH
FMAT,2
INCH
T1C0.0157
T2C0.0276
T3C0.0394
T4C0.0409
T5C0.0579
T6C0.0591
%
G90
G05
T1
X2.14Y-4.13
X2.14Y-5.0
X2.18Y-3.38
X2.18Y-4.97
X2.2Y-5.81
X2.2Y-5.905
X2.2Y-6.0
X2.2159Y-6.2159
X2.225Y-2.85
X2.225Y-2.85
X2.225Y-4.94
X2.26Y-5.16
X2.325Y-5.81
X2.325Y-6.2551
X2.345Y-5.115
X2.3577Y-6.2314
X2.3578Y-5.8318
X2.386Y-5.08
X2.4125Y-5.24
X2.436Y-5.042
X2.55Y-4.998
X2.582Y-5.038
X2.614Y-5.088
X2.9Y-5.31
X3.015Y-5.365
X3.015Y-5.775
X3.096Y-5.506
X3.148Y-5.536
X3.204Y-5.572
X3.258Y-5.604
X3.32Y-5.6326
X3.384Y-5.662
X5.66Y-5.23
X5.8Y-4.454
X6.5Y-4.39
T3
X6.9231Y-4.74
X6.9231Y-5.3109
X7.0216Y-4.74
X7.12Y-4.74
X7.12Y-5.3109
T4
X6.15Y-1.85
X6.25Y-1.85
X6.9Y-4.1
X7.0Y-4.1
X9.0515Y-4.1293
X9.1508Y-4.1171
X8.9601Y-3.3849
X9.0594Y-3.3727
X6.15Y-5.2552
X6.25Y-5.2552
X5.4Y-3.35
X5.5Y-3.35
X5.4Y-1.85
X5.5Y-1.85
X1.8519Y-3.1897
X1.9512Y-3.2018
X9.8873Y-4.7823
X9.9866Y-4.7701
X2.4135Y-4.7699
X2.5128Y-4.7821
X9.6131Y-2.5491
X9.7124Y-2.5369
X11.1933Y-3.1107
X11.2926Y-3.0985
X0.1803Y-4.4957
X0.2795Y-4.5079
X1.9433Y-2.4452
X2.0426Y-2.4574
X1.0161Y-3.8427
X1.1154Y-3.8549
X10.5403Y-3.9465
X10.6396Y-3.9343
X10.3575Y-2.4577
X10.4568Y-2.4455
X6.9Y-6.0052
X7.0Y-6.0052
X10.4489Y-3.2021
X10.5482Y-3.1899
X3.1579Y-4.8613
X3.2572Y-4.8735
X11.9377Y-3.0193
X12.037Y-3.0071
X0.3631Y-3.0069
X0.4624Y-3.019
X6.15Y-4.1
X6.25Y-4.1
X11.2847Y-3.8551
X11.384Y-3.8429
X6.9Y-2.6
X7.0Y-2.6
X12.1205Y-4.5081
X12.2198Y-4.4959
X3.9937Y-4.2083
X4.093Y-4.2205
X3.4321Y-2.6281
X3.5314Y-2.6402
X1.1075Y-3.0983
X1.2068Y-3.1104
X8.3985Y-4.9651
X8.4978Y-4.9529
X0.9247Y-4.5871
X1.024Y-4.5993
X2.6877Y-2.5366
X2.787Y-2.5488
X2.5049Y-4.0255
X2.6042Y-4.0377
X1.6691Y-4.6785
X1.7684Y-4.6907
X1.1989Y-2.3538
X1.2982Y-2.366
X9.7045Y-3.2935
X9.8038Y-3.2813
X9.7959Y-4.0379
X9.8952Y-4.0257
X8.8687Y-2.6405
X8.968Y-2.6283
X2.5963Y-3.2811
X2.6956Y-3.2932
X6.9Y-3.35
X7.0Y-3.35
X4.0851Y-3.4639
X4.1844Y-3.4761
X6.9Y-1.85
X7.0Y-1.85
X5.4Y-6.0052
X5.5Y-6.0052
X6.15Y-6.0052
X6.25Y-6.0052
X6.15Y-3.35
X6.25Y-3.35
X0.2717Y-3.7513
X0.3709Y-3.7634
X10.6317Y-4.6909
X10.731Y-4.6787
X5.4Y-4.1
X5.5Y-4.1
X6.15Y-2.6
X6.25Y-2.6
X11.3761Y-4.5995
X11.4754Y-4.5873
X3.2493Y-4.1169
X3.3486Y-4.1291
X11.1019Y-2.3663
X11.2012Y-2.3541
X5.4Y-2.6
X5.5Y-2.6
X9.1429Y-4.8737
X9.2422Y-4.8615
X8.3071Y-4.2207
X8.4063Y-4.2085
X4.1765Y-2.7195
X4.2758Y-2.7316
X8.2157Y-3.4763
X8.3149Y-3.4641
X12.0291Y-3.7637
X12.1284Y-3.7515
X11.8463Y-2.2749
X11.9456Y-2.2627
X3.3407Y-3.3725
X3.44Y-3.3846
X3.9023Y-4.9527
X4.0016Y-4.9649
X0.4545Y-2.2624
X0.5538Y-2.2746
X1.7605Y-3.9341
X1.8598Y-3.9463
X8.1243Y-2.7319
X8.2235Y-2.7197
T5
X11.1489Y-3.5695
X11.1931Y-3.5062
X11.3849Y-3.4398
X11.3861Y-3.4626
X6.8Y-2.3
X6.8516Y-2.2425
X7.0484Y-2.2228
X7.05Y-2.2
X11.9847Y-4.2225
X12.0289Y-4.1592
X12.2207Y-4.0928
X12.2219Y-4.1156
X3.931Y-3.8983
X3.9892Y-3.8476
X4.187Y-3.852
X4.1914Y-3.8295
X3.3694Y-2.3181
X3.4276Y-2.2673
X3.6254Y-2.2718
X3.6298Y-2.2493
X1.0448Y-2.7883
X1.103Y-2.7375
X1.3008Y-2.742
X1.3051Y-2.7195
X8.2627Y-4.6795
X8.3069Y-4.6162
X8.4986Y-4.5498
X8.4999Y-4.5727
X0.862Y-4.2771
X0.9202Y-4.2264
X1.118Y-4.2308
X1.1223Y-4.2083
X2.625Y-2.2267
X2.6832Y-2.1759
X2.881Y-2.1804
X2.8854Y-2.1579
X2.4422Y-3.7155
X2.5004Y-3.6648
X2.6982Y-3.6692
X2.7026Y-3.6467
X1.6064Y-4.3685
X1.6646Y-4.3178
X1.8624Y-4.3222
X1.8667Y-4.2997
X1.1362Y-2.0439
X1.1944Y-1.9931
X1.3922Y-1.9976
X1.3965Y-1.9751
X9.5687Y-3.0079
X9.6129Y-2.9446
X9.8046Y-2.8782
X9.8059Y-2.901
X9.6601Y-3.7523
X9.7043Y-3.689
X9.896Y-3.6226
X9.8973Y-3.6454
X8.7329Y-2.3549
X8.7771Y-2.2916
X8.9688Y-2.2252
X8.9701Y-2.248
X2.5336Y-2.9711
X2.5918Y-2.9203
X2.7896Y-2.9248
X2.794Y-2.9023
X6.8Y-3.05
X6.8516Y-2.9925
X7.0484Y-2.9728
X7.05Y-2.95
X4.0225Y-3.1539
X4.0806Y-3.1031
X4.2784Y-3.1076
X4.2828Y-3.0851
X6.8Y-1.55
X6.8516Y-1.4925
X7.0484Y-1.4728
X7.05Y-1.45
X5.3Y-5.7052
X5.3516Y-5.6477
X5.5485Y-5.628
X5.55Y-5.6052
X6.05Y-5.7052
X6.1016Y-5.6477
X6.2985Y-5.628
X6.3Y-5.6052
X6.05Y-3.05
X6.1016Y-2.9925
X6.2984Y-2.9728
X6.3Y-2.95
X0.209Y-3.4413
X0.2672Y-3.3905
X0.465Y-3.395
X0.4693Y-3.3725
X10.4959Y-4.4053
X10.5401Y-4.342
X10.7319Y-4.2756
X10.7331Y-4.2984
X5.3Y-3.8
X5.3516Y-3.7425
X5.5484Y-3.7228
X5.55Y-3.7
X6.05Y-2.3
X6.1016Y-2.2425
X6.2984Y-2.2228
X6.3Y-2.2
X11.2403Y-4.3139
X11.2845Y-4.2506
X11.4763Y-4.1842
X11.4775Y-4.207
X3.1866Y-3.8069
X3.2448Y-3.7562
X3.4426Y-3.7606
X3.447Y-3.7381
X10.9661Y-2.0807
X11.0103Y-2.0173
X11.2021Y-1.951
X11.2033Y-1.9738
X5.3Y-2.3
X5.3516Y-2.2425
X5.5484Y-2.2228
X5.55Y-2.2
X9.0071Y-4.5881
X9.0513Y-4.5248
X9.243Y-4.4584
X9.2443Y-4.4813
X8.1713Y-3.9351
X8.2155Y-3.8718
X8.4072Y-3.8054
X8.4084Y-3.8282
X4.1139Y-2.4095
X4.172Y-2.3587
X4.3698Y-2.3632
X4.3742Y-2.3407
X8.0799Y-3.1907
X8.1241Y-3.1274
X8.3158Y-3.061
X8.317Y-3.0838
X11.8933Y-3.4781
X11.9375Y-3.4148
X12.1293Y-3.3484
X12.1305Y-3.3712
X11.7105Y-1.9893
X11.7547Y-1.9259
X11.9465Y-1.8596
X11.9477Y-1.8824
X3.278Y-3.0625
X3.3362Y-3.0117
X3.534Y-3.0162
X3.5384Y-2.9937
X3.8396Y-4.6427
X3.8978Y-4.592
X4.0956Y-4.5964
X4.1Y-4.5739
X0.3918Y-1.9525
X0.45Y-1.9017
X0.6478Y-1.9062
X0.6521Y-1.8837
X1.6978Y-3.6241
X1.756Y-3.5733
X1.9538Y-3.5778
X1.9581Y-3.5553
X7.9885Y-2.4463
X8.0327Y-2.383
X8.2244Y-2.3166
X8.2256Y-2.3394
X6.05Y-1.55
X6.1016Y-1.4925
X6.2984Y-1.4728
X6.3Y-1.45
X6.8Y-3.8
X6.8516Y-3.7425
X7.0484Y-3.7228
X7.05Y-3.7
X8.9157Y-3.8437
X8.9599Y-3.7804
X9.1516Y-3.714
X9.1529Y-3.7368
X8.8243Y-3.0993
X8.8685Y-3.036
X9.0602Y-2.9696
X9.0615Y-2.9924
X6.05Y-4.9552
X6.1016Y-4.8977
X6.2985Y-4.878
X6.3Y-4.8552
X5.3Y-3.05
X5.3516Y-2.9925
X5.5484Y-2.9728
X5.55Y-2.95
X5.3Y-1.55
X5.3516Y-1.4925
X5.5484Y-1.4728
X5.55Y-1.45
X1.7892Y-2.8797
X1.8474Y-2.8289
X2.0452Y-2.8334
X2.0495Y-2.8109
X9.7515Y-4.4967
X9.7957Y-4.4334
X9.9875Y-4.367
X9.9887Y-4.3899
X2.3508Y-4.4599
X2.409Y-4.4092
X2.6068Y-4.4136
X2.6112Y-4.3911
X9.4773Y-2.2635
X9.5215Y-2.2002
X9.7132Y-2.1338
X9.7145Y-2.1566
X11.0575Y-2.8251
X11.1017Y-2.7618
X11.2935Y-2.6954
X11.2947Y-2.7182
X0.1176Y-4.1857
X0.1758Y-4.135
X0.3736Y-4.1394
X0.3779Y-4.1169
X1.8806Y-2.1353
X1.9388Y-2.0845
X2.1366Y-2.089
X2.1409Y-2.0665
X0.9534Y-3.5327
X1.0116Y-3.4819
X1.2094Y-3.4864
X1.2137Y-3.4639
X10.4045Y-3.6609
X10.4487Y-3.5976
X10.6405Y-3.5312
X10.6417Y-3.554
X10.2217Y-2.1721
X10.2659Y-2.1087
X10.4577Y-2.0424
X10.4589Y-2.0652
X6.8Y-5.7052
X6.8516Y-5.6477
X7.0485Y-5.628
X7.05Y-5.6052
X10.3131Y-2.9165
X10.3573Y-2.8532
X10.5491Y-2.7868
X10.5503Y-2.8096
X3.0952Y-4.5513
X3.1534Y-4.5006
X3.3512Y-4.505
X3.3556Y-4.4825
X11.8019Y-2.7337
X11.8461Y-2.6704
X12.0379Y-2.604
X12.0391Y-2.6268
X0.3004Y-2.6969
X0.3586Y-2.6461
X0.5564Y-2.6506
X0.5607Y-2.6281
X6.05Y-3.8
X6.1016Y-3.7425
X6.2984Y-3.7228
X6.3Y-3.7
T2
G00X0.1063Y-1.2264
M15
G01X0.1063Y-1.2736
M16
G05
G00X0.1063Y-1.4035
M15
G01X0.1063Y-1.4508
M16
G05
G00X0.3937Y-1.2264
M15
G01X0.3937Y-1.2736
M16
G05
G00X0.3937Y-1.4035
M15
G01X0.3937Y-1.4508
M16
G05
T6
G00X6.8011Y-5.0097
M15
G01X6.8011Y-5.0609
M16
G05
G00X7.242Y-5.0097
M15
G01X7.242Y-5.0609
M16
G05
T0
M30
