G04 #@! TF.GenerationSoftware,KiCad,Pcbnew,(5.1.4)-1*
G04 #@! TF.CreationDate,2021-01-15T16:27:36-05:00*
G04 #@! TF.ProjectId,proto,70726f74-6f2e-46b6-9963-61645f706362,rev?*
G04 #@! TF.SameCoordinates,Original*
G04 #@! TF.FileFunction,Soldermask,Top*
G04 #@! TF.FilePolarity,Negative*
%FSLAX46Y46*%
G04 Gerber Fmt 4.6, Leading zero omitted, Abs format (unit mm)*
G04 Created by KiCad (PCBNEW (5.1.4)-1) date 2021-01-15 16:27:36*
%MOMM*%
%LPD*%
G04 APERTURE LIST*
%ADD10C,0.100000*%
G04 APERTURE END LIST*
D10*
G36*
X177127274Y-145484624D02*
G01*
X177345274Y-145574923D01*
X177499423Y-145638773D01*
X177834348Y-145862563D01*
X178119177Y-146147392D01*
X178342967Y-146482317D01*
X178375362Y-146560526D01*
X178497116Y-146854466D01*
X178575700Y-147249534D01*
X178575700Y-147652346D01*
X178497116Y-148047414D01*
X178446251Y-148170212D01*
X178342967Y-148419563D01*
X178119177Y-148754488D01*
X177834348Y-149039317D01*
X177499423Y-149263107D01*
X177345274Y-149326957D01*
X177127274Y-149417256D01*
X176732206Y-149495840D01*
X176329394Y-149495840D01*
X175934326Y-149417256D01*
X175716326Y-149326957D01*
X175562177Y-149263107D01*
X175227252Y-149039317D01*
X174942423Y-148754488D01*
X174718633Y-148419563D01*
X174615349Y-148170212D01*
X174564484Y-148047414D01*
X174485900Y-147652346D01*
X174485900Y-147249534D01*
X174564484Y-146854466D01*
X174686238Y-146560526D01*
X174718633Y-146482317D01*
X174942423Y-146147392D01*
X175227252Y-145862563D01*
X175562177Y-145638773D01*
X175716326Y-145574923D01*
X175934326Y-145484624D01*
X176329394Y-145406040D01*
X176732206Y-145406040D01*
X177127274Y-145484624D01*
X177127274Y-145484624D01*
G37*
G36*
X158077274Y-145484624D02*
G01*
X158295274Y-145574923D01*
X158449423Y-145638773D01*
X158784348Y-145862563D01*
X159069177Y-146147392D01*
X159292967Y-146482317D01*
X159325362Y-146560526D01*
X159447116Y-146854466D01*
X159525700Y-147249534D01*
X159525700Y-147652346D01*
X159447116Y-148047414D01*
X159396251Y-148170212D01*
X159292967Y-148419563D01*
X159069177Y-148754488D01*
X158784348Y-149039317D01*
X158449423Y-149263107D01*
X158295274Y-149326957D01*
X158077274Y-149417256D01*
X157682206Y-149495840D01*
X157279394Y-149495840D01*
X156884326Y-149417256D01*
X156666326Y-149326957D01*
X156512177Y-149263107D01*
X156177252Y-149039317D01*
X155892423Y-148754488D01*
X155668633Y-148419563D01*
X155565349Y-148170212D01*
X155514484Y-148047414D01*
X155435900Y-147652346D01*
X155435900Y-147249534D01*
X155514484Y-146854466D01*
X155636238Y-146560526D01*
X155668633Y-146482317D01*
X155892423Y-146147392D01*
X156177252Y-145862563D01*
X156512177Y-145638773D01*
X156666326Y-145574923D01*
X156884326Y-145484624D01*
X157279394Y-145406040D01*
X157682206Y-145406040D01*
X158077274Y-145484624D01*
X158077274Y-145484624D01*
G37*
G36*
X139027274Y-145484624D02*
G01*
X139245274Y-145574923D01*
X139399423Y-145638773D01*
X139734348Y-145862563D01*
X140019177Y-146147392D01*
X140242967Y-146482317D01*
X140275362Y-146560526D01*
X140397116Y-146854466D01*
X140475700Y-147249534D01*
X140475700Y-147652346D01*
X140397116Y-148047414D01*
X140346251Y-148170212D01*
X140242967Y-148419563D01*
X140019177Y-148754488D01*
X139734348Y-149039317D01*
X139399423Y-149263107D01*
X139245274Y-149326957D01*
X139027274Y-149417256D01*
X138632206Y-149495840D01*
X138229394Y-149495840D01*
X137834326Y-149417256D01*
X137616326Y-149326957D01*
X137462177Y-149263107D01*
X137127252Y-149039317D01*
X136842423Y-148754488D01*
X136618633Y-148419563D01*
X136515349Y-148170212D01*
X136464484Y-148047414D01*
X136385900Y-147652346D01*
X136385900Y-147249534D01*
X136464484Y-146854466D01*
X136586238Y-146560526D01*
X136618633Y-146482317D01*
X136842423Y-146147392D01*
X137127252Y-145862563D01*
X137462177Y-145638773D01*
X137616326Y-145574923D01*
X137834326Y-145484624D01*
X138229394Y-145406040D01*
X138632206Y-145406040D01*
X139027274Y-145484624D01*
X139027274Y-145484624D01*
G37*
G36*
X171720904Y-146560525D02*
G01*
X171889426Y-146630329D01*
X172041091Y-146731668D01*
X172170072Y-146860649D01*
X172271411Y-147012314D01*
X172341215Y-147180836D01*
X172376800Y-147359737D01*
X172376800Y-147542143D01*
X172341215Y-147721044D01*
X172271411Y-147889566D01*
X172170072Y-148041231D01*
X172041091Y-148170212D01*
X171889426Y-148271551D01*
X171720904Y-148341355D01*
X171542003Y-148376940D01*
X171359597Y-148376940D01*
X171180696Y-148341355D01*
X171012174Y-148271551D01*
X170860509Y-148170212D01*
X170731528Y-148041231D01*
X170630189Y-147889566D01*
X170560385Y-147721044D01*
X170524800Y-147542143D01*
X170524800Y-147359737D01*
X170560385Y-147180836D01*
X170630189Y-147012314D01*
X170731528Y-146860649D01*
X170860509Y-146731668D01*
X171012174Y-146630329D01*
X171180696Y-146560525D01*
X171359597Y-146524940D01*
X171542003Y-146524940D01*
X171720904Y-146560525D01*
X171720904Y-146560525D01*
G37*
G36*
X152670904Y-146560525D02*
G01*
X152839426Y-146630329D01*
X152991091Y-146731668D01*
X153120072Y-146860649D01*
X153221411Y-147012314D01*
X153291215Y-147180836D01*
X153326800Y-147359737D01*
X153326800Y-147542143D01*
X153291215Y-147721044D01*
X153221411Y-147889566D01*
X153120072Y-148041231D01*
X152991091Y-148170212D01*
X152839426Y-148271551D01*
X152670904Y-148341355D01*
X152492003Y-148376940D01*
X152309597Y-148376940D01*
X152130696Y-148341355D01*
X151962174Y-148271551D01*
X151810509Y-148170212D01*
X151681528Y-148041231D01*
X151580189Y-147889566D01*
X151510385Y-147721044D01*
X151474800Y-147542143D01*
X151474800Y-147359737D01*
X151510385Y-147180836D01*
X151580189Y-147012314D01*
X151681528Y-146860649D01*
X151810509Y-146731668D01*
X151962174Y-146630329D01*
X152130696Y-146560525D01*
X152309597Y-146524940D01*
X152492003Y-146524940D01*
X152670904Y-146560525D01*
X152670904Y-146560525D01*
G37*
G36*
X181880904Y-146560525D02*
G01*
X182049426Y-146630329D01*
X182201091Y-146731668D01*
X182330072Y-146860649D01*
X182431411Y-147012314D01*
X182501215Y-147180836D01*
X182536800Y-147359737D01*
X182536800Y-147542143D01*
X182501215Y-147721044D01*
X182431411Y-147889566D01*
X182330072Y-148041231D01*
X182201091Y-148170212D01*
X182049426Y-148271551D01*
X181880904Y-148341355D01*
X181702003Y-148376940D01*
X181519597Y-148376940D01*
X181340696Y-148341355D01*
X181172174Y-148271551D01*
X181020509Y-148170212D01*
X180891528Y-148041231D01*
X180790189Y-147889566D01*
X180720385Y-147721044D01*
X180684800Y-147542143D01*
X180684800Y-147359737D01*
X180720385Y-147180836D01*
X180790189Y-147012314D01*
X180891528Y-146860649D01*
X181020509Y-146731668D01*
X181172174Y-146630329D01*
X181340696Y-146560525D01*
X181519597Y-146524940D01*
X181702003Y-146524940D01*
X181880904Y-146560525D01*
X181880904Y-146560525D01*
G37*
G36*
X133620904Y-146560525D02*
G01*
X133789426Y-146630329D01*
X133941091Y-146731668D01*
X134070072Y-146860649D01*
X134171411Y-147012314D01*
X134241215Y-147180836D01*
X134276800Y-147359737D01*
X134276800Y-147542143D01*
X134241215Y-147721044D01*
X134171411Y-147889566D01*
X134070072Y-148041231D01*
X133941091Y-148170212D01*
X133789426Y-148271551D01*
X133620904Y-148341355D01*
X133442003Y-148376940D01*
X133259597Y-148376940D01*
X133080696Y-148341355D01*
X132912174Y-148271551D01*
X132760509Y-148170212D01*
X132631528Y-148041231D01*
X132530189Y-147889566D01*
X132460385Y-147721044D01*
X132424800Y-147542143D01*
X132424800Y-147359737D01*
X132460385Y-147180836D01*
X132530189Y-147012314D01*
X132631528Y-146860649D01*
X132760509Y-146731668D01*
X132912174Y-146630329D01*
X133080696Y-146560525D01*
X133259597Y-146524940D01*
X133442003Y-146524940D01*
X133620904Y-146560525D01*
X133620904Y-146560525D01*
G37*
G36*
X143780904Y-146560525D02*
G01*
X143949426Y-146630329D01*
X144101091Y-146731668D01*
X144230072Y-146860649D01*
X144331411Y-147012314D01*
X144401215Y-147180836D01*
X144436800Y-147359737D01*
X144436800Y-147542143D01*
X144401215Y-147721044D01*
X144331411Y-147889566D01*
X144230072Y-148041231D01*
X144101091Y-148170212D01*
X143949426Y-148271551D01*
X143780904Y-148341355D01*
X143602003Y-148376940D01*
X143419597Y-148376940D01*
X143240696Y-148341355D01*
X143072174Y-148271551D01*
X142920509Y-148170212D01*
X142791528Y-148041231D01*
X142690189Y-147889566D01*
X142620385Y-147721044D01*
X142584800Y-147542143D01*
X142584800Y-147359737D01*
X142620385Y-147180836D01*
X142690189Y-147012314D01*
X142791528Y-146860649D01*
X142920509Y-146731668D01*
X143072174Y-146630329D01*
X143240696Y-146560525D01*
X143419597Y-146524940D01*
X143602003Y-146524940D01*
X143780904Y-146560525D01*
X143780904Y-146560525D01*
G37*
G36*
X162830904Y-146560525D02*
G01*
X162999426Y-146630329D01*
X163151091Y-146731668D01*
X163280072Y-146860649D01*
X163381411Y-147012314D01*
X163451215Y-147180836D01*
X163486800Y-147359737D01*
X163486800Y-147542143D01*
X163451215Y-147721044D01*
X163381411Y-147889566D01*
X163280072Y-148041231D01*
X163151091Y-148170212D01*
X162999426Y-148271551D01*
X162830904Y-148341355D01*
X162652003Y-148376940D01*
X162469597Y-148376940D01*
X162290696Y-148341355D01*
X162122174Y-148271551D01*
X161970509Y-148170212D01*
X161841528Y-148041231D01*
X161740189Y-147889566D01*
X161670385Y-147721044D01*
X161634800Y-147542143D01*
X161634800Y-147359737D01*
X161670385Y-147180836D01*
X161740189Y-147012314D01*
X161841528Y-146860649D01*
X161970509Y-146731668D01*
X162122174Y-146630329D01*
X162290696Y-146560525D01*
X162469597Y-146524940D01*
X162652003Y-146524940D01*
X162830904Y-146560525D01*
X162830904Y-146560525D01*
G37*
G36*
X176154564Y-133885389D02*
G01*
X176345833Y-133964615D01*
X176345835Y-133964616D01*
X176517973Y-134079635D01*
X176664365Y-134226027D01*
X176779385Y-134398167D01*
X176858611Y-134589436D01*
X176899000Y-134792484D01*
X176899000Y-134999516D01*
X176858611Y-135202564D01*
X176779385Y-135393833D01*
X176779384Y-135393835D01*
X176664365Y-135565973D01*
X176517973Y-135712365D01*
X176345835Y-135827384D01*
X176345834Y-135827385D01*
X176345833Y-135827385D01*
X176154564Y-135906611D01*
X175951516Y-135947000D01*
X175744484Y-135947000D01*
X175541436Y-135906611D01*
X175350167Y-135827385D01*
X175350166Y-135827385D01*
X175350165Y-135827384D01*
X175178027Y-135712365D01*
X175031635Y-135565973D01*
X174916616Y-135393835D01*
X174916615Y-135393833D01*
X174837389Y-135202564D01*
X174797000Y-134999516D01*
X174797000Y-134792484D01*
X174837389Y-134589436D01*
X174916615Y-134398167D01*
X175031635Y-134226027D01*
X175178027Y-134079635D01*
X175350165Y-133964616D01*
X175350167Y-133964615D01*
X175541436Y-133885389D01*
X175744484Y-133845000D01*
X175951516Y-133845000D01*
X176154564Y-133885389D01*
X176154564Y-133885389D01*
G37*
G36*
X181154564Y-133885389D02*
G01*
X181345833Y-133964615D01*
X181345835Y-133964616D01*
X181517973Y-134079635D01*
X181664365Y-134226027D01*
X181779385Y-134398167D01*
X181858611Y-134589436D01*
X181899000Y-134792484D01*
X181899000Y-134999516D01*
X181858611Y-135202564D01*
X181779385Y-135393833D01*
X181779384Y-135393835D01*
X181664365Y-135565973D01*
X181517973Y-135712365D01*
X181345835Y-135827384D01*
X181345834Y-135827385D01*
X181345833Y-135827385D01*
X181154564Y-135906611D01*
X180951516Y-135947000D01*
X180744484Y-135947000D01*
X180541436Y-135906611D01*
X180350167Y-135827385D01*
X180350166Y-135827385D01*
X180350165Y-135827384D01*
X180178027Y-135712365D01*
X180031635Y-135565973D01*
X179916616Y-135393835D01*
X179916615Y-135393833D01*
X179837389Y-135202564D01*
X179797000Y-134999516D01*
X179797000Y-134792484D01*
X179837389Y-134589436D01*
X179916615Y-134398167D01*
X180031635Y-134226027D01*
X180178027Y-134079635D01*
X180350165Y-133964616D01*
X180350167Y-133964615D01*
X180541436Y-133885389D01*
X180744484Y-133845000D01*
X180951516Y-133845000D01*
X181154564Y-133885389D01*
X181154564Y-133885389D01*
G37*
G36*
X158077274Y-126434624D02*
G01*
X158295274Y-126524923D01*
X158449423Y-126588773D01*
X158784348Y-126812563D01*
X159069177Y-127097392D01*
X159292967Y-127432317D01*
X159325362Y-127510526D01*
X159447116Y-127804466D01*
X159525700Y-128199534D01*
X159525700Y-128602346D01*
X159447116Y-128997414D01*
X159396251Y-129120212D01*
X159292967Y-129369563D01*
X159069177Y-129704488D01*
X158784348Y-129989317D01*
X158449423Y-130213107D01*
X158295274Y-130276957D01*
X158077274Y-130367256D01*
X157682206Y-130445840D01*
X157279394Y-130445840D01*
X156884326Y-130367256D01*
X156666326Y-130276957D01*
X156512177Y-130213107D01*
X156177252Y-129989317D01*
X155892423Y-129704488D01*
X155668633Y-129369563D01*
X155565349Y-129120212D01*
X155514484Y-128997414D01*
X155435900Y-128602346D01*
X155435900Y-128199534D01*
X155514484Y-127804466D01*
X155636238Y-127510526D01*
X155668633Y-127432317D01*
X155892423Y-127097392D01*
X156177252Y-126812563D01*
X156512177Y-126588773D01*
X156666326Y-126524923D01*
X156884326Y-126434624D01*
X157279394Y-126356040D01*
X157682206Y-126356040D01*
X158077274Y-126434624D01*
X158077274Y-126434624D01*
G37*
G36*
X184999000Y-129547000D02*
G01*
X182897000Y-129547000D01*
X182897000Y-126245000D01*
X184999000Y-126245000D01*
X184999000Y-129547000D01*
X184999000Y-129547000D01*
G37*
G36*
X173799000Y-129547000D02*
G01*
X171697000Y-129547000D01*
X171697000Y-126245000D01*
X173799000Y-126245000D01*
X173799000Y-129547000D01*
X173799000Y-129547000D01*
G37*
G36*
X152670904Y-127510525D02*
G01*
X152839426Y-127580329D01*
X152991091Y-127681668D01*
X153120072Y-127810649D01*
X153221411Y-127962314D01*
X153291215Y-128130836D01*
X153326800Y-128309737D01*
X153326800Y-128492143D01*
X153291215Y-128671044D01*
X153221411Y-128839566D01*
X153120072Y-128991231D01*
X152991091Y-129120212D01*
X152839426Y-129221551D01*
X152670904Y-129291355D01*
X152492003Y-129326940D01*
X152309597Y-129326940D01*
X152130696Y-129291355D01*
X151962174Y-129221551D01*
X151810509Y-129120212D01*
X151681528Y-128991231D01*
X151580189Y-128839566D01*
X151510385Y-128671044D01*
X151474800Y-128492143D01*
X151474800Y-128309737D01*
X151510385Y-128130836D01*
X151580189Y-127962314D01*
X151681528Y-127810649D01*
X151810509Y-127681668D01*
X151962174Y-127580329D01*
X152130696Y-127510525D01*
X152309597Y-127474940D01*
X152492003Y-127474940D01*
X152670904Y-127510525D01*
X152670904Y-127510525D01*
G37*
G36*
X162830904Y-127510525D02*
G01*
X162999426Y-127580329D01*
X163151091Y-127681668D01*
X163280072Y-127810649D01*
X163381411Y-127962314D01*
X163451215Y-128130836D01*
X163486800Y-128309737D01*
X163486800Y-128492143D01*
X163451215Y-128671044D01*
X163381411Y-128839566D01*
X163280072Y-128991231D01*
X163151091Y-129120212D01*
X162999426Y-129221551D01*
X162830904Y-129291355D01*
X162652003Y-129326940D01*
X162469597Y-129326940D01*
X162290696Y-129291355D01*
X162122174Y-129221551D01*
X161970509Y-129120212D01*
X161841528Y-128991231D01*
X161740189Y-128839566D01*
X161670385Y-128671044D01*
X161634800Y-128492143D01*
X161634800Y-128309737D01*
X161670385Y-128130836D01*
X161740189Y-127962314D01*
X161841528Y-127810649D01*
X161970509Y-127681668D01*
X162122174Y-127580329D01*
X162290696Y-127510525D01*
X162469597Y-127474940D01*
X162652003Y-127474940D01*
X162830904Y-127510525D01*
X162830904Y-127510525D01*
G37*
G36*
X214559741Y-118950241D02*
G01*
X214777741Y-119040540D01*
X214931890Y-119104390D01*
X215266815Y-119328180D01*
X215551644Y-119613009D01*
X215775434Y-119947934D01*
X215808332Y-120027357D01*
X215929583Y-120320083D01*
X216008167Y-120715151D01*
X216008167Y-121117963D01*
X215929583Y-121513031D01*
X215882435Y-121626856D01*
X215775434Y-121885180D01*
X215551644Y-122220105D01*
X215266815Y-122504934D01*
X214931890Y-122728724D01*
X214777741Y-122792574D01*
X214559741Y-122882873D01*
X214164673Y-122961457D01*
X213761861Y-122961457D01*
X213366793Y-122882873D01*
X213148793Y-122792574D01*
X212994644Y-122728724D01*
X212659719Y-122504934D01*
X212374890Y-122220105D01*
X212151100Y-121885180D01*
X212044099Y-121626856D01*
X211996951Y-121513031D01*
X211918367Y-121117963D01*
X211918367Y-120715151D01*
X211996951Y-120320083D01*
X212118202Y-120027357D01*
X212151100Y-119947934D01*
X212374890Y-119613009D01*
X212659719Y-119328180D01*
X212994644Y-119104390D01*
X213148793Y-119040540D01*
X213366793Y-118950241D01*
X213761861Y-118871657D01*
X214164673Y-118871657D01*
X214559741Y-118950241D01*
X214559741Y-118950241D01*
G37*
G36*
X101595576Y-118944455D02*
G01*
X101813576Y-119034754D01*
X101967725Y-119098604D01*
X102302650Y-119322394D01*
X102587479Y-119607223D01*
X102811269Y-119942148D01*
X102872277Y-120089435D01*
X102965418Y-120314297D01*
X103044002Y-120709365D01*
X103044002Y-121112177D01*
X102965418Y-121507245D01*
X102918270Y-121621070D01*
X102811269Y-121879394D01*
X102587479Y-122214319D01*
X102302650Y-122499148D01*
X101967725Y-122722938D01*
X101813576Y-122786788D01*
X101595576Y-122877087D01*
X101200508Y-122955671D01*
X100797696Y-122955671D01*
X100402628Y-122877087D01*
X100184628Y-122786788D01*
X100030479Y-122722938D01*
X99695554Y-122499148D01*
X99410725Y-122214319D01*
X99186935Y-121879394D01*
X99079934Y-121621070D01*
X99032786Y-121507245D01*
X98954202Y-121112177D01*
X98954202Y-120709365D01*
X99032786Y-120314297D01*
X99125927Y-120089435D01*
X99186935Y-119942148D01*
X99410725Y-119607223D01*
X99695554Y-119322394D01*
X100030479Y-119098604D01*
X100184628Y-119034754D01*
X100402628Y-118944455D01*
X100797696Y-118865871D01*
X101200508Y-118865871D01*
X101595576Y-118944455D01*
X101595576Y-118944455D01*
G37*
G36*
X209191237Y-120645238D02*
G01*
X209359759Y-120715042D01*
X209511424Y-120816381D01*
X209640405Y-120945362D01*
X209741744Y-121097027D01*
X209811548Y-121265549D01*
X209847133Y-121444450D01*
X209847133Y-121626856D01*
X209811548Y-121805757D01*
X209741744Y-121974279D01*
X209640405Y-122125944D01*
X209511424Y-122254925D01*
X209359759Y-122356264D01*
X209191237Y-122426068D01*
X209012336Y-122461653D01*
X208829930Y-122461653D01*
X208651029Y-122426068D01*
X208482507Y-122356264D01*
X208330842Y-122254925D01*
X208201861Y-122125944D01*
X208100522Y-121974279D01*
X208030718Y-121805757D01*
X207995133Y-121626856D01*
X207995133Y-121444450D01*
X208030718Y-121265549D01*
X208100522Y-121097027D01*
X208201861Y-120945362D01*
X208330842Y-120816381D01*
X208482507Y-120715042D01*
X208651029Y-120645238D01*
X208829930Y-120609653D01*
X209012336Y-120609653D01*
X209191237Y-120645238D01*
X209191237Y-120645238D01*
G37*
G36*
X106311340Y-120639452D02*
G01*
X106479862Y-120709256D01*
X106631527Y-120810595D01*
X106760508Y-120939576D01*
X106861847Y-121091241D01*
X106931651Y-121259763D01*
X106967236Y-121438664D01*
X106967236Y-121621070D01*
X106931651Y-121799971D01*
X106861847Y-121968493D01*
X106760508Y-122120158D01*
X106631527Y-122249139D01*
X106479862Y-122350478D01*
X106311340Y-122420282D01*
X106132439Y-122455867D01*
X105950033Y-122455867D01*
X105771132Y-122420282D01*
X105602610Y-122350478D01*
X105450945Y-122249139D01*
X105321964Y-122120158D01*
X105220625Y-121968493D01*
X105150821Y-121799971D01*
X105115236Y-121621070D01*
X105115236Y-121438664D01*
X105150821Y-121259763D01*
X105220625Y-121091241D01*
X105321964Y-120939576D01*
X105450945Y-120810595D01*
X105602610Y-120709256D01*
X105771132Y-120639452D01*
X105950033Y-120603867D01*
X106132439Y-120603867D01*
X106311340Y-120639452D01*
X106311340Y-120639452D01*
G37*
G36*
X176154564Y-119385389D02*
G01*
X176345833Y-119464615D01*
X176345835Y-119464616D01*
X176517973Y-119579635D01*
X176664365Y-119726027D01*
X176775738Y-119892708D01*
X176779385Y-119898167D01*
X176858611Y-120089436D01*
X176899000Y-120292484D01*
X176899000Y-120499516D01*
X176858611Y-120702564D01*
X176811466Y-120816382D01*
X176779384Y-120893835D01*
X176664365Y-121065973D01*
X176517973Y-121212365D01*
X176345835Y-121327384D01*
X176345834Y-121327385D01*
X176345833Y-121327385D01*
X176154564Y-121406611D01*
X175951516Y-121447000D01*
X175744484Y-121447000D01*
X175541436Y-121406611D01*
X175350167Y-121327385D01*
X175350166Y-121327385D01*
X175350165Y-121327384D01*
X175178027Y-121212365D01*
X175031635Y-121065973D01*
X174916616Y-120893835D01*
X174884534Y-120816382D01*
X174837389Y-120702564D01*
X174797000Y-120499516D01*
X174797000Y-120292484D01*
X174837389Y-120089436D01*
X174916615Y-119898167D01*
X174920263Y-119892708D01*
X175031635Y-119726027D01*
X175178027Y-119579635D01*
X175350165Y-119464616D01*
X175350167Y-119464615D01*
X175541436Y-119385389D01*
X175744484Y-119345000D01*
X175951516Y-119345000D01*
X176154564Y-119385389D01*
X176154564Y-119385389D01*
G37*
G36*
X178654564Y-119385389D02*
G01*
X178845833Y-119464615D01*
X178845835Y-119464616D01*
X179017973Y-119579635D01*
X179164365Y-119726027D01*
X179275738Y-119892708D01*
X179279385Y-119898167D01*
X179358611Y-120089436D01*
X179399000Y-120292484D01*
X179399000Y-120499516D01*
X179358611Y-120702564D01*
X179311466Y-120816382D01*
X179279384Y-120893835D01*
X179164365Y-121065973D01*
X179017973Y-121212365D01*
X178845835Y-121327384D01*
X178845834Y-121327385D01*
X178845833Y-121327385D01*
X178654564Y-121406611D01*
X178451516Y-121447000D01*
X178244484Y-121447000D01*
X178041436Y-121406611D01*
X177850167Y-121327385D01*
X177850166Y-121327385D01*
X177850165Y-121327384D01*
X177678027Y-121212365D01*
X177531635Y-121065973D01*
X177416616Y-120893835D01*
X177384534Y-120816382D01*
X177337389Y-120702564D01*
X177297000Y-120499516D01*
X177297000Y-120292484D01*
X177337389Y-120089436D01*
X177416615Y-119898167D01*
X177420263Y-119892708D01*
X177531635Y-119726027D01*
X177678027Y-119579635D01*
X177850165Y-119464616D01*
X177850167Y-119464615D01*
X178041436Y-119385389D01*
X178244484Y-119345000D01*
X178451516Y-119345000D01*
X178654564Y-119385389D01*
X178654564Y-119385389D01*
G37*
G36*
X181899000Y-121447000D02*
G01*
X179797000Y-121447000D01*
X179797000Y-119345000D01*
X181899000Y-119345000D01*
X181899000Y-121447000D01*
X181899000Y-121447000D01*
G37*
G36*
X219275505Y-119407046D02*
G01*
X219444027Y-119476850D01*
X219595692Y-119578189D01*
X219724673Y-119707170D01*
X219826012Y-119858835D01*
X219895816Y-120027357D01*
X219931401Y-120206258D01*
X219931401Y-120388664D01*
X219895816Y-120567565D01*
X219826012Y-120736087D01*
X219724673Y-120887752D01*
X219595692Y-121016733D01*
X219444027Y-121118072D01*
X219275505Y-121187876D01*
X219096604Y-121223461D01*
X218914198Y-121223461D01*
X218735297Y-121187876D01*
X218566775Y-121118072D01*
X218415110Y-121016733D01*
X218286129Y-120887752D01*
X218184790Y-120736087D01*
X218114986Y-120567565D01*
X218079401Y-120388664D01*
X218079401Y-120206258D01*
X218114986Y-120027357D01*
X218184790Y-119858835D01*
X218286129Y-119707170D01*
X218415110Y-119578189D01*
X218566775Y-119476850D01*
X218735297Y-119407046D01*
X218914198Y-119371461D01*
X219096604Y-119371461D01*
X219275505Y-119407046D01*
X219275505Y-119407046D01*
G37*
G36*
X96227072Y-119401260D02*
G01*
X96395594Y-119471064D01*
X96547259Y-119572403D01*
X96676240Y-119701384D01*
X96777579Y-119853049D01*
X96847383Y-120021571D01*
X96882968Y-120200472D01*
X96882968Y-120382878D01*
X96847383Y-120561779D01*
X96777579Y-120730301D01*
X96676240Y-120881966D01*
X96547259Y-121010947D01*
X96395594Y-121112286D01*
X96227072Y-121182090D01*
X96048171Y-121217675D01*
X95865765Y-121217675D01*
X95686864Y-121182090D01*
X95518342Y-121112286D01*
X95366677Y-121010947D01*
X95237696Y-120881966D01*
X95136357Y-120730301D01*
X95066553Y-120561779D01*
X95030968Y-120382878D01*
X95030968Y-120200472D01*
X95066553Y-120021571D01*
X95136357Y-119853049D01*
X95237696Y-119701384D01*
X95366677Y-119572403D01*
X95518342Y-119471064D01*
X95686864Y-119401260D01*
X95865765Y-119365675D01*
X96048171Y-119365675D01*
X96227072Y-119401260D01*
X96227072Y-119401260D01*
G37*
G36*
X233467745Y-116628630D02*
G01*
X233685745Y-116718929D01*
X233839894Y-116782779D01*
X234174819Y-117006569D01*
X234459648Y-117291398D01*
X234683438Y-117626323D01*
X234716336Y-117705746D01*
X234837587Y-117998472D01*
X234916171Y-118393540D01*
X234916171Y-118796352D01*
X234837587Y-119191420D01*
X234780939Y-119328180D01*
X234683438Y-119563569D01*
X234459648Y-119898494D01*
X234174819Y-120183323D01*
X233839894Y-120407113D01*
X233685745Y-120470963D01*
X233467745Y-120561262D01*
X233072677Y-120639846D01*
X232669865Y-120639846D01*
X232274797Y-120561262D01*
X232056797Y-120470963D01*
X231902648Y-120407113D01*
X231567723Y-120183323D01*
X231282894Y-119898494D01*
X231059104Y-119563569D01*
X230961603Y-119328180D01*
X230904955Y-119191420D01*
X230826371Y-118796352D01*
X230826371Y-118393540D01*
X230904955Y-117998472D01*
X231026206Y-117705746D01*
X231059104Y-117626323D01*
X231282894Y-117291398D01*
X231567723Y-117006569D01*
X231902648Y-116782779D01*
X232056797Y-116718929D01*
X232274797Y-116628630D01*
X232669865Y-116550046D01*
X233072677Y-116550046D01*
X233467745Y-116628630D01*
X233467745Y-116628630D01*
G37*
G36*
X82687571Y-116622844D02*
G01*
X82905571Y-116713143D01*
X83059720Y-116776993D01*
X83394645Y-117000783D01*
X83679474Y-117285612D01*
X83903264Y-117620537D01*
X83967114Y-117774686D01*
X84057413Y-117992686D01*
X84135997Y-118387754D01*
X84135997Y-118790566D01*
X84057413Y-119185634D01*
X84010265Y-119299459D01*
X83903264Y-119557783D01*
X83679474Y-119892708D01*
X83394645Y-120177537D01*
X83059720Y-120401327D01*
X82905571Y-120465177D01*
X82687571Y-120555476D01*
X82292503Y-120634060D01*
X81889691Y-120634060D01*
X81494623Y-120555476D01*
X81276623Y-120465177D01*
X81122474Y-120401327D01*
X80787549Y-120177537D01*
X80502720Y-119892708D01*
X80278930Y-119557783D01*
X80171929Y-119299459D01*
X80124781Y-119185634D01*
X80046197Y-118790566D01*
X80046197Y-118387754D01*
X80124781Y-117992686D01*
X80215080Y-117774686D01*
X80278930Y-117620537D01*
X80502720Y-117285612D01*
X80787549Y-117000783D01*
X81122474Y-116776993D01*
X81276623Y-116713143D01*
X81494623Y-116622844D01*
X81889691Y-116544260D01*
X82292503Y-116544260D01*
X82687571Y-116622844D01*
X82687571Y-116622844D01*
G37*
G36*
X228099241Y-118323627D02*
G01*
X228267763Y-118393431D01*
X228419428Y-118494770D01*
X228548409Y-118623751D01*
X228649748Y-118775416D01*
X228719552Y-118943938D01*
X228755137Y-119122839D01*
X228755137Y-119305245D01*
X228719552Y-119484146D01*
X228649748Y-119652668D01*
X228548409Y-119804333D01*
X228419428Y-119933314D01*
X228267763Y-120034653D01*
X228099241Y-120104457D01*
X227920340Y-120140042D01*
X227737934Y-120140042D01*
X227559033Y-120104457D01*
X227390511Y-120034653D01*
X227238846Y-119933314D01*
X227109865Y-119804333D01*
X227008526Y-119652668D01*
X226938722Y-119484146D01*
X226903137Y-119305245D01*
X226903137Y-119122839D01*
X226938722Y-118943938D01*
X227008526Y-118775416D01*
X227109865Y-118623751D01*
X227238846Y-118494770D01*
X227390511Y-118393431D01*
X227559033Y-118323627D01*
X227737934Y-118288042D01*
X227920340Y-118288042D01*
X228099241Y-118323627D01*
X228099241Y-118323627D01*
G37*
G36*
X87403335Y-118317841D02*
G01*
X87571857Y-118387645D01*
X87723522Y-118488984D01*
X87852503Y-118617965D01*
X87953842Y-118769630D01*
X88023646Y-118938152D01*
X88059231Y-119117053D01*
X88059231Y-119299459D01*
X88023646Y-119478360D01*
X87953842Y-119646882D01*
X87852503Y-119798547D01*
X87723522Y-119927528D01*
X87571857Y-120028867D01*
X87403335Y-120098671D01*
X87224434Y-120134256D01*
X87042028Y-120134256D01*
X86863127Y-120098671D01*
X86694605Y-120028867D01*
X86542940Y-119927528D01*
X86413959Y-119798547D01*
X86312620Y-119646882D01*
X86242816Y-119478360D01*
X86207231Y-119299459D01*
X86207231Y-119117053D01*
X86242816Y-118938152D01*
X86312620Y-118769630D01*
X86413959Y-118617965D01*
X86542940Y-118488984D01*
X86694605Y-118387645D01*
X86863127Y-118317841D01*
X87042028Y-118282256D01*
X87224434Y-118282256D01*
X87403335Y-118317841D01*
X87403335Y-118317841D01*
G37*
G36*
X238183509Y-117085435D02*
G01*
X238352031Y-117155239D01*
X238503696Y-117256578D01*
X238632677Y-117385559D01*
X238734016Y-117537224D01*
X238803820Y-117705746D01*
X238839405Y-117884647D01*
X238839405Y-118067053D01*
X238803820Y-118245954D01*
X238734016Y-118414476D01*
X238632677Y-118566141D01*
X238503696Y-118695122D01*
X238352031Y-118796461D01*
X238183509Y-118866265D01*
X238004608Y-118901850D01*
X237822202Y-118901850D01*
X237643301Y-118866265D01*
X237474779Y-118796461D01*
X237323114Y-118695122D01*
X237194133Y-118566141D01*
X237092794Y-118414476D01*
X237022990Y-118245954D01*
X236987405Y-118067053D01*
X236987405Y-117884647D01*
X237022990Y-117705746D01*
X237092794Y-117537224D01*
X237194133Y-117385559D01*
X237323114Y-117256578D01*
X237474779Y-117155239D01*
X237643301Y-117085435D01*
X237822202Y-117049850D01*
X238004608Y-117049850D01*
X238183509Y-117085435D01*
X238183509Y-117085435D01*
G37*
G36*
X77319067Y-117079649D02*
G01*
X77487589Y-117149453D01*
X77639254Y-117250792D01*
X77768235Y-117379773D01*
X77869574Y-117531438D01*
X77939378Y-117699960D01*
X77974963Y-117878861D01*
X77974963Y-118061267D01*
X77939378Y-118240168D01*
X77869574Y-118408690D01*
X77768235Y-118560355D01*
X77639254Y-118689336D01*
X77487589Y-118790675D01*
X77319067Y-118860479D01*
X77140166Y-118896064D01*
X76957760Y-118896064D01*
X76778859Y-118860479D01*
X76610337Y-118790675D01*
X76458672Y-118689336D01*
X76329691Y-118560355D01*
X76228352Y-118408690D01*
X76158548Y-118240168D01*
X76122963Y-118061267D01*
X76122963Y-117878861D01*
X76158548Y-117699960D01*
X76228352Y-117531438D01*
X76329691Y-117379773D01*
X76458672Y-117250792D01*
X76610337Y-117149453D01*
X76778859Y-117079649D01*
X76957760Y-117044064D01*
X77140166Y-117044064D01*
X77319067Y-117079649D01*
X77319067Y-117079649D01*
G37*
G36*
X252375750Y-114307019D02*
G01*
X252593750Y-114397318D01*
X252747899Y-114461168D01*
X253082824Y-114684958D01*
X253367653Y-114969787D01*
X253591443Y-115304712D01*
X253624341Y-115384135D01*
X253745592Y-115676861D01*
X253824176Y-116071929D01*
X253824176Y-116474741D01*
X253745592Y-116869809D01*
X253688944Y-117006569D01*
X253591443Y-117241958D01*
X253367653Y-117576883D01*
X253082824Y-117861712D01*
X252747899Y-118085502D01*
X252593750Y-118149352D01*
X252375750Y-118239651D01*
X251980682Y-118318235D01*
X251577870Y-118318235D01*
X251182802Y-118239651D01*
X250964802Y-118149352D01*
X250810653Y-118085502D01*
X250475728Y-117861712D01*
X250190899Y-117576883D01*
X249967109Y-117241958D01*
X249869608Y-117006569D01*
X249812960Y-116869809D01*
X249734376Y-116474741D01*
X249734376Y-116071929D01*
X249812960Y-115676861D01*
X249934211Y-115384135D01*
X249967109Y-115304712D01*
X250190899Y-114969787D01*
X250475728Y-114684958D01*
X250810653Y-114461168D01*
X250964802Y-114397318D01*
X251182802Y-114307019D01*
X251577870Y-114228435D01*
X251980682Y-114228435D01*
X252375750Y-114307019D01*
X252375750Y-114307019D01*
G37*
G36*
X63779567Y-114301233D02*
G01*
X63997567Y-114391532D01*
X64151716Y-114455382D01*
X64486641Y-114679172D01*
X64771470Y-114964001D01*
X64995260Y-115298926D01*
X65059110Y-115453075D01*
X65149409Y-115671075D01*
X65227993Y-116066143D01*
X65227993Y-116468955D01*
X65149409Y-116864023D01*
X65102261Y-116977848D01*
X64995260Y-117236172D01*
X64771470Y-117571097D01*
X64486641Y-117855926D01*
X64151716Y-118079716D01*
X63997567Y-118143566D01*
X63779567Y-118233865D01*
X63384499Y-118312449D01*
X62981687Y-118312449D01*
X62586619Y-118233865D01*
X62368619Y-118143566D01*
X62214470Y-118079716D01*
X61879545Y-117855926D01*
X61594716Y-117571097D01*
X61370926Y-117236172D01*
X61263925Y-116977848D01*
X61216777Y-116864023D01*
X61138193Y-116468955D01*
X61138193Y-116066143D01*
X61216777Y-115671075D01*
X61307076Y-115453075D01*
X61370926Y-115298926D01*
X61594716Y-114964001D01*
X61879545Y-114679172D01*
X62214470Y-114455382D01*
X62368619Y-114391532D01*
X62586619Y-114301233D01*
X62981687Y-114222649D01*
X63384499Y-114222649D01*
X63779567Y-114301233D01*
X63779567Y-114301233D01*
G37*
G36*
X247007246Y-116002016D02*
G01*
X247175768Y-116071820D01*
X247327433Y-116173159D01*
X247456414Y-116302140D01*
X247557753Y-116453805D01*
X247627557Y-116622327D01*
X247663142Y-116801228D01*
X247663142Y-116983634D01*
X247627557Y-117162535D01*
X247557753Y-117331057D01*
X247456414Y-117482722D01*
X247327433Y-117611703D01*
X247175768Y-117713042D01*
X247007246Y-117782846D01*
X246828345Y-117818431D01*
X246645939Y-117818431D01*
X246467038Y-117782846D01*
X246298516Y-117713042D01*
X246146851Y-117611703D01*
X246017870Y-117482722D01*
X245916531Y-117331057D01*
X245846727Y-117162535D01*
X245811142Y-116983634D01*
X245811142Y-116801228D01*
X245846727Y-116622327D01*
X245916531Y-116453805D01*
X246017870Y-116302140D01*
X246146851Y-116173159D01*
X246298516Y-116071820D01*
X246467038Y-116002016D01*
X246645939Y-115966431D01*
X246828345Y-115966431D01*
X247007246Y-116002016D01*
X247007246Y-116002016D01*
G37*
G36*
X68495331Y-115996230D02*
G01*
X68663853Y-116066034D01*
X68815518Y-116167373D01*
X68944499Y-116296354D01*
X69045838Y-116448019D01*
X69115642Y-116616541D01*
X69151227Y-116795442D01*
X69151227Y-116977848D01*
X69115642Y-117156749D01*
X69045838Y-117325271D01*
X68944499Y-117476936D01*
X68815518Y-117605917D01*
X68663853Y-117707256D01*
X68495331Y-117777060D01*
X68316430Y-117812645D01*
X68134024Y-117812645D01*
X67955123Y-117777060D01*
X67786601Y-117707256D01*
X67634936Y-117605917D01*
X67505955Y-117476936D01*
X67404616Y-117325271D01*
X67334812Y-117156749D01*
X67299227Y-116977848D01*
X67299227Y-116795442D01*
X67334812Y-116616541D01*
X67404616Y-116448019D01*
X67505955Y-116296354D01*
X67634936Y-116167373D01*
X67786601Y-116066034D01*
X67955123Y-115996230D01*
X68134024Y-115960645D01*
X68316430Y-115960645D01*
X68495331Y-115996230D01*
X68495331Y-115996230D01*
G37*
G36*
X257091514Y-114763824D02*
G01*
X257260036Y-114833628D01*
X257411701Y-114934967D01*
X257540682Y-115063948D01*
X257642021Y-115215613D01*
X257711825Y-115384135D01*
X257747410Y-115563036D01*
X257747410Y-115745442D01*
X257711825Y-115924343D01*
X257642021Y-116092865D01*
X257540682Y-116244530D01*
X257411701Y-116373511D01*
X257260036Y-116474850D01*
X257091514Y-116544654D01*
X256912613Y-116580239D01*
X256730207Y-116580239D01*
X256551306Y-116544654D01*
X256382784Y-116474850D01*
X256231119Y-116373511D01*
X256102138Y-116244530D01*
X256000799Y-116092865D01*
X255930995Y-115924343D01*
X255895410Y-115745442D01*
X255895410Y-115563036D01*
X255930995Y-115384135D01*
X256000799Y-115215613D01*
X256102138Y-115063948D01*
X256231119Y-114934967D01*
X256382784Y-114833628D01*
X256551306Y-114763824D01*
X256730207Y-114728239D01*
X256912613Y-114728239D01*
X257091514Y-114763824D01*
X257091514Y-114763824D01*
G37*
G36*
X58411063Y-114758038D02*
G01*
X58579585Y-114827842D01*
X58731250Y-114929181D01*
X58860231Y-115058162D01*
X58961570Y-115209827D01*
X59031374Y-115378349D01*
X59066959Y-115557250D01*
X59066959Y-115739656D01*
X59031374Y-115918557D01*
X58961570Y-116087079D01*
X58860231Y-116238744D01*
X58731250Y-116367725D01*
X58579585Y-116469064D01*
X58411063Y-116538868D01*
X58232162Y-116574453D01*
X58049756Y-116574453D01*
X57870855Y-116538868D01*
X57702333Y-116469064D01*
X57550668Y-116367725D01*
X57421687Y-116238744D01*
X57320348Y-116087079D01*
X57250544Y-115918557D01*
X57214959Y-115739656D01*
X57214959Y-115557250D01*
X57250544Y-115378349D01*
X57320348Y-115209827D01*
X57421687Y-115058162D01*
X57550668Y-114929181D01*
X57702333Y-114827842D01*
X57870855Y-114758038D01*
X58049756Y-114722453D01*
X58232162Y-114722453D01*
X58411063Y-114758038D01*
X58411063Y-114758038D01*
G37*
G36*
X271283754Y-111985408D02*
G01*
X271501754Y-112075707D01*
X271655903Y-112139557D01*
X271990828Y-112363347D01*
X272275657Y-112648176D01*
X272499447Y-112983101D01*
X272532345Y-113062524D01*
X272653596Y-113355250D01*
X272732180Y-113750318D01*
X272732180Y-114153130D01*
X272653596Y-114548198D01*
X272596948Y-114684958D01*
X272499447Y-114920347D01*
X272275657Y-115255272D01*
X271990828Y-115540101D01*
X271655903Y-115763891D01*
X271501754Y-115827741D01*
X271283754Y-115918040D01*
X270888686Y-115996624D01*
X270485874Y-115996624D01*
X270090806Y-115918040D01*
X269872806Y-115827741D01*
X269718657Y-115763891D01*
X269383732Y-115540101D01*
X269098903Y-115255272D01*
X268875113Y-114920347D01*
X268777612Y-114684958D01*
X268720964Y-114548198D01*
X268642380Y-114153130D01*
X268642380Y-113750318D01*
X268720964Y-113355250D01*
X268842215Y-113062524D01*
X268875113Y-112983101D01*
X269098903Y-112648176D01*
X269383732Y-112363347D01*
X269718657Y-112139557D01*
X269872806Y-112075707D01*
X270090806Y-111985408D01*
X270485874Y-111906824D01*
X270888686Y-111906824D01*
X271283754Y-111985408D01*
X271283754Y-111985408D01*
G37*
G36*
X44871563Y-111979622D02*
G01*
X45089563Y-112069921D01*
X45243712Y-112133771D01*
X45578637Y-112357561D01*
X45863466Y-112642390D01*
X46087256Y-112977315D01*
X46151106Y-113131464D01*
X46241405Y-113349464D01*
X46319989Y-113744532D01*
X46319989Y-114147344D01*
X46241405Y-114542412D01*
X46194257Y-114656237D01*
X46087256Y-114914561D01*
X45863466Y-115249486D01*
X45578637Y-115534315D01*
X45243712Y-115758105D01*
X45089563Y-115821955D01*
X44871563Y-115912254D01*
X44476495Y-115990838D01*
X44073683Y-115990838D01*
X43678615Y-115912254D01*
X43460615Y-115821955D01*
X43306466Y-115758105D01*
X42971541Y-115534315D01*
X42686712Y-115249486D01*
X42462922Y-114914561D01*
X42355921Y-114656237D01*
X42308773Y-114542412D01*
X42230189Y-114147344D01*
X42230189Y-113744532D01*
X42308773Y-113349464D01*
X42399072Y-113131464D01*
X42462922Y-112977315D01*
X42686712Y-112642390D01*
X42971541Y-112357561D01*
X43306466Y-112133771D01*
X43460615Y-112069921D01*
X43678615Y-111979622D01*
X44073683Y-111901038D01*
X44476495Y-111901038D01*
X44871563Y-111979622D01*
X44871563Y-111979622D01*
G37*
G36*
X265915250Y-113680405D02*
G01*
X266083772Y-113750209D01*
X266235437Y-113851548D01*
X266364418Y-113980529D01*
X266465757Y-114132194D01*
X266535561Y-114300716D01*
X266571146Y-114479617D01*
X266571146Y-114662023D01*
X266535561Y-114840924D01*
X266465757Y-115009446D01*
X266364418Y-115161111D01*
X266235437Y-115290092D01*
X266083772Y-115391431D01*
X265915250Y-115461235D01*
X265736349Y-115496820D01*
X265553943Y-115496820D01*
X265375042Y-115461235D01*
X265206520Y-115391431D01*
X265054855Y-115290092D01*
X264925874Y-115161111D01*
X264824535Y-115009446D01*
X264754731Y-114840924D01*
X264719146Y-114662023D01*
X264719146Y-114479617D01*
X264754731Y-114300716D01*
X264824535Y-114132194D01*
X264925874Y-113980529D01*
X265054855Y-113851548D01*
X265206520Y-113750209D01*
X265375042Y-113680405D01*
X265553943Y-113644820D01*
X265736349Y-113644820D01*
X265915250Y-113680405D01*
X265915250Y-113680405D01*
G37*
G36*
X49587327Y-113674619D02*
G01*
X49755849Y-113744423D01*
X49907514Y-113845762D01*
X50036495Y-113974743D01*
X50137834Y-114126408D01*
X50207638Y-114294930D01*
X50243223Y-114473831D01*
X50243223Y-114656237D01*
X50207638Y-114835138D01*
X50137834Y-115003660D01*
X50036495Y-115155325D01*
X49907514Y-115284306D01*
X49755849Y-115385645D01*
X49587327Y-115455449D01*
X49408426Y-115491034D01*
X49226020Y-115491034D01*
X49047119Y-115455449D01*
X48878597Y-115385645D01*
X48726932Y-115284306D01*
X48597951Y-115155325D01*
X48496612Y-115003660D01*
X48426808Y-114835138D01*
X48391223Y-114656237D01*
X48391223Y-114473831D01*
X48426808Y-114294930D01*
X48496612Y-114126408D01*
X48597951Y-113974743D01*
X48726932Y-113845762D01*
X48878597Y-113744423D01*
X49047119Y-113674619D01*
X49226020Y-113639034D01*
X49408426Y-113639034D01*
X49587327Y-113674619D01*
X49587327Y-113674619D01*
G37*
G36*
X275999518Y-112442213D02*
G01*
X276168040Y-112512017D01*
X276319705Y-112613356D01*
X276448686Y-112742337D01*
X276550025Y-112894002D01*
X276619829Y-113062524D01*
X276655414Y-113241425D01*
X276655414Y-113423831D01*
X276619829Y-113602732D01*
X276550025Y-113771254D01*
X276448686Y-113922919D01*
X276319705Y-114051900D01*
X276168040Y-114153239D01*
X275999518Y-114223043D01*
X275820617Y-114258628D01*
X275638211Y-114258628D01*
X275459310Y-114223043D01*
X275290788Y-114153239D01*
X275139123Y-114051900D01*
X275010142Y-113922919D01*
X274908803Y-113771254D01*
X274838999Y-113602732D01*
X274803414Y-113423831D01*
X274803414Y-113241425D01*
X274838999Y-113062524D01*
X274908803Y-112894002D01*
X275010142Y-112742337D01*
X275139123Y-112613356D01*
X275290788Y-112512017D01*
X275459310Y-112442213D01*
X275638211Y-112406628D01*
X275820617Y-112406628D01*
X275999518Y-112442213D01*
X275999518Y-112442213D01*
G37*
G36*
X39503059Y-112436427D02*
G01*
X39671581Y-112506231D01*
X39823246Y-112607570D01*
X39952227Y-112736551D01*
X40053566Y-112888216D01*
X40123370Y-113056738D01*
X40158955Y-113235639D01*
X40158955Y-113418045D01*
X40123370Y-113596946D01*
X40053566Y-113765468D01*
X39952227Y-113917133D01*
X39823246Y-114046114D01*
X39671581Y-114147453D01*
X39503059Y-114217257D01*
X39324158Y-114252842D01*
X39141752Y-114252842D01*
X38962851Y-114217257D01*
X38794329Y-114147453D01*
X38642664Y-114046114D01*
X38513683Y-113917133D01*
X38412344Y-113765468D01*
X38342540Y-113596946D01*
X38306955Y-113418045D01*
X38306955Y-113235639D01*
X38342540Y-113056738D01*
X38412344Y-112888216D01*
X38513683Y-112736551D01*
X38642664Y-112607570D01*
X38794329Y-112506231D01*
X38962851Y-112436427D01*
X39141752Y-112400842D01*
X39324158Y-112400842D01*
X39503059Y-112436427D01*
X39503059Y-112436427D01*
G37*
G36*
X290191758Y-109663797D02*
G01*
X290409758Y-109754096D01*
X290563907Y-109817946D01*
X290898832Y-110041736D01*
X291183661Y-110326565D01*
X291407451Y-110661490D01*
X291440349Y-110740913D01*
X291561600Y-111033639D01*
X291640184Y-111428707D01*
X291640184Y-111831519D01*
X291561600Y-112226587D01*
X291504952Y-112363347D01*
X291407451Y-112598736D01*
X291183661Y-112933661D01*
X290898832Y-113218490D01*
X290563907Y-113442280D01*
X290409758Y-113506130D01*
X290191758Y-113596429D01*
X289796690Y-113675013D01*
X289393878Y-113675013D01*
X288998810Y-113596429D01*
X288780810Y-113506130D01*
X288626661Y-113442280D01*
X288291736Y-113218490D01*
X288006907Y-112933661D01*
X287783117Y-112598736D01*
X287685616Y-112363347D01*
X287628968Y-112226587D01*
X287550384Y-111831519D01*
X287550384Y-111428707D01*
X287628968Y-111033639D01*
X287750219Y-110740913D01*
X287783117Y-110661490D01*
X288006907Y-110326565D01*
X288291736Y-110041736D01*
X288626661Y-109817946D01*
X288780810Y-109754096D01*
X288998810Y-109663797D01*
X289393878Y-109585213D01*
X289796690Y-109585213D01*
X290191758Y-109663797D01*
X290191758Y-109663797D01*
G37*
G36*
X25963559Y-109658011D02*
G01*
X26181559Y-109748310D01*
X26335708Y-109812160D01*
X26670633Y-110035950D01*
X26955462Y-110320779D01*
X27179252Y-110655704D01*
X27243102Y-110809853D01*
X27333401Y-111027853D01*
X27411985Y-111422921D01*
X27411985Y-111825733D01*
X27333401Y-112220801D01*
X27286253Y-112334626D01*
X27179252Y-112592950D01*
X26955462Y-112927875D01*
X26670633Y-113212704D01*
X26335708Y-113436494D01*
X26181559Y-113500344D01*
X25963559Y-113590643D01*
X25568491Y-113669227D01*
X25165679Y-113669227D01*
X24770611Y-113590643D01*
X24552611Y-113500344D01*
X24398462Y-113436494D01*
X24063537Y-113212704D01*
X23778708Y-112927875D01*
X23554918Y-112592950D01*
X23447917Y-112334626D01*
X23400769Y-112220801D01*
X23322185Y-111825733D01*
X23322185Y-111422921D01*
X23400769Y-111027853D01*
X23491068Y-110809853D01*
X23554918Y-110655704D01*
X23778708Y-110320779D01*
X24063537Y-110035950D01*
X24398462Y-109812160D01*
X24552611Y-109748310D01*
X24770611Y-109658011D01*
X25165679Y-109579427D01*
X25568491Y-109579427D01*
X25963559Y-109658011D01*
X25963559Y-109658011D01*
G37*
G36*
X284823254Y-111358794D02*
G01*
X284991776Y-111428598D01*
X285143441Y-111529937D01*
X285272422Y-111658918D01*
X285373761Y-111810583D01*
X285443565Y-111979105D01*
X285479150Y-112158006D01*
X285479150Y-112340412D01*
X285443565Y-112519313D01*
X285373761Y-112687835D01*
X285272422Y-112839500D01*
X285143441Y-112968481D01*
X284991776Y-113069820D01*
X284823254Y-113139624D01*
X284644353Y-113175209D01*
X284461947Y-113175209D01*
X284283046Y-113139624D01*
X284114524Y-113069820D01*
X283962859Y-112968481D01*
X283833878Y-112839500D01*
X283732539Y-112687835D01*
X283662735Y-112519313D01*
X283627150Y-112340412D01*
X283627150Y-112158006D01*
X283662735Y-111979105D01*
X283732539Y-111810583D01*
X283833878Y-111658918D01*
X283962859Y-111529937D01*
X284114524Y-111428598D01*
X284283046Y-111358794D01*
X284461947Y-111323209D01*
X284644353Y-111323209D01*
X284823254Y-111358794D01*
X284823254Y-111358794D01*
G37*
G36*
X30679323Y-111353008D02*
G01*
X30847845Y-111422812D01*
X30999510Y-111524151D01*
X31128491Y-111653132D01*
X31229830Y-111804797D01*
X31299634Y-111973319D01*
X31335219Y-112152220D01*
X31335219Y-112334626D01*
X31299634Y-112513527D01*
X31229830Y-112682049D01*
X31128491Y-112833714D01*
X30999510Y-112962695D01*
X30847845Y-113064034D01*
X30679323Y-113133838D01*
X30500422Y-113169423D01*
X30318016Y-113169423D01*
X30139115Y-113133838D01*
X29970593Y-113064034D01*
X29818928Y-112962695D01*
X29689947Y-112833714D01*
X29588608Y-112682049D01*
X29518804Y-112513527D01*
X29483219Y-112334626D01*
X29483219Y-112152220D01*
X29518804Y-111973319D01*
X29588608Y-111804797D01*
X29689947Y-111653132D01*
X29818928Y-111524151D01*
X29970593Y-111422812D01*
X30139115Y-111353008D01*
X30318016Y-111317423D01*
X30500422Y-111317423D01*
X30679323Y-111353008D01*
X30679323Y-111353008D01*
G37*
G36*
X294907522Y-110120602D02*
G01*
X295076044Y-110190406D01*
X295227709Y-110291745D01*
X295356690Y-110420726D01*
X295458029Y-110572391D01*
X295527833Y-110740913D01*
X295563418Y-110919814D01*
X295563418Y-111102220D01*
X295527833Y-111281121D01*
X295458029Y-111449643D01*
X295356690Y-111601308D01*
X295227709Y-111730289D01*
X295076044Y-111831628D01*
X294907522Y-111901432D01*
X294728621Y-111937017D01*
X294546215Y-111937017D01*
X294367314Y-111901432D01*
X294198792Y-111831628D01*
X294047127Y-111730289D01*
X293918146Y-111601308D01*
X293816807Y-111449643D01*
X293747003Y-111281121D01*
X293711418Y-111102220D01*
X293711418Y-110919814D01*
X293747003Y-110740913D01*
X293816807Y-110572391D01*
X293918146Y-110420726D01*
X294047127Y-110291745D01*
X294198792Y-110190406D01*
X294367314Y-110120602D01*
X294546215Y-110085017D01*
X294728621Y-110085017D01*
X294907522Y-110120602D01*
X294907522Y-110120602D01*
G37*
G36*
X20595055Y-110114816D02*
G01*
X20763577Y-110184620D01*
X20915242Y-110285959D01*
X21044223Y-110414940D01*
X21145562Y-110566605D01*
X21215366Y-110735127D01*
X21250951Y-110914028D01*
X21250951Y-111096434D01*
X21215366Y-111275335D01*
X21145562Y-111443857D01*
X21044223Y-111595522D01*
X20915242Y-111724503D01*
X20763577Y-111825842D01*
X20595055Y-111895646D01*
X20416154Y-111931231D01*
X20233748Y-111931231D01*
X20054847Y-111895646D01*
X19886325Y-111825842D01*
X19734660Y-111724503D01*
X19605679Y-111595522D01*
X19504340Y-111443857D01*
X19434536Y-111275335D01*
X19398951Y-111096434D01*
X19398951Y-110914028D01*
X19434536Y-110735127D01*
X19504340Y-110566605D01*
X19605679Y-110414940D01*
X19734660Y-110285959D01*
X19886325Y-110184620D01*
X20054847Y-110114816D01*
X20233748Y-110079231D01*
X20416154Y-110079231D01*
X20595055Y-110114816D01*
X20595055Y-110114816D01*
G37*
G36*
X309099762Y-107342186D02*
G01*
X309317762Y-107432485D01*
X309471911Y-107496335D01*
X309806836Y-107720125D01*
X310091665Y-108004954D01*
X310315455Y-108339879D01*
X310348353Y-108419302D01*
X310469604Y-108712028D01*
X310548188Y-109107096D01*
X310548188Y-109509908D01*
X310469604Y-109904976D01*
X310412956Y-110041736D01*
X310315455Y-110277125D01*
X310091665Y-110612050D01*
X309806836Y-110896879D01*
X309471911Y-111120669D01*
X309317762Y-111184519D01*
X309099762Y-111274818D01*
X308704694Y-111353402D01*
X308301882Y-111353402D01*
X307906814Y-111274818D01*
X307688814Y-111184519D01*
X307534665Y-111120669D01*
X307199740Y-110896879D01*
X306914911Y-110612050D01*
X306691121Y-110277125D01*
X306593620Y-110041736D01*
X306536972Y-109904976D01*
X306458388Y-109509908D01*
X306458388Y-109107096D01*
X306536972Y-108712028D01*
X306658223Y-108419302D01*
X306691121Y-108339879D01*
X306914911Y-108004954D01*
X307199740Y-107720125D01*
X307534665Y-107496335D01*
X307688814Y-107432485D01*
X307906814Y-107342186D01*
X308301882Y-107263602D01*
X308704694Y-107263602D01*
X309099762Y-107342186D01*
X309099762Y-107342186D01*
G37*
G36*
X7055555Y-107336400D02*
G01*
X7273555Y-107426699D01*
X7427704Y-107490549D01*
X7762629Y-107714339D01*
X8047458Y-107999168D01*
X8271248Y-108334093D01*
X8306543Y-108419303D01*
X8425397Y-108706242D01*
X8503981Y-109101310D01*
X8503981Y-109504122D01*
X8425397Y-109899190D01*
X8378249Y-110013015D01*
X8271248Y-110271339D01*
X8047458Y-110606264D01*
X7762629Y-110891093D01*
X7427704Y-111114883D01*
X7273555Y-111178733D01*
X7055555Y-111269032D01*
X6660487Y-111347616D01*
X6257675Y-111347616D01*
X5862607Y-111269032D01*
X5644607Y-111178733D01*
X5490458Y-111114883D01*
X5155533Y-110891093D01*
X4870704Y-110606264D01*
X4646914Y-110271339D01*
X4539913Y-110013015D01*
X4492765Y-109899190D01*
X4414181Y-109504122D01*
X4414181Y-109101310D01*
X4492765Y-108706242D01*
X4611619Y-108419303D01*
X4646914Y-108334093D01*
X4870704Y-107999168D01*
X5155533Y-107714339D01*
X5490458Y-107490549D01*
X5644607Y-107426699D01*
X5862607Y-107336400D01*
X6257675Y-107257816D01*
X6660487Y-107257816D01*
X7055555Y-107336400D01*
X7055555Y-107336400D01*
G37*
G36*
X303731258Y-109037183D02*
G01*
X303899780Y-109106987D01*
X304051445Y-109208326D01*
X304180426Y-109337307D01*
X304281765Y-109488972D01*
X304351569Y-109657494D01*
X304387154Y-109836395D01*
X304387154Y-110018801D01*
X304351569Y-110197702D01*
X304281765Y-110366224D01*
X304180426Y-110517889D01*
X304051445Y-110646870D01*
X303899780Y-110748209D01*
X303731258Y-110818013D01*
X303552357Y-110853598D01*
X303369951Y-110853598D01*
X303191050Y-110818013D01*
X303022528Y-110748209D01*
X302870863Y-110646870D01*
X302741882Y-110517889D01*
X302640543Y-110366224D01*
X302570739Y-110197702D01*
X302535154Y-110018801D01*
X302535154Y-109836395D01*
X302570739Y-109657494D01*
X302640543Y-109488972D01*
X302741882Y-109337307D01*
X302870863Y-109208326D01*
X303022528Y-109106987D01*
X303191050Y-109037183D01*
X303369951Y-109001598D01*
X303552357Y-109001598D01*
X303731258Y-109037183D01*
X303731258Y-109037183D01*
G37*
G36*
X11771319Y-109031397D02*
G01*
X11939841Y-109101201D01*
X12091506Y-109202540D01*
X12220487Y-109331521D01*
X12321826Y-109483186D01*
X12391630Y-109651708D01*
X12427215Y-109830609D01*
X12427215Y-110013015D01*
X12391630Y-110191916D01*
X12321826Y-110360438D01*
X12220487Y-110512103D01*
X12091506Y-110641084D01*
X11939841Y-110742423D01*
X11771319Y-110812227D01*
X11592418Y-110847812D01*
X11410012Y-110847812D01*
X11231111Y-110812227D01*
X11062589Y-110742423D01*
X10910924Y-110641084D01*
X10781943Y-110512103D01*
X10680604Y-110360438D01*
X10610800Y-110191916D01*
X10575215Y-110013015D01*
X10575215Y-109830609D01*
X10610800Y-109651708D01*
X10680604Y-109483186D01*
X10781943Y-109331521D01*
X10910924Y-109202540D01*
X11062589Y-109101201D01*
X11231111Y-109031397D01*
X11410012Y-108995812D01*
X11592418Y-108995812D01*
X11771319Y-109031397D01*
X11771319Y-109031397D01*
G37*
G36*
X313815526Y-107798991D02*
G01*
X313984048Y-107868795D01*
X314135713Y-107970134D01*
X314264694Y-108099115D01*
X314366033Y-108250780D01*
X314435837Y-108419302D01*
X314471422Y-108598203D01*
X314471422Y-108780609D01*
X314435837Y-108959510D01*
X314366033Y-109128032D01*
X314264694Y-109279697D01*
X314135713Y-109408678D01*
X313984048Y-109510017D01*
X313815526Y-109579821D01*
X313636625Y-109615406D01*
X313454219Y-109615406D01*
X313275318Y-109579821D01*
X313106796Y-109510017D01*
X312955131Y-109408678D01*
X312826150Y-109279697D01*
X312724811Y-109128032D01*
X312655007Y-108959510D01*
X312619422Y-108780609D01*
X312619422Y-108598203D01*
X312655007Y-108419302D01*
X312724811Y-108250780D01*
X312826150Y-108099115D01*
X312955131Y-107970134D01*
X313106796Y-107868795D01*
X313275318Y-107798991D01*
X313454219Y-107763406D01*
X313636625Y-107763406D01*
X313815526Y-107798991D01*
X313815526Y-107798991D01*
G37*
G36*
X1687051Y-107793205D02*
G01*
X1855573Y-107863009D01*
X2007238Y-107964348D01*
X2136219Y-108093329D01*
X2237558Y-108244994D01*
X2307362Y-108413516D01*
X2342947Y-108592417D01*
X2342947Y-108774823D01*
X2307362Y-108953724D01*
X2237558Y-109122246D01*
X2136219Y-109273911D01*
X2007238Y-109402892D01*
X1855573Y-109504231D01*
X1687051Y-109574035D01*
X1508150Y-109609620D01*
X1325744Y-109609620D01*
X1146843Y-109574035D01*
X978321Y-109504231D01*
X826656Y-109402892D01*
X697675Y-109273911D01*
X596336Y-109122246D01*
X526532Y-108953724D01*
X490947Y-108774823D01*
X490947Y-108592417D01*
X526532Y-108413516D01*
X596336Y-108244994D01*
X697675Y-108093329D01*
X826656Y-107964348D01*
X978321Y-107863009D01*
X1146843Y-107793205D01*
X1325744Y-107757620D01*
X1508150Y-107757620D01*
X1687051Y-107793205D01*
X1687051Y-107793205D01*
G37*
G36*
X212238130Y-100042237D02*
G01*
X212456130Y-100132536D01*
X212610279Y-100196386D01*
X212945204Y-100420176D01*
X213230033Y-100705005D01*
X213453823Y-101039930D01*
X213486721Y-101119353D01*
X213607972Y-101412079D01*
X213686556Y-101807147D01*
X213686556Y-102209959D01*
X213607972Y-102605027D01*
X213560824Y-102718852D01*
X213453823Y-102977176D01*
X213230033Y-103312101D01*
X212945204Y-103596930D01*
X212610279Y-103820720D01*
X212456130Y-103884570D01*
X212238130Y-103974869D01*
X211843062Y-104053453D01*
X211440250Y-104053453D01*
X211045182Y-103974869D01*
X210827182Y-103884570D01*
X210673033Y-103820720D01*
X210338108Y-103596930D01*
X210053279Y-103312101D01*
X209829489Y-102977176D01*
X209722488Y-102718852D01*
X209675340Y-102605027D01*
X209596756Y-102209959D01*
X209596756Y-101807147D01*
X209675340Y-101412079D01*
X209796591Y-101119353D01*
X209829489Y-101039930D01*
X210053279Y-100705005D01*
X210338108Y-100420176D01*
X210673033Y-100196386D01*
X210827182Y-100132536D01*
X211045182Y-100042237D01*
X211440250Y-99963653D01*
X211843062Y-99963653D01*
X212238130Y-100042237D01*
X212238130Y-100042237D01*
G37*
G36*
X103917187Y-100036451D02*
G01*
X104135187Y-100126750D01*
X104289336Y-100190600D01*
X104624261Y-100414390D01*
X104909090Y-100699219D01*
X105132880Y-101034144D01*
X105196730Y-101188293D01*
X105287029Y-101406293D01*
X105365613Y-101801361D01*
X105365613Y-102204173D01*
X105287029Y-102599241D01*
X105239881Y-102713066D01*
X105132880Y-102971390D01*
X104909090Y-103306315D01*
X104624261Y-103591144D01*
X104289336Y-103814934D01*
X104135187Y-103878784D01*
X103917187Y-103969083D01*
X103522119Y-104047667D01*
X103119307Y-104047667D01*
X102724239Y-103969083D01*
X102506239Y-103878784D01*
X102352090Y-103814934D01*
X102017165Y-103591144D01*
X101732336Y-103306315D01*
X101508546Y-102971390D01*
X101401545Y-102713066D01*
X101354397Y-102599241D01*
X101275813Y-102204173D01*
X101275813Y-101801361D01*
X101354397Y-101406293D01*
X101444696Y-101188293D01*
X101508546Y-101034144D01*
X101732336Y-100699219D01*
X102017165Y-100414390D01*
X102352090Y-100190600D01*
X102506239Y-100126750D01*
X102724239Y-100036451D01*
X103119307Y-99957867D01*
X103522119Y-99957867D01*
X103917187Y-100036451D01*
X103917187Y-100036451D01*
G37*
G36*
X206869626Y-101737234D02*
G01*
X207038148Y-101807038D01*
X207189813Y-101908377D01*
X207318794Y-102037358D01*
X207420133Y-102189023D01*
X207489937Y-102357545D01*
X207525522Y-102536446D01*
X207525522Y-102718852D01*
X207489937Y-102897753D01*
X207420133Y-103066275D01*
X207318794Y-103217940D01*
X207189813Y-103346921D01*
X207038148Y-103448260D01*
X206869626Y-103518064D01*
X206690725Y-103553649D01*
X206508319Y-103553649D01*
X206329418Y-103518064D01*
X206160896Y-103448260D01*
X206009231Y-103346921D01*
X205880250Y-103217940D01*
X205778911Y-103066275D01*
X205709107Y-102897753D01*
X205673522Y-102718852D01*
X205673522Y-102536446D01*
X205709107Y-102357545D01*
X205778911Y-102189023D01*
X205880250Y-102037358D01*
X206009231Y-101908377D01*
X206160896Y-101807038D01*
X206329418Y-101737234D01*
X206508319Y-101701649D01*
X206690725Y-101701649D01*
X206869626Y-101737234D01*
X206869626Y-101737234D01*
G37*
G36*
X108632951Y-101731448D02*
G01*
X108801473Y-101801252D01*
X108953138Y-101902591D01*
X109082119Y-102031572D01*
X109183458Y-102183237D01*
X109253262Y-102351759D01*
X109288847Y-102530660D01*
X109288847Y-102713066D01*
X109253262Y-102891967D01*
X109183458Y-103060489D01*
X109082119Y-103212154D01*
X108953138Y-103341135D01*
X108801473Y-103442474D01*
X108632951Y-103512278D01*
X108454050Y-103547863D01*
X108271644Y-103547863D01*
X108092743Y-103512278D01*
X107924221Y-103442474D01*
X107772556Y-103341135D01*
X107643575Y-103212154D01*
X107542236Y-103060489D01*
X107472432Y-102891967D01*
X107436847Y-102713066D01*
X107436847Y-102530660D01*
X107472432Y-102351759D01*
X107542236Y-102183237D01*
X107643575Y-102031572D01*
X107772556Y-101902591D01*
X107924221Y-101801252D01*
X108092743Y-101731448D01*
X108271644Y-101695863D01*
X108454050Y-101695863D01*
X108632951Y-101731448D01*
X108632951Y-101731448D01*
G37*
G36*
X216953894Y-100499042D02*
G01*
X217122416Y-100568846D01*
X217274081Y-100670185D01*
X217403062Y-100799166D01*
X217504401Y-100950831D01*
X217574205Y-101119353D01*
X217609790Y-101298254D01*
X217609790Y-101480660D01*
X217574205Y-101659561D01*
X217504401Y-101828083D01*
X217403062Y-101979748D01*
X217274081Y-102108729D01*
X217122416Y-102210068D01*
X216953894Y-102279872D01*
X216774993Y-102315457D01*
X216592587Y-102315457D01*
X216413686Y-102279872D01*
X216245164Y-102210068D01*
X216093499Y-102108729D01*
X215964518Y-101979748D01*
X215863179Y-101828083D01*
X215793375Y-101659561D01*
X215757790Y-101480660D01*
X215757790Y-101298254D01*
X215793375Y-101119353D01*
X215863179Y-100950831D01*
X215964518Y-100799166D01*
X216093499Y-100670185D01*
X216245164Y-100568846D01*
X216413686Y-100499042D01*
X216592587Y-100463457D01*
X216774993Y-100463457D01*
X216953894Y-100499042D01*
X216953894Y-100499042D01*
G37*
G36*
X98548683Y-100493256D02*
G01*
X98717205Y-100563060D01*
X98868870Y-100664399D01*
X98997851Y-100793380D01*
X99099190Y-100945045D01*
X99168994Y-101113567D01*
X99204579Y-101292468D01*
X99204579Y-101474874D01*
X99168994Y-101653775D01*
X99099190Y-101822297D01*
X98997851Y-101973962D01*
X98868870Y-102102943D01*
X98717205Y-102204282D01*
X98548683Y-102274086D01*
X98369782Y-102309671D01*
X98187376Y-102309671D01*
X98008475Y-102274086D01*
X97839953Y-102204282D01*
X97688288Y-102102943D01*
X97559307Y-101973962D01*
X97457968Y-101822297D01*
X97388164Y-101653775D01*
X97352579Y-101474874D01*
X97352579Y-101292468D01*
X97388164Y-101113567D01*
X97457968Y-100945045D01*
X97559307Y-100793380D01*
X97688288Y-100664399D01*
X97839953Y-100563060D01*
X98008475Y-100493256D01*
X98187376Y-100457671D01*
X98369782Y-100457671D01*
X98548683Y-100493256D01*
X98548683Y-100493256D01*
G37*
G36*
X231146134Y-97720626D02*
G01*
X231364134Y-97810925D01*
X231518283Y-97874775D01*
X231853208Y-98098565D01*
X232138037Y-98383394D01*
X232361827Y-98718319D01*
X232419931Y-98858595D01*
X232515976Y-99090468D01*
X232594560Y-99485536D01*
X232594560Y-99888348D01*
X232515976Y-100283416D01*
X232459328Y-100420176D01*
X232361827Y-100655565D01*
X232138037Y-100990490D01*
X231853208Y-101275319D01*
X231518283Y-101499109D01*
X231364134Y-101562959D01*
X231146134Y-101653258D01*
X230751066Y-101731842D01*
X230348254Y-101731842D01*
X229953186Y-101653258D01*
X229735186Y-101562959D01*
X229581037Y-101499109D01*
X229246112Y-101275319D01*
X228961283Y-100990490D01*
X228737493Y-100655565D01*
X228639992Y-100420176D01*
X228583344Y-100283416D01*
X228504760Y-99888348D01*
X228504760Y-99485536D01*
X228583344Y-99090468D01*
X228679389Y-98858595D01*
X228737493Y-98718319D01*
X228961283Y-98383394D01*
X229246112Y-98098565D01*
X229581037Y-97874775D01*
X229735186Y-97810925D01*
X229953186Y-97720626D01*
X230348254Y-97642042D01*
X230751066Y-97642042D01*
X231146134Y-97720626D01*
X231146134Y-97720626D01*
G37*
G36*
X85009182Y-97714840D02*
G01*
X85227182Y-97805139D01*
X85381331Y-97868989D01*
X85716256Y-98092779D01*
X86001085Y-98377608D01*
X86224875Y-98712533D01*
X86285375Y-98858594D01*
X86379024Y-99084682D01*
X86457608Y-99479750D01*
X86457608Y-99882562D01*
X86379024Y-100277630D01*
X86331876Y-100391455D01*
X86224875Y-100649779D01*
X86001085Y-100984704D01*
X85716256Y-101269533D01*
X85381331Y-101493323D01*
X85227182Y-101557173D01*
X85009182Y-101647472D01*
X84614114Y-101726056D01*
X84211302Y-101726056D01*
X83816234Y-101647472D01*
X83598234Y-101557173D01*
X83444085Y-101493323D01*
X83109160Y-101269533D01*
X82824331Y-100984704D01*
X82600541Y-100649779D01*
X82493540Y-100391455D01*
X82446392Y-100277630D01*
X82367808Y-99882562D01*
X82367808Y-99479750D01*
X82446392Y-99084682D01*
X82540041Y-98858594D01*
X82600541Y-98712533D01*
X82824331Y-98377608D01*
X83109160Y-98092779D01*
X83444085Y-97868989D01*
X83598234Y-97805139D01*
X83816234Y-97714840D01*
X84211302Y-97636256D01*
X84614114Y-97636256D01*
X85009182Y-97714840D01*
X85009182Y-97714840D01*
G37*
G36*
X225777630Y-99415623D02*
G01*
X225946152Y-99485427D01*
X226097817Y-99586766D01*
X226226798Y-99715747D01*
X226328137Y-99867412D01*
X226397941Y-100035934D01*
X226433526Y-100214835D01*
X226433526Y-100397241D01*
X226397941Y-100576142D01*
X226328137Y-100744664D01*
X226226798Y-100896329D01*
X226097817Y-101025310D01*
X225946152Y-101126649D01*
X225777630Y-101196453D01*
X225598729Y-101232038D01*
X225416323Y-101232038D01*
X225237422Y-101196453D01*
X225068900Y-101126649D01*
X224917235Y-101025310D01*
X224788254Y-100896329D01*
X224686915Y-100744664D01*
X224617111Y-100576142D01*
X224581526Y-100397241D01*
X224581526Y-100214835D01*
X224617111Y-100035934D01*
X224686915Y-99867412D01*
X224788254Y-99715747D01*
X224917235Y-99586766D01*
X225068900Y-99485427D01*
X225237422Y-99415623D01*
X225416323Y-99380038D01*
X225598729Y-99380038D01*
X225777630Y-99415623D01*
X225777630Y-99415623D01*
G37*
G36*
X89724946Y-99409837D02*
G01*
X89893468Y-99479641D01*
X90045133Y-99580980D01*
X90174114Y-99709961D01*
X90275453Y-99861626D01*
X90345257Y-100030148D01*
X90380842Y-100209049D01*
X90380842Y-100391455D01*
X90345257Y-100570356D01*
X90275453Y-100738878D01*
X90174114Y-100890543D01*
X90045133Y-101019524D01*
X89893468Y-101120863D01*
X89724946Y-101190667D01*
X89546045Y-101226252D01*
X89363639Y-101226252D01*
X89184738Y-101190667D01*
X89016216Y-101120863D01*
X88864551Y-101019524D01*
X88735570Y-100890543D01*
X88634231Y-100738878D01*
X88564427Y-100570356D01*
X88528842Y-100391455D01*
X88528842Y-100209049D01*
X88564427Y-100030148D01*
X88634231Y-99861626D01*
X88735570Y-99709961D01*
X88864551Y-99580980D01*
X89016216Y-99479641D01*
X89184738Y-99409837D01*
X89363639Y-99374252D01*
X89546045Y-99374252D01*
X89724946Y-99409837D01*
X89724946Y-99409837D01*
G37*
G36*
X177126474Y-97093684D02*
G01*
X177282084Y-97158140D01*
X177498623Y-97247833D01*
X177833548Y-97471623D01*
X178118377Y-97756452D01*
X178342167Y-98091377D01*
X178377812Y-98177432D01*
X178496316Y-98463526D01*
X178574900Y-98858594D01*
X178574900Y-99261406D01*
X178496316Y-99656474D01*
X178445451Y-99779272D01*
X178342167Y-100028623D01*
X178118377Y-100363548D01*
X177833548Y-100648377D01*
X177498623Y-100872167D01*
X177440290Y-100896329D01*
X177126474Y-101026316D01*
X176731406Y-101104900D01*
X176328594Y-101104900D01*
X175933526Y-101026316D01*
X175619710Y-100896329D01*
X175561377Y-100872167D01*
X175226452Y-100648377D01*
X174941623Y-100363548D01*
X174717833Y-100028623D01*
X174614549Y-99779272D01*
X174563684Y-99656474D01*
X174485100Y-99261406D01*
X174485100Y-98858594D01*
X174563684Y-98463526D01*
X174682188Y-98177432D01*
X174717833Y-98091377D01*
X174941623Y-97756452D01*
X175226452Y-97471623D01*
X175561377Y-97247833D01*
X175777916Y-97158140D01*
X175933526Y-97093684D01*
X176328594Y-97015100D01*
X176731406Y-97015100D01*
X177126474Y-97093684D01*
X177126474Y-97093684D01*
G37*
G36*
X158076474Y-97093684D02*
G01*
X158232084Y-97158140D01*
X158448623Y-97247833D01*
X158783548Y-97471623D01*
X159068377Y-97756452D01*
X159292167Y-98091377D01*
X159327812Y-98177432D01*
X159446316Y-98463526D01*
X159524900Y-98858594D01*
X159524900Y-99261406D01*
X159446316Y-99656474D01*
X159395451Y-99779272D01*
X159292167Y-100028623D01*
X159068377Y-100363548D01*
X158783548Y-100648377D01*
X158448623Y-100872167D01*
X158390290Y-100896329D01*
X158076474Y-101026316D01*
X157681406Y-101104900D01*
X157278594Y-101104900D01*
X156883526Y-101026316D01*
X156569710Y-100896329D01*
X156511377Y-100872167D01*
X156176452Y-100648377D01*
X155891623Y-100363548D01*
X155667833Y-100028623D01*
X155564549Y-99779272D01*
X155513684Y-99656474D01*
X155435100Y-99261406D01*
X155435100Y-98858594D01*
X155513684Y-98463526D01*
X155632188Y-98177432D01*
X155667833Y-98091377D01*
X155891623Y-97756452D01*
X156176452Y-97471623D01*
X156511377Y-97247833D01*
X156727916Y-97158140D01*
X156883526Y-97093684D01*
X157278594Y-97015100D01*
X157681406Y-97015100D01*
X158076474Y-97093684D01*
X158076474Y-97093684D01*
G37*
G36*
X139026474Y-97093684D02*
G01*
X139182084Y-97158140D01*
X139398623Y-97247833D01*
X139733548Y-97471623D01*
X140018377Y-97756452D01*
X140242167Y-98091377D01*
X140277812Y-98177432D01*
X140396316Y-98463526D01*
X140474900Y-98858594D01*
X140474900Y-99261406D01*
X140396316Y-99656474D01*
X140345451Y-99779272D01*
X140242167Y-100028623D01*
X140018377Y-100363548D01*
X139733548Y-100648377D01*
X139398623Y-100872167D01*
X139340290Y-100896329D01*
X139026474Y-101026316D01*
X138631406Y-101104900D01*
X138228594Y-101104900D01*
X137833526Y-101026316D01*
X137519710Y-100896329D01*
X137461377Y-100872167D01*
X137126452Y-100648377D01*
X136841623Y-100363548D01*
X136617833Y-100028623D01*
X136514549Y-99779272D01*
X136463684Y-99656474D01*
X136385100Y-99261406D01*
X136385100Y-98858594D01*
X136463684Y-98463526D01*
X136582188Y-98177432D01*
X136617833Y-98091377D01*
X136841623Y-97756452D01*
X137126452Y-97471623D01*
X137461377Y-97247833D01*
X137677916Y-97158140D01*
X137833526Y-97093684D01*
X138228594Y-97015100D01*
X138631406Y-97015100D01*
X139026474Y-97093684D01*
X139026474Y-97093684D01*
G37*
G36*
X235861898Y-98177431D02*
G01*
X236030420Y-98247235D01*
X236182085Y-98348574D01*
X236311066Y-98477555D01*
X236412405Y-98629220D01*
X236482209Y-98797742D01*
X236517794Y-98976643D01*
X236517794Y-99159049D01*
X236482209Y-99337950D01*
X236412405Y-99506472D01*
X236311066Y-99658137D01*
X236182085Y-99787118D01*
X236030420Y-99888457D01*
X235861898Y-99958261D01*
X235682997Y-99993846D01*
X235500591Y-99993846D01*
X235321690Y-99958261D01*
X235153168Y-99888457D01*
X235001503Y-99787118D01*
X234872522Y-99658137D01*
X234771183Y-99506472D01*
X234701379Y-99337950D01*
X234665794Y-99159049D01*
X234665794Y-98976643D01*
X234701379Y-98797742D01*
X234771183Y-98629220D01*
X234872522Y-98477555D01*
X235001503Y-98348574D01*
X235153168Y-98247235D01*
X235321690Y-98177431D01*
X235500591Y-98141846D01*
X235682997Y-98141846D01*
X235861898Y-98177431D01*
X235861898Y-98177431D01*
G37*
G36*
X79640678Y-98171645D02*
G01*
X79809200Y-98241449D01*
X79960865Y-98342788D01*
X80089846Y-98471769D01*
X80191185Y-98623434D01*
X80260989Y-98791956D01*
X80296574Y-98970857D01*
X80296574Y-99153263D01*
X80260989Y-99332164D01*
X80191185Y-99500686D01*
X80089846Y-99652351D01*
X79960865Y-99781332D01*
X79809200Y-99882671D01*
X79640678Y-99952475D01*
X79461777Y-99988060D01*
X79279371Y-99988060D01*
X79100470Y-99952475D01*
X78931948Y-99882671D01*
X78780283Y-99781332D01*
X78651302Y-99652351D01*
X78549963Y-99500686D01*
X78480159Y-99332164D01*
X78444574Y-99153263D01*
X78444574Y-98970857D01*
X78480159Y-98791956D01*
X78549963Y-98623434D01*
X78651302Y-98471769D01*
X78780283Y-98342788D01*
X78931948Y-98241449D01*
X79100470Y-98171645D01*
X79279371Y-98136060D01*
X79461777Y-98136060D01*
X79640678Y-98171645D01*
X79640678Y-98171645D01*
G37*
G36*
X181880104Y-98169585D02*
G01*
X182048626Y-98239389D01*
X182200291Y-98340728D01*
X182329272Y-98469709D01*
X182430611Y-98621374D01*
X182500415Y-98789896D01*
X182536000Y-98968797D01*
X182536000Y-99151203D01*
X182500415Y-99330104D01*
X182430611Y-99498626D01*
X182329272Y-99650291D01*
X182200291Y-99779272D01*
X182048626Y-99880611D01*
X181880104Y-99950415D01*
X181701203Y-99986000D01*
X181518797Y-99986000D01*
X181339896Y-99950415D01*
X181171374Y-99880611D01*
X181019709Y-99779272D01*
X180890728Y-99650291D01*
X180789389Y-99498626D01*
X180719585Y-99330104D01*
X180684000Y-99151203D01*
X180684000Y-98968797D01*
X180719585Y-98789896D01*
X180789389Y-98621374D01*
X180890728Y-98469709D01*
X181019709Y-98340728D01*
X181171374Y-98239389D01*
X181339896Y-98169585D01*
X181518797Y-98134000D01*
X181701203Y-98134000D01*
X181880104Y-98169585D01*
X181880104Y-98169585D01*
G37*
G36*
X143780104Y-98169585D02*
G01*
X143948626Y-98239389D01*
X144100291Y-98340728D01*
X144229272Y-98469709D01*
X144330611Y-98621374D01*
X144400415Y-98789896D01*
X144436000Y-98968797D01*
X144436000Y-99151203D01*
X144400415Y-99330104D01*
X144330611Y-99498626D01*
X144229272Y-99650291D01*
X144100291Y-99779272D01*
X143948626Y-99880611D01*
X143780104Y-99950415D01*
X143601203Y-99986000D01*
X143418797Y-99986000D01*
X143239896Y-99950415D01*
X143071374Y-99880611D01*
X142919709Y-99779272D01*
X142790728Y-99650291D01*
X142689389Y-99498626D01*
X142619585Y-99330104D01*
X142584000Y-99151203D01*
X142584000Y-98968797D01*
X142619585Y-98789896D01*
X142689389Y-98621374D01*
X142790728Y-98469709D01*
X142919709Y-98340728D01*
X143071374Y-98239389D01*
X143239896Y-98169585D01*
X143418797Y-98134000D01*
X143601203Y-98134000D01*
X143780104Y-98169585D01*
X143780104Y-98169585D01*
G37*
G36*
X171720104Y-98169585D02*
G01*
X171888626Y-98239389D01*
X172040291Y-98340728D01*
X172169272Y-98469709D01*
X172270611Y-98621374D01*
X172340415Y-98789896D01*
X172376000Y-98968797D01*
X172376000Y-99151203D01*
X172340415Y-99330104D01*
X172270611Y-99498626D01*
X172169272Y-99650291D01*
X172040291Y-99779272D01*
X171888626Y-99880611D01*
X171720104Y-99950415D01*
X171541203Y-99986000D01*
X171358797Y-99986000D01*
X171179896Y-99950415D01*
X171011374Y-99880611D01*
X170859709Y-99779272D01*
X170730728Y-99650291D01*
X170629389Y-99498626D01*
X170559585Y-99330104D01*
X170524000Y-99151203D01*
X170524000Y-98968797D01*
X170559585Y-98789896D01*
X170629389Y-98621374D01*
X170730728Y-98469709D01*
X170859709Y-98340728D01*
X171011374Y-98239389D01*
X171179896Y-98169585D01*
X171358797Y-98134000D01*
X171541203Y-98134000D01*
X171720104Y-98169585D01*
X171720104Y-98169585D01*
G37*
G36*
X162830104Y-98169585D02*
G01*
X162998626Y-98239389D01*
X163150291Y-98340728D01*
X163279272Y-98469709D01*
X163380611Y-98621374D01*
X163450415Y-98789896D01*
X163486000Y-98968797D01*
X163486000Y-99151203D01*
X163450415Y-99330104D01*
X163380611Y-99498626D01*
X163279272Y-99650291D01*
X163150291Y-99779272D01*
X162998626Y-99880611D01*
X162830104Y-99950415D01*
X162651203Y-99986000D01*
X162468797Y-99986000D01*
X162289896Y-99950415D01*
X162121374Y-99880611D01*
X161969709Y-99779272D01*
X161840728Y-99650291D01*
X161739389Y-99498626D01*
X161669585Y-99330104D01*
X161634000Y-99151203D01*
X161634000Y-98968797D01*
X161669585Y-98789896D01*
X161739389Y-98621374D01*
X161840728Y-98469709D01*
X161969709Y-98340728D01*
X162121374Y-98239389D01*
X162289896Y-98169585D01*
X162468797Y-98134000D01*
X162651203Y-98134000D01*
X162830104Y-98169585D01*
X162830104Y-98169585D01*
G37*
G36*
X152670104Y-98169585D02*
G01*
X152838626Y-98239389D01*
X152990291Y-98340728D01*
X153119272Y-98469709D01*
X153220611Y-98621374D01*
X153290415Y-98789896D01*
X153326000Y-98968797D01*
X153326000Y-99151203D01*
X153290415Y-99330104D01*
X153220611Y-99498626D01*
X153119272Y-99650291D01*
X152990291Y-99779272D01*
X152838626Y-99880611D01*
X152670104Y-99950415D01*
X152491203Y-99986000D01*
X152308797Y-99986000D01*
X152129896Y-99950415D01*
X151961374Y-99880611D01*
X151809709Y-99779272D01*
X151680728Y-99650291D01*
X151579389Y-99498626D01*
X151509585Y-99330104D01*
X151474000Y-99151203D01*
X151474000Y-98968797D01*
X151509585Y-98789896D01*
X151579389Y-98621374D01*
X151680728Y-98469709D01*
X151809709Y-98340728D01*
X151961374Y-98239389D01*
X152129896Y-98169585D01*
X152308797Y-98134000D01*
X152491203Y-98134000D01*
X152670104Y-98169585D01*
X152670104Y-98169585D01*
G37*
G36*
X133620104Y-98169585D02*
G01*
X133788626Y-98239389D01*
X133940291Y-98340728D01*
X134069272Y-98469709D01*
X134170611Y-98621374D01*
X134240415Y-98789896D01*
X134276000Y-98968797D01*
X134276000Y-99151203D01*
X134240415Y-99330104D01*
X134170611Y-99498626D01*
X134069272Y-99650291D01*
X133940291Y-99779272D01*
X133788626Y-99880611D01*
X133620104Y-99950415D01*
X133441203Y-99986000D01*
X133258797Y-99986000D01*
X133079896Y-99950415D01*
X132911374Y-99880611D01*
X132759709Y-99779272D01*
X132630728Y-99650291D01*
X132529389Y-99498626D01*
X132459585Y-99330104D01*
X132424000Y-99151203D01*
X132424000Y-98968797D01*
X132459585Y-98789896D01*
X132529389Y-98621374D01*
X132630728Y-98469709D01*
X132759709Y-98340728D01*
X132911374Y-98239389D01*
X133079896Y-98169585D01*
X133258797Y-98134000D01*
X133441203Y-98134000D01*
X133620104Y-98169585D01*
X133620104Y-98169585D01*
G37*
G36*
X250054139Y-95399015D02*
G01*
X250272139Y-95489314D01*
X250426288Y-95553164D01*
X250761213Y-95776954D01*
X251046042Y-96061783D01*
X251269832Y-96396708D01*
X251302730Y-96476131D01*
X251423981Y-96768857D01*
X251502565Y-97163925D01*
X251502565Y-97566737D01*
X251423981Y-97961805D01*
X251367333Y-98098565D01*
X251269832Y-98333954D01*
X251046042Y-98668879D01*
X250761213Y-98953708D01*
X250426288Y-99177498D01*
X250272139Y-99241348D01*
X250054139Y-99331647D01*
X249659071Y-99410231D01*
X249256259Y-99410231D01*
X248861191Y-99331647D01*
X248643191Y-99241348D01*
X248489042Y-99177498D01*
X248154117Y-98953708D01*
X247869288Y-98668879D01*
X247645498Y-98333954D01*
X247547997Y-98098565D01*
X247491349Y-97961805D01*
X247412765Y-97566737D01*
X247412765Y-97163925D01*
X247491349Y-96768857D01*
X247612600Y-96476131D01*
X247645498Y-96396708D01*
X247869288Y-96061783D01*
X248154117Y-95776954D01*
X248489042Y-95553164D01*
X248643191Y-95489314D01*
X248861191Y-95399015D01*
X249256259Y-95320431D01*
X249659071Y-95320431D01*
X250054139Y-95399015D01*
X250054139Y-95399015D01*
G37*
G36*
X66101178Y-95393229D02*
G01*
X66319178Y-95483528D01*
X66473327Y-95547378D01*
X66808252Y-95771168D01*
X67093081Y-96055997D01*
X67316871Y-96390922D01*
X67380721Y-96545071D01*
X67471020Y-96763071D01*
X67549604Y-97158139D01*
X67549604Y-97560951D01*
X67471020Y-97956019D01*
X67381705Y-98171645D01*
X67316871Y-98328168D01*
X67093081Y-98663093D01*
X66808252Y-98947922D01*
X66473327Y-99171712D01*
X66319178Y-99235562D01*
X66101178Y-99325861D01*
X65706110Y-99404445D01*
X65303298Y-99404445D01*
X64908230Y-99325861D01*
X64690230Y-99235562D01*
X64536081Y-99171712D01*
X64201156Y-98947922D01*
X63916327Y-98663093D01*
X63692537Y-98328168D01*
X63627703Y-98171645D01*
X63538388Y-97956019D01*
X63459804Y-97560951D01*
X63459804Y-97158139D01*
X63538388Y-96763071D01*
X63628687Y-96545071D01*
X63692537Y-96390922D01*
X63916327Y-96055997D01*
X64201156Y-95771168D01*
X64536081Y-95547378D01*
X64690230Y-95483528D01*
X64908230Y-95393229D01*
X65303298Y-95314645D01*
X65706110Y-95314645D01*
X66101178Y-95393229D01*
X66101178Y-95393229D01*
G37*
G36*
X244685635Y-97094012D02*
G01*
X244854157Y-97163816D01*
X245005822Y-97265155D01*
X245134803Y-97394136D01*
X245236142Y-97545801D01*
X245305946Y-97714323D01*
X245341531Y-97893224D01*
X245341531Y-98075630D01*
X245305946Y-98254531D01*
X245236142Y-98423053D01*
X245134803Y-98574718D01*
X245005822Y-98703699D01*
X244854157Y-98805038D01*
X244685635Y-98874842D01*
X244506734Y-98910427D01*
X244324328Y-98910427D01*
X244145427Y-98874842D01*
X243976905Y-98805038D01*
X243825240Y-98703699D01*
X243696259Y-98574718D01*
X243594920Y-98423053D01*
X243525116Y-98254531D01*
X243489531Y-98075630D01*
X243489531Y-97893224D01*
X243525116Y-97714323D01*
X243594920Y-97545801D01*
X243696259Y-97394136D01*
X243825240Y-97265155D01*
X243976905Y-97163816D01*
X244145427Y-97094012D01*
X244324328Y-97058427D01*
X244506734Y-97058427D01*
X244685635Y-97094012D01*
X244685635Y-97094012D01*
G37*
G36*
X70816942Y-97088226D02*
G01*
X70985464Y-97158030D01*
X71137129Y-97259369D01*
X71266110Y-97388350D01*
X71367449Y-97540015D01*
X71437253Y-97708537D01*
X71472838Y-97887438D01*
X71472838Y-98069844D01*
X71437253Y-98248745D01*
X71367449Y-98417267D01*
X71266110Y-98568932D01*
X71137129Y-98697913D01*
X70985464Y-98799252D01*
X70816942Y-98869056D01*
X70638041Y-98904641D01*
X70455635Y-98904641D01*
X70276734Y-98869056D01*
X70108212Y-98799252D01*
X69956547Y-98697913D01*
X69827566Y-98568932D01*
X69726227Y-98417267D01*
X69656423Y-98248745D01*
X69620838Y-98069844D01*
X69620838Y-97887438D01*
X69656423Y-97708537D01*
X69726227Y-97540015D01*
X69827566Y-97388350D01*
X69956547Y-97259369D01*
X70108212Y-97158030D01*
X70276734Y-97088226D01*
X70455635Y-97052641D01*
X70638041Y-97052641D01*
X70816942Y-97088226D01*
X70816942Y-97088226D01*
G37*
G36*
X254769903Y-95855820D02*
G01*
X254938425Y-95925624D01*
X255090090Y-96026963D01*
X255219071Y-96155944D01*
X255320410Y-96307609D01*
X255390214Y-96476131D01*
X255425799Y-96655032D01*
X255425799Y-96837438D01*
X255390214Y-97016339D01*
X255320410Y-97184861D01*
X255219071Y-97336526D01*
X255090090Y-97465507D01*
X254938425Y-97566846D01*
X254769903Y-97636650D01*
X254591002Y-97672235D01*
X254408596Y-97672235D01*
X254229695Y-97636650D01*
X254061173Y-97566846D01*
X253909508Y-97465507D01*
X253780527Y-97336526D01*
X253679188Y-97184861D01*
X253609384Y-97016339D01*
X253573799Y-96837438D01*
X253573799Y-96655032D01*
X253609384Y-96476131D01*
X253679188Y-96307609D01*
X253780527Y-96155944D01*
X253909508Y-96026963D01*
X254061173Y-95925624D01*
X254229695Y-95855820D01*
X254408596Y-95820235D01*
X254591002Y-95820235D01*
X254769903Y-95855820D01*
X254769903Y-95855820D01*
G37*
G36*
X60732674Y-95850034D02*
G01*
X60901196Y-95919838D01*
X61052861Y-96021177D01*
X61181842Y-96150158D01*
X61283181Y-96301823D01*
X61352985Y-96470345D01*
X61388570Y-96649246D01*
X61388570Y-96831652D01*
X61352985Y-97010553D01*
X61283181Y-97179075D01*
X61181842Y-97330740D01*
X61052861Y-97459721D01*
X60901196Y-97561060D01*
X60732674Y-97630864D01*
X60553773Y-97666449D01*
X60371367Y-97666449D01*
X60192466Y-97630864D01*
X60023944Y-97561060D01*
X59872279Y-97459721D01*
X59743298Y-97330740D01*
X59641959Y-97179075D01*
X59572155Y-97010553D01*
X59536570Y-96831652D01*
X59536570Y-96649246D01*
X59572155Y-96470345D01*
X59641959Y-96301823D01*
X59743298Y-96150158D01*
X59872279Y-96021177D01*
X60023944Y-95919838D01*
X60192466Y-95850034D01*
X60371367Y-95814449D01*
X60553773Y-95814449D01*
X60732674Y-95850034D01*
X60732674Y-95850034D01*
G37*
G36*
X268962143Y-93077404D02*
G01*
X269180143Y-93167703D01*
X269334292Y-93231553D01*
X269669217Y-93455343D01*
X269954046Y-93740172D01*
X270177836Y-94075097D01*
X270210734Y-94154520D01*
X270331985Y-94447246D01*
X270410569Y-94842314D01*
X270410569Y-95245126D01*
X270331985Y-95640194D01*
X270275337Y-95776954D01*
X270177836Y-96012343D01*
X269954046Y-96347268D01*
X269669217Y-96632097D01*
X269334292Y-96855887D01*
X269180143Y-96919737D01*
X268962143Y-97010036D01*
X268567075Y-97088620D01*
X268164263Y-97088620D01*
X267769195Y-97010036D01*
X267551195Y-96919737D01*
X267397046Y-96855887D01*
X267062121Y-96632097D01*
X266777292Y-96347268D01*
X266553502Y-96012343D01*
X266456001Y-95776954D01*
X266399353Y-95640194D01*
X266320769Y-95245126D01*
X266320769Y-94842314D01*
X266399353Y-94447246D01*
X266520604Y-94154520D01*
X266553502Y-94075097D01*
X266777292Y-93740172D01*
X267062121Y-93455343D01*
X267397046Y-93231553D01*
X267551195Y-93167703D01*
X267769195Y-93077404D01*
X268164263Y-92998820D01*
X268567075Y-92998820D01*
X268962143Y-93077404D01*
X268962143Y-93077404D01*
G37*
G36*
X47193174Y-93071618D02*
G01*
X47411174Y-93161917D01*
X47565323Y-93225767D01*
X47900248Y-93449557D01*
X48185077Y-93734386D01*
X48408867Y-94069311D01*
X48472717Y-94223460D01*
X48563016Y-94441460D01*
X48641600Y-94836528D01*
X48641600Y-95239340D01*
X48563016Y-95634408D01*
X48515868Y-95748233D01*
X48408867Y-96006557D01*
X48185077Y-96341482D01*
X47900248Y-96626311D01*
X47565323Y-96850101D01*
X47411174Y-96913951D01*
X47193174Y-97004250D01*
X46798106Y-97082834D01*
X46395294Y-97082834D01*
X46000226Y-97004250D01*
X45782226Y-96913951D01*
X45628077Y-96850101D01*
X45293152Y-96626311D01*
X45008323Y-96341482D01*
X44784533Y-96006557D01*
X44677532Y-95748233D01*
X44630384Y-95634408D01*
X44551800Y-95239340D01*
X44551800Y-94836528D01*
X44630384Y-94441460D01*
X44720683Y-94223460D01*
X44784533Y-94069311D01*
X45008323Y-93734386D01*
X45293152Y-93449557D01*
X45628077Y-93225767D01*
X45782226Y-93161917D01*
X46000226Y-93071618D01*
X46395294Y-92993034D01*
X46798106Y-92993034D01*
X47193174Y-93071618D01*
X47193174Y-93071618D01*
G37*
G36*
X263593639Y-94772401D02*
G01*
X263762161Y-94842205D01*
X263913826Y-94943544D01*
X264042807Y-95072525D01*
X264144146Y-95224190D01*
X264213950Y-95392712D01*
X264249535Y-95571613D01*
X264249535Y-95754019D01*
X264213950Y-95932920D01*
X264144146Y-96101442D01*
X264042807Y-96253107D01*
X263913826Y-96382088D01*
X263762161Y-96483427D01*
X263593639Y-96553231D01*
X263414738Y-96588816D01*
X263232332Y-96588816D01*
X263053431Y-96553231D01*
X262884909Y-96483427D01*
X262733244Y-96382088D01*
X262604263Y-96253107D01*
X262502924Y-96101442D01*
X262433120Y-95932920D01*
X262397535Y-95754019D01*
X262397535Y-95571613D01*
X262433120Y-95392712D01*
X262502924Y-95224190D01*
X262604263Y-95072525D01*
X262733244Y-94943544D01*
X262884909Y-94842205D01*
X263053431Y-94772401D01*
X263232332Y-94736816D01*
X263414738Y-94736816D01*
X263593639Y-94772401D01*
X263593639Y-94772401D01*
G37*
G36*
X51908938Y-94766615D02*
G01*
X52077460Y-94836419D01*
X52229125Y-94937758D01*
X52358106Y-95066739D01*
X52459445Y-95218404D01*
X52529249Y-95386926D01*
X52564834Y-95565827D01*
X52564834Y-95748233D01*
X52529249Y-95927134D01*
X52459445Y-96095656D01*
X52358106Y-96247321D01*
X52229125Y-96376302D01*
X52077460Y-96477641D01*
X51908938Y-96547445D01*
X51730037Y-96583030D01*
X51547631Y-96583030D01*
X51368730Y-96547445D01*
X51200208Y-96477641D01*
X51048543Y-96376302D01*
X50919562Y-96247321D01*
X50818223Y-96095656D01*
X50748419Y-95927134D01*
X50712834Y-95748233D01*
X50712834Y-95565827D01*
X50748419Y-95386926D01*
X50818223Y-95218404D01*
X50919562Y-95066739D01*
X51048543Y-94937758D01*
X51200208Y-94836419D01*
X51368730Y-94766615D01*
X51547631Y-94731030D01*
X51730037Y-94731030D01*
X51908938Y-94766615D01*
X51908938Y-94766615D01*
G37*
G36*
X273677907Y-93534209D02*
G01*
X273846429Y-93604013D01*
X273998094Y-93705352D01*
X274127075Y-93834333D01*
X274228414Y-93985998D01*
X274298218Y-94154520D01*
X274333803Y-94333421D01*
X274333803Y-94515827D01*
X274298218Y-94694728D01*
X274228414Y-94863250D01*
X274127075Y-95014915D01*
X273998094Y-95143896D01*
X273846429Y-95245235D01*
X273677907Y-95315039D01*
X273499006Y-95350624D01*
X273316600Y-95350624D01*
X273137699Y-95315039D01*
X272969177Y-95245235D01*
X272817512Y-95143896D01*
X272688531Y-95014915D01*
X272587192Y-94863250D01*
X272517388Y-94694728D01*
X272481803Y-94515827D01*
X272481803Y-94333421D01*
X272517388Y-94154520D01*
X272587192Y-93985998D01*
X272688531Y-93834333D01*
X272817512Y-93705352D01*
X272969177Y-93604013D01*
X273137699Y-93534209D01*
X273316600Y-93498624D01*
X273499006Y-93498624D01*
X273677907Y-93534209D01*
X273677907Y-93534209D01*
G37*
G36*
X41824670Y-93528423D02*
G01*
X41993192Y-93598227D01*
X42144857Y-93699566D01*
X42273838Y-93828547D01*
X42375177Y-93980212D01*
X42444981Y-94148734D01*
X42480566Y-94327635D01*
X42480566Y-94510041D01*
X42444981Y-94688942D01*
X42375177Y-94857464D01*
X42273838Y-95009129D01*
X42144857Y-95138110D01*
X41993192Y-95239449D01*
X41824670Y-95309253D01*
X41645769Y-95344838D01*
X41463363Y-95344838D01*
X41284462Y-95309253D01*
X41115940Y-95239449D01*
X40964275Y-95138110D01*
X40835294Y-95009129D01*
X40733955Y-94857464D01*
X40664151Y-94688942D01*
X40628566Y-94510041D01*
X40628566Y-94327635D01*
X40664151Y-94148734D01*
X40733955Y-93980212D01*
X40835294Y-93828547D01*
X40964275Y-93699566D01*
X41115940Y-93598227D01*
X41284462Y-93528423D01*
X41463363Y-93492838D01*
X41645769Y-93492838D01*
X41824670Y-93528423D01*
X41824670Y-93528423D01*
G37*
G36*
X287870147Y-90755793D02*
G01*
X288088147Y-90846092D01*
X288242296Y-90909942D01*
X288577221Y-91133732D01*
X288862050Y-91418561D01*
X289085840Y-91753486D01*
X289118738Y-91832909D01*
X289239989Y-92125635D01*
X289318573Y-92520703D01*
X289318573Y-92923515D01*
X289239989Y-93318583D01*
X289183341Y-93455343D01*
X289085840Y-93690732D01*
X288862050Y-94025657D01*
X288577221Y-94310486D01*
X288242296Y-94534276D01*
X288088147Y-94598126D01*
X287870147Y-94688425D01*
X287475079Y-94767009D01*
X287072267Y-94767009D01*
X286677199Y-94688425D01*
X286459199Y-94598126D01*
X286305050Y-94534276D01*
X285970125Y-94310486D01*
X285685296Y-94025657D01*
X285461506Y-93690732D01*
X285364005Y-93455343D01*
X285307357Y-93318583D01*
X285228773Y-92923515D01*
X285228773Y-92520703D01*
X285307357Y-92125635D01*
X285428608Y-91832909D01*
X285461506Y-91753486D01*
X285685296Y-91418561D01*
X285970125Y-91133732D01*
X286305050Y-90909942D01*
X286459199Y-90846092D01*
X286677199Y-90755793D01*
X287072267Y-90677209D01*
X287475079Y-90677209D01*
X287870147Y-90755793D01*
X287870147Y-90755793D01*
G37*
G36*
X28285170Y-90750007D02*
G01*
X28503170Y-90840306D01*
X28657319Y-90904156D01*
X28992244Y-91127946D01*
X29277073Y-91412775D01*
X29500863Y-91747700D01*
X29564713Y-91901849D01*
X29655012Y-92119849D01*
X29733596Y-92514917D01*
X29733596Y-92917729D01*
X29655012Y-93312797D01*
X29607864Y-93426622D01*
X29500863Y-93684946D01*
X29277073Y-94019871D01*
X28992244Y-94304700D01*
X28657319Y-94528490D01*
X28503170Y-94592340D01*
X28285170Y-94682639D01*
X27890102Y-94761223D01*
X27487290Y-94761223D01*
X27092222Y-94682639D01*
X26874222Y-94592340D01*
X26720073Y-94528490D01*
X26385148Y-94304700D01*
X26100319Y-94019871D01*
X25876529Y-93684946D01*
X25769528Y-93426622D01*
X25722380Y-93312797D01*
X25643796Y-92917729D01*
X25643796Y-92514917D01*
X25722380Y-92119849D01*
X25812679Y-91901849D01*
X25876529Y-91747700D01*
X26100319Y-91412775D01*
X26385148Y-91127946D01*
X26720073Y-90904156D01*
X26874222Y-90840306D01*
X27092222Y-90750007D01*
X27487290Y-90671423D01*
X27890102Y-90671423D01*
X28285170Y-90750007D01*
X28285170Y-90750007D01*
G37*
G36*
X282501643Y-92450790D02*
G01*
X282670165Y-92520594D01*
X282821830Y-92621933D01*
X282950811Y-92750914D01*
X283052150Y-92902579D01*
X283121954Y-93071101D01*
X283157539Y-93250002D01*
X283157539Y-93432408D01*
X283121954Y-93611309D01*
X283052150Y-93779831D01*
X282950811Y-93931496D01*
X282821830Y-94060477D01*
X282670165Y-94161816D01*
X282501643Y-94231620D01*
X282322742Y-94267205D01*
X282140336Y-94267205D01*
X281961435Y-94231620D01*
X281792913Y-94161816D01*
X281641248Y-94060477D01*
X281512267Y-93931496D01*
X281410928Y-93779831D01*
X281341124Y-93611309D01*
X281305539Y-93432408D01*
X281305539Y-93250002D01*
X281341124Y-93071101D01*
X281410928Y-92902579D01*
X281512267Y-92750914D01*
X281641248Y-92621933D01*
X281792913Y-92520594D01*
X281961435Y-92450790D01*
X282140336Y-92415205D01*
X282322742Y-92415205D01*
X282501643Y-92450790D01*
X282501643Y-92450790D01*
G37*
G36*
X33000934Y-92445004D02*
G01*
X33169456Y-92514808D01*
X33321121Y-92616147D01*
X33450102Y-92745128D01*
X33551441Y-92896793D01*
X33621245Y-93065315D01*
X33656830Y-93244216D01*
X33656830Y-93426622D01*
X33621245Y-93605523D01*
X33551441Y-93774045D01*
X33450102Y-93925710D01*
X33321121Y-94054691D01*
X33169456Y-94156030D01*
X33000934Y-94225834D01*
X32822033Y-94261419D01*
X32639627Y-94261419D01*
X32460726Y-94225834D01*
X32292204Y-94156030D01*
X32140539Y-94054691D01*
X32011558Y-93925710D01*
X31910219Y-93774045D01*
X31840415Y-93605523D01*
X31804830Y-93426622D01*
X31804830Y-93244216D01*
X31840415Y-93065315D01*
X31910219Y-92896793D01*
X32011558Y-92745128D01*
X32140539Y-92616147D01*
X32292204Y-92514808D01*
X32460726Y-92445004D01*
X32639627Y-92409419D01*
X32822033Y-92409419D01*
X33000934Y-92445004D01*
X33000934Y-92445004D01*
G37*
G36*
X292585911Y-91212598D02*
G01*
X292754433Y-91282402D01*
X292906098Y-91383741D01*
X293035079Y-91512722D01*
X293136418Y-91664387D01*
X293206222Y-91832909D01*
X293241807Y-92011810D01*
X293241807Y-92194216D01*
X293206222Y-92373117D01*
X293136418Y-92541639D01*
X293035079Y-92693304D01*
X292906098Y-92822285D01*
X292754433Y-92923624D01*
X292585911Y-92993428D01*
X292407010Y-93029013D01*
X292224604Y-93029013D01*
X292045703Y-92993428D01*
X291877181Y-92923624D01*
X291725516Y-92822285D01*
X291596535Y-92693304D01*
X291495196Y-92541639D01*
X291425392Y-92373117D01*
X291389807Y-92194216D01*
X291389807Y-92011810D01*
X291425392Y-91832909D01*
X291495196Y-91664387D01*
X291596535Y-91512722D01*
X291725516Y-91383741D01*
X291877181Y-91282402D01*
X292045703Y-91212598D01*
X292224604Y-91177013D01*
X292407010Y-91177013D01*
X292585911Y-91212598D01*
X292585911Y-91212598D01*
G37*
G36*
X22916666Y-91206812D02*
G01*
X23085188Y-91276616D01*
X23236853Y-91377955D01*
X23365834Y-91506936D01*
X23467173Y-91658601D01*
X23536977Y-91827123D01*
X23572562Y-92006024D01*
X23572562Y-92188430D01*
X23536977Y-92367331D01*
X23467173Y-92535853D01*
X23365834Y-92687518D01*
X23236853Y-92816499D01*
X23085188Y-92917838D01*
X22916666Y-92987642D01*
X22737765Y-93023227D01*
X22555359Y-93023227D01*
X22376458Y-92987642D01*
X22207936Y-92917838D01*
X22056271Y-92816499D01*
X21927290Y-92687518D01*
X21825951Y-92535853D01*
X21756147Y-92367331D01*
X21720562Y-92188430D01*
X21720562Y-92006024D01*
X21756147Y-91827123D01*
X21825951Y-91658601D01*
X21927290Y-91506936D01*
X22056271Y-91377955D01*
X22207936Y-91276616D01*
X22376458Y-91206812D01*
X22555359Y-91171227D01*
X22737765Y-91171227D01*
X22916666Y-91206812D01*
X22916666Y-91206812D01*
G37*
G36*
X306778151Y-88434182D02*
G01*
X306996151Y-88524481D01*
X307150300Y-88588331D01*
X307485225Y-88812121D01*
X307770054Y-89096950D01*
X307993844Y-89431875D01*
X308026742Y-89511298D01*
X308147993Y-89804024D01*
X308226577Y-90199092D01*
X308226577Y-90601904D01*
X308147993Y-90996972D01*
X308091345Y-91133732D01*
X307993844Y-91369121D01*
X307770054Y-91704046D01*
X307485225Y-91988875D01*
X307150300Y-92212665D01*
X306996151Y-92276515D01*
X306778151Y-92366814D01*
X306383083Y-92445398D01*
X305980271Y-92445398D01*
X305585203Y-92366814D01*
X305367203Y-92276515D01*
X305213054Y-92212665D01*
X304878129Y-91988875D01*
X304593300Y-91704046D01*
X304369510Y-91369121D01*
X304272009Y-91133732D01*
X304215361Y-90996972D01*
X304136777Y-90601904D01*
X304136777Y-90199092D01*
X304215361Y-89804024D01*
X304336612Y-89511298D01*
X304369510Y-89431875D01*
X304593300Y-89096950D01*
X304878129Y-88812121D01*
X305213054Y-88588331D01*
X305367203Y-88524481D01*
X305585203Y-88434182D01*
X305980271Y-88355598D01*
X306383083Y-88355598D01*
X306778151Y-88434182D01*
X306778151Y-88434182D01*
G37*
G36*
X9377166Y-88428396D02*
G01*
X9595166Y-88518695D01*
X9749315Y-88582545D01*
X10084240Y-88806335D01*
X10369069Y-89091164D01*
X10592859Y-89426089D01*
X10628154Y-89511299D01*
X10747008Y-89798238D01*
X10825592Y-90193306D01*
X10825592Y-90596118D01*
X10747008Y-90991186D01*
X10699860Y-91105011D01*
X10592859Y-91363335D01*
X10369069Y-91698260D01*
X10084240Y-91983089D01*
X9749315Y-92206879D01*
X9595166Y-92270729D01*
X9377166Y-92361028D01*
X8982098Y-92439612D01*
X8579286Y-92439612D01*
X8184218Y-92361028D01*
X7966218Y-92270729D01*
X7812069Y-92206879D01*
X7477144Y-91983089D01*
X7192315Y-91698260D01*
X6968525Y-91363335D01*
X6861524Y-91105011D01*
X6814376Y-90991186D01*
X6735792Y-90596118D01*
X6735792Y-90193306D01*
X6814376Y-89798238D01*
X6933230Y-89511299D01*
X6968525Y-89426089D01*
X7192315Y-89091164D01*
X7477144Y-88806335D01*
X7812069Y-88582545D01*
X7966218Y-88518695D01*
X8184218Y-88428396D01*
X8579286Y-88349812D01*
X8982098Y-88349812D01*
X9377166Y-88428396D01*
X9377166Y-88428396D01*
G37*
G36*
X301409647Y-90129179D02*
G01*
X301578169Y-90198983D01*
X301729834Y-90300322D01*
X301858815Y-90429303D01*
X301960154Y-90580968D01*
X302029958Y-90749490D01*
X302065543Y-90928391D01*
X302065543Y-91110797D01*
X302029958Y-91289698D01*
X301960154Y-91458220D01*
X301858815Y-91609885D01*
X301729834Y-91738866D01*
X301578169Y-91840205D01*
X301409647Y-91910009D01*
X301230746Y-91945594D01*
X301048340Y-91945594D01*
X300869439Y-91910009D01*
X300700917Y-91840205D01*
X300549252Y-91738866D01*
X300420271Y-91609885D01*
X300318932Y-91458220D01*
X300249128Y-91289698D01*
X300213543Y-91110797D01*
X300213543Y-90928391D01*
X300249128Y-90749490D01*
X300318932Y-90580968D01*
X300420271Y-90429303D01*
X300549252Y-90300322D01*
X300700917Y-90198983D01*
X300869439Y-90129179D01*
X301048340Y-90093594D01*
X301230746Y-90093594D01*
X301409647Y-90129179D01*
X301409647Y-90129179D01*
G37*
G36*
X14092930Y-90123393D02*
G01*
X14261452Y-90193197D01*
X14413117Y-90294536D01*
X14542098Y-90423517D01*
X14643437Y-90575182D01*
X14713241Y-90743704D01*
X14748826Y-90922605D01*
X14748826Y-91105011D01*
X14713241Y-91283912D01*
X14643437Y-91452434D01*
X14542098Y-91604099D01*
X14413117Y-91733080D01*
X14261452Y-91834419D01*
X14092930Y-91904223D01*
X13914029Y-91939808D01*
X13731623Y-91939808D01*
X13552722Y-91904223D01*
X13384200Y-91834419D01*
X13232535Y-91733080D01*
X13103554Y-91604099D01*
X13002215Y-91452434D01*
X12932411Y-91283912D01*
X12896826Y-91105011D01*
X12896826Y-90922605D01*
X12932411Y-90743704D01*
X13002215Y-90575182D01*
X13103554Y-90423517D01*
X13232535Y-90294536D01*
X13384200Y-90193197D01*
X13552722Y-90123393D01*
X13731623Y-90087808D01*
X13914029Y-90087808D01*
X14092930Y-90123393D01*
X14092930Y-90123393D01*
G37*
G36*
X311493915Y-88890987D02*
G01*
X311662437Y-88960791D01*
X311814102Y-89062130D01*
X311943083Y-89191111D01*
X312044422Y-89342776D01*
X312114226Y-89511298D01*
X312149811Y-89690199D01*
X312149811Y-89872605D01*
X312114226Y-90051506D01*
X312044422Y-90220028D01*
X311943083Y-90371693D01*
X311814102Y-90500674D01*
X311662437Y-90602013D01*
X311493915Y-90671817D01*
X311315014Y-90707402D01*
X311132608Y-90707402D01*
X310953707Y-90671817D01*
X310785185Y-90602013D01*
X310633520Y-90500674D01*
X310504539Y-90371693D01*
X310403200Y-90220028D01*
X310333396Y-90051506D01*
X310297811Y-89872605D01*
X310297811Y-89690199D01*
X310333396Y-89511298D01*
X310403200Y-89342776D01*
X310504539Y-89191111D01*
X310633520Y-89062130D01*
X310785185Y-88960791D01*
X310953707Y-88890987D01*
X311132608Y-88855402D01*
X311315014Y-88855402D01*
X311493915Y-88890987D01*
X311493915Y-88890987D01*
G37*
G36*
X4008662Y-88885201D02*
G01*
X4177184Y-88955005D01*
X4328849Y-89056344D01*
X4457830Y-89185325D01*
X4559169Y-89336990D01*
X4628973Y-89505512D01*
X4664558Y-89684413D01*
X4664558Y-89866819D01*
X4628973Y-90045720D01*
X4559169Y-90214242D01*
X4457830Y-90365907D01*
X4328849Y-90494888D01*
X4177184Y-90596227D01*
X4008662Y-90666031D01*
X3829761Y-90701616D01*
X3647355Y-90701616D01*
X3468454Y-90666031D01*
X3299932Y-90596227D01*
X3148267Y-90494888D01*
X3019286Y-90365907D01*
X2917947Y-90214242D01*
X2848143Y-90045720D01*
X2812558Y-89866819D01*
X2812558Y-89684413D01*
X2848143Y-89505512D01*
X2917947Y-89336990D01*
X3019286Y-89185325D01*
X3148267Y-89056344D01*
X3299932Y-88955005D01*
X3468454Y-88885201D01*
X3647355Y-88849616D01*
X3829761Y-88849616D01*
X4008662Y-88885201D01*
X4008662Y-88885201D01*
G37*
G36*
X209916519Y-81134233D02*
G01*
X210134519Y-81224532D01*
X210288668Y-81288382D01*
X210623593Y-81512172D01*
X210908422Y-81797001D01*
X211132212Y-82131926D01*
X211165110Y-82211349D01*
X211286361Y-82504075D01*
X211364945Y-82899143D01*
X211364945Y-83301955D01*
X211286361Y-83697023D01*
X211239213Y-83810848D01*
X211132212Y-84069172D01*
X210908422Y-84404097D01*
X210623593Y-84688926D01*
X210288668Y-84912716D01*
X210134519Y-84976566D01*
X209916519Y-85066865D01*
X209521451Y-85145449D01*
X209118639Y-85145449D01*
X208723571Y-85066865D01*
X208505571Y-84976566D01*
X208351422Y-84912716D01*
X208016497Y-84688926D01*
X207731668Y-84404097D01*
X207507878Y-84069172D01*
X207400877Y-83810848D01*
X207353729Y-83697023D01*
X207275145Y-83301955D01*
X207275145Y-82899143D01*
X207353729Y-82504075D01*
X207474980Y-82211349D01*
X207507878Y-82131926D01*
X207731668Y-81797001D01*
X208016497Y-81512172D01*
X208351422Y-81288382D01*
X208505571Y-81224532D01*
X208723571Y-81134233D01*
X209118639Y-81055649D01*
X209521451Y-81055649D01*
X209916519Y-81134233D01*
X209916519Y-81134233D01*
G37*
G36*
X106238798Y-81128447D02*
G01*
X106456798Y-81218746D01*
X106610947Y-81282596D01*
X106945872Y-81506386D01*
X107230701Y-81791215D01*
X107454491Y-82126140D01*
X107518341Y-82280289D01*
X107608640Y-82498289D01*
X107687224Y-82893357D01*
X107687224Y-83296169D01*
X107608640Y-83691237D01*
X107561492Y-83805062D01*
X107454491Y-84063386D01*
X107230701Y-84398311D01*
X106945872Y-84683140D01*
X106610947Y-84906930D01*
X106456798Y-84970780D01*
X106238798Y-85061079D01*
X105843730Y-85139663D01*
X105440918Y-85139663D01*
X105045850Y-85061079D01*
X104827850Y-84970780D01*
X104673701Y-84906930D01*
X104338776Y-84683140D01*
X104053947Y-84398311D01*
X103830157Y-84063386D01*
X103723156Y-83805062D01*
X103676008Y-83691237D01*
X103597424Y-83296169D01*
X103597424Y-82893357D01*
X103676008Y-82498289D01*
X103766307Y-82280289D01*
X103830157Y-82126140D01*
X104053947Y-81791215D01*
X104338776Y-81506386D01*
X104673701Y-81282596D01*
X104827850Y-81218746D01*
X105045850Y-81128447D01*
X105440918Y-81049863D01*
X105843730Y-81049863D01*
X106238798Y-81128447D01*
X106238798Y-81128447D01*
G37*
G36*
X204548015Y-82829230D02*
G01*
X204716537Y-82899034D01*
X204868202Y-83000373D01*
X204997183Y-83129354D01*
X205098522Y-83281019D01*
X205168326Y-83449541D01*
X205203911Y-83628442D01*
X205203911Y-83810848D01*
X205168326Y-83989749D01*
X205098522Y-84158271D01*
X204997183Y-84309936D01*
X204868202Y-84438917D01*
X204716537Y-84540256D01*
X204548015Y-84610060D01*
X204369114Y-84645645D01*
X204186708Y-84645645D01*
X204007807Y-84610060D01*
X203839285Y-84540256D01*
X203687620Y-84438917D01*
X203558639Y-84309936D01*
X203457300Y-84158271D01*
X203387496Y-83989749D01*
X203351911Y-83810848D01*
X203351911Y-83628442D01*
X203387496Y-83449541D01*
X203457300Y-83281019D01*
X203558639Y-83129354D01*
X203687620Y-83000373D01*
X203839285Y-82899034D01*
X204007807Y-82829230D01*
X204186708Y-82793645D01*
X204369114Y-82793645D01*
X204548015Y-82829230D01*
X204548015Y-82829230D01*
G37*
G36*
X110954562Y-82823444D02*
G01*
X111123084Y-82893248D01*
X111274749Y-82994587D01*
X111403730Y-83123568D01*
X111505069Y-83275233D01*
X111574873Y-83443755D01*
X111610458Y-83622656D01*
X111610458Y-83805062D01*
X111574873Y-83983963D01*
X111505069Y-84152485D01*
X111403730Y-84304150D01*
X111274749Y-84433131D01*
X111123084Y-84534470D01*
X110954562Y-84604274D01*
X110775661Y-84639859D01*
X110593255Y-84639859D01*
X110414354Y-84604274D01*
X110245832Y-84534470D01*
X110094167Y-84433131D01*
X109965186Y-84304150D01*
X109863847Y-84152485D01*
X109794043Y-83983963D01*
X109758458Y-83805062D01*
X109758458Y-83622656D01*
X109794043Y-83443755D01*
X109863847Y-83275233D01*
X109965186Y-83123568D01*
X110094167Y-82994587D01*
X110245832Y-82893248D01*
X110414354Y-82823444D01*
X110593255Y-82787859D01*
X110775661Y-82787859D01*
X110954562Y-82823444D01*
X110954562Y-82823444D01*
G37*
G36*
X214632283Y-81591038D02*
G01*
X214800805Y-81660842D01*
X214952470Y-81762181D01*
X215081451Y-81891162D01*
X215182790Y-82042827D01*
X215252594Y-82211349D01*
X215288179Y-82390250D01*
X215288179Y-82572656D01*
X215252594Y-82751557D01*
X215182790Y-82920079D01*
X215081451Y-83071744D01*
X214952470Y-83200725D01*
X214800805Y-83302064D01*
X214632283Y-83371868D01*
X214453382Y-83407453D01*
X214270976Y-83407453D01*
X214092075Y-83371868D01*
X213923553Y-83302064D01*
X213771888Y-83200725D01*
X213642907Y-83071744D01*
X213541568Y-82920079D01*
X213471764Y-82751557D01*
X213436179Y-82572656D01*
X213436179Y-82390250D01*
X213471764Y-82211349D01*
X213541568Y-82042827D01*
X213642907Y-81891162D01*
X213771888Y-81762181D01*
X213923553Y-81660842D01*
X214092075Y-81591038D01*
X214270976Y-81555453D01*
X214453382Y-81555453D01*
X214632283Y-81591038D01*
X214632283Y-81591038D01*
G37*
G36*
X100870294Y-81585252D02*
G01*
X101038816Y-81655056D01*
X101190481Y-81756395D01*
X101319462Y-81885376D01*
X101420801Y-82037041D01*
X101490605Y-82205563D01*
X101526190Y-82384464D01*
X101526190Y-82566870D01*
X101490605Y-82745771D01*
X101420801Y-82914293D01*
X101319462Y-83065958D01*
X101190481Y-83194939D01*
X101038816Y-83296278D01*
X100870294Y-83366082D01*
X100691393Y-83401667D01*
X100508987Y-83401667D01*
X100330086Y-83366082D01*
X100161564Y-83296278D01*
X100009899Y-83194939D01*
X99880918Y-83065958D01*
X99779579Y-82914293D01*
X99709775Y-82745771D01*
X99674190Y-82566870D01*
X99674190Y-82384464D01*
X99709775Y-82205563D01*
X99779579Y-82037041D01*
X99880918Y-81885376D01*
X100009899Y-81756395D01*
X100161564Y-81655056D01*
X100330086Y-81585252D01*
X100508987Y-81549667D01*
X100691393Y-81549667D01*
X100870294Y-81585252D01*
X100870294Y-81585252D01*
G37*
G36*
X228824523Y-78812622D02*
G01*
X229042523Y-78902921D01*
X229196672Y-78966771D01*
X229531597Y-79190561D01*
X229816426Y-79475390D01*
X230040216Y-79810315D01*
X230073114Y-79889738D01*
X230194365Y-80182464D01*
X230272949Y-80577532D01*
X230272949Y-80980344D01*
X230194365Y-81375412D01*
X230137717Y-81512172D01*
X230040216Y-81747561D01*
X229816426Y-82082486D01*
X229531597Y-82367315D01*
X229196672Y-82591105D01*
X229042523Y-82654955D01*
X228824523Y-82745254D01*
X228429455Y-82823838D01*
X228026643Y-82823838D01*
X227631575Y-82745254D01*
X227413575Y-82654955D01*
X227259426Y-82591105D01*
X226924501Y-82367315D01*
X226639672Y-82082486D01*
X226415882Y-81747561D01*
X226318381Y-81512172D01*
X226261733Y-81375412D01*
X226183149Y-80980344D01*
X226183149Y-80577532D01*
X226261733Y-80182464D01*
X226382984Y-79889738D01*
X226415882Y-79810315D01*
X226639672Y-79475390D01*
X226924501Y-79190561D01*
X227259426Y-78966771D01*
X227413575Y-78902921D01*
X227631575Y-78812622D01*
X228026643Y-78734038D01*
X228429455Y-78734038D01*
X228824523Y-78812622D01*
X228824523Y-78812622D01*
G37*
G36*
X87330793Y-78806836D02*
G01*
X87548793Y-78897135D01*
X87702942Y-78960985D01*
X88037867Y-79184775D01*
X88322696Y-79469604D01*
X88546486Y-79804529D01*
X88593817Y-79918797D01*
X88700635Y-80176678D01*
X88779219Y-80571746D01*
X88779219Y-80974558D01*
X88700635Y-81369626D01*
X88653487Y-81483451D01*
X88546486Y-81741775D01*
X88322696Y-82076700D01*
X88037867Y-82361529D01*
X87702942Y-82585319D01*
X87548793Y-82649169D01*
X87330793Y-82739468D01*
X86935725Y-82818052D01*
X86532913Y-82818052D01*
X86137845Y-82739468D01*
X85919845Y-82649169D01*
X85765696Y-82585319D01*
X85430771Y-82361529D01*
X85145942Y-82076700D01*
X84922152Y-81741775D01*
X84815151Y-81483451D01*
X84768003Y-81369626D01*
X84689419Y-80974558D01*
X84689419Y-80571746D01*
X84768003Y-80176678D01*
X84874821Y-79918797D01*
X84922152Y-79804529D01*
X85145942Y-79469604D01*
X85430771Y-79184775D01*
X85765696Y-78960985D01*
X85919845Y-78897135D01*
X86137845Y-78806836D01*
X86532913Y-78728252D01*
X86935725Y-78728252D01*
X87330793Y-78806836D01*
X87330793Y-78806836D01*
G37*
G36*
X223456019Y-80507619D02*
G01*
X223624541Y-80577423D01*
X223776206Y-80678762D01*
X223905187Y-80807743D01*
X224006526Y-80959408D01*
X224076330Y-81127930D01*
X224111915Y-81306831D01*
X224111915Y-81489237D01*
X224076330Y-81668138D01*
X224006526Y-81836660D01*
X223905187Y-81988325D01*
X223776206Y-82117306D01*
X223624541Y-82218645D01*
X223456019Y-82288449D01*
X223277118Y-82324034D01*
X223094712Y-82324034D01*
X222915811Y-82288449D01*
X222747289Y-82218645D01*
X222595624Y-82117306D01*
X222466643Y-81988325D01*
X222365304Y-81836660D01*
X222295500Y-81668138D01*
X222259915Y-81489237D01*
X222259915Y-81306831D01*
X222295500Y-81127930D01*
X222365304Y-80959408D01*
X222466643Y-80807743D01*
X222595624Y-80678762D01*
X222747289Y-80577423D01*
X222915811Y-80507619D01*
X223094712Y-80472034D01*
X223277118Y-80472034D01*
X223456019Y-80507619D01*
X223456019Y-80507619D01*
G37*
G36*
X92046557Y-80501833D02*
G01*
X92215079Y-80571637D01*
X92366744Y-80672976D01*
X92495725Y-80801957D01*
X92597064Y-80953622D01*
X92666868Y-81122144D01*
X92702453Y-81301045D01*
X92702453Y-81483451D01*
X92666868Y-81662352D01*
X92597064Y-81830874D01*
X92495725Y-81982539D01*
X92366744Y-82111520D01*
X92215079Y-82212859D01*
X92046557Y-82282663D01*
X91867656Y-82318248D01*
X91685250Y-82318248D01*
X91506349Y-82282663D01*
X91337827Y-82212859D01*
X91186162Y-82111520D01*
X91057181Y-81982539D01*
X90955842Y-81830874D01*
X90886038Y-81662352D01*
X90850453Y-81483451D01*
X90850453Y-81301045D01*
X90886038Y-81122144D01*
X90955842Y-80953622D01*
X91057181Y-80801957D01*
X91186162Y-80672976D01*
X91337827Y-80571637D01*
X91506349Y-80501833D01*
X91685250Y-80466248D01*
X91867656Y-80466248D01*
X92046557Y-80501833D01*
X92046557Y-80501833D01*
G37*
G36*
X139026474Y-78043684D02*
G01*
X139182555Y-78108335D01*
X139398623Y-78197833D01*
X139733548Y-78421623D01*
X140018377Y-78706452D01*
X140242167Y-79041377D01*
X140274562Y-79119586D01*
X140396316Y-79413526D01*
X140474900Y-79808594D01*
X140474900Y-80211406D01*
X140396316Y-80606474D01*
X140312947Y-80807744D01*
X140242167Y-80978623D01*
X140018377Y-81313548D01*
X139733548Y-81598377D01*
X139398623Y-81822167D01*
X139246022Y-81885376D01*
X139026474Y-81976316D01*
X138631406Y-82054900D01*
X138228594Y-82054900D01*
X137833526Y-81976316D01*
X137613978Y-81885376D01*
X137461377Y-81822167D01*
X137126452Y-81598377D01*
X136841623Y-81313548D01*
X136617833Y-80978623D01*
X136547053Y-80807744D01*
X136463684Y-80606474D01*
X136385100Y-80211406D01*
X136385100Y-79808594D01*
X136463684Y-79413526D01*
X136585438Y-79119586D01*
X136617833Y-79041377D01*
X136841623Y-78706452D01*
X137126452Y-78421623D01*
X137461377Y-78197833D01*
X137677445Y-78108335D01*
X137833526Y-78043684D01*
X138228594Y-77965100D01*
X138631406Y-77965100D01*
X139026474Y-78043684D01*
X139026474Y-78043684D01*
G37*
G36*
X158076474Y-78043684D02*
G01*
X158232555Y-78108335D01*
X158448623Y-78197833D01*
X158783548Y-78421623D01*
X159068377Y-78706452D01*
X159292167Y-79041377D01*
X159324562Y-79119586D01*
X159446316Y-79413526D01*
X159524900Y-79808594D01*
X159524900Y-80211406D01*
X159446316Y-80606474D01*
X159362947Y-80807744D01*
X159292167Y-80978623D01*
X159068377Y-81313548D01*
X158783548Y-81598377D01*
X158448623Y-81822167D01*
X158296022Y-81885376D01*
X158076474Y-81976316D01*
X157681406Y-82054900D01*
X157278594Y-82054900D01*
X156883526Y-81976316D01*
X156663978Y-81885376D01*
X156511377Y-81822167D01*
X156176452Y-81598377D01*
X155891623Y-81313548D01*
X155667833Y-80978623D01*
X155597053Y-80807744D01*
X155513684Y-80606474D01*
X155435100Y-80211406D01*
X155435100Y-79808594D01*
X155513684Y-79413526D01*
X155635438Y-79119586D01*
X155667833Y-79041377D01*
X155891623Y-78706452D01*
X156176452Y-78421623D01*
X156511377Y-78197833D01*
X156727445Y-78108335D01*
X156883526Y-78043684D01*
X157278594Y-77965100D01*
X157681406Y-77965100D01*
X158076474Y-78043684D01*
X158076474Y-78043684D01*
G37*
G36*
X177126474Y-78043684D02*
G01*
X177282555Y-78108335D01*
X177498623Y-78197833D01*
X177833548Y-78421623D01*
X178118377Y-78706452D01*
X178342167Y-79041377D01*
X178374562Y-79119586D01*
X178496316Y-79413526D01*
X178574900Y-79808594D01*
X178574900Y-80211406D01*
X178496316Y-80606474D01*
X178412947Y-80807744D01*
X178342167Y-80978623D01*
X178118377Y-81313548D01*
X177833548Y-81598377D01*
X177498623Y-81822167D01*
X177346022Y-81885376D01*
X177126474Y-81976316D01*
X176731406Y-82054900D01*
X176328594Y-82054900D01*
X175933526Y-81976316D01*
X175713978Y-81885376D01*
X175561377Y-81822167D01*
X175226452Y-81598377D01*
X174941623Y-81313548D01*
X174717833Y-80978623D01*
X174647053Y-80807744D01*
X174563684Y-80606474D01*
X174485100Y-80211406D01*
X174485100Y-79808594D01*
X174563684Y-79413526D01*
X174685438Y-79119586D01*
X174717833Y-79041377D01*
X174941623Y-78706452D01*
X175226452Y-78421623D01*
X175561377Y-78197833D01*
X175777445Y-78108335D01*
X175933526Y-78043684D01*
X176328594Y-77965100D01*
X176731406Y-77965100D01*
X177126474Y-78043684D01*
X177126474Y-78043684D01*
G37*
G36*
X233540287Y-79269427D02*
G01*
X233708809Y-79339231D01*
X233860474Y-79440570D01*
X233989455Y-79569551D01*
X234090794Y-79721216D01*
X234160598Y-79889738D01*
X234196183Y-80068639D01*
X234196183Y-80251045D01*
X234160598Y-80429946D01*
X234090794Y-80598468D01*
X233989455Y-80750133D01*
X233860474Y-80879114D01*
X233708809Y-80980453D01*
X233540287Y-81050257D01*
X233361386Y-81085842D01*
X233178980Y-81085842D01*
X233000079Y-81050257D01*
X232831557Y-80980453D01*
X232679892Y-80879114D01*
X232550911Y-80750133D01*
X232449572Y-80598468D01*
X232379768Y-80429946D01*
X232344183Y-80251045D01*
X232344183Y-80068639D01*
X232379768Y-79889738D01*
X232449572Y-79721216D01*
X232550911Y-79569551D01*
X232679892Y-79440570D01*
X232831557Y-79339231D01*
X233000079Y-79269427D01*
X233178980Y-79233842D01*
X233361386Y-79233842D01*
X233540287Y-79269427D01*
X233540287Y-79269427D01*
G37*
G36*
X81962289Y-79263641D02*
G01*
X82130811Y-79333445D01*
X82282476Y-79434784D01*
X82411457Y-79563765D01*
X82512796Y-79715430D01*
X82582600Y-79883952D01*
X82618185Y-80062853D01*
X82618185Y-80245259D01*
X82582600Y-80424160D01*
X82512796Y-80592682D01*
X82411457Y-80744347D01*
X82282476Y-80873328D01*
X82130811Y-80974667D01*
X81962289Y-81044471D01*
X81783388Y-81080056D01*
X81600982Y-81080056D01*
X81422081Y-81044471D01*
X81253559Y-80974667D01*
X81101894Y-80873328D01*
X80972913Y-80744347D01*
X80871574Y-80592682D01*
X80801770Y-80424160D01*
X80766185Y-80245259D01*
X80766185Y-80062853D01*
X80801770Y-79883952D01*
X80871574Y-79715430D01*
X80972913Y-79563765D01*
X81101894Y-79434784D01*
X81253559Y-79333445D01*
X81422081Y-79263641D01*
X81600982Y-79228056D01*
X81783388Y-79228056D01*
X81962289Y-79263641D01*
X81962289Y-79263641D01*
G37*
G36*
X143780104Y-79119585D02*
G01*
X143948626Y-79189389D01*
X144100291Y-79290728D01*
X144229272Y-79419709D01*
X144330611Y-79571374D01*
X144400415Y-79739896D01*
X144436000Y-79918797D01*
X144436000Y-80101203D01*
X144400415Y-80280104D01*
X144330611Y-80448626D01*
X144229272Y-80600291D01*
X144100291Y-80729272D01*
X143948626Y-80830611D01*
X143780104Y-80900415D01*
X143601203Y-80936000D01*
X143418797Y-80936000D01*
X143239896Y-80900415D01*
X143071374Y-80830611D01*
X142919709Y-80729272D01*
X142790728Y-80600291D01*
X142689389Y-80448626D01*
X142619585Y-80280104D01*
X142584000Y-80101203D01*
X142584000Y-79918797D01*
X142619585Y-79739896D01*
X142689389Y-79571374D01*
X142790728Y-79419709D01*
X142919709Y-79290728D01*
X143071374Y-79189389D01*
X143239896Y-79119585D01*
X143418797Y-79084000D01*
X143601203Y-79084000D01*
X143780104Y-79119585D01*
X143780104Y-79119585D01*
G37*
G36*
X162830104Y-79119585D02*
G01*
X162998626Y-79189389D01*
X163150291Y-79290728D01*
X163279272Y-79419709D01*
X163380611Y-79571374D01*
X163450415Y-79739896D01*
X163486000Y-79918797D01*
X163486000Y-80101203D01*
X163450415Y-80280104D01*
X163380611Y-80448626D01*
X163279272Y-80600291D01*
X163150291Y-80729272D01*
X162998626Y-80830611D01*
X162830104Y-80900415D01*
X162651203Y-80936000D01*
X162468797Y-80936000D01*
X162289896Y-80900415D01*
X162121374Y-80830611D01*
X161969709Y-80729272D01*
X161840728Y-80600291D01*
X161739389Y-80448626D01*
X161669585Y-80280104D01*
X161634000Y-80101203D01*
X161634000Y-79918797D01*
X161669585Y-79739896D01*
X161739389Y-79571374D01*
X161840728Y-79419709D01*
X161969709Y-79290728D01*
X162121374Y-79189389D01*
X162289896Y-79119585D01*
X162468797Y-79084000D01*
X162651203Y-79084000D01*
X162830104Y-79119585D01*
X162830104Y-79119585D01*
G37*
G36*
X171720104Y-79119585D02*
G01*
X171888626Y-79189389D01*
X172040291Y-79290728D01*
X172169272Y-79419709D01*
X172270611Y-79571374D01*
X172340415Y-79739896D01*
X172376000Y-79918797D01*
X172376000Y-80101203D01*
X172340415Y-80280104D01*
X172270611Y-80448626D01*
X172169272Y-80600291D01*
X172040291Y-80729272D01*
X171888626Y-80830611D01*
X171720104Y-80900415D01*
X171541203Y-80936000D01*
X171358797Y-80936000D01*
X171179896Y-80900415D01*
X171011374Y-80830611D01*
X170859709Y-80729272D01*
X170730728Y-80600291D01*
X170629389Y-80448626D01*
X170559585Y-80280104D01*
X170524000Y-80101203D01*
X170524000Y-79918797D01*
X170559585Y-79739896D01*
X170629389Y-79571374D01*
X170730728Y-79419709D01*
X170859709Y-79290728D01*
X171011374Y-79189389D01*
X171179896Y-79119585D01*
X171358797Y-79084000D01*
X171541203Y-79084000D01*
X171720104Y-79119585D01*
X171720104Y-79119585D01*
G37*
G36*
X181880104Y-79119585D02*
G01*
X182048626Y-79189389D01*
X182200291Y-79290728D01*
X182329272Y-79419709D01*
X182430611Y-79571374D01*
X182500415Y-79739896D01*
X182536000Y-79918797D01*
X182536000Y-80101203D01*
X182500415Y-80280104D01*
X182430611Y-80448626D01*
X182329272Y-80600291D01*
X182200291Y-80729272D01*
X182048626Y-80830611D01*
X181880104Y-80900415D01*
X181701203Y-80936000D01*
X181518797Y-80936000D01*
X181339896Y-80900415D01*
X181171374Y-80830611D01*
X181019709Y-80729272D01*
X180890728Y-80600291D01*
X180789389Y-80448626D01*
X180719585Y-80280104D01*
X180684000Y-80101203D01*
X180684000Y-79918797D01*
X180719585Y-79739896D01*
X180789389Y-79571374D01*
X180890728Y-79419709D01*
X181019709Y-79290728D01*
X181171374Y-79189389D01*
X181339896Y-79119585D01*
X181518797Y-79084000D01*
X181701203Y-79084000D01*
X181880104Y-79119585D01*
X181880104Y-79119585D01*
G37*
G36*
X133620104Y-79119585D02*
G01*
X133788626Y-79189389D01*
X133940291Y-79290728D01*
X134069272Y-79419709D01*
X134170611Y-79571374D01*
X134240415Y-79739896D01*
X134276000Y-79918797D01*
X134276000Y-80101203D01*
X134240415Y-80280104D01*
X134170611Y-80448626D01*
X134069272Y-80600291D01*
X133940291Y-80729272D01*
X133788626Y-80830611D01*
X133620104Y-80900415D01*
X133441203Y-80936000D01*
X133258797Y-80936000D01*
X133079896Y-80900415D01*
X132911374Y-80830611D01*
X132759709Y-80729272D01*
X132630728Y-80600291D01*
X132529389Y-80448626D01*
X132459585Y-80280104D01*
X132424000Y-80101203D01*
X132424000Y-79918797D01*
X132459585Y-79739896D01*
X132529389Y-79571374D01*
X132630728Y-79419709D01*
X132759709Y-79290728D01*
X132911374Y-79189389D01*
X133079896Y-79119585D01*
X133258797Y-79084000D01*
X133441203Y-79084000D01*
X133620104Y-79119585D01*
X133620104Y-79119585D01*
G37*
G36*
X152670104Y-79119585D02*
G01*
X152838626Y-79189389D01*
X152990291Y-79290728D01*
X153119272Y-79419709D01*
X153220611Y-79571374D01*
X153290415Y-79739896D01*
X153326000Y-79918797D01*
X153326000Y-80101203D01*
X153290415Y-80280104D01*
X153220611Y-80448626D01*
X153119272Y-80600291D01*
X152990291Y-80729272D01*
X152838626Y-80830611D01*
X152670104Y-80900415D01*
X152491203Y-80936000D01*
X152308797Y-80936000D01*
X152129896Y-80900415D01*
X151961374Y-80830611D01*
X151809709Y-80729272D01*
X151680728Y-80600291D01*
X151579389Y-80448626D01*
X151509585Y-80280104D01*
X151474000Y-80101203D01*
X151474000Y-79918797D01*
X151509585Y-79739896D01*
X151579389Y-79571374D01*
X151680728Y-79419709D01*
X151809709Y-79290728D01*
X151961374Y-79189389D01*
X152129896Y-79119585D01*
X152308797Y-79084000D01*
X152491203Y-79084000D01*
X152670104Y-79119585D01*
X152670104Y-79119585D01*
G37*
G36*
X247732528Y-76491011D02*
G01*
X247950528Y-76581310D01*
X248104677Y-76645160D01*
X248439602Y-76868950D01*
X248724431Y-77153779D01*
X248948221Y-77488704D01*
X248981119Y-77568127D01*
X249102370Y-77860853D01*
X249180954Y-78255921D01*
X249180954Y-78658733D01*
X249102370Y-79053801D01*
X249045722Y-79190561D01*
X248948221Y-79425950D01*
X248724431Y-79760875D01*
X248439602Y-80045704D01*
X248104677Y-80269494D01*
X247950528Y-80333344D01*
X247732528Y-80423643D01*
X247337460Y-80502227D01*
X246934648Y-80502227D01*
X246539580Y-80423643D01*
X246321580Y-80333344D01*
X246167431Y-80269494D01*
X245832506Y-80045704D01*
X245547677Y-79760875D01*
X245323887Y-79425950D01*
X245226386Y-79190561D01*
X245169738Y-79053801D01*
X245091154Y-78658733D01*
X245091154Y-78255921D01*
X245169738Y-77860853D01*
X245290989Y-77568127D01*
X245323887Y-77488704D01*
X245547677Y-77153779D01*
X245832506Y-76868950D01*
X246167431Y-76645160D01*
X246321580Y-76581310D01*
X246539580Y-76491011D01*
X246934648Y-76412427D01*
X247337460Y-76412427D01*
X247732528Y-76491011D01*
X247732528Y-76491011D01*
G37*
G36*
X68422789Y-76485225D02*
G01*
X68640789Y-76575524D01*
X68794938Y-76639374D01*
X69129863Y-76863164D01*
X69414692Y-77147993D01*
X69638482Y-77482918D01*
X69702332Y-77637067D01*
X69792631Y-77855067D01*
X69871215Y-78250135D01*
X69871215Y-78652947D01*
X69792631Y-79048015D01*
X69762985Y-79119586D01*
X69638482Y-79420164D01*
X69414692Y-79755089D01*
X69129863Y-80039918D01*
X68794938Y-80263708D01*
X68755354Y-80280104D01*
X68422789Y-80417857D01*
X68027721Y-80496441D01*
X67624909Y-80496441D01*
X67229841Y-80417857D01*
X66897276Y-80280104D01*
X66857692Y-80263708D01*
X66522767Y-80039918D01*
X66237938Y-79755089D01*
X66014148Y-79420164D01*
X65889645Y-79119586D01*
X65859999Y-79048015D01*
X65781415Y-78652947D01*
X65781415Y-78250135D01*
X65859999Y-77855067D01*
X65950298Y-77637067D01*
X66014148Y-77482918D01*
X66237938Y-77147993D01*
X66522767Y-76863164D01*
X66857692Y-76639374D01*
X67011841Y-76575524D01*
X67229841Y-76485225D01*
X67624909Y-76406641D01*
X68027721Y-76406641D01*
X68422789Y-76485225D01*
X68422789Y-76485225D01*
G37*
G36*
X242364024Y-78186008D02*
G01*
X242532546Y-78255812D01*
X242684211Y-78357151D01*
X242813192Y-78486132D01*
X242914531Y-78637797D01*
X242984335Y-78806319D01*
X243019920Y-78985220D01*
X243019920Y-79167626D01*
X242984335Y-79346527D01*
X242914531Y-79515049D01*
X242813192Y-79666714D01*
X242684211Y-79795695D01*
X242532546Y-79897034D01*
X242364024Y-79966838D01*
X242185123Y-80002423D01*
X242002717Y-80002423D01*
X241823816Y-79966838D01*
X241655294Y-79897034D01*
X241503629Y-79795695D01*
X241374648Y-79666714D01*
X241273309Y-79515049D01*
X241203505Y-79346527D01*
X241167920Y-79167626D01*
X241167920Y-78985220D01*
X241203505Y-78806319D01*
X241273309Y-78637797D01*
X241374648Y-78486132D01*
X241503629Y-78357151D01*
X241655294Y-78255812D01*
X241823816Y-78186008D01*
X242002717Y-78150423D01*
X242185123Y-78150423D01*
X242364024Y-78186008D01*
X242364024Y-78186008D01*
G37*
G36*
X73138553Y-78180222D02*
G01*
X73307075Y-78250026D01*
X73458740Y-78351365D01*
X73587721Y-78480346D01*
X73689060Y-78632011D01*
X73758864Y-78800533D01*
X73794449Y-78979434D01*
X73794449Y-79161840D01*
X73758864Y-79340741D01*
X73689060Y-79509263D01*
X73587721Y-79660928D01*
X73458740Y-79789909D01*
X73307075Y-79891248D01*
X73138553Y-79961052D01*
X72959652Y-79996637D01*
X72777246Y-79996637D01*
X72598345Y-79961052D01*
X72429823Y-79891248D01*
X72278158Y-79789909D01*
X72149177Y-79660928D01*
X72047838Y-79509263D01*
X71978034Y-79340741D01*
X71942449Y-79161840D01*
X71942449Y-78979434D01*
X71978034Y-78800533D01*
X72047838Y-78632011D01*
X72149177Y-78480346D01*
X72278158Y-78351365D01*
X72429823Y-78250026D01*
X72598345Y-78180222D01*
X72777246Y-78144637D01*
X72959652Y-78144637D01*
X73138553Y-78180222D01*
X73138553Y-78180222D01*
G37*
G36*
X252448292Y-76947816D02*
G01*
X252616814Y-77017620D01*
X252768479Y-77118959D01*
X252897460Y-77247940D01*
X252998799Y-77399605D01*
X253068603Y-77568127D01*
X253104188Y-77747028D01*
X253104188Y-77929434D01*
X253068603Y-78108335D01*
X252998799Y-78276857D01*
X252897460Y-78428522D01*
X252768479Y-78557503D01*
X252616814Y-78658842D01*
X252448292Y-78728646D01*
X252269391Y-78764231D01*
X252086985Y-78764231D01*
X251908084Y-78728646D01*
X251739562Y-78658842D01*
X251587897Y-78557503D01*
X251458916Y-78428522D01*
X251357577Y-78276857D01*
X251287773Y-78108335D01*
X251252188Y-77929434D01*
X251252188Y-77747028D01*
X251287773Y-77568127D01*
X251357577Y-77399605D01*
X251458916Y-77247940D01*
X251587897Y-77118959D01*
X251739562Y-77017620D01*
X251908084Y-76947816D01*
X252086985Y-76912231D01*
X252269391Y-76912231D01*
X252448292Y-76947816D01*
X252448292Y-76947816D01*
G37*
G36*
X63054285Y-76942030D02*
G01*
X63222807Y-77011834D01*
X63374472Y-77113173D01*
X63503453Y-77242154D01*
X63604792Y-77393819D01*
X63674596Y-77562341D01*
X63710181Y-77741242D01*
X63710181Y-77923648D01*
X63674596Y-78102549D01*
X63604792Y-78271071D01*
X63503453Y-78422736D01*
X63374472Y-78551717D01*
X63222807Y-78653056D01*
X63054285Y-78722860D01*
X62875384Y-78758445D01*
X62692978Y-78758445D01*
X62514077Y-78722860D01*
X62345555Y-78653056D01*
X62193890Y-78551717D01*
X62064909Y-78422736D01*
X61963570Y-78271071D01*
X61893766Y-78102549D01*
X61858181Y-77923648D01*
X61858181Y-77741242D01*
X61893766Y-77562341D01*
X61963570Y-77393819D01*
X62064909Y-77242154D01*
X62193890Y-77113173D01*
X62345555Y-77011834D01*
X62514077Y-76942030D01*
X62692978Y-76906445D01*
X62875384Y-76906445D01*
X63054285Y-76942030D01*
X63054285Y-76942030D01*
G37*
G36*
X266640532Y-74169400D02*
G01*
X266858532Y-74259699D01*
X267012681Y-74323549D01*
X267347606Y-74547339D01*
X267632435Y-74832168D01*
X267856225Y-75167093D01*
X267889123Y-75246516D01*
X268010374Y-75539242D01*
X268088958Y-75934310D01*
X268088958Y-76337122D01*
X268010374Y-76732190D01*
X267953726Y-76868950D01*
X267856225Y-77104339D01*
X267632435Y-77439264D01*
X267347606Y-77724093D01*
X267012681Y-77947883D01*
X266971115Y-77965100D01*
X266640532Y-78102032D01*
X266245464Y-78180616D01*
X265842652Y-78180616D01*
X265447584Y-78102032D01*
X265117001Y-77965100D01*
X265075435Y-77947883D01*
X264740510Y-77724093D01*
X264455681Y-77439264D01*
X264231891Y-77104339D01*
X264134390Y-76868950D01*
X264077742Y-76732190D01*
X263999158Y-76337122D01*
X263999158Y-75934310D01*
X264077742Y-75539242D01*
X264198993Y-75246516D01*
X264231891Y-75167093D01*
X264455681Y-74832168D01*
X264740510Y-74547339D01*
X265075435Y-74323549D01*
X265229584Y-74259699D01*
X265447584Y-74169400D01*
X265842652Y-74090816D01*
X266245464Y-74090816D01*
X266640532Y-74169400D01*
X266640532Y-74169400D01*
G37*
G36*
X49514785Y-74163614D02*
G01*
X49732785Y-74253913D01*
X49886934Y-74317763D01*
X50221859Y-74541553D01*
X50506688Y-74826382D01*
X50730478Y-75161307D01*
X50794328Y-75315456D01*
X50884627Y-75533456D01*
X50963211Y-75928524D01*
X50963211Y-76331336D01*
X50884627Y-76726404D01*
X50837479Y-76840229D01*
X50730478Y-77098553D01*
X50506688Y-77433478D01*
X50221859Y-77718307D01*
X49886934Y-77942097D01*
X49732785Y-78005947D01*
X49514785Y-78096246D01*
X49119717Y-78174830D01*
X48716905Y-78174830D01*
X48321837Y-78096246D01*
X48103837Y-78005947D01*
X47949688Y-77942097D01*
X47614763Y-77718307D01*
X47329934Y-77433478D01*
X47106144Y-77098553D01*
X46999143Y-76840229D01*
X46951995Y-76726404D01*
X46873411Y-76331336D01*
X46873411Y-75928524D01*
X46951995Y-75533456D01*
X47042294Y-75315456D01*
X47106144Y-75161307D01*
X47329934Y-74826382D01*
X47614763Y-74541553D01*
X47949688Y-74317763D01*
X48103837Y-74253913D01*
X48321837Y-74163614D01*
X48716905Y-74085030D01*
X49119717Y-74085030D01*
X49514785Y-74163614D01*
X49514785Y-74163614D01*
G37*
G36*
X261272028Y-75864397D02*
G01*
X261440550Y-75934201D01*
X261592215Y-76035540D01*
X261721196Y-76164521D01*
X261822535Y-76316186D01*
X261892339Y-76484708D01*
X261927924Y-76663609D01*
X261927924Y-76846015D01*
X261892339Y-77024916D01*
X261822535Y-77193438D01*
X261721196Y-77345103D01*
X261592215Y-77474084D01*
X261440550Y-77575423D01*
X261272028Y-77645227D01*
X261093127Y-77680812D01*
X260910721Y-77680812D01*
X260731820Y-77645227D01*
X260563298Y-77575423D01*
X260411633Y-77474084D01*
X260282652Y-77345103D01*
X260181313Y-77193438D01*
X260111509Y-77024916D01*
X260075924Y-76846015D01*
X260075924Y-76663609D01*
X260111509Y-76484708D01*
X260181313Y-76316186D01*
X260282652Y-76164521D01*
X260411633Y-76035540D01*
X260563298Y-75934201D01*
X260731820Y-75864397D01*
X260910721Y-75828812D01*
X261093127Y-75828812D01*
X261272028Y-75864397D01*
X261272028Y-75864397D01*
G37*
G36*
X54230549Y-75858611D02*
G01*
X54399071Y-75928415D01*
X54550736Y-76029754D01*
X54679717Y-76158735D01*
X54781056Y-76310400D01*
X54850860Y-76478922D01*
X54886445Y-76657823D01*
X54886445Y-76840229D01*
X54850860Y-77019130D01*
X54781056Y-77187652D01*
X54679717Y-77339317D01*
X54550736Y-77468298D01*
X54399071Y-77569637D01*
X54230549Y-77639441D01*
X54051648Y-77675026D01*
X53869242Y-77675026D01*
X53690341Y-77639441D01*
X53521819Y-77569637D01*
X53370154Y-77468298D01*
X53241173Y-77339317D01*
X53139834Y-77187652D01*
X53070030Y-77019130D01*
X53034445Y-76840229D01*
X53034445Y-76657823D01*
X53070030Y-76478922D01*
X53139834Y-76310400D01*
X53241173Y-76158735D01*
X53370154Y-76029754D01*
X53521819Y-75928415D01*
X53690341Y-75858611D01*
X53869242Y-75823026D01*
X54051648Y-75823026D01*
X54230549Y-75858611D01*
X54230549Y-75858611D01*
G37*
G36*
X271356296Y-74626205D02*
G01*
X271524818Y-74696009D01*
X271676483Y-74797348D01*
X271805464Y-74926329D01*
X271906803Y-75077994D01*
X271976607Y-75246516D01*
X272012192Y-75425417D01*
X272012192Y-75607823D01*
X271976607Y-75786724D01*
X271906803Y-75955246D01*
X271805464Y-76106911D01*
X271676483Y-76235892D01*
X271524818Y-76337231D01*
X271356296Y-76407035D01*
X271177395Y-76442620D01*
X270994989Y-76442620D01*
X270816088Y-76407035D01*
X270647566Y-76337231D01*
X270495901Y-76235892D01*
X270366920Y-76106911D01*
X270265581Y-75955246D01*
X270195777Y-75786724D01*
X270160192Y-75607823D01*
X270160192Y-75425417D01*
X270195777Y-75246516D01*
X270265581Y-75077994D01*
X270366920Y-74926329D01*
X270495901Y-74797348D01*
X270647566Y-74696009D01*
X270816088Y-74626205D01*
X270994989Y-74590620D01*
X271177395Y-74590620D01*
X271356296Y-74626205D01*
X271356296Y-74626205D01*
G37*
G36*
X44146281Y-74620419D02*
G01*
X44314803Y-74690223D01*
X44466468Y-74791562D01*
X44595449Y-74920543D01*
X44696788Y-75072208D01*
X44766592Y-75240730D01*
X44802177Y-75419631D01*
X44802177Y-75602037D01*
X44766592Y-75780938D01*
X44696788Y-75949460D01*
X44595449Y-76101125D01*
X44466468Y-76230106D01*
X44314803Y-76331445D01*
X44146281Y-76401249D01*
X43967380Y-76436834D01*
X43784974Y-76436834D01*
X43606073Y-76401249D01*
X43437551Y-76331445D01*
X43285886Y-76230106D01*
X43156905Y-76101125D01*
X43055566Y-75949460D01*
X42985762Y-75780938D01*
X42950177Y-75602037D01*
X42950177Y-75419631D01*
X42985762Y-75240730D01*
X43055566Y-75072208D01*
X43156905Y-74920543D01*
X43285886Y-74791562D01*
X43437551Y-74690223D01*
X43606073Y-74620419D01*
X43784974Y-74584834D01*
X43967380Y-74584834D01*
X44146281Y-74620419D01*
X44146281Y-74620419D01*
G37*
G36*
X285548536Y-71847789D02*
G01*
X285766536Y-71938088D01*
X285920685Y-72001938D01*
X286255610Y-72225728D01*
X286540439Y-72510557D01*
X286764229Y-72845482D01*
X286797127Y-72924905D01*
X286918378Y-73217631D01*
X286996962Y-73612699D01*
X286996962Y-74015511D01*
X286918378Y-74410579D01*
X286861730Y-74547339D01*
X286764229Y-74782728D01*
X286540439Y-75117653D01*
X286255610Y-75402482D01*
X285920685Y-75626272D01*
X285766536Y-75690122D01*
X285548536Y-75780421D01*
X285153468Y-75859005D01*
X284750656Y-75859005D01*
X284355588Y-75780421D01*
X284137588Y-75690122D01*
X283983439Y-75626272D01*
X283648514Y-75402482D01*
X283363685Y-75117653D01*
X283139895Y-74782728D01*
X283042394Y-74547339D01*
X282985746Y-74410579D01*
X282907162Y-74015511D01*
X282907162Y-73612699D01*
X282985746Y-73217631D01*
X283106997Y-72924905D01*
X283139895Y-72845482D01*
X283363685Y-72510557D01*
X283648514Y-72225728D01*
X283983439Y-72001938D01*
X284137588Y-71938088D01*
X284355588Y-71847789D01*
X284750656Y-71769205D01*
X285153468Y-71769205D01*
X285548536Y-71847789D01*
X285548536Y-71847789D01*
G37*
G36*
X30606781Y-71842003D02*
G01*
X30824781Y-71932302D01*
X30978930Y-71996152D01*
X31313855Y-72219942D01*
X31598684Y-72504771D01*
X31822474Y-72839696D01*
X31886324Y-72993845D01*
X31976623Y-73211845D01*
X32055207Y-73606913D01*
X32055207Y-74009725D01*
X31976623Y-74404793D01*
X31929475Y-74518618D01*
X31822474Y-74776942D01*
X31598684Y-75111867D01*
X31313855Y-75396696D01*
X30978930Y-75620486D01*
X30824781Y-75684336D01*
X30606781Y-75774635D01*
X30211713Y-75853219D01*
X29808901Y-75853219D01*
X29413833Y-75774635D01*
X29195833Y-75684336D01*
X29041684Y-75620486D01*
X28706759Y-75396696D01*
X28421930Y-75111867D01*
X28198140Y-74776942D01*
X28091139Y-74518618D01*
X28043991Y-74404793D01*
X27965407Y-74009725D01*
X27965407Y-73606913D01*
X28043991Y-73211845D01*
X28134290Y-72993845D01*
X28198140Y-72839696D01*
X28421930Y-72504771D01*
X28706759Y-72219942D01*
X29041684Y-71996152D01*
X29195833Y-71932302D01*
X29413833Y-71842003D01*
X29808901Y-71763419D01*
X30211713Y-71763419D01*
X30606781Y-71842003D01*
X30606781Y-71842003D01*
G37*
G36*
X280180032Y-73542786D02*
G01*
X280348554Y-73612590D01*
X280500219Y-73713929D01*
X280629200Y-73842910D01*
X280730539Y-73994575D01*
X280800343Y-74163097D01*
X280835928Y-74341998D01*
X280835928Y-74524404D01*
X280800343Y-74703305D01*
X280730539Y-74871827D01*
X280629200Y-75023492D01*
X280500219Y-75152473D01*
X280348554Y-75253812D01*
X280180032Y-75323616D01*
X280001131Y-75359201D01*
X279818725Y-75359201D01*
X279639824Y-75323616D01*
X279471302Y-75253812D01*
X279319637Y-75152473D01*
X279190656Y-75023492D01*
X279089317Y-74871827D01*
X279019513Y-74703305D01*
X278983928Y-74524404D01*
X278983928Y-74341998D01*
X279019513Y-74163097D01*
X279089317Y-73994575D01*
X279190656Y-73842910D01*
X279319637Y-73713929D01*
X279471302Y-73612590D01*
X279639824Y-73542786D01*
X279818725Y-73507201D01*
X280001131Y-73507201D01*
X280180032Y-73542786D01*
X280180032Y-73542786D01*
G37*
G36*
X35322545Y-73537000D02*
G01*
X35491067Y-73606804D01*
X35642732Y-73708143D01*
X35771713Y-73837124D01*
X35873052Y-73988789D01*
X35942856Y-74157311D01*
X35978441Y-74336212D01*
X35978441Y-74518618D01*
X35942856Y-74697519D01*
X35873052Y-74866041D01*
X35771713Y-75017706D01*
X35642732Y-75146687D01*
X35491067Y-75248026D01*
X35322545Y-75317830D01*
X35143644Y-75353415D01*
X34961238Y-75353415D01*
X34782337Y-75317830D01*
X34613815Y-75248026D01*
X34462150Y-75146687D01*
X34333169Y-75017706D01*
X34231830Y-74866041D01*
X34162026Y-74697519D01*
X34126441Y-74518618D01*
X34126441Y-74336212D01*
X34162026Y-74157311D01*
X34231830Y-73988789D01*
X34333169Y-73837124D01*
X34462150Y-73708143D01*
X34613815Y-73606804D01*
X34782337Y-73537000D01*
X34961238Y-73501415D01*
X35143644Y-73501415D01*
X35322545Y-73537000D01*
X35322545Y-73537000D01*
G37*
G36*
X290264300Y-72304594D02*
G01*
X290432822Y-72374398D01*
X290584487Y-72475737D01*
X290713468Y-72604718D01*
X290814807Y-72756383D01*
X290884611Y-72924905D01*
X290920196Y-73103806D01*
X290920196Y-73286212D01*
X290884611Y-73465113D01*
X290814807Y-73633635D01*
X290713468Y-73785300D01*
X290584487Y-73914281D01*
X290432822Y-74015620D01*
X290264300Y-74085424D01*
X290085399Y-74121009D01*
X289902993Y-74121009D01*
X289724092Y-74085424D01*
X289555570Y-74015620D01*
X289403905Y-73914281D01*
X289274924Y-73785300D01*
X289173585Y-73633635D01*
X289103781Y-73465113D01*
X289068196Y-73286212D01*
X289068196Y-73103806D01*
X289103781Y-72924905D01*
X289173585Y-72756383D01*
X289274924Y-72604718D01*
X289403905Y-72475737D01*
X289555570Y-72374398D01*
X289724092Y-72304594D01*
X289902993Y-72269009D01*
X290085399Y-72269009D01*
X290264300Y-72304594D01*
X290264300Y-72304594D01*
G37*
G36*
X25238277Y-72298808D02*
G01*
X25406799Y-72368612D01*
X25558464Y-72469951D01*
X25687445Y-72598932D01*
X25788784Y-72750597D01*
X25858588Y-72919119D01*
X25894173Y-73098020D01*
X25894173Y-73280426D01*
X25858588Y-73459327D01*
X25788784Y-73627849D01*
X25687445Y-73779514D01*
X25558464Y-73908495D01*
X25406799Y-74009834D01*
X25238277Y-74079638D01*
X25059376Y-74115223D01*
X24876970Y-74115223D01*
X24698069Y-74079638D01*
X24529547Y-74009834D01*
X24377882Y-73908495D01*
X24248901Y-73779514D01*
X24147562Y-73627849D01*
X24077758Y-73459327D01*
X24042173Y-73280426D01*
X24042173Y-73098020D01*
X24077758Y-72919119D01*
X24147562Y-72750597D01*
X24248901Y-72598932D01*
X24377882Y-72469951D01*
X24529547Y-72368612D01*
X24698069Y-72298808D01*
X24876970Y-72263223D01*
X25059376Y-72263223D01*
X25238277Y-72298808D01*
X25238277Y-72298808D01*
G37*
G36*
X304456540Y-69526178D02*
G01*
X304674540Y-69616477D01*
X304828689Y-69680327D01*
X305163614Y-69904117D01*
X305448443Y-70188946D01*
X305672233Y-70523871D01*
X305705131Y-70603294D01*
X305826382Y-70896020D01*
X305904966Y-71291088D01*
X305904966Y-71693900D01*
X305826382Y-72088968D01*
X305769734Y-72225728D01*
X305672233Y-72461117D01*
X305448443Y-72796042D01*
X305163614Y-73080871D01*
X304828689Y-73304661D01*
X304674540Y-73368511D01*
X304456540Y-73458810D01*
X304061472Y-73537394D01*
X303658660Y-73537394D01*
X303263592Y-73458810D01*
X303045592Y-73368511D01*
X302891443Y-73304661D01*
X302556518Y-73080871D01*
X302271689Y-72796042D01*
X302047899Y-72461117D01*
X301950398Y-72225728D01*
X301893750Y-72088968D01*
X301815166Y-71693900D01*
X301815166Y-71291088D01*
X301893750Y-70896020D01*
X302015001Y-70603294D01*
X302047899Y-70523871D01*
X302271689Y-70188946D01*
X302556518Y-69904117D01*
X302891443Y-69680327D01*
X303045592Y-69616477D01*
X303263592Y-69526178D01*
X303658660Y-69447594D01*
X304061472Y-69447594D01*
X304456540Y-69526178D01*
X304456540Y-69526178D01*
G37*
G36*
X11698777Y-69520392D02*
G01*
X11916777Y-69610691D01*
X12070926Y-69674541D01*
X12405851Y-69898331D01*
X12690680Y-70183160D01*
X12914470Y-70518085D01*
X12949765Y-70603295D01*
X13068619Y-70890234D01*
X13147203Y-71285302D01*
X13147203Y-71688114D01*
X13068619Y-72083182D01*
X13021471Y-72197007D01*
X12914470Y-72455331D01*
X12690680Y-72790256D01*
X12405851Y-73075085D01*
X12070926Y-73298875D01*
X11916777Y-73362725D01*
X11698777Y-73453024D01*
X11303709Y-73531608D01*
X10900897Y-73531608D01*
X10505829Y-73453024D01*
X10287829Y-73362725D01*
X10133680Y-73298875D01*
X9798755Y-73075085D01*
X9513926Y-72790256D01*
X9290136Y-72455331D01*
X9183135Y-72197007D01*
X9135987Y-72083182D01*
X9057403Y-71688114D01*
X9057403Y-71285302D01*
X9135987Y-70890234D01*
X9254841Y-70603295D01*
X9290136Y-70518085D01*
X9513926Y-70183160D01*
X9798755Y-69898331D01*
X10133680Y-69674541D01*
X10287829Y-69610691D01*
X10505829Y-69520392D01*
X10900897Y-69441808D01*
X11303709Y-69441808D01*
X11698777Y-69520392D01*
X11698777Y-69520392D01*
G37*
G36*
X299088036Y-71221175D02*
G01*
X299256558Y-71290979D01*
X299408223Y-71392318D01*
X299537204Y-71521299D01*
X299638543Y-71672964D01*
X299708347Y-71841486D01*
X299743932Y-72020387D01*
X299743932Y-72202793D01*
X299708347Y-72381694D01*
X299638543Y-72550216D01*
X299537204Y-72701881D01*
X299408223Y-72830862D01*
X299256558Y-72932201D01*
X299088036Y-73002005D01*
X298909135Y-73037590D01*
X298726729Y-73037590D01*
X298547828Y-73002005D01*
X298379306Y-72932201D01*
X298227641Y-72830862D01*
X298098660Y-72701881D01*
X297997321Y-72550216D01*
X297927517Y-72381694D01*
X297891932Y-72202793D01*
X297891932Y-72020387D01*
X297927517Y-71841486D01*
X297997321Y-71672964D01*
X298098660Y-71521299D01*
X298227641Y-71392318D01*
X298379306Y-71290979D01*
X298547828Y-71221175D01*
X298726729Y-71185590D01*
X298909135Y-71185590D01*
X299088036Y-71221175D01*
X299088036Y-71221175D01*
G37*
G36*
X16414541Y-71215389D02*
G01*
X16583063Y-71285193D01*
X16734728Y-71386532D01*
X16863709Y-71515513D01*
X16965048Y-71667178D01*
X17034852Y-71835700D01*
X17070437Y-72014601D01*
X17070437Y-72197007D01*
X17034852Y-72375908D01*
X16965048Y-72544430D01*
X16863709Y-72696095D01*
X16734728Y-72825076D01*
X16583063Y-72926415D01*
X16414541Y-72996219D01*
X16235640Y-73031804D01*
X16053234Y-73031804D01*
X15874333Y-72996219D01*
X15705811Y-72926415D01*
X15554146Y-72825076D01*
X15425165Y-72696095D01*
X15323826Y-72544430D01*
X15254022Y-72375908D01*
X15218437Y-72197007D01*
X15218437Y-72014601D01*
X15254022Y-71835700D01*
X15323826Y-71667178D01*
X15425165Y-71515513D01*
X15554146Y-71386532D01*
X15705811Y-71285193D01*
X15874333Y-71215389D01*
X16053234Y-71179804D01*
X16235640Y-71179804D01*
X16414541Y-71215389D01*
X16414541Y-71215389D01*
G37*
G36*
X309172304Y-69982983D02*
G01*
X309340826Y-70052787D01*
X309492491Y-70154126D01*
X309621472Y-70283107D01*
X309722811Y-70434772D01*
X309792615Y-70603294D01*
X309828200Y-70782195D01*
X309828200Y-70964601D01*
X309792615Y-71143502D01*
X309722811Y-71312024D01*
X309621472Y-71463689D01*
X309492491Y-71592670D01*
X309340826Y-71694009D01*
X309172304Y-71763813D01*
X308993403Y-71799398D01*
X308810997Y-71799398D01*
X308632096Y-71763813D01*
X308463574Y-71694009D01*
X308311909Y-71592670D01*
X308182928Y-71463689D01*
X308081589Y-71312024D01*
X308011785Y-71143502D01*
X307976200Y-70964601D01*
X307976200Y-70782195D01*
X308011785Y-70603294D01*
X308081589Y-70434772D01*
X308182928Y-70283107D01*
X308311909Y-70154126D01*
X308463574Y-70052787D01*
X308632096Y-69982983D01*
X308810997Y-69947398D01*
X308993403Y-69947398D01*
X309172304Y-69982983D01*
X309172304Y-69982983D01*
G37*
G36*
X6330273Y-69977197D02*
G01*
X6498795Y-70047001D01*
X6650460Y-70148340D01*
X6779441Y-70277321D01*
X6880780Y-70428986D01*
X6950584Y-70597508D01*
X6986169Y-70776409D01*
X6986169Y-70958815D01*
X6950584Y-71137716D01*
X6880780Y-71306238D01*
X6779441Y-71457903D01*
X6650460Y-71586884D01*
X6498795Y-71688223D01*
X6330273Y-71758027D01*
X6151372Y-71793612D01*
X5968966Y-71793612D01*
X5790065Y-71758027D01*
X5621543Y-71688223D01*
X5469878Y-71586884D01*
X5340897Y-71457903D01*
X5239558Y-71306238D01*
X5169754Y-71137716D01*
X5134169Y-70958815D01*
X5134169Y-70776409D01*
X5169754Y-70597508D01*
X5239558Y-70428986D01*
X5340897Y-70277321D01*
X5469878Y-70148340D01*
X5621543Y-70047001D01*
X5790065Y-69977197D01*
X5968966Y-69941612D01*
X6151372Y-69941612D01*
X6330273Y-69977197D01*
X6330273Y-69977197D01*
G37*
G36*
X207594908Y-62226229D02*
G01*
X207812908Y-62316528D01*
X207967057Y-62380378D01*
X208301982Y-62604168D01*
X208586811Y-62888997D01*
X208810601Y-63223922D01*
X208843499Y-63303345D01*
X208964750Y-63596071D01*
X209043334Y-63991139D01*
X209043334Y-64393951D01*
X208964750Y-64789019D01*
X208917602Y-64902844D01*
X208810601Y-65161168D01*
X208586811Y-65496093D01*
X208301982Y-65780922D01*
X207967057Y-66004712D01*
X207812908Y-66068562D01*
X207594908Y-66158861D01*
X207199840Y-66237445D01*
X206797028Y-66237445D01*
X206401960Y-66158861D01*
X206183960Y-66068562D01*
X206029811Y-66004712D01*
X205694886Y-65780922D01*
X205410057Y-65496093D01*
X205186267Y-65161168D01*
X205079266Y-64902844D01*
X205032118Y-64789019D01*
X204953534Y-64393951D01*
X204953534Y-63991139D01*
X205032118Y-63596071D01*
X205153369Y-63303345D01*
X205186267Y-63223922D01*
X205410057Y-62888997D01*
X205694886Y-62604168D01*
X206029811Y-62380378D01*
X206183960Y-62316528D01*
X206401960Y-62226229D01*
X206797028Y-62147645D01*
X207199840Y-62147645D01*
X207594908Y-62226229D01*
X207594908Y-62226229D01*
G37*
G36*
X108560409Y-62220443D02*
G01*
X108778409Y-62310742D01*
X108932558Y-62374592D01*
X109267483Y-62598382D01*
X109552312Y-62883211D01*
X109776102Y-63218136D01*
X109839952Y-63372285D01*
X109930251Y-63590285D01*
X110008835Y-63985353D01*
X110008835Y-64388165D01*
X109930251Y-64783233D01*
X109883103Y-64897058D01*
X109776102Y-65155382D01*
X109552312Y-65490307D01*
X109267483Y-65775136D01*
X108932558Y-65998926D01*
X108778409Y-66062776D01*
X108560409Y-66153075D01*
X108165341Y-66231659D01*
X107762529Y-66231659D01*
X107367461Y-66153075D01*
X107149461Y-66062776D01*
X106995312Y-65998926D01*
X106660387Y-65775136D01*
X106375558Y-65490307D01*
X106151768Y-65155382D01*
X106044767Y-64897058D01*
X105997619Y-64783233D01*
X105919035Y-64388165D01*
X105919035Y-63985353D01*
X105997619Y-63590285D01*
X106087918Y-63372285D01*
X106151768Y-63218136D01*
X106375558Y-62883211D01*
X106660387Y-62598382D01*
X106995312Y-62374592D01*
X107149461Y-62310742D01*
X107367461Y-62220443D01*
X107762529Y-62141859D01*
X108165341Y-62141859D01*
X108560409Y-62220443D01*
X108560409Y-62220443D01*
G37*
G36*
X202226404Y-63921226D02*
G01*
X202394926Y-63991030D01*
X202546591Y-64092369D01*
X202675572Y-64221350D01*
X202776911Y-64373015D01*
X202846715Y-64541537D01*
X202882300Y-64720438D01*
X202882300Y-64902844D01*
X202846715Y-65081745D01*
X202776911Y-65250267D01*
X202675572Y-65401932D01*
X202546591Y-65530913D01*
X202394926Y-65632252D01*
X202226404Y-65702056D01*
X202047503Y-65737641D01*
X201865097Y-65737641D01*
X201686196Y-65702056D01*
X201517674Y-65632252D01*
X201366009Y-65530913D01*
X201237028Y-65401932D01*
X201135689Y-65250267D01*
X201065885Y-65081745D01*
X201030300Y-64902844D01*
X201030300Y-64720438D01*
X201065885Y-64541537D01*
X201135689Y-64373015D01*
X201237028Y-64221350D01*
X201366009Y-64092369D01*
X201517674Y-63991030D01*
X201686196Y-63921226D01*
X201865097Y-63885641D01*
X202047503Y-63885641D01*
X202226404Y-63921226D01*
X202226404Y-63921226D01*
G37*
G36*
X113276173Y-63915440D02*
G01*
X113444695Y-63985244D01*
X113596360Y-64086583D01*
X113725341Y-64215564D01*
X113826680Y-64367229D01*
X113896484Y-64535751D01*
X113932069Y-64714652D01*
X113932069Y-64897058D01*
X113896484Y-65075959D01*
X113826680Y-65244481D01*
X113725341Y-65396146D01*
X113596360Y-65525127D01*
X113444695Y-65626466D01*
X113276173Y-65696270D01*
X113097272Y-65731855D01*
X112914866Y-65731855D01*
X112735965Y-65696270D01*
X112567443Y-65626466D01*
X112415778Y-65525127D01*
X112286797Y-65396146D01*
X112185458Y-65244481D01*
X112115654Y-65075959D01*
X112080069Y-64897058D01*
X112080069Y-64714652D01*
X112115654Y-64535751D01*
X112185458Y-64367229D01*
X112286797Y-64215564D01*
X112415778Y-64086583D01*
X112567443Y-63985244D01*
X112735965Y-63915440D01*
X112914866Y-63879855D01*
X113097272Y-63879855D01*
X113276173Y-63915440D01*
X113276173Y-63915440D01*
G37*
G36*
X212310672Y-62683034D02*
G01*
X212479194Y-62752838D01*
X212630859Y-62854177D01*
X212759840Y-62983158D01*
X212861179Y-63134823D01*
X212930983Y-63303345D01*
X212966568Y-63482246D01*
X212966568Y-63664652D01*
X212930983Y-63843553D01*
X212861179Y-64012075D01*
X212759840Y-64163740D01*
X212630859Y-64292721D01*
X212479194Y-64394060D01*
X212310672Y-64463864D01*
X212131771Y-64499449D01*
X211949365Y-64499449D01*
X211770464Y-64463864D01*
X211601942Y-64394060D01*
X211450277Y-64292721D01*
X211321296Y-64163740D01*
X211219957Y-64012075D01*
X211150153Y-63843553D01*
X211114568Y-63664652D01*
X211114568Y-63482246D01*
X211150153Y-63303345D01*
X211219957Y-63134823D01*
X211321296Y-62983158D01*
X211450277Y-62854177D01*
X211601942Y-62752838D01*
X211770464Y-62683034D01*
X211949365Y-62647449D01*
X212131771Y-62647449D01*
X212310672Y-62683034D01*
X212310672Y-62683034D01*
G37*
G36*
X103191905Y-62677248D02*
G01*
X103360427Y-62747052D01*
X103512092Y-62848391D01*
X103641073Y-62977372D01*
X103742412Y-63129037D01*
X103812216Y-63297559D01*
X103847801Y-63476460D01*
X103847801Y-63658866D01*
X103812216Y-63837767D01*
X103742412Y-64006289D01*
X103641073Y-64157954D01*
X103512092Y-64286935D01*
X103360427Y-64388274D01*
X103191905Y-64458078D01*
X103013004Y-64493663D01*
X102830598Y-64493663D01*
X102651697Y-64458078D01*
X102483175Y-64388274D01*
X102331510Y-64286935D01*
X102202529Y-64157954D01*
X102101190Y-64006289D01*
X102031386Y-63837767D01*
X101995801Y-63658866D01*
X101995801Y-63476460D01*
X102031386Y-63297559D01*
X102101190Y-63129037D01*
X102202529Y-62977372D01*
X102331510Y-62848391D01*
X102483175Y-62747052D01*
X102651697Y-62677248D01*
X102830598Y-62641663D01*
X103013004Y-62641663D01*
X103191905Y-62677248D01*
X103191905Y-62677248D01*
G37*
G36*
X226502912Y-59904618D02*
G01*
X226712366Y-59991377D01*
X226875061Y-60058767D01*
X227209986Y-60282557D01*
X227494815Y-60567386D01*
X227718605Y-60902311D01*
X227751503Y-60981734D01*
X227872754Y-61274460D01*
X227951338Y-61669528D01*
X227951338Y-62072340D01*
X227872754Y-62467408D01*
X227816106Y-62604168D01*
X227718605Y-62839557D01*
X227494815Y-63174482D01*
X227209986Y-63459311D01*
X226875061Y-63683101D01*
X226720912Y-63746951D01*
X226502912Y-63837250D01*
X226107844Y-63915834D01*
X225705032Y-63915834D01*
X225309964Y-63837250D01*
X225091964Y-63746951D01*
X224937815Y-63683101D01*
X224602890Y-63459311D01*
X224318061Y-63174482D01*
X224094271Y-62839557D01*
X223996770Y-62604168D01*
X223940122Y-62467408D01*
X223861538Y-62072340D01*
X223861538Y-61669528D01*
X223940122Y-61274460D01*
X224061373Y-60981734D01*
X224094271Y-60902311D01*
X224318061Y-60567386D01*
X224602890Y-60282557D01*
X224937815Y-60058767D01*
X225100510Y-59991377D01*
X225309964Y-59904618D01*
X225705032Y-59826034D01*
X226107844Y-59826034D01*
X226502912Y-59904618D01*
X226502912Y-59904618D01*
G37*
G36*
X89652404Y-59898832D02*
G01*
X89870404Y-59989131D01*
X90024553Y-60052981D01*
X90359478Y-60276771D01*
X90644307Y-60561600D01*
X90868097Y-60896525D01*
X90931947Y-61050674D01*
X91022246Y-61268674D01*
X91100830Y-61663742D01*
X91100830Y-62066554D01*
X91022246Y-62461622D01*
X90975098Y-62575447D01*
X90868097Y-62833771D01*
X90644307Y-63168696D01*
X90359478Y-63453525D01*
X90024553Y-63677315D01*
X89870404Y-63741165D01*
X89652404Y-63831464D01*
X89257336Y-63910048D01*
X88854524Y-63910048D01*
X88459456Y-63831464D01*
X88241456Y-63741165D01*
X88087307Y-63677315D01*
X87752382Y-63453525D01*
X87467553Y-63168696D01*
X87243763Y-62833771D01*
X87136762Y-62575447D01*
X87089614Y-62461622D01*
X87011030Y-62066554D01*
X87011030Y-61663742D01*
X87089614Y-61268674D01*
X87179913Y-61050674D01*
X87243763Y-60896525D01*
X87467553Y-60561600D01*
X87752382Y-60276771D01*
X88087307Y-60052981D01*
X88241456Y-59989131D01*
X88459456Y-59898832D01*
X88854524Y-59820248D01*
X89257336Y-59820248D01*
X89652404Y-59898832D01*
X89652404Y-59898832D01*
G37*
G36*
X221134408Y-61599615D02*
G01*
X221302930Y-61669419D01*
X221454595Y-61770758D01*
X221583576Y-61899739D01*
X221684915Y-62051404D01*
X221754719Y-62219926D01*
X221790304Y-62398827D01*
X221790304Y-62581233D01*
X221754719Y-62760134D01*
X221684915Y-62928656D01*
X221583576Y-63080321D01*
X221454595Y-63209302D01*
X221302930Y-63310641D01*
X221134408Y-63380445D01*
X220955507Y-63416030D01*
X220773101Y-63416030D01*
X220594200Y-63380445D01*
X220425678Y-63310641D01*
X220274013Y-63209302D01*
X220145032Y-63080321D01*
X220043693Y-62928656D01*
X219973889Y-62760134D01*
X219938304Y-62581233D01*
X219938304Y-62398827D01*
X219973889Y-62219926D01*
X220043693Y-62051404D01*
X220145032Y-61899739D01*
X220274013Y-61770758D01*
X220425678Y-61669419D01*
X220594200Y-61599615D01*
X220773101Y-61564030D01*
X220955507Y-61564030D01*
X221134408Y-61599615D01*
X221134408Y-61599615D01*
G37*
G36*
X94368168Y-61593829D02*
G01*
X94536690Y-61663633D01*
X94688355Y-61764972D01*
X94817336Y-61893953D01*
X94918675Y-62045618D01*
X94988479Y-62214140D01*
X95024064Y-62393041D01*
X95024064Y-62575447D01*
X94988479Y-62754348D01*
X94918675Y-62922870D01*
X94817336Y-63074535D01*
X94688355Y-63203516D01*
X94536690Y-63304855D01*
X94368168Y-63374659D01*
X94189267Y-63410244D01*
X94006861Y-63410244D01*
X93827960Y-63374659D01*
X93659438Y-63304855D01*
X93507773Y-63203516D01*
X93378792Y-63074535D01*
X93277453Y-62922870D01*
X93207649Y-62754348D01*
X93172064Y-62575447D01*
X93172064Y-62393041D01*
X93207649Y-62214140D01*
X93277453Y-62045618D01*
X93378792Y-61893953D01*
X93507773Y-61764972D01*
X93659438Y-61663633D01*
X93827960Y-61593829D01*
X94006861Y-61558244D01*
X94189267Y-61558244D01*
X94368168Y-61593829D01*
X94368168Y-61593829D01*
G37*
G36*
X158076474Y-58993684D02*
G01*
X158187998Y-59039879D01*
X158448623Y-59147833D01*
X158783548Y-59371623D01*
X159068377Y-59656452D01*
X159292167Y-59991377D01*
X159353475Y-60139389D01*
X159446316Y-60363526D01*
X159524900Y-60758594D01*
X159524900Y-61161406D01*
X159446316Y-61556474D01*
X159395451Y-61679272D01*
X159292167Y-61928623D01*
X159068377Y-62263548D01*
X158783548Y-62548377D01*
X158448623Y-62772167D01*
X158299899Y-62833770D01*
X158076474Y-62926316D01*
X157681406Y-63004900D01*
X157278594Y-63004900D01*
X156883526Y-62926316D01*
X156660101Y-62833770D01*
X156511377Y-62772167D01*
X156176452Y-62548377D01*
X155891623Y-62263548D01*
X155667833Y-61928623D01*
X155564549Y-61679272D01*
X155513684Y-61556474D01*
X155435100Y-61161406D01*
X155435100Y-60758594D01*
X155513684Y-60363526D01*
X155606525Y-60139389D01*
X155667833Y-59991377D01*
X155891623Y-59656452D01*
X156176452Y-59371623D01*
X156511377Y-59147833D01*
X156772002Y-59039879D01*
X156883526Y-58993684D01*
X157278594Y-58915100D01*
X157681406Y-58915100D01*
X158076474Y-58993684D01*
X158076474Y-58993684D01*
G37*
G36*
X139026474Y-58993684D02*
G01*
X139137998Y-59039879D01*
X139398623Y-59147833D01*
X139733548Y-59371623D01*
X140018377Y-59656452D01*
X140242167Y-59991377D01*
X140303475Y-60139389D01*
X140396316Y-60363526D01*
X140474900Y-60758594D01*
X140474900Y-61161406D01*
X140396316Y-61556474D01*
X140345451Y-61679272D01*
X140242167Y-61928623D01*
X140018377Y-62263548D01*
X139733548Y-62548377D01*
X139398623Y-62772167D01*
X139249899Y-62833770D01*
X139026474Y-62926316D01*
X138631406Y-63004900D01*
X138228594Y-63004900D01*
X137833526Y-62926316D01*
X137610101Y-62833770D01*
X137461377Y-62772167D01*
X137126452Y-62548377D01*
X136841623Y-62263548D01*
X136617833Y-61928623D01*
X136514549Y-61679272D01*
X136463684Y-61556474D01*
X136385100Y-61161406D01*
X136385100Y-60758594D01*
X136463684Y-60363526D01*
X136556525Y-60139389D01*
X136617833Y-59991377D01*
X136841623Y-59656452D01*
X137126452Y-59371623D01*
X137461377Y-59147833D01*
X137722002Y-59039879D01*
X137833526Y-58993684D01*
X138228594Y-58915100D01*
X138631406Y-58915100D01*
X139026474Y-58993684D01*
X139026474Y-58993684D01*
G37*
G36*
X177126474Y-58993684D02*
G01*
X177237998Y-59039879D01*
X177498623Y-59147833D01*
X177833548Y-59371623D01*
X178118377Y-59656452D01*
X178342167Y-59991377D01*
X178403475Y-60139389D01*
X178496316Y-60363526D01*
X178574900Y-60758594D01*
X178574900Y-61161406D01*
X178496316Y-61556474D01*
X178445451Y-61679272D01*
X178342167Y-61928623D01*
X178118377Y-62263548D01*
X177833548Y-62548377D01*
X177498623Y-62772167D01*
X177349899Y-62833770D01*
X177126474Y-62926316D01*
X176731406Y-63004900D01*
X176328594Y-63004900D01*
X175933526Y-62926316D01*
X175710101Y-62833770D01*
X175561377Y-62772167D01*
X175226452Y-62548377D01*
X174941623Y-62263548D01*
X174717833Y-61928623D01*
X174614549Y-61679272D01*
X174563684Y-61556474D01*
X174485100Y-61161406D01*
X174485100Y-60758594D01*
X174563684Y-60363526D01*
X174656525Y-60139389D01*
X174717833Y-59991377D01*
X174941623Y-59656452D01*
X175226452Y-59371623D01*
X175561377Y-59147833D01*
X175822002Y-59039879D01*
X175933526Y-58993684D01*
X176328594Y-58915100D01*
X176731406Y-58915100D01*
X177126474Y-58993684D01*
X177126474Y-58993684D01*
G37*
G36*
X231218676Y-60361423D02*
G01*
X231387198Y-60431227D01*
X231538863Y-60532566D01*
X231667844Y-60661547D01*
X231769183Y-60813212D01*
X231838987Y-60981734D01*
X231874572Y-61160635D01*
X231874572Y-61343041D01*
X231838987Y-61521942D01*
X231769183Y-61690464D01*
X231667844Y-61842129D01*
X231538863Y-61971110D01*
X231387198Y-62072449D01*
X231218676Y-62142253D01*
X231039775Y-62177838D01*
X230857369Y-62177838D01*
X230678468Y-62142253D01*
X230509946Y-62072449D01*
X230358281Y-61971110D01*
X230229300Y-61842129D01*
X230127961Y-61690464D01*
X230058157Y-61521942D01*
X230022572Y-61343041D01*
X230022572Y-61160635D01*
X230058157Y-60981734D01*
X230127961Y-60813212D01*
X230229300Y-60661547D01*
X230358281Y-60532566D01*
X230509946Y-60431227D01*
X230678468Y-60361423D01*
X230857369Y-60325838D01*
X231039775Y-60325838D01*
X231218676Y-60361423D01*
X231218676Y-60361423D01*
G37*
G36*
X84283900Y-60355637D02*
G01*
X84452422Y-60425441D01*
X84604087Y-60526780D01*
X84733068Y-60655761D01*
X84834407Y-60807426D01*
X84904211Y-60975948D01*
X84939796Y-61154849D01*
X84939796Y-61337255D01*
X84904211Y-61516156D01*
X84834407Y-61684678D01*
X84733068Y-61836343D01*
X84604087Y-61965324D01*
X84452422Y-62066663D01*
X84283900Y-62136467D01*
X84104999Y-62172052D01*
X83922593Y-62172052D01*
X83743692Y-62136467D01*
X83575170Y-62066663D01*
X83423505Y-61965324D01*
X83294524Y-61836343D01*
X83193185Y-61684678D01*
X83123381Y-61516156D01*
X83087796Y-61337255D01*
X83087796Y-61154849D01*
X83123381Y-60975948D01*
X83193185Y-60807426D01*
X83294524Y-60655761D01*
X83423505Y-60526780D01*
X83575170Y-60425441D01*
X83743692Y-60355637D01*
X83922593Y-60320052D01*
X84104999Y-60320052D01*
X84283900Y-60355637D01*
X84283900Y-60355637D01*
G37*
G36*
X162830104Y-60069585D02*
G01*
X162998626Y-60139389D01*
X163150291Y-60240728D01*
X163279272Y-60369709D01*
X163380611Y-60521374D01*
X163450415Y-60689896D01*
X163486000Y-60868797D01*
X163486000Y-61051203D01*
X163450415Y-61230104D01*
X163380611Y-61398626D01*
X163279272Y-61550291D01*
X163150291Y-61679272D01*
X162998626Y-61780611D01*
X162830104Y-61850415D01*
X162651203Y-61886000D01*
X162468797Y-61886000D01*
X162289896Y-61850415D01*
X162121374Y-61780611D01*
X161969709Y-61679272D01*
X161840728Y-61550291D01*
X161739389Y-61398626D01*
X161669585Y-61230104D01*
X161634000Y-61051203D01*
X161634000Y-60868797D01*
X161669585Y-60689896D01*
X161739389Y-60521374D01*
X161840728Y-60369709D01*
X161969709Y-60240728D01*
X162121374Y-60139389D01*
X162289896Y-60069585D01*
X162468797Y-60034000D01*
X162651203Y-60034000D01*
X162830104Y-60069585D01*
X162830104Y-60069585D01*
G37*
G36*
X171720104Y-60069585D02*
G01*
X171888626Y-60139389D01*
X172040291Y-60240728D01*
X172169272Y-60369709D01*
X172270611Y-60521374D01*
X172340415Y-60689896D01*
X172376000Y-60868797D01*
X172376000Y-61051203D01*
X172340415Y-61230104D01*
X172270611Y-61398626D01*
X172169272Y-61550291D01*
X172040291Y-61679272D01*
X171888626Y-61780611D01*
X171720104Y-61850415D01*
X171541203Y-61886000D01*
X171358797Y-61886000D01*
X171179896Y-61850415D01*
X171011374Y-61780611D01*
X170859709Y-61679272D01*
X170730728Y-61550291D01*
X170629389Y-61398626D01*
X170559585Y-61230104D01*
X170524000Y-61051203D01*
X170524000Y-60868797D01*
X170559585Y-60689896D01*
X170629389Y-60521374D01*
X170730728Y-60369709D01*
X170859709Y-60240728D01*
X171011374Y-60139389D01*
X171179896Y-60069585D01*
X171358797Y-60034000D01*
X171541203Y-60034000D01*
X171720104Y-60069585D01*
X171720104Y-60069585D01*
G37*
G36*
X181880104Y-60069585D02*
G01*
X182048626Y-60139389D01*
X182200291Y-60240728D01*
X182329272Y-60369709D01*
X182430611Y-60521374D01*
X182500415Y-60689896D01*
X182536000Y-60868797D01*
X182536000Y-61051203D01*
X182500415Y-61230104D01*
X182430611Y-61398626D01*
X182329272Y-61550291D01*
X182200291Y-61679272D01*
X182048626Y-61780611D01*
X181880104Y-61850415D01*
X181701203Y-61886000D01*
X181518797Y-61886000D01*
X181339896Y-61850415D01*
X181171374Y-61780611D01*
X181019709Y-61679272D01*
X180890728Y-61550291D01*
X180789389Y-61398626D01*
X180719585Y-61230104D01*
X180684000Y-61051203D01*
X180684000Y-60868797D01*
X180719585Y-60689896D01*
X180789389Y-60521374D01*
X180890728Y-60369709D01*
X181019709Y-60240728D01*
X181171374Y-60139389D01*
X181339896Y-60069585D01*
X181518797Y-60034000D01*
X181701203Y-60034000D01*
X181880104Y-60069585D01*
X181880104Y-60069585D01*
G37*
G36*
X152670104Y-60069585D02*
G01*
X152838626Y-60139389D01*
X152990291Y-60240728D01*
X153119272Y-60369709D01*
X153220611Y-60521374D01*
X153290415Y-60689896D01*
X153326000Y-60868797D01*
X153326000Y-61051203D01*
X153290415Y-61230104D01*
X153220611Y-61398626D01*
X153119272Y-61550291D01*
X152990291Y-61679272D01*
X152838626Y-61780611D01*
X152670104Y-61850415D01*
X152491203Y-61886000D01*
X152308797Y-61886000D01*
X152129896Y-61850415D01*
X151961374Y-61780611D01*
X151809709Y-61679272D01*
X151680728Y-61550291D01*
X151579389Y-61398626D01*
X151509585Y-61230104D01*
X151474000Y-61051203D01*
X151474000Y-60868797D01*
X151509585Y-60689896D01*
X151579389Y-60521374D01*
X151680728Y-60369709D01*
X151809709Y-60240728D01*
X151961374Y-60139389D01*
X152129896Y-60069585D01*
X152308797Y-60034000D01*
X152491203Y-60034000D01*
X152670104Y-60069585D01*
X152670104Y-60069585D01*
G37*
G36*
X143780104Y-60069585D02*
G01*
X143948626Y-60139389D01*
X144100291Y-60240728D01*
X144229272Y-60369709D01*
X144330611Y-60521374D01*
X144400415Y-60689896D01*
X144436000Y-60868797D01*
X144436000Y-61051203D01*
X144400415Y-61230104D01*
X144330611Y-61398626D01*
X144229272Y-61550291D01*
X144100291Y-61679272D01*
X143948626Y-61780611D01*
X143780104Y-61850415D01*
X143601203Y-61886000D01*
X143418797Y-61886000D01*
X143239896Y-61850415D01*
X143071374Y-61780611D01*
X142919709Y-61679272D01*
X142790728Y-61550291D01*
X142689389Y-61398626D01*
X142619585Y-61230104D01*
X142584000Y-61051203D01*
X142584000Y-60868797D01*
X142619585Y-60689896D01*
X142689389Y-60521374D01*
X142790728Y-60369709D01*
X142919709Y-60240728D01*
X143071374Y-60139389D01*
X143239896Y-60069585D01*
X143418797Y-60034000D01*
X143601203Y-60034000D01*
X143780104Y-60069585D01*
X143780104Y-60069585D01*
G37*
G36*
X133620104Y-60069585D02*
G01*
X133788626Y-60139389D01*
X133940291Y-60240728D01*
X134069272Y-60369709D01*
X134170611Y-60521374D01*
X134240415Y-60689896D01*
X134276000Y-60868797D01*
X134276000Y-61051203D01*
X134240415Y-61230104D01*
X134170611Y-61398626D01*
X134069272Y-61550291D01*
X133940291Y-61679272D01*
X133788626Y-61780611D01*
X133620104Y-61850415D01*
X133441203Y-61886000D01*
X133258797Y-61886000D01*
X133079896Y-61850415D01*
X132911374Y-61780611D01*
X132759709Y-61679272D01*
X132630728Y-61550291D01*
X132529389Y-61398626D01*
X132459585Y-61230104D01*
X132424000Y-61051203D01*
X132424000Y-60868797D01*
X132459585Y-60689896D01*
X132529389Y-60521374D01*
X132630728Y-60369709D01*
X132759709Y-60240728D01*
X132911374Y-60139389D01*
X133079896Y-60069585D01*
X133258797Y-60034000D01*
X133441203Y-60034000D01*
X133620104Y-60069585D01*
X133620104Y-60069585D01*
G37*
G36*
X245410917Y-57583007D02*
G01*
X245628917Y-57673306D01*
X245783066Y-57737156D01*
X246117991Y-57960946D01*
X246402820Y-58245775D01*
X246626610Y-58580700D01*
X246659508Y-58660123D01*
X246780759Y-58952849D01*
X246859343Y-59347917D01*
X246859343Y-59750729D01*
X246780759Y-60145797D01*
X246724111Y-60282557D01*
X246626610Y-60517946D01*
X246402820Y-60852871D01*
X246117991Y-61137700D01*
X245783066Y-61361490D01*
X245693411Y-61398626D01*
X245410917Y-61515639D01*
X245015849Y-61594223D01*
X244613037Y-61594223D01*
X244217969Y-61515639D01*
X243935475Y-61398626D01*
X243845820Y-61361490D01*
X243510895Y-61137700D01*
X243226066Y-60852871D01*
X243002276Y-60517946D01*
X242904775Y-60282557D01*
X242848127Y-60145797D01*
X242769543Y-59750729D01*
X242769543Y-59347917D01*
X242848127Y-58952849D01*
X242969378Y-58660123D01*
X243002276Y-58580700D01*
X243226066Y-58245775D01*
X243510895Y-57960946D01*
X243845820Y-57737156D01*
X243999969Y-57673306D01*
X244217969Y-57583007D01*
X244613037Y-57504423D01*
X245015849Y-57504423D01*
X245410917Y-57583007D01*
X245410917Y-57583007D01*
G37*
G36*
X70744400Y-57577221D02*
G01*
X70962400Y-57667520D01*
X71116549Y-57731370D01*
X71451474Y-57955160D01*
X71736303Y-58239989D01*
X71960093Y-58574914D01*
X72023943Y-58729063D01*
X72114242Y-58947063D01*
X72192826Y-59342131D01*
X72192826Y-59744943D01*
X72114242Y-60140011D01*
X72072523Y-60240729D01*
X71960093Y-60512160D01*
X71736303Y-60847085D01*
X71451474Y-61131914D01*
X71116549Y-61355704D01*
X70962400Y-61419554D01*
X70744400Y-61509853D01*
X70349332Y-61588437D01*
X69946520Y-61588437D01*
X69551452Y-61509853D01*
X69333452Y-61419554D01*
X69179303Y-61355704D01*
X68844378Y-61131914D01*
X68559549Y-60847085D01*
X68335759Y-60512160D01*
X68223329Y-60240729D01*
X68181610Y-60140011D01*
X68103026Y-59744943D01*
X68103026Y-59342131D01*
X68181610Y-58947063D01*
X68271909Y-58729063D01*
X68335759Y-58574914D01*
X68559549Y-58239989D01*
X68844378Y-57955160D01*
X69179303Y-57731370D01*
X69333452Y-57667520D01*
X69551452Y-57577221D01*
X69946520Y-57498637D01*
X70349332Y-57498637D01*
X70744400Y-57577221D01*
X70744400Y-57577221D01*
G37*
G36*
X240042413Y-59278004D02*
G01*
X240210935Y-59347808D01*
X240362600Y-59449147D01*
X240491581Y-59578128D01*
X240592920Y-59729793D01*
X240662724Y-59898315D01*
X240698309Y-60077216D01*
X240698309Y-60259622D01*
X240662724Y-60438523D01*
X240592920Y-60607045D01*
X240491581Y-60758710D01*
X240362600Y-60887691D01*
X240210935Y-60989030D01*
X240042413Y-61058834D01*
X239863512Y-61094419D01*
X239681106Y-61094419D01*
X239502205Y-61058834D01*
X239333683Y-60989030D01*
X239182018Y-60887691D01*
X239053037Y-60758710D01*
X238951698Y-60607045D01*
X238881894Y-60438523D01*
X238846309Y-60259622D01*
X238846309Y-60077216D01*
X238881894Y-59898315D01*
X238951698Y-59729793D01*
X239053037Y-59578128D01*
X239182018Y-59449147D01*
X239333683Y-59347808D01*
X239502205Y-59278004D01*
X239681106Y-59242419D01*
X239863512Y-59242419D01*
X240042413Y-59278004D01*
X240042413Y-59278004D01*
G37*
G36*
X75460164Y-59272218D02*
G01*
X75628686Y-59342022D01*
X75780351Y-59443361D01*
X75909332Y-59572342D01*
X76010671Y-59724007D01*
X76080475Y-59892529D01*
X76116060Y-60071430D01*
X76116060Y-60253836D01*
X76080475Y-60432737D01*
X76010671Y-60601259D01*
X75909332Y-60752924D01*
X75780351Y-60881905D01*
X75628686Y-60983244D01*
X75460164Y-61053048D01*
X75281263Y-61088633D01*
X75098857Y-61088633D01*
X74919956Y-61053048D01*
X74751434Y-60983244D01*
X74599769Y-60881905D01*
X74470788Y-60752924D01*
X74369449Y-60601259D01*
X74299645Y-60432737D01*
X74264060Y-60253836D01*
X74264060Y-60071430D01*
X74299645Y-59892529D01*
X74369449Y-59724007D01*
X74470788Y-59572342D01*
X74599769Y-59443361D01*
X74751434Y-59342022D01*
X74919956Y-59272218D01*
X75098857Y-59236633D01*
X75281263Y-59236633D01*
X75460164Y-59272218D01*
X75460164Y-59272218D01*
G37*
G36*
X250126681Y-58039812D02*
G01*
X250295203Y-58109616D01*
X250446868Y-58210955D01*
X250575849Y-58339936D01*
X250677188Y-58491601D01*
X250746992Y-58660123D01*
X250782577Y-58839024D01*
X250782577Y-59021430D01*
X250746992Y-59200331D01*
X250677188Y-59368853D01*
X250575849Y-59520518D01*
X250446868Y-59649499D01*
X250295203Y-59750838D01*
X250126681Y-59820642D01*
X249947780Y-59856227D01*
X249765374Y-59856227D01*
X249586473Y-59820642D01*
X249417951Y-59750838D01*
X249266286Y-59649499D01*
X249137305Y-59520518D01*
X249035966Y-59368853D01*
X248966162Y-59200331D01*
X248930577Y-59021430D01*
X248930577Y-58839024D01*
X248966162Y-58660123D01*
X249035966Y-58491601D01*
X249137305Y-58339936D01*
X249266286Y-58210955D01*
X249417951Y-58109616D01*
X249586473Y-58039812D01*
X249765374Y-58004227D01*
X249947780Y-58004227D01*
X250126681Y-58039812D01*
X250126681Y-58039812D01*
G37*
G36*
X65375896Y-58034026D02*
G01*
X65544418Y-58103830D01*
X65696083Y-58205169D01*
X65825064Y-58334150D01*
X65926403Y-58485815D01*
X65996207Y-58654337D01*
X66031792Y-58833238D01*
X66031792Y-59015644D01*
X65996207Y-59194545D01*
X65926403Y-59363067D01*
X65825064Y-59514732D01*
X65696083Y-59643713D01*
X65544418Y-59745052D01*
X65375896Y-59814856D01*
X65196995Y-59850441D01*
X65014589Y-59850441D01*
X64835688Y-59814856D01*
X64667166Y-59745052D01*
X64515501Y-59643713D01*
X64386520Y-59514732D01*
X64285181Y-59363067D01*
X64215377Y-59194545D01*
X64179792Y-59015644D01*
X64179792Y-58833238D01*
X64215377Y-58654337D01*
X64285181Y-58485815D01*
X64386520Y-58334150D01*
X64515501Y-58205169D01*
X64667166Y-58103830D01*
X64835688Y-58034026D01*
X65014589Y-57998441D01*
X65196995Y-57998441D01*
X65375896Y-58034026D01*
X65375896Y-58034026D01*
G37*
G36*
X264318921Y-55261396D02*
G01*
X264536921Y-55351695D01*
X264691070Y-55415545D01*
X265025995Y-55639335D01*
X265310824Y-55924164D01*
X265534614Y-56259089D01*
X265567512Y-56338512D01*
X265688763Y-56631238D01*
X265767347Y-57026306D01*
X265767347Y-57429118D01*
X265688763Y-57824186D01*
X265632115Y-57960946D01*
X265534614Y-58196335D01*
X265310824Y-58531260D01*
X265025995Y-58816089D01*
X264691070Y-59039879D01*
X264536921Y-59103729D01*
X264318921Y-59194028D01*
X263923853Y-59272612D01*
X263521041Y-59272612D01*
X263125973Y-59194028D01*
X262907973Y-59103729D01*
X262753824Y-59039879D01*
X262418899Y-58816089D01*
X262134070Y-58531260D01*
X261910280Y-58196335D01*
X261812779Y-57960946D01*
X261756131Y-57824186D01*
X261677547Y-57429118D01*
X261677547Y-57026306D01*
X261756131Y-56631238D01*
X261877382Y-56338512D01*
X261910280Y-56259089D01*
X262134070Y-55924164D01*
X262418899Y-55639335D01*
X262753824Y-55415545D01*
X262907973Y-55351695D01*
X263125973Y-55261396D01*
X263521041Y-55182812D01*
X263923853Y-55182812D01*
X264318921Y-55261396D01*
X264318921Y-55261396D01*
G37*
G36*
X51836396Y-55255610D02*
G01*
X52054396Y-55345909D01*
X52208545Y-55409759D01*
X52543470Y-55633549D01*
X52828299Y-55918378D01*
X53052089Y-56253303D01*
X53115939Y-56407452D01*
X53206238Y-56625452D01*
X53284822Y-57020520D01*
X53284822Y-57423332D01*
X53206238Y-57818400D01*
X53159090Y-57932225D01*
X53052089Y-58190549D01*
X52828299Y-58525474D01*
X52543470Y-58810303D01*
X52208545Y-59034093D01*
X52054396Y-59097943D01*
X51836396Y-59188242D01*
X51441328Y-59266826D01*
X51038516Y-59266826D01*
X50643448Y-59188242D01*
X50425448Y-59097943D01*
X50271299Y-59034093D01*
X49936374Y-58810303D01*
X49651545Y-58525474D01*
X49427755Y-58190549D01*
X49320754Y-57932225D01*
X49273606Y-57818400D01*
X49195022Y-57423332D01*
X49195022Y-57020520D01*
X49273606Y-56625452D01*
X49363905Y-56407452D01*
X49427755Y-56253303D01*
X49651545Y-55918378D01*
X49936374Y-55633549D01*
X50271299Y-55409759D01*
X50425448Y-55345909D01*
X50643448Y-55255610D01*
X51038516Y-55177026D01*
X51441328Y-55177026D01*
X51836396Y-55255610D01*
X51836396Y-55255610D01*
G37*
G36*
X258950417Y-56956393D02*
G01*
X259118939Y-57026197D01*
X259270604Y-57127536D01*
X259399585Y-57256517D01*
X259500924Y-57408182D01*
X259570728Y-57576704D01*
X259606313Y-57755605D01*
X259606313Y-57938011D01*
X259570728Y-58116912D01*
X259500924Y-58285434D01*
X259399585Y-58437099D01*
X259270604Y-58566080D01*
X259118939Y-58667419D01*
X258950417Y-58737223D01*
X258771516Y-58772808D01*
X258589110Y-58772808D01*
X258410209Y-58737223D01*
X258241687Y-58667419D01*
X258090022Y-58566080D01*
X257961041Y-58437099D01*
X257859702Y-58285434D01*
X257789898Y-58116912D01*
X257754313Y-57938011D01*
X257754313Y-57755605D01*
X257789898Y-57576704D01*
X257859702Y-57408182D01*
X257961041Y-57256517D01*
X258090022Y-57127536D01*
X258241687Y-57026197D01*
X258410209Y-56956393D01*
X258589110Y-56920808D01*
X258771516Y-56920808D01*
X258950417Y-56956393D01*
X258950417Y-56956393D01*
G37*
G36*
X56552160Y-56950607D02*
G01*
X56720682Y-57020411D01*
X56872347Y-57121750D01*
X57001328Y-57250731D01*
X57102667Y-57402396D01*
X57172471Y-57570918D01*
X57208056Y-57749819D01*
X57208056Y-57932225D01*
X57172471Y-58111126D01*
X57102667Y-58279648D01*
X57001328Y-58431313D01*
X56872347Y-58560294D01*
X56720682Y-58661633D01*
X56552160Y-58731437D01*
X56373259Y-58767022D01*
X56190853Y-58767022D01*
X56011952Y-58731437D01*
X55843430Y-58661633D01*
X55691765Y-58560294D01*
X55562784Y-58431313D01*
X55461445Y-58279648D01*
X55391641Y-58111126D01*
X55356056Y-57932225D01*
X55356056Y-57749819D01*
X55391641Y-57570918D01*
X55461445Y-57402396D01*
X55562784Y-57250731D01*
X55691765Y-57121750D01*
X55843430Y-57020411D01*
X56011952Y-56950607D01*
X56190853Y-56915022D01*
X56373259Y-56915022D01*
X56552160Y-56950607D01*
X56552160Y-56950607D01*
G37*
G36*
X269034685Y-55718201D02*
G01*
X269203207Y-55788005D01*
X269354872Y-55889344D01*
X269483853Y-56018325D01*
X269585192Y-56169990D01*
X269654996Y-56338512D01*
X269690581Y-56517413D01*
X269690581Y-56699819D01*
X269654996Y-56878720D01*
X269585192Y-57047242D01*
X269483853Y-57198907D01*
X269354872Y-57327888D01*
X269203207Y-57429227D01*
X269034685Y-57499031D01*
X268855784Y-57534616D01*
X268673378Y-57534616D01*
X268494477Y-57499031D01*
X268325955Y-57429227D01*
X268174290Y-57327888D01*
X268045309Y-57198907D01*
X267943970Y-57047242D01*
X267874166Y-56878720D01*
X267838581Y-56699819D01*
X267838581Y-56517413D01*
X267874166Y-56338512D01*
X267943970Y-56169990D01*
X268045309Y-56018325D01*
X268174290Y-55889344D01*
X268325955Y-55788005D01*
X268494477Y-55718201D01*
X268673378Y-55682616D01*
X268855784Y-55682616D01*
X269034685Y-55718201D01*
X269034685Y-55718201D01*
G37*
G36*
X46467892Y-55712415D02*
G01*
X46636414Y-55782219D01*
X46788079Y-55883558D01*
X46917060Y-56012539D01*
X47018399Y-56164204D01*
X47088203Y-56332726D01*
X47123788Y-56511627D01*
X47123788Y-56694033D01*
X47088203Y-56872934D01*
X47018399Y-57041456D01*
X46917060Y-57193121D01*
X46788079Y-57322102D01*
X46636414Y-57423441D01*
X46467892Y-57493245D01*
X46288991Y-57528830D01*
X46106585Y-57528830D01*
X45927684Y-57493245D01*
X45759162Y-57423441D01*
X45607497Y-57322102D01*
X45478516Y-57193121D01*
X45377177Y-57041456D01*
X45307373Y-56872934D01*
X45271788Y-56694033D01*
X45271788Y-56511627D01*
X45307373Y-56332726D01*
X45377177Y-56164204D01*
X45478516Y-56012539D01*
X45607497Y-55883558D01*
X45759162Y-55782219D01*
X45927684Y-55712415D01*
X46106585Y-55676830D01*
X46288991Y-55676830D01*
X46467892Y-55712415D01*
X46467892Y-55712415D01*
G37*
G36*
X283226925Y-52939785D02*
G01*
X283444925Y-53030084D01*
X283599074Y-53093934D01*
X283933999Y-53317724D01*
X284218828Y-53602553D01*
X284442618Y-53937478D01*
X284475516Y-54016901D01*
X284596767Y-54309627D01*
X284675351Y-54704695D01*
X284675351Y-55107507D01*
X284596767Y-55502575D01*
X284540119Y-55639335D01*
X284442618Y-55874724D01*
X284218828Y-56209649D01*
X283933999Y-56494478D01*
X283599074Y-56718268D01*
X283444925Y-56782118D01*
X283226925Y-56872417D01*
X282831857Y-56951001D01*
X282429045Y-56951001D01*
X282033977Y-56872417D01*
X281815977Y-56782118D01*
X281661828Y-56718268D01*
X281326903Y-56494478D01*
X281042074Y-56209649D01*
X280818284Y-55874724D01*
X280720783Y-55639335D01*
X280664135Y-55502575D01*
X280585551Y-55107507D01*
X280585551Y-54704695D01*
X280664135Y-54309627D01*
X280785386Y-54016901D01*
X280818284Y-53937478D01*
X281042074Y-53602553D01*
X281326903Y-53317724D01*
X281661828Y-53093934D01*
X281815977Y-53030084D01*
X282033977Y-52939785D01*
X282429045Y-52861201D01*
X282831857Y-52861201D01*
X283226925Y-52939785D01*
X283226925Y-52939785D01*
G37*
G36*
X32928392Y-52933999D02*
G01*
X33146392Y-53024298D01*
X33300541Y-53088148D01*
X33635466Y-53311938D01*
X33920295Y-53596767D01*
X34144085Y-53931692D01*
X34207935Y-54085841D01*
X34298234Y-54303841D01*
X34376818Y-54698909D01*
X34376818Y-55101721D01*
X34298234Y-55496789D01*
X34251086Y-55610614D01*
X34144085Y-55868938D01*
X33920295Y-56203863D01*
X33635466Y-56488692D01*
X33300541Y-56712482D01*
X33146392Y-56776332D01*
X32928392Y-56866631D01*
X32533324Y-56945215D01*
X32130512Y-56945215D01*
X31735444Y-56866631D01*
X31517444Y-56776332D01*
X31363295Y-56712482D01*
X31028370Y-56488692D01*
X30743541Y-56203863D01*
X30519751Y-55868938D01*
X30412750Y-55610614D01*
X30365602Y-55496789D01*
X30287018Y-55101721D01*
X30287018Y-54698909D01*
X30365602Y-54303841D01*
X30455901Y-54085841D01*
X30519751Y-53931692D01*
X30743541Y-53596767D01*
X31028370Y-53311938D01*
X31363295Y-53088148D01*
X31517444Y-53024298D01*
X31735444Y-52933999D01*
X32130512Y-52855415D01*
X32533324Y-52855415D01*
X32928392Y-52933999D01*
X32928392Y-52933999D01*
G37*
G36*
X277858421Y-54634782D02*
G01*
X278026943Y-54704586D01*
X278178608Y-54805925D01*
X278307589Y-54934906D01*
X278408928Y-55086571D01*
X278478732Y-55255093D01*
X278514317Y-55433994D01*
X278514317Y-55616400D01*
X278478732Y-55795301D01*
X278408928Y-55963823D01*
X278307589Y-56115488D01*
X278178608Y-56244469D01*
X278026943Y-56345808D01*
X277858421Y-56415612D01*
X277679520Y-56451197D01*
X277497114Y-56451197D01*
X277318213Y-56415612D01*
X277149691Y-56345808D01*
X276998026Y-56244469D01*
X276869045Y-56115488D01*
X276767706Y-55963823D01*
X276697902Y-55795301D01*
X276662317Y-55616400D01*
X276662317Y-55433994D01*
X276697902Y-55255093D01*
X276767706Y-55086571D01*
X276869045Y-54934906D01*
X276998026Y-54805925D01*
X277149691Y-54704586D01*
X277318213Y-54634782D01*
X277497114Y-54599197D01*
X277679520Y-54599197D01*
X277858421Y-54634782D01*
X277858421Y-54634782D01*
G37*
G36*
X37644156Y-54628996D02*
G01*
X37812678Y-54698800D01*
X37964343Y-54800139D01*
X38093324Y-54929120D01*
X38194663Y-55080785D01*
X38264467Y-55249307D01*
X38300052Y-55428208D01*
X38300052Y-55610614D01*
X38264467Y-55789515D01*
X38194663Y-55958037D01*
X38093324Y-56109702D01*
X37964343Y-56238683D01*
X37812678Y-56340022D01*
X37644156Y-56409826D01*
X37465255Y-56445411D01*
X37282849Y-56445411D01*
X37103948Y-56409826D01*
X36935426Y-56340022D01*
X36783761Y-56238683D01*
X36654780Y-56109702D01*
X36553441Y-55958037D01*
X36483637Y-55789515D01*
X36448052Y-55610614D01*
X36448052Y-55428208D01*
X36483637Y-55249307D01*
X36553441Y-55080785D01*
X36654780Y-54929120D01*
X36783761Y-54800139D01*
X36935426Y-54698800D01*
X37103948Y-54628996D01*
X37282849Y-54593411D01*
X37465255Y-54593411D01*
X37644156Y-54628996D01*
X37644156Y-54628996D01*
G37*
G36*
X287942689Y-53396590D02*
G01*
X288111211Y-53466394D01*
X288262876Y-53567733D01*
X288391857Y-53696714D01*
X288493196Y-53848379D01*
X288563000Y-54016901D01*
X288598585Y-54195802D01*
X288598585Y-54378208D01*
X288563000Y-54557109D01*
X288493196Y-54725631D01*
X288391857Y-54877296D01*
X288262876Y-55006277D01*
X288111211Y-55107616D01*
X287942689Y-55177420D01*
X287763788Y-55213005D01*
X287581382Y-55213005D01*
X287402481Y-55177420D01*
X287233959Y-55107616D01*
X287082294Y-55006277D01*
X286953313Y-54877296D01*
X286851974Y-54725631D01*
X286782170Y-54557109D01*
X286746585Y-54378208D01*
X286746585Y-54195802D01*
X286782170Y-54016901D01*
X286851974Y-53848379D01*
X286953313Y-53696714D01*
X287082294Y-53567733D01*
X287233959Y-53466394D01*
X287402481Y-53396590D01*
X287581382Y-53361005D01*
X287763788Y-53361005D01*
X287942689Y-53396590D01*
X287942689Y-53396590D01*
G37*
G36*
X27559888Y-53390804D02*
G01*
X27728410Y-53460608D01*
X27880075Y-53561947D01*
X28009056Y-53690928D01*
X28110395Y-53842593D01*
X28180199Y-54011115D01*
X28215784Y-54190016D01*
X28215784Y-54372422D01*
X28180199Y-54551323D01*
X28110395Y-54719845D01*
X28009056Y-54871510D01*
X27880075Y-55000491D01*
X27728410Y-55101830D01*
X27559888Y-55171634D01*
X27380987Y-55207219D01*
X27198581Y-55207219D01*
X27019680Y-55171634D01*
X26851158Y-55101830D01*
X26699493Y-55000491D01*
X26570512Y-54871510D01*
X26469173Y-54719845D01*
X26399369Y-54551323D01*
X26363784Y-54372422D01*
X26363784Y-54190016D01*
X26399369Y-54011115D01*
X26469173Y-53842593D01*
X26570512Y-53690928D01*
X26699493Y-53561947D01*
X26851158Y-53460608D01*
X27019680Y-53390804D01*
X27198581Y-53355219D01*
X27380987Y-53355219D01*
X27559888Y-53390804D01*
X27559888Y-53390804D01*
G37*
G36*
X302134929Y-50618174D02*
G01*
X302352929Y-50708473D01*
X302507078Y-50772323D01*
X302842003Y-50996113D01*
X303126832Y-51280942D01*
X303350622Y-51615867D01*
X303383520Y-51695290D01*
X303504771Y-51988016D01*
X303583355Y-52383084D01*
X303583355Y-52785896D01*
X303504771Y-53180964D01*
X303448123Y-53317724D01*
X303350622Y-53553113D01*
X303126832Y-53888038D01*
X302842003Y-54172867D01*
X302507078Y-54396657D01*
X302352929Y-54460507D01*
X302134929Y-54550806D01*
X301739861Y-54629390D01*
X301337049Y-54629390D01*
X300941981Y-54550806D01*
X300723981Y-54460507D01*
X300569832Y-54396657D01*
X300234907Y-54172867D01*
X299950078Y-53888038D01*
X299726288Y-53553113D01*
X299628787Y-53317724D01*
X299572139Y-53180964D01*
X299493555Y-52785896D01*
X299493555Y-52383084D01*
X299572139Y-51988016D01*
X299693390Y-51695290D01*
X299726288Y-51615867D01*
X299950078Y-51280942D01*
X300234907Y-50996113D01*
X300569832Y-50772323D01*
X300723981Y-50708473D01*
X300941981Y-50618174D01*
X301337049Y-50539590D01*
X301739861Y-50539590D01*
X302134929Y-50618174D01*
X302134929Y-50618174D01*
G37*
G36*
X14020388Y-50612388D02*
G01*
X14238388Y-50702687D01*
X14392537Y-50766537D01*
X14727462Y-50990327D01*
X15012291Y-51275156D01*
X15236081Y-51610081D01*
X15271376Y-51695291D01*
X15390230Y-51982230D01*
X15468814Y-52377298D01*
X15468814Y-52780110D01*
X15390230Y-53175178D01*
X15343082Y-53289003D01*
X15236081Y-53547327D01*
X15012291Y-53882252D01*
X14727462Y-54167081D01*
X14392537Y-54390871D01*
X14238388Y-54454721D01*
X14020388Y-54545020D01*
X13625320Y-54623604D01*
X13222508Y-54623604D01*
X12827440Y-54545020D01*
X12609440Y-54454721D01*
X12455291Y-54390871D01*
X12120366Y-54167081D01*
X11835537Y-53882252D01*
X11611747Y-53547327D01*
X11504746Y-53289003D01*
X11457598Y-53175178D01*
X11379014Y-52780110D01*
X11379014Y-52377298D01*
X11457598Y-51982230D01*
X11576452Y-51695291D01*
X11611747Y-51610081D01*
X11835537Y-51275156D01*
X12120366Y-50990327D01*
X12455291Y-50766537D01*
X12609440Y-50702687D01*
X12827440Y-50612388D01*
X13222508Y-50533804D01*
X13625320Y-50533804D01*
X14020388Y-50612388D01*
X14020388Y-50612388D01*
G37*
G36*
X296766425Y-52313171D02*
G01*
X296934947Y-52382975D01*
X297086612Y-52484314D01*
X297215593Y-52613295D01*
X297316932Y-52764960D01*
X297386736Y-52933482D01*
X297422321Y-53112383D01*
X297422321Y-53294789D01*
X297386736Y-53473690D01*
X297316932Y-53642212D01*
X297215593Y-53793877D01*
X297086612Y-53922858D01*
X296934947Y-54024197D01*
X296766425Y-54094001D01*
X296587524Y-54129586D01*
X296405118Y-54129586D01*
X296226217Y-54094001D01*
X296057695Y-54024197D01*
X295906030Y-53922858D01*
X295777049Y-53793877D01*
X295675710Y-53642212D01*
X295605906Y-53473690D01*
X295570321Y-53294789D01*
X295570321Y-53112383D01*
X295605906Y-52933482D01*
X295675710Y-52764960D01*
X295777049Y-52613295D01*
X295906030Y-52484314D01*
X296057695Y-52382975D01*
X296226217Y-52313171D01*
X296405118Y-52277586D01*
X296587524Y-52277586D01*
X296766425Y-52313171D01*
X296766425Y-52313171D01*
G37*
G36*
X18736152Y-52307385D02*
G01*
X18904674Y-52377189D01*
X19056339Y-52478528D01*
X19185320Y-52607509D01*
X19286659Y-52759174D01*
X19356463Y-52927696D01*
X19392048Y-53106597D01*
X19392048Y-53289003D01*
X19356463Y-53467904D01*
X19286659Y-53636426D01*
X19185320Y-53788091D01*
X19056339Y-53917072D01*
X18904674Y-54018411D01*
X18736152Y-54088215D01*
X18557251Y-54123800D01*
X18374845Y-54123800D01*
X18195944Y-54088215D01*
X18027422Y-54018411D01*
X17875757Y-53917072D01*
X17746776Y-53788091D01*
X17645437Y-53636426D01*
X17575633Y-53467904D01*
X17540048Y-53289003D01*
X17540048Y-53106597D01*
X17575633Y-52927696D01*
X17645437Y-52759174D01*
X17746776Y-52607509D01*
X17875757Y-52478528D01*
X18027422Y-52377189D01*
X18195944Y-52307385D01*
X18374845Y-52271800D01*
X18557251Y-52271800D01*
X18736152Y-52307385D01*
X18736152Y-52307385D01*
G37*
G36*
X306850693Y-51074979D02*
G01*
X307019215Y-51144783D01*
X307170880Y-51246122D01*
X307299861Y-51375103D01*
X307401200Y-51526768D01*
X307471004Y-51695290D01*
X307506589Y-51874191D01*
X307506589Y-52056597D01*
X307471004Y-52235498D01*
X307401200Y-52404020D01*
X307299861Y-52555685D01*
X307170880Y-52684666D01*
X307019215Y-52786005D01*
X306850693Y-52855809D01*
X306671792Y-52891394D01*
X306489386Y-52891394D01*
X306310485Y-52855809D01*
X306141963Y-52786005D01*
X305990298Y-52684666D01*
X305861317Y-52555685D01*
X305759978Y-52404020D01*
X305690174Y-52235498D01*
X305654589Y-52056597D01*
X305654589Y-51874191D01*
X305690174Y-51695290D01*
X305759978Y-51526768D01*
X305861317Y-51375103D01*
X305990298Y-51246122D01*
X306141963Y-51144783D01*
X306310485Y-51074979D01*
X306489386Y-51039394D01*
X306671792Y-51039394D01*
X306850693Y-51074979D01*
X306850693Y-51074979D01*
G37*
G36*
X8651884Y-51069193D02*
G01*
X8820406Y-51138997D01*
X8972071Y-51240336D01*
X9101052Y-51369317D01*
X9202391Y-51520982D01*
X9272195Y-51689504D01*
X9307780Y-51868405D01*
X9307780Y-52050811D01*
X9272195Y-52229712D01*
X9202391Y-52398234D01*
X9101052Y-52549899D01*
X8972071Y-52678880D01*
X8820406Y-52780219D01*
X8651884Y-52850023D01*
X8472983Y-52885608D01*
X8290577Y-52885608D01*
X8111676Y-52850023D01*
X7943154Y-52780219D01*
X7791489Y-52678880D01*
X7662508Y-52549899D01*
X7561169Y-52398234D01*
X7491365Y-52229712D01*
X7455780Y-52050811D01*
X7455780Y-51868405D01*
X7491365Y-51689504D01*
X7561169Y-51520982D01*
X7662508Y-51369317D01*
X7791489Y-51240336D01*
X7943154Y-51138997D01*
X8111676Y-51069193D01*
X8290577Y-51033608D01*
X8472983Y-51033608D01*
X8651884Y-51069193D01*
X8651884Y-51069193D01*
G37*
G36*
X158076474Y-39943684D02*
G01*
X158294474Y-40033983D01*
X158448623Y-40097833D01*
X158783548Y-40321623D01*
X159068377Y-40606452D01*
X159292167Y-40941377D01*
X159324562Y-41019586D01*
X159446316Y-41313526D01*
X159524900Y-41708594D01*
X159524900Y-42111406D01*
X159446316Y-42506474D01*
X159395451Y-42629272D01*
X159292167Y-42878623D01*
X159068377Y-43213548D01*
X158783548Y-43498377D01*
X158448623Y-43722167D01*
X158294474Y-43786017D01*
X158076474Y-43876316D01*
X157681406Y-43954900D01*
X157278594Y-43954900D01*
X156883526Y-43876316D01*
X156665526Y-43786017D01*
X156511377Y-43722167D01*
X156176452Y-43498377D01*
X155891623Y-43213548D01*
X155667833Y-42878623D01*
X155564549Y-42629272D01*
X155513684Y-42506474D01*
X155435100Y-42111406D01*
X155435100Y-41708594D01*
X155513684Y-41313526D01*
X155635438Y-41019586D01*
X155667833Y-40941377D01*
X155891623Y-40606452D01*
X156176452Y-40321623D01*
X156511377Y-40097833D01*
X156665526Y-40033983D01*
X156883526Y-39943684D01*
X157278594Y-39865100D01*
X157681406Y-39865100D01*
X158076474Y-39943684D01*
X158076474Y-39943684D01*
G37*
G36*
X139026474Y-39943684D02*
G01*
X139244474Y-40033983D01*
X139398623Y-40097833D01*
X139733548Y-40321623D01*
X140018377Y-40606452D01*
X140242167Y-40941377D01*
X140274562Y-41019586D01*
X140396316Y-41313526D01*
X140474900Y-41708594D01*
X140474900Y-42111406D01*
X140396316Y-42506474D01*
X140345451Y-42629272D01*
X140242167Y-42878623D01*
X140018377Y-43213548D01*
X139733548Y-43498377D01*
X139398623Y-43722167D01*
X139244474Y-43786017D01*
X139026474Y-43876316D01*
X138631406Y-43954900D01*
X138228594Y-43954900D01*
X137833526Y-43876316D01*
X137615526Y-43786017D01*
X137461377Y-43722167D01*
X137126452Y-43498377D01*
X136841623Y-43213548D01*
X136617833Y-42878623D01*
X136514549Y-42629272D01*
X136463684Y-42506474D01*
X136385100Y-42111406D01*
X136385100Y-41708594D01*
X136463684Y-41313526D01*
X136585438Y-41019586D01*
X136617833Y-40941377D01*
X136841623Y-40606452D01*
X137126452Y-40321623D01*
X137461377Y-40097833D01*
X137615526Y-40033983D01*
X137833526Y-39943684D01*
X138228594Y-39865100D01*
X138631406Y-39865100D01*
X139026474Y-39943684D01*
X139026474Y-39943684D01*
G37*
G36*
X177126474Y-39943684D02*
G01*
X177344474Y-40033983D01*
X177498623Y-40097833D01*
X177833548Y-40321623D01*
X178118377Y-40606452D01*
X178342167Y-40941377D01*
X178374562Y-41019586D01*
X178496316Y-41313526D01*
X178574900Y-41708594D01*
X178574900Y-42111406D01*
X178496316Y-42506474D01*
X178445451Y-42629272D01*
X178342167Y-42878623D01*
X178118377Y-43213548D01*
X177833548Y-43498377D01*
X177498623Y-43722167D01*
X177344474Y-43786017D01*
X177126474Y-43876316D01*
X176731406Y-43954900D01*
X176328594Y-43954900D01*
X175933526Y-43876316D01*
X175715526Y-43786017D01*
X175561377Y-43722167D01*
X175226452Y-43498377D01*
X174941623Y-43213548D01*
X174717833Y-42878623D01*
X174614549Y-42629272D01*
X174563684Y-42506474D01*
X174485100Y-42111406D01*
X174485100Y-41708594D01*
X174563684Y-41313526D01*
X174685438Y-41019586D01*
X174717833Y-40941377D01*
X174941623Y-40606452D01*
X175226452Y-40321623D01*
X175561377Y-40097833D01*
X175715526Y-40033983D01*
X175933526Y-39943684D01*
X176328594Y-39865100D01*
X176731406Y-39865100D01*
X177126474Y-39943684D01*
X177126474Y-39943684D01*
G37*
G36*
X181880104Y-41019585D02*
G01*
X182048626Y-41089389D01*
X182200291Y-41190728D01*
X182329272Y-41319709D01*
X182430611Y-41471374D01*
X182500415Y-41639896D01*
X182536000Y-41818797D01*
X182536000Y-42001203D01*
X182500415Y-42180104D01*
X182430611Y-42348626D01*
X182329272Y-42500291D01*
X182200291Y-42629272D01*
X182048626Y-42730611D01*
X181880104Y-42800415D01*
X181701203Y-42836000D01*
X181518797Y-42836000D01*
X181339896Y-42800415D01*
X181171374Y-42730611D01*
X181019709Y-42629272D01*
X180890728Y-42500291D01*
X180789389Y-42348626D01*
X180719585Y-42180104D01*
X180684000Y-42001203D01*
X180684000Y-41818797D01*
X180719585Y-41639896D01*
X180789389Y-41471374D01*
X180890728Y-41319709D01*
X181019709Y-41190728D01*
X181171374Y-41089389D01*
X181339896Y-41019585D01*
X181518797Y-40984000D01*
X181701203Y-40984000D01*
X181880104Y-41019585D01*
X181880104Y-41019585D01*
G37*
G36*
X171720104Y-41019585D02*
G01*
X171888626Y-41089389D01*
X172040291Y-41190728D01*
X172169272Y-41319709D01*
X172270611Y-41471374D01*
X172340415Y-41639896D01*
X172376000Y-41818797D01*
X172376000Y-42001203D01*
X172340415Y-42180104D01*
X172270611Y-42348626D01*
X172169272Y-42500291D01*
X172040291Y-42629272D01*
X171888626Y-42730611D01*
X171720104Y-42800415D01*
X171541203Y-42836000D01*
X171358797Y-42836000D01*
X171179896Y-42800415D01*
X171011374Y-42730611D01*
X170859709Y-42629272D01*
X170730728Y-42500291D01*
X170629389Y-42348626D01*
X170559585Y-42180104D01*
X170524000Y-42001203D01*
X170524000Y-41818797D01*
X170559585Y-41639896D01*
X170629389Y-41471374D01*
X170730728Y-41319709D01*
X170859709Y-41190728D01*
X171011374Y-41089389D01*
X171179896Y-41019585D01*
X171358797Y-40984000D01*
X171541203Y-40984000D01*
X171720104Y-41019585D01*
X171720104Y-41019585D01*
G37*
G36*
X162830104Y-41019585D02*
G01*
X162998626Y-41089389D01*
X163150291Y-41190728D01*
X163279272Y-41319709D01*
X163380611Y-41471374D01*
X163450415Y-41639896D01*
X163486000Y-41818797D01*
X163486000Y-42001203D01*
X163450415Y-42180104D01*
X163380611Y-42348626D01*
X163279272Y-42500291D01*
X163150291Y-42629272D01*
X162998626Y-42730611D01*
X162830104Y-42800415D01*
X162651203Y-42836000D01*
X162468797Y-42836000D01*
X162289896Y-42800415D01*
X162121374Y-42730611D01*
X161969709Y-42629272D01*
X161840728Y-42500291D01*
X161739389Y-42348626D01*
X161669585Y-42180104D01*
X161634000Y-42001203D01*
X161634000Y-41818797D01*
X161669585Y-41639896D01*
X161739389Y-41471374D01*
X161840728Y-41319709D01*
X161969709Y-41190728D01*
X162121374Y-41089389D01*
X162289896Y-41019585D01*
X162468797Y-40984000D01*
X162651203Y-40984000D01*
X162830104Y-41019585D01*
X162830104Y-41019585D01*
G37*
G36*
X152670104Y-41019585D02*
G01*
X152838626Y-41089389D01*
X152990291Y-41190728D01*
X153119272Y-41319709D01*
X153220611Y-41471374D01*
X153290415Y-41639896D01*
X153326000Y-41818797D01*
X153326000Y-42001203D01*
X153290415Y-42180104D01*
X153220611Y-42348626D01*
X153119272Y-42500291D01*
X152990291Y-42629272D01*
X152838626Y-42730611D01*
X152670104Y-42800415D01*
X152491203Y-42836000D01*
X152308797Y-42836000D01*
X152129896Y-42800415D01*
X151961374Y-42730611D01*
X151809709Y-42629272D01*
X151680728Y-42500291D01*
X151579389Y-42348626D01*
X151509585Y-42180104D01*
X151474000Y-42001203D01*
X151474000Y-41818797D01*
X151509585Y-41639896D01*
X151579389Y-41471374D01*
X151680728Y-41319709D01*
X151809709Y-41190728D01*
X151961374Y-41089389D01*
X152129896Y-41019585D01*
X152308797Y-40984000D01*
X152491203Y-40984000D01*
X152670104Y-41019585D01*
X152670104Y-41019585D01*
G37*
G36*
X143780104Y-41019585D02*
G01*
X143948626Y-41089389D01*
X144100291Y-41190728D01*
X144229272Y-41319709D01*
X144330611Y-41471374D01*
X144400415Y-41639896D01*
X144436000Y-41818797D01*
X144436000Y-42001203D01*
X144400415Y-42180104D01*
X144330611Y-42348626D01*
X144229272Y-42500291D01*
X144100291Y-42629272D01*
X143948626Y-42730611D01*
X143780104Y-42800415D01*
X143601203Y-42836000D01*
X143418797Y-42836000D01*
X143239896Y-42800415D01*
X143071374Y-42730611D01*
X142919709Y-42629272D01*
X142790728Y-42500291D01*
X142689389Y-42348626D01*
X142619585Y-42180104D01*
X142584000Y-42001203D01*
X142584000Y-41818797D01*
X142619585Y-41639896D01*
X142689389Y-41471374D01*
X142790728Y-41319709D01*
X142919709Y-41190728D01*
X143071374Y-41089389D01*
X143239896Y-41019585D01*
X143418797Y-40984000D01*
X143601203Y-40984000D01*
X143780104Y-41019585D01*
X143780104Y-41019585D01*
G37*
G36*
X133620104Y-41019585D02*
G01*
X133788626Y-41089389D01*
X133940291Y-41190728D01*
X134069272Y-41319709D01*
X134170611Y-41471374D01*
X134240415Y-41639896D01*
X134276000Y-41818797D01*
X134276000Y-42001203D01*
X134240415Y-42180104D01*
X134170611Y-42348626D01*
X134069272Y-42500291D01*
X133940291Y-42629272D01*
X133788626Y-42730611D01*
X133620104Y-42800415D01*
X133441203Y-42836000D01*
X133258797Y-42836000D01*
X133079896Y-42800415D01*
X132911374Y-42730611D01*
X132759709Y-42629272D01*
X132630728Y-42500291D01*
X132529389Y-42348626D01*
X132459585Y-42180104D01*
X132424000Y-42001203D01*
X132424000Y-41818797D01*
X132459585Y-41639896D01*
X132529389Y-41471374D01*
X132630728Y-41319709D01*
X132759709Y-41190728D01*
X132911374Y-41089389D01*
X133079896Y-41019585D01*
X133258797Y-40984000D01*
X133441203Y-40984000D01*
X133620104Y-41019585D01*
X133620104Y-41019585D01*
G37*
G36*
X2876627Y-34862037D02*
G01*
X3046466Y-34913557D01*
X3202991Y-34997222D01*
X3238729Y-35026552D01*
X3340186Y-35109814D01*
X3423448Y-35211271D01*
X3452778Y-35247009D01*
X3536443Y-35403534D01*
X3587963Y-35573373D01*
X3601000Y-35705742D01*
X3601000Y-36794258D01*
X3587963Y-36926627D01*
X3536443Y-37096466D01*
X3452778Y-37252991D01*
X3423448Y-37288729D01*
X3340186Y-37390186D01*
X3202989Y-37502779D01*
X3046467Y-37586442D01*
X3046465Y-37586443D01*
X2876626Y-37637963D01*
X2700000Y-37655359D01*
X2523373Y-37637963D01*
X2353534Y-37586443D01*
X2197009Y-37502778D01*
X2161271Y-37473448D01*
X2059814Y-37390186D01*
X1947221Y-37252989D01*
X1863558Y-37096467D01*
X1863557Y-37096465D01*
X1812037Y-36926626D01*
X1799000Y-36794257D01*
X1799001Y-35705742D01*
X1812038Y-35573373D01*
X1863558Y-35403534D01*
X1947223Y-35247009D01*
X1976553Y-35211271D01*
X2059815Y-35109814D01*
X2161272Y-35026552D01*
X2197010Y-34997222D01*
X2353535Y-34913557D01*
X2523374Y-34862037D01*
X2700000Y-34844641D01*
X2876627Y-34862037D01*
X2876627Y-34862037D01*
G37*
G36*
X10176627Y-34862037D02*
G01*
X10346466Y-34913557D01*
X10502991Y-34997222D01*
X10538729Y-35026552D01*
X10640186Y-35109814D01*
X10723448Y-35211271D01*
X10752778Y-35247009D01*
X10836443Y-35403534D01*
X10887963Y-35573373D01*
X10901000Y-35705742D01*
X10901000Y-36794258D01*
X10887963Y-36926627D01*
X10836443Y-37096466D01*
X10752778Y-37252991D01*
X10723448Y-37288729D01*
X10640186Y-37390186D01*
X10502989Y-37502779D01*
X10346467Y-37586442D01*
X10346465Y-37586443D01*
X10176626Y-37637963D01*
X10000000Y-37655359D01*
X9823373Y-37637963D01*
X9653534Y-37586443D01*
X9497009Y-37502778D01*
X9461271Y-37473448D01*
X9359814Y-37390186D01*
X9247221Y-37252989D01*
X9163558Y-37096467D01*
X9163557Y-37096465D01*
X9112037Y-36926626D01*
X9099000Y-36794257D01*
X9099001Y-35705742D01*
X9112038Y-35573373D01*
X9163558Y-35403534D01*
X9247223Y-35247009D01*
X9276553Y-35211271D01*
X9359815Y-35109814D01*
X9461272Y-35026552D01*
X9497010Y-34997222D01*
X9653535Y-34913557D01*
X9823374Y-34862037D01*
X10000000Y-34844641D01*
X10176627Y-34862037D01*
X10176627Y-34862037D01*
G37*
G36*
X10176627Y-30362037D02*
G01*
X10346466Y-30413557D01*
X10502991Y-30497222D01*
X10538729Y-30526552D01*
X10640186Y-30609814D01*
X10723448Y-30711271D01*
X10752778Y-30747009D01*
X10836443Y-30903534D01*
X10887963Y-31073373D01*
X10901000Y-31205742D01*
X10901000Y-32294258D01*
X10887963Y-32426627D01*
X10836443Y-32596466D01*
X10752778Y-32752991D01*
X10723448Y-32788729D01*
X10640186Y-32890186D01*
X10502989Y-33002779D01*
X10346467Y-33086442D01*
X10346465Y-33086443D01*
X10176626Y-33137963D01*
X10000000Y-33155359D01*
X9823373Y-33137963D01*
X9653534Y-33086443D01*
X9497009Y-33002778D01*
X9461271Y-32973448D01*
X9359814Y-32890186D01*
X9247221Y-32752989D01*
X9163558Y-32596467D01*
X9163557Y-32596465D01*
X9112037Y-32426626D01*
X9099000Y-32294257D01*
X9099001Y-31205742D01*
X9112038Y-31073373D01*
X9163558Y-30903534D01*
X9247223Y-30747009D01*
X9276553Y-30711271D01*
X9359815Y-30609814D01*
X9461272Y-30526552D01*
X9497010Y-30497222D01*
X9653535Y-30413557D01*
X9823374Y-30362037D01*
X10000000Y-30344641D01*
X10176627Y-30362037D01*
X10176627Y-30362037D01*
G37*
G36*
X2876627Y-30362037D02*
G01*
X3046466Y-30413557D01*
X3202991Y-30497222D01*
X3238729Y-30526552D01*
X3340186Y-30609814D01*
X3423448Y-30711271D01*
X3452778Y-30747009D01*
X3536443Y-30903534D01*
X3587963Y-31073373D01*
X3601000Y-31205742D01*
X3601000Y-32294258D01*
X3587963Y-32426627D01*
X3536443Y-32596466D01*
X3452778Y-32752991D01*
X3423448Y-32788729D01*
X3340186Y-32890186D01*
X3202989Y-33002779D01*
X3046467Y-33086442D01*
X3046465Y-33086443D01*
X2876626Y-33137963D01*
X2700000Y-33155359D01*
X2523373Y-33137963D01*
X2353534Y-33086443D01*
X2197009Y-33002778D01*
X2161271Y-32973448D01*
X2059814Y-32890186D01*
X1947221Y-32752989D01*
X1863558Y-32596467D01*
X1863557Y-32596465D01*
X1812037Y-32426626D01*
X1799000Y-32294257D01*
X1799001Y-31205742D01*
X1812038Y-31073373D01*
X1863558Y-30903534D01*
X1947223Y-30747009D01*
X1976553Y-30711271D01*
X2059815Y-30609814D01*
X2161272Y-30526552D01*
X2197010Y-30497222D01*
X2353535Y-30413557D01*
X2523374Y-30362037D01*
X2700000Y-30344641D01*
X2876627Y-30362037D01*
X2876627Y-30362037D01*
G37*
M02*
